<?xml version="1.0" encoding="utf-8"?>
<!-- Generator: Adobe Illustrator 24.0.0, SVG Export Plug-In . SVG Version: 6.00 Build 0)  -->
<svg version="1.1" id="图层_1" xmlns="http://www.w3.org/2000/svg" xmlns:xlink="http://www.w3.org/1999/xlink" x="0px" y="0px"
	 viewBox="0 0 200 200" style="enable-background:new 0 0 200 200;" xml:space="preserve">
<style type="text/css">
	.st0{fill:#EEB184;}
	.st1{fill:#EDE1D0;}
	.st2{opacity:0.2;fill:url(#SVGID_1_);enable-background:new    ;}
	.st3{fill:#0D0B0B;}
	.st4{fill:#1E1917;}
	.st5{opacity:0.5;fill:#8F8C89;enable-background:new    ;}
	.st6{fill:#D0C2AD;}
	.st7{fill:#F8C79C;}
	.st8{opacity:0.4;fill:url(#SVGID_2_);enable-background:new    ;}
	.st9{opacity:0.4;fill:url(#SVGID_3_);enable-background:new    ;}
	.st10{fill:#C22926;}
	.st11{opacity:0.5;fill:#D4AB93;enable-background:new    ;}
	.st12{opacity:0.35;fill:#AE5523;enable-background:new    ;}
	.st13{fill:#F9D4B3;}
	.st14{fill:#A58E8F;}
	.st15{opacity:0.6;fill:#D4AB93;enable-background:new    ;}
	.st16{fill:#F4B686;}
	.st17{opacity:0.35;}
	.st18{fill:#BF6C40;}
	.st19{fill:#8A3734;}
	.st20{fill:#FFF7EF;}
	.st21{fill:#E5D7C3;}
	.st22{fill:#332A25;}
	.st23{fill:#F5E9DA;}
	.st24{fill:#FFF6EA;}
	.st25{fill:url(#SVGID_4_);}
	.st26{fill:#AB1E24;}
	.st27{fill:url(#SVGID_5_);}
	.st28{fill:url(#SVGID_6_);}
	.st29{fill:#D5312D;}
	.st30{fill:#AD814F;}
	.st31{fill:url(#SVGID_7_);}
	.st32{clip-path:url(#SVGID_9_);}
	.st33{opacity:0.5;}
	.st34{fill:#BFA191;}
	.st35{fill:#FBE8C4;}
	.st36{opacity:0.75;fill:#FAE1B4;enable-background:new    ;}
	.st37{opacity:0.2;fill:url(#SVGID_10_);enable-background:new    ;}
	.st38{opacity:0.2;fill:url(#SVGID_11_);enable-background:new    ;}
	.st39{opacity:0.2;fill:url(#SVGID_12_);enable-background:new    ;}
	.st40{opacity:0.2;fill:url(#SVGID_13_);enable-background:new    ;}
	.st41{fill:url(#SVGID_14_);}
	.st42{opacity:0.4;fill:url(#SVGID_15_);enable-background:new    ;}
	.st43{fill:url(#SVGID_16_);}
	.st44{opacity:0.2;fill:url(#SVGID_17_);enable-background:new    ;}
	.st45{opacity:0.2;fill:url(#SVGID_18_);enable-background:new    ;}
	.st46{opacity:0.2;fill:url(#SVGID_19_);enable-background:new    ;}
	.st47{opacity:0.2;fill:url(#SVGID_20_);enable-background:new    ;}
	.st48{opacity:0.2;fill:url(#SVGID_21_);enable-background:new    ;}
	.st49{opacity:0.4;fill:url(#SVGID_22_);enable-background:new    ;}
	.st50{opacity:0.5;fill:url(#SVGID_23_);enable-background:new    ;}
	.st51{opacity:0.5;fill:url(#SVGID_24_);enable-background:new    ;}
	.st52{opacity:0.5;fill:url(#SVGID_25_);enable-background:new    ;}
	.st53{opacity:0.5;fill:url(#SVGID_26_);enable-background:new    ;}
	.st54{opacity:0.5;fill:url(#SVGID_27_);enable-background:new    ;}
	.st55{opacity:0.5;fill:url(#SVGID_28_);enable-background:new    ;}
	.st56{opacity:0.2;fill:url(#SVGID_29_);enable-background:new    ;}
	.st57{opacity:0.2;fill:url(#SVGID_30_);enable-background:new    ;}
	.st58{fill:url(#SVGID_31_);}
	.st59{fill:url(#SVGID_32_);}
	.st60{fill:url(#SVGID_33_);}
	.st61{fill:url(#SVGID_34_);}
	.st62{fill:url(#SVGID_35_);}
	.st63{fill:url(#SVGID_36_);}
	.st64{fill:url(#SVGID_37_);}
	.st65{fill:url(#SVGID_38_);}
	.st66{fill:url(#SVGID_39_);}
	.st67{fill:url(#SVGID_40_);}
	.st68{opacity:0.5;fill:url(#SVGID_41_);enable-background:new    ;}
	.st69{fill:#DDD0BC;}
	.st70{fill:url(#SVGID_42_);}
	.st71{fill:url(#SVGID_43_);}
	.st72{fill:url(#SVGID_44_);}
	.st73{fill:url(#SVGID_45_);}
	.st74{fill:url(#SVGID_46_);}
	.st75{fill:url(#SVGID_47_);}
	.st76{fill:url(#SVGID_48_);}
	.st77{fill:url(#SVGID_49_);}
	.st78{fill:url(#SVGID_50_);}
	.st79{fill:url(#SVGID_51_);}
	.st80{fill:url(#SVGID_52_);}
	.st81{fill:url(#SVGID_53_);}
	.st82{fill:url(#SVGID_54_);}
	.st83{fill:url(#SVGID_55_);}
	.st84{opacity:0.5;fill:url(#SVGID_56_);enable-background:new    ;}
	.st85{fill:url(#SVGID_57_);}
	.st86{fill:url(#SVGID_58_);}
	.st87{fill:url(#SVGID_59_);}
	.st88{fill:url(#SVGID_60_);}
	.st89{fill:url(#SVGID_61_);}
	.st90{fill:url(#SVGID_62_);}
	.st91{fill:url(#SVGID_63_);}
	.st92{fill:url(#SVGID_64_);}
</style>
<title>食物矿</title>
<g id="图层_1_1_">
	<path class="st0" d="M153.6,105.5c-5,0.2-9.7,2.6-9.9,2.4c-3.5-3.2-8.6-2.6-5.6,0.5c1.4,1.4,2.7,2.4,3.7,4.2
		c0.8,1.4,1.2,2.8,2.9,3.2c2.1,0.6,4.3-0.3,5.4-2.2c1-1.5,2.4-2.6,4.1-3.3c1.1-0.6,2.4-1.3,2.1-2.7
		C156.1,106.3,154.9,105.4,153.6,105.5z"/>
	<path class="st1" d="M109,113c0,0,12.1,19.4,25.5,18.2c15.5-1.4,16.2-16.9,16.2-16.9l-8.5-0.1c0,0-0.5,8.5-8.1,9.4
		s-19-12.7-19-12.7L109,113z"/>
	
		<radialGradient id="SVGID_1_" cx="-1515.7793" cy="-47643.6602" r="50.92" gradientTransform="matrix(-1.04 0 0 -0.15 -1480.5699 -6863.5298)" gradientUnits="userSpaceOnUse">
		<stop  offset="0" style="stop-color:#040000"/>
		<stop  offset="1.000000e-02" style="stop-color:#090505"/>
		<stop  offset="0.26" style="stop-color:#5F5D5D"/>
		<stop  offset="0.48" style="stop-color:#A4A2A2"/>
		<stop  offset="0.66" style="stop-color:#D5D4D4"/>
		<stop  offset="0.79" style="stop-color:#F4F3F3"/>
		<stop  offset="0.87" style="stop-color:#FFFFFF"/>
	</radialGradient>
	<path class="st2" d="M43.7,187.3c0,3.6,24.5,6.5,54.7,6.5s54.7-2.9,54.7-6.5s-24.5-6.5-54.7-6.5S43.7,183.7,43.7,187.3z"/>
	<path class="st3" d="M107.1,177.7c-6.2-1.7-7.6,8.1-4.4,11.8c1.9,2.2,6.3,2.9,8.8,1.4c3.4-2,1.3-4.5-0.1-7
		C110.3,181.7,110,178.5,107.1,177.7z"/>
	<path class="st3" d="M87.9,177.8c6.2-1.7,7.6,8.1,4.4,11.8c-2.9,3.3-14.7,2-10.5-3.6C83.6,183.6,84.7,178.7,87.9,177.8z"/>
	<path class="st4" d="M83.6,145.8c-0.2,4.4-0.3,8.9-0.4,13.4c-0.2,6.7,0.9,15.7-1.3,22c1,0.5,1.9,0.9,2.9,1.3
		c3.8,1.4,7.7,0,11.6-0.6c-1.2-11.5,1.5-23.2,1.7-34.6C98.2,144.5,83.8,142,83.6,145.8z"/>
	<path class="st4" d="M97.7,149.3c0.9,6,0.5,12.3,0.5,18.4c0,4.3-0.1,9.8-0.4,14.1c2.1,0.7,4.3,1.1,6.5,1.2c2.9-0.1,5.8-0.7,8.5-2
		c-1.3-4.4-2.3-12.6-2.8-19.2c-0.3-4.9,1.2-11.4-0.2-16.1C108.9,142.1,96.9,143.3,97.7,149.3z"/>
	<path class="st5" d="M111.1,173c-5.2-2.3-11.8-0.6-12.8,0.5c0.1-1.9,0.1-4.2,0-6.9c-0.1-3.3,7.6-4.6,10.4-4.4
		c1.6,0.1,1.4,0.8,1.5,2.3C110.4,166.5,110.8,170.7,111.1,173z"/>
	<path class="st5" d="M83.3,173.7c4.8-3.1,11.7-0.5,12.9,0.4c0-1.7,0.3-5.3,0.4-7.9c0.1-3.3-9.2-3.2-12-2.4
		c-1.6,0.4-1.2,1.1-1.3,2.5S83.4,171.8,83.3,173.7z"/>
	<path class="st1" d="M119.5,149.7c5.9-9.6,2.1-25.9-2.5-35.8c-4.4-9.5-14.2-10.5-23.8-9.3c-4.7,0.6-14.6,3.3-17,11.4
		c-3.2,11.1-5.7,30,4.6,37.9C87.2,158.8,112.5,160.8,119.5,149.7z"/>
	<path class="st6" d="M84.1,119.8c0.6,0.3,1.3,0.6,1.9,1c-3.2,1.9-2.8,6.3-3.7,9.4c-0.5,2-1.2,3.9-2.1,5.8c-0.5,1.1-1.3,2.1-2.2,2.8
		c6.1,0.6,11.6,2.3,16.8-2.3c2.4-2.3,4.2-5.2,5-8.5c0.8-0.1,2,0.1,2.7-0.5c1,11.7,8.4,11.1,14,11.8c1.3,0.1,2.6,0.1,3.9,0.1
		c-2.1-4-4.6-7.7-6.9-11.6c-1-1.7-1.6-3.1-3.3-4.3c-0.9-0.5-1.8-1-2.6-1.6c6.1,1,10.8-3.8,10.3-9.8c-2,1.4-4.9,1.8-7.1,2.4
		c-3.7,1.1-7.4,2-11.3,2.5c-5.7,0.6-11.5-0.8-16.3-3.9c-1.6-1-2.7-2.8-4.1-3.7c-0.3,1-0.6,2.1-0.8,3.2c0.2,1,0.5,1.9,0.9,2.7
		C80.3,117.1,82,118.8,84.1,119.8z"/>
	<path class="st6" d="M76.5,148.9c-0.7-1.1-1.8-3.5-1.3-5.2c0.3-1.3,0.9-4.8,1.7-3S77.1,148.5,76.5,148.9z"/>
	<path class="st6" d="M113.4,117.9c0,0,7.9,14,4.3,31C117.7,148.9,118.8,131.8,113.4,117.9z"/>
	<path class="st7" d="M69.7,139.6c0.8,0.5-0.4,2.3,1.1,3.8c1.5,1.5-1.5-0.3-2.2,1.1c-0.7,1.4,5.7,5,7.9,0.4s-1.1-7.2-6.8-8.1
		C63.9,135.9,69.7,139.6,69.7,139.6z"/>
	<path class="st1" d="M80.4,112.2c-3.4,0.1-20.5,5.6-22,15.7s10,15.5,10,15.5l4.6-5.9c0,0-7.2-3-7.2-9.5c0-6.5,14.5-10.4,14.5-10.4
		L80.4,112.2z"/>
	<path class="st4" d="M86.1,145.8c0.2,0.8-0.3,1.5-1,1.8c-0.7,0.1-1.3-0.6-1.4-1.5c-0.2-0.8,0.2-1.5,1-1.8
		C85.3,144.3,86,144.9,86.1,145.8z"/>
	<path class="st4" d="M86.1,139c-0.2,0.7-0.9,1.1-1.6,0.9s-1.1-0.9-0.9-1.6c0.2-0.5,0.6-0.9,1.2-0.9C85.7,137.5,86.2,138.2,86.1,139
		z"/>
	<path class="st4" d="M86.7,132.2c0,0.7-0.5,1.3-1.2,1.3c-0.7,0-1.3-0.5-1.3-1.2c0-0.2,0-0.3,0.1-0.5c0-0.7,0.5-1.3,1.2-1.3
		c0.7,0,1.3,0.5,1.3,1.2C86.8,131.8,86.8,132,86.7,132.2z"/>
	<path class="st4" d="M88.4,125.8c-0.2,0.7-1,1-1.6,0.7c-0.7-0.2-1-1-0.7-1.6c0.2-0.6,0.8-0.9,1.4-0.8
		C88.1,124.4,88.6,125.1,88.4,125.8z"/>
	<path class="st4" d="M113.4,145.2c-0.2,0.8,0.2,1.6,1,1.8c0.7,0.1,1.3-0.5,1.5-1.4c0.2-0.8-0.2-1.6-1-1.8
		C114.1,143.6,113.5,144.2,113.4,145.2z"/>
	<path class="st4" d="M113.2,138.8c0.2,0.7,0.8,1.1,1.5,1c0.7-0.2,1.1-0.8,1-1.5c-0.1-0.6-0.6-1-1.2-1
		C113.7,137.4,113.2,138.1,113.2,138.8z"/>
	<path class="st4" d="M112.4,132.1c-0.1,0.7,0.4,1.3,1.1,1.4c0.7,0.1,1.3-0.4,1.4-1.1c0-0.2,0-0.4-0.1-0.5c0.1-0.7-0.4-1.3-1.1-1.4
		c-0.7-0.1-1.3,0.4-1.4,1.1C112.4,131.7,112.4,131.9,112.4,132.1z"/>
	<path class="st4" d="M111.1,125.5c0.2,0.7,0.9,1,1.6,0.8c0.7-0.2,1-0.9,0.8-1.6c-0.2-0.6-0.7-0.9-1.3-0.9
		C111.4,124,110.9,124.8,111.1,125.5z"/>
	
		<linearGradient id="SVGID_2_" gradientUnits="userSpaceOnUse" x1="1205.4247" y1="16.3345" x2="1205.4247" y2="3.6945" gradientTransform="matrix(1 0 0 -1 -1097.24 200)">
		<stop  offset="0" style="stop-color:#040000"/>
		<stop  offset="1" style="stop-color:#828074"/>
	</linearGradient>
	<path class="st8" d="M104.4,186.7c0,0.2,0,0.5,0.2,0.7c0.7,1.1,2.5,0.6,3.5,0.2c1.2-0.5,1.9-0.1,3-0.1s1-1,0.5-1.6
		C110.2,184.2,104.7,183.8,104.4,186.7z"/>
	
		<linearGradient id="SVGID_3_" gradientUnits="userSpaceOnUse" x1="1183.5684" y1="16.3345" x2="1183.5684" y2="3.6945" gradientTransform="matrix(1 0 0 -1 -1097.24 200)">
		<stop  offset="0" style="stop-color:#040000"/>
		<stop  offset="1" style="stop-color:#828074"/>
	</linearGradient>
	<path class="st9" d="M90.1,186.6c0,0.2,0,0.5-0.2,0.7c-0.7,1.1-2.6,0.6-3.5,0.2c-1.1-0.5-1.9-0.1-3-0.1s-1-1-0.5-1.6
		C84.3,184.1,89.8,183.7,90.1,186.6z"/>
	<path class="st10" d="M76.5,148.9c0,0,23.9,9.9,43.7-0.3c0,0-1.1,6.8-1.5,10.5c-0.5,4.5-1.1,9.4-1.1,9.4s-16,4.7-39.3-0.9
		C78.3,167.6,77.4,157.7,76.5,148.9z"/>
	<path class="st10" d="M101,123.6c0,0,25.4-6.5,15.9-18.1c-8.2-10-28.6-7.3-34.9-2.1S76,119.9,101,123.6z"/>
	<path class="st4" d="M121.6,59.9c6.2-5.5-2.1-10.4-6.7-13.6c-7.3-5.2-16.9-6.6-25.5-4.7C53,49.9,60.2,88.8,70.8,86.7
		c8.3-1.7,17.4-6.2,25.9-3c6,2.2,11.4,6,17.4,8.2c5.4,2,10.6,7.2,12.1-0.2C129.7,75.3,124.2,63.9,121.6,59.9z"/>
	<path class="st7" d="M66.2,84.2c1.3,19.2,14.3,32,32.7,31.9c20.3-0.2,28.1-16.9,26.8-36.1S110,45.6,94.2,46.7S64.9,65,66.2,84.2z"
		/>
	<path class="st11" d="M118.3,79c-1.2-1.8,3.6-1.2,4.3-0.9c-0.3,1.1-2.3,0.2-3,0.3c0.4,0.8,2.1,1,2.6,1.6s0.4,0.9-0.4,0.8
		C120.6,80.3,119.4,79.7,118.3,79z"/>
	<path class="st11" d="M85.6,82.1c1-1.9-3.7-0.9-4.3-0.5c0.4,1,2.3,0,3,0c-0.3,0.8-2,1.2-2.5,1.8s-0.4,1,0.5,0.7
		C83.4,83.6,84.6,82.9,85.6,82.1z"/>
	<path class="st4" d="M88.4,83c-1.1-0.5-2.3-0.6-3.5-0.3c-2.4-2.1-0.1-8.3,3.4-6.8C90.9,77,90.8,81.7,88.4,83z"/>
	<path class="st12" d="M107.5,84.3c0.8,0.8-0.8,3.7-4.3,3.9s-5.3-2.8-4-3.6s2.2,0,4.1-0.1C105.5,84.5,106.6,83.4,107.5,84.3z"/>
	<path class="st13" d="M107.3,84.7c2.4-2.5-1.5-11-5.8-10.7c-1.8,0.1-3,2.7-3.2,5.9s-0.1,4.8,0.7,5.4C101.7,87,105,86.7,107.3,84.7z
		"/>
	<path class="st4" d="M117.8,73.8c2,0.9,2.3,4,1.1,5.7c-1.1,0-2.2,0.4-3,1.1C111.9,80,114.1,72.2,117.8,73.8z"/>
	<path class="st14" d="M86.5,77.2c1.3-0.4,2,1.5,1,2.3C86.1,80.4,85.1,77.6,86.5,77.2z"/>
	<path class="st14" d="M116.1,75.2c1.2-0.4,1.9,1.4,1,2.1C115.8,78.2,114.8,75.6,116.1,75.2z"/>
	<path class="st7" d="M64.8,93.3c2,0.5,4.2,0.7,6.3,0.5c0-0.1,0.1-0.1,0.1-0.2c1-1.3-0.5-7.8-1-9.2c-1.1-3.4-3-5.8-6.7-4.8
		C55.7,81.6,58.5,91.4,64.8,93.3z"/>
	<path class="st15" d="M70.9,73.9c0.2-2.7,0.7-5.4,1.3-8c1.4-6.8,9.2-9.4,15.3-10c8.6-0.9,17.7-1.1,26.2,0.3
		c2.5,0.4,7.9,0.5,8.2,3.9c0.3,3.9-6.2,4.5-8.8,4.8c-6.7,0.8-16.2,1.6-34.5-1.1c-0.8,2.2-4.5,7.3-5.3,22.6c-0.1,1-2.2-8.8-2.3-9.8
		C70.8,75.6,70.8,74.7,70.9,73.9z"/>
	<path class="st15" d="M68.8,91.3c3.6-1.2,1.2-6.8-1.2-8c-2-1-7.4-0.3-5.4,3c1.7-2.6,3.7-0.5,3.1,1.4c-0.4,1.3-2.4,1.1-0.7,3
		C65.5,91.8,67.7,91.7,68.8,91.3z"/>
	<path class="st4" d="M79.7,45.1c-2.9,1.4-5.5,3.6-7.3,6.2c-4.1,5.9-9.2,15.6-7.1,22.8c0.5,1.6,0.2,3.9,0.8,5.5
		c1.4,4,3.6,19.4,7,19.5c1.3,0,4.9,0.9,4.3-0.3c-5.5-10.2-4.1-28.2,0.4-36.7c28.2,3.4,44.2-0.5,43.2-6.8c-0.7-4.4-5.9-8.1-9.7-9.8
		C102.5,41.5,89.1,40.3,79.7,45.1z"/>
	<path class="st16" d="M89.9,85.6c0.4,0.3,0.7,0.7,1,1.1c2.7,4.3-8.1,6.3-10,4.7c-3.5-3-0.4-5.2,2.2-6C85.1,84.7,88,84.2,89.9,85.6z
		"/>
	<path class="st16" d="M114.7,84.1c-1.1,1.4-1.1,3.2,1.3,4.3s7.2,1.3,8.4-1.7c1.6-4.1-4.1-5.1-6.7-4.4
		C116.5,82.5,115.5,83.2,114.7,84.1z"/>
	<path class="st0" d="M109.1,110.3c-1-1.3-4.2-2.1-6.2-1.8c-3.5,0.5-4.7,2.5-4.7,2.8c-0.1-2,1.3-3.8,3.2-4.4
		C104.2,106,109.4,107.1,109.1,110.3z"/>
	<path class="st4" d="M116.2,70c-1.3,0.8-2.9,1.1-4.4,1c-2.1-0.2-3.7-1.8-3.9-3.8c2.2,0.6,4.7-1.2,6.9-1.4s4.5,0.3,5.8,2.6
		c0.2,0.3,0.3,0.7,0.4,1.1c-1-0.2-2-0.2-3,0C117.4,69.5,116.8,69.7,116.2,70z"/>
	<path class="st4" d="M90.8,72.8c-2.5-0.4-5.6-2.1-7.7,0.1c-0.4,0.4-0.8,0.9-1.2,1.3c-2.2-2.9,1.3-7.4,4.7-7
		c1.3,0.1,2.8,0.8,4.1,1.1c1.7,0.4,3.4,0.3,5-0.2C95.8,71.3,94.2,73.4,90.8,72.8z"/>
	<g class="st17">
		<path class="st18" d="M120.3,89.9c1-0.4,2-0.6,3.1-0.6c-1.9-1.8-6-1.1-8.1-0.3c0.3-0.1,1.4,0.9,1.4,1.3c0,0.7-0.8,1.1-1.3,1.4
			c-1.7,1-3.9,1.1-5.8,1.4c-4.8,0.9-9.7,1.1-14.5,0.7c-2.8-0.3-5.5-0.9-8.1-1.8c0.1-0.1,0.2-0.1,0.3-0.2c1.3-0.8,3.3-0.9,2.8-1.2
			c-3-1.3-6.4,0.2-8.9,2c2.8-0.6,5.7-0.4,7.3,2.3c4,6.8,8,11.3,14.6,11.2c8.7-0.1,10.5-5.9,11.5-9.7c0.4-1.3,1.1-2.6,2.1-3.5
			C117.7,91.6,118.9,90.6,120.3,89.9z"/>
	</g>
	<path class="st19" d="M88.9,93.6c9.1,2.7,18.9,2.1,27.7-1.7c0,0-1.8,0.9-2.6,4c-0.8,2.9-3.6,6.3-10.5,6.9
		C93.3,103.5,88.9,93.6,88.9,93.6z"/>
	<path class="st20" d="M92.3,94.5c0.3,2,1.7,3.7,3.6,4.3c4.3,1.4,8.9,1.5,13.2,0.1c3.1-0.9,4.5-5.8,4.5-5.8S105,96.3,92.3,94.5z"/>
	<path class="st20" d="M93.9,99.2c-0.4-0.8-0.4-1.7,1.3-1.1c3.4,0.9,6.8,1.2,10.3,1c4.4-0.2,5.3-1.9,6.1-1.1s-1.9,5.1-8.9,4.8
		C94.7,102.5,93.9,99.2,93.9,99.2z"/>
	<path class="st21" d="M93.7,97.3c0,0,14.7-2,18.4-0.8c0.7-1,1.3-2.1,1.6-3.3c0,0-10.9,3.3-21.4,1.3C92.4,95.6,92.9,96.6,93.7,97.3z
		"/>
	<path class="st21" d="M96.2,98.2c4.8,1,9.8,1,14.5-0.2C110.7,97.9,103.2,101.1,96.2,98.2z"/>
	<path class="st4" d="M103.3,95.7c2.1-0.1,4.2-0.3,6.2-0.8c2.6-0.6,5.1-1.6,7.3-3c1.7-1.1,4.3-2.7,4.1-5.3c-0.1-1.4-1.4-2.5-2.8-2.4
		c-0.8,0.1-1.6,0.5-2,1.2c1.2-0.8,2.4,0,2.4,0.9c-0.1,1.3-1.8,1.2-2.7,1.1c-3-0.3-6.2-1.4-9.2-0.4c-4,1.3-6.7-0.2-10.8,0.5
		c-2.1,0.4-4.1,0.9-6.1,1.6c-1,0.3-2.3,0.5-2.6-0.7c0-0.7,0.5-1.2,1.2-1.2c0.3,0,0.6,0.1,0.8,0.2c-0.5-0.9-2.3-1.2-3.2-0.9
		c-1.3,0.4-2,1.7-1.6,3c0,0,0,0,0,0c0.4,2,3.3,3.3,5,4c2.7,0.9,5.5,1.5,8.3,1.8C99.4,95.7,101.3,95.8,103.3,95.7z"/>
	<path class="st22" d="M64.1,75.2c0.3,2.4,1.8,5,3.6,1c-0.6,5.8,5.4,14.9,4.9,11.1C72,81.7,72,75.8,74.4,69.9c0-0.1-0.6-0.2-0.6-0.2
		C70.3,74.2,63,66.5,64.1,75.2z"/>
	<path class="st22" d="M72.9,59.3c0,0,17.8,4.8,34.3,2.5c16.4-2.3,14.1-7.3,14.1-7.3s0.1,2.2-17.5,4.7
		C93.5,60.8,83.1,60.8,72.9,59.3z"/>
	<path class="st22" d="M99.5,88.8c-3-1.3-9.9,1-8.9,2.1s4.1,0.6,4.1,0.6c0.1,0.9,0.6,1.6,1.4,1.9c1.3,0.4,3.8-1.4,3.8-1.4
		c-0.1,1,0.6,1.8,1.6,1.9c0,0,0.1,0,0.1,0c1.8,0.1,3.3-2,3.3-2s1.1,1.9,2.9,1.6c1-0.1,1.7-0.9,1.6-1.9c0,0,0,0,0,0
		c0,0,2.2,1.1,3.5,0.7s0.6-2.3,0.6-2.3c1.1,0.5,2.4,0.4,3.5-0.2c2-0.9-2.1-0.9-4.5-1.4c-2.1-0.6-4.4-0.5-6.5,0.3
		C103.9,89.6,101.6,89.7,99.5,88.8z"/>
	<path class="st21" d="M67.1,55.5c0,0,31.6,7.2,55.1-3.5L120,34.4c0,0,17.6-7.4,12.2-18.1c-5.4-10.6-24.8-2.5-24.8-2.5
		s1.6-8.2-14.4-8.7c-8.5-0.5-16.3,4.6-19.2,12.6c0,0-18.1-6.2-21.6,3.7c-4.2,11.8,14.1,15.1,14.1,15.1L67.1,55.5z"/>
	<path class="st23" d="M54.1,20.6c2.5-8.1,21-0.1,21-0.1S79,6.2,92.7,6.3C109.5,6.5,104.6,17,104.6,17s17.9-9,24.2-2.4
		c6.2,6.6-3.5,14.4-3.5,14.4s-1.1-2.9-11,4.9c-12.2,9.6-24.1,9.4-40.7,0.4c-12.6-6.8-14-2.2-11.3-0.1C62.2,34.2,50.9,30.9,54.1,20.6
		z"/>
	<path class="st6" d="M120,34.4c0,0-12.3,4.1-10.6,6.5s10.6-6,10.6-6s-4.1,3.5-3.1,4.4s3.2-3.5,3.2-3.5L120,34.4z"/>
	<path class="st6" d="M66.2,36.6c0,0,11.5,1.7,12.6,4.2c1.5,3.3-12.1-3.4-12.1-3.4s5.8,3.5,4.4,4.2c-1.4,0.7-4.8-3.8-4.8-3.8
		L66.2,36.6z"/>
	<path class="st6" d="M86.2,41.4c0,0,6.6,2.6,18.4-0.6C104.6,40.9,98.1,49.6,86.2,41.4z"/>
	<path class="st1" d="M74.3,56.1c-2-0.4-4-0.9-6.1-1.4c-3.1-0.8,0.1-4.4,0.1-4.5c12.2,3.8,18.5-1,29.4-1.9
		c12.8-1.1,16.8,3.4,22.9,0.3l0.7,2.9C121.3,51.4,102.8,61.8,74.3,56.1z"/>
	<path class="st24" d="M91.2,14.7c23.4-2.4,37.4,17,10.7,23C75.9,43.5,60.8,17.8,91.2,14.7z"/>
	<path class="st24" d="M119.7,15.1c-2.6,0.7-5,2.1-6.9,4c-3,3.5-2.8,9.6,2.4,9.7c4.6,0.1,12.7-2.9,12.9-8.3
		C128.6,14.5,124.1,13.8,119.7,15.1z"/>
	<path class="st24" d="M57.2,21.3c-5.2,5.9,9.9,9.1,12.9,9.7c10.7,1.9,4.2-10-2.2-11.5C64.6,18.6,59.8,18.4,57.2,21.3z"/>
	<path class="st10" d="M99.5,119.7c5.8-0.4,5.6,5.7,1.3,6.3S95.1,120,99.5,119.7z"/>
	<path class="st10" d="M100.3,123.1c0,0-16.5-6.9-19.1,2.9c-2.8,10.4-5.3,10.5-5.3,10.5s15.1,2.6,19.9-4c1.7-2.3,2.9-5.1,3.4-7.9
		L100.3,123.1z"/>
	<path class="st10" d="M100.8,122.7c0,0,12.7-6.6,15.7,2.1c3.2,9.4,5.9,11.4,5.9,11.4s-13.2,4.6-17-4.2c-1-2.7-2.2-5.3-3.6-7.9
		L100.8,122.7z"/>
	
		<radialGradient id="SVGID_4_" cx="1193.6326" cy="47.6045" r="19.83" gradientTransform="matrix(1 0 0 -1 -1097.24 200)" gradientUnits="userSpaceOnUse">
		<stop  offset="0" style="stop-color:#E62C26"/>
		<stop  offset="1" style="stop-color:#040000"/>
	</radialGradient>
	<path class="st25" d="M86.4,162.9c0.2-1.8-3.3-2.8-4.4-3.5c1.9-0.1,0-3.6-1.9-5.2c13.6,5.2,22.1,3.1,31.2,2.1
		c-2.3,1.5-5.2,1.5-7.4,3c2.7,2.1,6,0.6,9,1c-1.3-0.2-1.2,3.9-0.8,4.7c0.7,1.3,3.3,1.4,4.2,2.4c-9.4,2.6-26.3,3.5-36.3-1.2
		C80.6,166.6,86.2,163.8,86.4,162.9z"/>
	<path class="st26" d="M120.1,149c-1.5,1.8-3.4,3.2-5.6,3.9c-3.8,1.5-6.2,2.2-6,2.7S117.8,153.5,120.1,149z"/>
	<path class="st26" d="M116,154.6c-0.9,0.7-1.7,1.5-2.4,2.3c1.7-0.4,3.3-1.4,4.4-2.7c0.8-1.2,1.4-2.6,1.7-4.1
		c-0.5,0.7-1,1.4-1.4,2.1C117.6,153.1,116.8,153.9,116,154.6z"/>
	<path class="st26" d="M81.2,151.8c-1.3-0.8-2.7-1.5-4.1-2c0.7,1.6,2.7,3,4.9,4c1.9,0.8,4.5,0.8,6.8,1c-1.2-0.4-2.4-0.7-3.6-1
		C83.9,153.3,82.5,152.6,81.2,151.8z"/>
	
		<linearGradient id="SVGID_5_" gradientUnits="userSpaceOnUse" x1="1203.3713" y1="78.2533" x2="1216.3713" y2="65.8333" gradientTransform="matrix(1 0 0 -1 -1097.24 200)">
		<stop  offset="0" style="stop-color:#040000"/>
		<stop  offset="1" style="stop-color:#E62C26"/>
	</linearGradient>
	<path class="st27" d="M109.5,129.4c0,3.7,2,4,6,4.7c1.3,0.3,2.7,0.5,4.1,0.6c-4-1.9-3.2-6.4-4-9.6c-0.6-2.7-3-3.8-5.9-3.6
		c-1.2,0.1-4,0.1-5,0.6c-0.5,0.2-1,0.5-1.4,1C106.2,124.9,109.5,125.2,109.5,129.4z"/>
	
		<linearGradient id="SVGID_6_" gradientUnits="userSpaceOnUse" x1="1192.5742" y1="78.392" x2="1176.1243" y2="66.372" gradientTransform="matrix(1 0 0 -1 -1097.24 200)">
		<stop  offset="0" style="stop-color:#040000"/>
		<stop  offset="1" style="stop-color:#E62C26"/>
	</linearGradient>
	<path class="st28" d="M88.3,129.6c0.2,3.2-1,4.8-4.7,5.4c-1.8,0.3-3.6,0.5-5.4,0.6c7.7-3,0.7-13.5,11.6-13.8c2.9-0.1,8-0.3,4.6,2
		S88,125.3,88.3,129.6z"/>
	<path class="st26" d="M105.9,130.8c3.7-1.8,0.2-5.6-2.1-6.3C104,125.3,106.7,130.5,105.9,130.8z"/>
	<path class="st26" d="M93,131.9c-2.9-0.2-0.7-4.8,0-5.4c0.9-1,2.2-1.6,3.5-1.7C95.4,125.8,94.7,132.1,93,131.9z"/>
	<path class="st26" d="M103.1,118.4c2.4-1.5,5.2-2,7.9-2.8l0,0c-1.2,1-3.3,1.7-4.2,2.9c1.5,0.1,2.9-0.6,4.3-0.7
		c-0.7,2.1-5,2.8-6.6,4.1c0.2-1.1,0.4-1.2-0.1-2.2C104,119.2,103.5,118.8,103.1,118.4z"/>
	<path class="st26" d="M96.4,121.2c0.2-1.2-9.1-2.4-9.9-3.7c2.4-0.2,4.8,1.3,7.2,1.2c-0.8-0.8-2.1-1.2-3-2.1c2.5,1.6,5.2,1.2,8,1.7
		C98,118.1,96.5,120.4,96.4,121.2z"/>
	<path class="st29" d="M102.8,122.8c2.1-3.2-3.2-3.4-4.4-1.9S100.5,126.4,102.8,122.8z"/>
	<path class="st4" d="M98.6,50c0.7,0.9,0.6,2.2-0.2,3c-0.8-1.7-4-2.5-4.4-0.1c-0.3,2.2,3.5,3.8,5.1,4.1c2.1,0.4,4.3,0.6,6.5,0.6
		c-3.8,0.1-20.8,6-19.5-3.4C86.6,49.7,95.6,45.2,98.6,50z"/>
	<path class="st22" d="M92.6,52.1c-1.7,3.1,1.9,5.2,4.3,6c2.8,0.9,5.7,1.3,8.6,1.2c-4.9,2.1-9.2,3.7-15.1,0.3
		c-1-0.7-1.9-1.5-2.6-2.5c-0.9-1.4-1-3.2-0.3-4.7c1-1.4,2.4-2.5,4-3c1.8-0.6,6.9-1.5,6.6,1.8c0.1-0.8-2.5-1.1-2.9-1
		C94,50.4,93.1,51.1,92.6,52.1z"/>
	<path class="st30" d="M123.1,109.6c0,0.5,0.2,2.9,0.7,3.4l14.7,17.2c0.9,1,3.3,1.5,4.8,1l41.6-13.8c1.5-0.5,2.8-4,1.9-5l-14.9-17.3
		c-1.4-1.5-3.5-2-5.4-1.3l-41.8,13.6C123.7,107.7,123,108.6,123.1,109.6z M140,126.4c0-0.6,0.9-1,1.8-1s1.7,0.6,1.6,1.2
		c-0.1,0.6-0.9,1-1.8,1S139.9,127,140,126.4z"/>
	
		<linearGradient id="SVGID_7_" gradientUnits="userSpaceOnUse" x1="360.9168" y1="64.9244" x2="341.3568" y2="105.9044" gradientTransform="matrix(-1 -8.000000e-02 8.000000e-02 -1 499.69 224.01)">
		<stop  offset="0" style="stop-color:#E5BE76"/>
		<stop  offset="0.24" style="stop-color:#E2B970"/>
		<stop  offset="0.56" style="stop-color:#DAAB5E"/>
		<stop  offset="0.93" style="stop-color:#CD9541"/>
		<stop  offset="1" style="stop-color:#CA903B"/>
	</linearGradient>
	<path class="st31" d="M123.9,110.3l14.9,17c1.2,1.1,2.9,1.4,4.4,0.9l41.8-13.6c1.5-0.5,2-1.7,1.1-2.7l-14.9-17
		c-1.2-1.1-2.9-1.4-4.4-0.9L125,107.6C123.5,108.1,123,109.3,123.9,110.3z M140.2,124.7c0.1-0.6,0.9-1.1,1.8-1s1.7,0.6,1.6,1.2
		s-0.9,1-1.8,1S140.2,125.3,140.2,124.7z"/>
	<g>
		<defs>
			<path id="SVGID_8_" d="M123.9,110.3l14.9,17c1.2,1.1,2.9,1.4,4.4,0.9l41.8-13.6c1.5-0.5,2-1.7,1.1-2.7l-14.9-17
				c-1.2-1.1-2.9-1.4-4.4-0.9L125,107.6C123.5,108.1,123,109.3,123.9,110.3z M140.2,124.7c0.1-0.6,0.9-1.1,1.8-1s1.7,0.6,1.6,1.2
				s-0.9,1-1.8,1S140.2,125.3,140.2,124.7z"/>
		</defs>
		<clipPath id="SVGID_9_">
			<use xlink:href="#SVGID_8_"  style="overflow:visible;"/>
		</clipPath>
		<g class="st32">
			<g class="st33">
				<path class="st34" d="M152.9,124.8c15.2-3.6,31.7-10.2,44.8-16c-4.7,0.9-15.6,5.6-27.8,9.9c9.6-4,17.7-8.9,21.3-12.7
					c-2.6,0.9-5.5,1.6-8.2,2.5c6.8-3.7-0.4-4-5.5-3.2c-3,0.5-6.6,1-10.4,1.6c10.6-2.4,19.2-4.7,19.3-6.6c-0.3-4.3-47.6,7.8-50.8,9.1
					c9.6-5,23-6.7,34.4-9.6c3.1-0.8,11.2-5.5,2.4-5.1c-8.4-2.1-29.5,6.4-36,9.1c-6.3,2.5-13.7,6.4-15.7,11.1
					C114.1,130.6,139.6,127.9,152.9,124.8z M124.5,112.6c8.6-9.6,39.1-17.5,49.6-16.2C171.2,98.4,135.7,104.6,124.5,112.6z
					 M179.8,101.4c-11.6,3.2-24.2,5-36,7.9c0.8-0.2,1.5-0.3-0.1,0s-0.9,0.2-0.1,0c-3.3,0.8-6.6,1.7-9.9,2.9
					C146.8,106,163.8,103.7,179.8,101.4z M140.6,112.9c-4.6,1.6-8.4,3.5-10.8,5.8C127.3,117,132.5,115,140.6,112.9z M149.6,112.6
					c8.7-2.2,17.6-4.1,26.8-5.5c-13.1,4.2-30,9-44.6,11c5.3-2.1,10.8-3.9,16.4-5.2l0.6-0.2C152.3,112,151,112.3,149.6,112.6
					L149.6,112.6z M182.6,106.3c-4.8,3.4-48,15.7-52.8,12.4c10,0,18.7-3.2,27.6-5.3C165.1,111.6,174.6,106.8,182.6,106.3
					L182.6,106.3z M164.5,113.9c2.5-0.6,5-1.2,7.5-1.7c-7.8,2.7-15.6,5.6-24.3,7.1C153.4,117.7,158.6,115.4,164.5,113.9L164.5,113.9
					C166.6,113.4,164.8,113.8,164.5,113.9L164.5,113.9z M141.2,122c0.7,0,1.8-0.1-0.1,0c-2.1,0.2-4.1,0.2-6.2,0.1
					c20.6-1.2,35.3-9.2,53-14.5C173.6,115.7,157.6,120.6,141.2,122z M123.3,120.8c0.9,0.7,1.9,1.4,3,1.9c6.7,3.4,15.6,3.5,24.7,1.8
					C138.5,127.4,127.4,127.7,123.3,120.8L123.3,120.8z"/>
				<path class="st34" d="M120.9,114.8C120.5,115.8,121.3,113.8,120.9,114.8z"/>
				<path class="st34" d="M148.8,112.8l0.9-0.2l-1.4,0.4L148.8,112.8z"/>
				<path class="st34" d="M141.2,122h-0.1C140.6,122,140.8,122,141.2,122z"/>
				<polygon class="st34" points="164.6,113.9 164.6,113.9 164.5,113.9 				"/>
			</g>
		</g>
	</g>
	<path class="st35" d="M138.9,126.9c1.3,1.1,3,1.4,4.6,0.9l34.8-10.8l-35,11.4c-1.5,0.5-3.2,0.1-4.4-0.9l-11-12.7L138.9,126.9z"/>
	<path class="st35" d="M143.7,125.1c0.2-0.7-0.4-1.3-1.3-1.5c-0.8-0.2-1.5,0.1-2,0.8c0.5-0.5,1.2-0.6,1.9-0.5
		C143.7,124.2,143.7,125.1,143.7,125.1z"/>
	<polygon class="st36" points="146.5,127 145.4,122.5 145.8,127.3 	"/>
	<polygon class="st36" points="133.7,104.8 134,107.2 133.3,104.9 	"/>
	<polygon class="st36" points="135.2,104.3 135.6,109.3 134.7,104.5 	"/>
	<polygon class="st36" points="176.3,117.5 175.7,115.5 175.5,117.8 	"/>
	<polygon class="st36" points="177.4,117.2 177.2,115.9 176.9,117.3 	"/>
	<polygon class="st36" points="130.8,118.3 129.9,112.8 129.9,117.2 	"/>
	
		<radialGradient id="SVGID_10_" cx="-757.4804" cy="-44729.6367" r="20.89" gradientTransform="matrix(0.84 0 0 -8.000000e-02 787.24 -3507.21)" gradientUnits="userSpaceOnUse">
		<stop  offset="0" style="stop-color:#040000"/>
		<stop  offset="0.13" style="stop-color:#3D3A3A"/>
		<stop  offset="0.28" style="stop-color:#757272"/>
		<stop  offset="0.42" style="stop-color:#A3A2A2"/>
		<stop  offset="0.55" style="stop-color:#C7C6C6"/>
		<stop  offset="0.67" style="stop-color:#E1E1E1"/>
		<stop  offset="0.78" style="stop-color:#F1F0F0"/>
		<stop  offset="0.87" style="stop-color:#F6F6F6"/>
	</radialGradient>
	<path class="st37" d="M167.5,120.6c0,0.8-8.1,1.5-18.2,1.5s-18.1-0.7-18.1-1.5s8.1-1.5,18.1-1.5S167.5,119.8,167.5,120.6z"/>
	
		<radialGradient id="SVGID_11_" cx="-769.5728" cy="-54865.7383" r="20.89" gradientTransform="matrix(1.12 0 0 -0.32 1013.49 -17211.6992)" gradientUnits="userSpaceOnUse">
		<stop  offset="0" style="stop-color:#040000"/>
		<stop  offset="0.1" style="stop-color:#171313"/>
		<stop  offset="0.29" style="stop-color:#484545"/>
		<stop  offset="0.57" style="stop-color:#989696"/>
		<stop  offset="0.87" style="stop-color:#F6F6F6"/>
	</radialGradient>
	<path class="st38" d="M178.8,114c0,4-10.8,7.2-24.1,7.2s-24.1-3.2-24.1-7.2s10.8-7.2,24.1-7.2S178.8,110.1,178.8,114z"/>
	
		<radialGradient id="SVGID_12_" cx="164.8575" cy="83.6095" r="12.8793" gradientTransform="matrix(1 0 0 -1 0 200)" gradientUnits="userSpaceOnUse">
		<stop  offset="0" style="stop-color:#040000"/>
		<stop  offset="0.13" style="stop-color:#3D3A3A"/>
		<stop  offset="0.28" style="stop-color:#757272"/>
		<stop  offset="0.42" style="stop-color:#A3A2A2"/>
		<stop  offset="0.55" style="stop-color:#C7C6C6"/>
		<stop  offset="0.67" style="stop-color:#E1E1E1"/>
		<stop  offset="0.78" style="stop-color:#F1F0F0"/>
		<stop  offset="0.87" style="stop-color:#F6F6F6"/>
	</radialGradient>
	<path class="st39" d="M183,116.4c0,0.8-8.1,1.5-18.2,1.5s-18.1-0.7-18.1-1.5s8.1-1.5,18.1-1.5S183,115.6,183,116.4z"/>
	
		<radialGradient id="SVGID_13_" cx="-769.4104" cy="-43166.293" r="20.89" gradientTransform="matrix(0.84 0 0 -0.13 787.24 -5656.02)" gradientUnits="userSpaceOnUse">
		<stop  offset="0" style="stop-color:#040000"/>
		<stop  offset="0.13" style="stop-color:#3D3A3A"/>
		<stop  offset="0.28" style="stop-color:#757272"/>
		<stop  offset="0.42" style="stop-color:#A3A2A2"/>
		<stop  offset="0.55" style="stop-color:#C7C6C6"/>
		<stop  offset="0.67" style="stop-color:#E1E1E1"/>
		<stop  offset="0.78" style="stop-color:#F1F0F0"/>
		<stop  offset="0.87" style="stop-color:#F6F6F6"/>
	</radialGradient>
	<path class="st40" d="M157.4,111.7c0,1.3-8.1,2.4-18.1,2.4s-18.1-1.1-18.1-2.4s8.1-2.4,18.1-2.4S157.4,110.4,157.4,111.7z"/>
	
		<linearGradient id="SVGID_14_" gradientUnits="userSpaceOnUse" x1="349.2164" y1="99.1319" x2="358.6664" y2="94.4819" gradientTransform="matrix(-1 0 0 -1 493.49 200)">
		<stop  offset="0" style="stop-color:#569235"/>
		<stop  offset="1" style="stop-color:#72A937"/>
	</linearGradient>
	<path class="st41" d="M137.5,98.5c-1.5,1.3-4,2.6-4,4.8c0,2,2.3,6.1,4.3,6c2.8-0.2,5.6-0.7,8.4-1.2c2.2-0.5,6.6-0.8,8.8-1.3
		c5-1,4.1-8.7,2.7-13c-0.9-2.8-3.2-5-6-5.8C144.5,85.7,141.9,94.6,137.5,98.5z"/>
	
		<linearGradient id="SVGID_15_" gradientUnits="userSpaceOnUse" x1="352.2896" y1="88.6051" x2="348.0795" y2="102.1751" gradientTransform="matrix(-1 0 0 -1 493.49 200)">
		<stop  offset="0" style="stop-color:#040000"/>
		<stop  offset="1" style="stop-color:#8CB63D"/>
	</linearGradient>
	<path class="st42" d="M141,98.7c-0.8,2-0.2,5.4,2.2,5.9c0.4,2-1.8,2.2-1.8,4c2.3,0,5.2,0.2,6.9-1.8c1.9-2.2,0.2-5.7-1.2-7.8
		c-1-1.5-2.6-4.1-4.4-4.6C140.3,93.7,138.9,97.2,141,98.7z"/>
	
		<linearGradient id="SVGID_16_" gradientUnits="userSpaceOnUse" x1="334.6253" y1="99.9282" x2="341.5753" y2="119.7483" gradientTransform="matrix(-1 0 0 -1 493.49 200)">
		<stop  offset="0" style="stop-color:#6E9D35"/>
		<stop  offset="1" style="stop-color:#8CB63D"/>
	</linearGradient>
	<path class="st43" d="M142.4,97.1c-1,0.2-1.6-0.5-2-1.3c-0.3-0.8,0-1.7,0.7-2.3c-0.9-0.4-1.4-1.4-1.1-2.4c0.5-0.8,1.3-1.3,2.3-1.2
		c-0.9-0.4-1.5-1.2-1.7-2.2c-0.2-0.8,0.1-1.7,0.7-2.2c-1.7-1.4,0.4-2.8,1.9-2c-1.1-2.4,0.2-4.2,2.7-4.4c1-0.1,2.7-0.1,3.3,0.6
		c0.1-1.2,0-3,1.6-3.3c2-0.3,2.4,3,4,0.8c0.5-0.7,0.5-1.5,1.6-1.2c0.7,0.2,2.1,2.4,1.6,3.1c0.7-1.1,2-1.4,3.1-0.9
		c0.9,0.2,1.4,1.1,1.1,2c0,0.1-0.1,0.2-0.1,0.3c1-0.9,2.6-0.8,3.5,0.3c0.2,0.2,0.3,0.4,0.4,0.6c0.3,0.6-0.1,1.3,0.4,1.8
		s1.4-0.1,2,0.2c1.9,1,0.2,2.8-0.8,4.1c3.9-1.4,4.5,2.1,3.9,3.5c1.2,0,2,0.8,1.7,2.1s-1.8,1.9-2.9,2.4c3.4,1.2,0.2,6.8-1.3,5.4
		c0.9,0.9,0.6,2.8-1.1,2.3c0.1,1.2-0.2,4.2-1.8,4.5c-0.8,0.2-1.1-0.6-1.9-0.2c-0.6,0.3-0.4,1.1-1.2,1.4c-0.3,0.1-0.5-0.4-0.7-0.4
		c-1.3,0-2.6,0.7-3.9,0.5c-1.8-0.3-2.1-1.3-2.1-2.9c-0.5,1.1-1.7,1.7-2.9,1.3c-1.1-0.2-1.9-1.1-1.9-2.2c-1.3,0.8-3.1,0.9-3-1.2
		c-0.7,0.5-1.3,1.4-2.2,0.9c-1.1-0.6-0.6-2.3-0.1-3.1c-0.4,0.1-0.8,0.3-1.2,0.3C142,102.5,140.8,99.4,142.4,97.1z"/>
	
		<linearGradient id="SVGID_17_" gradientUnits="userSpaceOnUse" x1="339.3821" y1="114.7767" x2="339.8621" y2="118.0767" gradientTransform="matrix(-1 0 0 -1 493.49 200)">
		<stop  offset="0" style="stop-color:#040000"/>
		<stop  offset="1" style="stop-color:#8CB63D"/>
	</linearGradient>
	<path class="st44" d="M154.2,84.8c-0.5-1.7-2.5-0.4-3.1,0.6c-0.1-1.3,1.6-3.5,3-2.6c0.1-0.5,0.6-0.9,1.1-0.9c0.1,0,0.2,0,0.2,0.1
		l0,0c0.8,0.2,1.2,1.2,1.4,1.9C156.6,82.8,154.4,84.3,154.2,84.8z"/>
	
		<linearGradient id="SVGID_18_" gradientUnits="userSpaceOnUse" x1="345.6433" y1="108.9307" x2="346.7633" y2="116.5807" gradientTransform="matrix(-1 0 0 -1 493.49 200)">
		<stop  offset="0" style="stop-color:#040000"/>
		<stop  offset="1" style="stop-color:#8CB63D"/>
	</linearGradient>
	<path class="st45" d="M147.8,89c-1.3-1.2-3,0.5-3,1.9c-0.2-1.4-0.2-2.7,1.4-3.1c-1.1-1.1-0.5-3,1.2-2.5c-0.1-0.7,0.3-1.4,1.1-1.6
		c0.7-0.1,1.4,0.3,1.5,1c-0.2-0.7-1.4,0.2-1.6,0.4C147.4,86,147.4,87.8,147.8,89z"/>
	
		<linearGradient id="SVGID_19_" gradientUnits="userSpaceOnUse" x1="339.3264" y1="107.4632" x2="340.1664" y2="113.2532" gradientTransform="matrix(-1 0 0 -1 493.49 200)">
		<stop  offset="0" style="stop-color:#040000"/>
		<stop  offset="1" style="stop-color:#8CB63D"/>
	</linearGradient>
	<path class="st46" d="M153.4,88.9c-0.5-0.9-2.9-2.2-3.5-0.7l0,0c1.6,0,2.2,1.1,3.1,2.1c1.8-1.8,3.2-0.2,4.5,1.2
		c-0.5-0.6,0-2.1-1-2.8S154.4,88.4,153.4,88.9z"/>
	
		<linearGradient id="SVGID_20_" gradientUnits="userSpaceOnUse" x1="330.6952" y1="105.9948" x2="331.3752" y2="110.6848" gradientTransform="matrix(-1 0 0 -1 493.49 200)">
		<stop  offset="0" style="stop-color:#040000"/>
		<stop  offset="1" style="stop-color:#8CB63D"/>
	</linearGradient>
	<path class="st47" d="M162.5,91.5c1.6-1,4.2-0.8,3.8,1.6c-1.3-1.3-3.3-1-4.7-0.1c0.1-0.1-1.1-1.4-1.2-1.5c-0.7-0.3-1-0.1-1.8,0.1
		c0.4-0.1,0.4-1.5,1.4-1.6C161.1,89.9,162.1,90.5,162.5,91.5z"/>
	
		<linearGradient id="SVGID_21_" gradientUnits="userSpaceOnUse" x1="342.4422" y1="105.0553" x2="342.8722" y2="108.0153" gradientTransform="matrix(-1 0 0 -1 493.49 200)">
		<stop  offset="0" style="stop-color:#040000"/>
		<stop  offset="1" style="stop-color:#8CB63D"/>
	</linearGradient>
	<path class="st48" d="M147.6,94.9c1.3-0.8,2.9-0.9,4.3-0.4c0.2,0.1,1.4-1.6,2.2-1.5c-0.2-2-2.5-1.1-3.2,0.1
		C149.7,92.7,147.4,93.2,147.6,94.9z"/>
	
		<linearGradient id="SVGID_22_" gradientUnits="userSpaceOnUse" x1="335.1519" y1="98.7604" x2="333.2918" y2="105.8604" gradientTransform="matrix(-1 0 0 -1 493.49 200)">
		<stop  offset="0" style="stop-color:#040000"/>
		<stop  offset="1" style="stop-color:#8CB63D"/>
	</linearGradient>
	<path class="st49" d="M155.5,95.6c-0.2,0-0.4,0-0.8,0c-0.9,0-2.3-0.9-2.5,0.6c-1-0.7-2.5-0.4-3.1,0.6c-0.1,0.2-0.2,0.4-0.3,0.6
		c-0.9,3.8,4.9,4.6,7.3,4.9c4,0.6,7.7,0.8,11.3-1.3c0.8-0.5,2.9-2.1,2.2-3.4c-1.1-1.8-3.7,1-4.4,1.8c-0.7-1-2.3-3.2-3.8-3
		c-1,0.1-2.2,1.9-3.2,0.5c-0.8-1.2,0.1-3,0.8-4c-1,0.6-2.1,0.6-3.1,0.2c0.4,0.1,0.4,1.7,0.3,1.9S155.7,95.6,155.5,95.6z"/>
	
		<linearGradient id="SVGID_23_" gradientUnits="userSpaceOnUse" x1="338.8774" y1="105.3006" x2="337.5174" y2="122.9306" gradientTransform="matrix(-1 0 0 -1 493.49 200)">
		<stop  offset="0" style="stop-color:#040000"/>
		<stop  offset="1" style="stop-color:#8CB63D"/>
	</linearGradient>
	<path class="st50" d="M157.9,80.3c0,0.1,0.1,0.2,0.1,0.4c0.7-0.5,1.2-1.4,2.2-1.3c2,0.1,0.5,3.8,2.6,2.9c0.6-0.3,0.7-1.2,1.6-0.8
		c1.3,0.6,0.4,3.2,2,3.3c0.6,0,1-0.7,1.6-0.2c1,0.8-2.7,5.4-3.5,2c-0.4-1.6-0.4-0.8-1.9-1c-1.8-0.2-1.2-2.4-2.2-3.5
		c-1.4-1.6-2.1,0.8-3.4,0.9s-1.1-1.6-2-2c-1.4-0.6-2,1.6-3.1,2c-1.4,0.6-3.4-2.1-4.4-0.3c-0.3,0.6,0.1,1.4-0.3,1.9s-1,0.5-1.6,0.8
		c-1.8,0.9,0.3,1.2,0,2.5c-0.1,0.5-0.7,0.5-1,0.9s0,0.7-0.1,0.9c0,0.2,0,0.3,0.1,0.4c-0.6-0.7-1.9-1.1-2.3-1.8
		c-0.2-0.5,0.8-2.4,1.2-2c-1.7-1.7-0.2-2.1,1.5-1.9c-0.1-0.6-0.2-1.1-0.3-1.7c-0.4-3.4,3.9-2.8,5.9-1.8c-0.2-0.6-0.3-1.3-0.1-2
		c0.7-1.6,3,0.7,4.4,0c0.7-0.3,1-0.9,1.8-0.4C157.5,78.9,157.9,79.6,157.9,80.3z"/>
	
		<linearGradient id="SVGID_24_" gradientUnits="userSpaceOnUse" x1="330.348" y1="104.5647" x2="326.618" y2="113.3847" gradientTransform="matrix(-1 0 0 -1 493.49 200)">
		<stop  offset="0" style="stop-color:#040000"/>
		<stop  offset="1" style="stop-color:#8CB63D"/>
	</linearGradient>
	<path class="st51" d="M170.4,89.8c0.4,1.2-0.6,1.5-1.4,2.2c0.9,0,2.1,0.5,1.4,1.5c-1.1,0.8-2.4,1.2-3.7,1.2
		c-1.2-0.4-0.3-1.8-0.3-2.7c-0.1-1.5-1.1-0.8-2.2-0.7c-1.8,0.1-1.3-0.7-1.9-2c-0.5-1.1-1.8-0.5-2.2-1.2c-0.7-1.2,3.3-0.3,3.8,0.1
		c0.8,0.7,0.8,1.2,1.9,0.8C167.2,88.4,169.6,87.9,170.4,89.8z"/>
	
		<linearGradient id="SVGID_25_" gradientUnits="userSpaceOnUse" x1="337.6758" y1="98.9547" x2="340.5958" y2="118.9447" gradientTransform="matrix(-1 0 0 -1 493.49 200)">
		<stop  offset="0" style="stop-color:#040000"/>
		<stop  offset="1" style="stop-color:#8CB63D"/>
	</linearGradient>
	<path class="st52" d="M157.2,83.5c-0.9,0.2-1.3,1-2.1,1.3s-0.8,0.2-1.4-0.4c-1.3-1.2-1.2,0.1-2.4,0.7s-2.1-1-3-0.1
		c-0.7,0.7-0.2,2.2-0.2,3c0.4,0,0.9-0.1,1.3-0.3c0.4-0.3,0.5-0.8,1-1c1-0.2,1.9,1,2.8,1.2c1.3,0.4,2.1-1.1,3-0.5
		c0.8,0.5,0.9,1.8,1.8,2.2c0.7,0.2,1.4,0.2,2.1-0.1c-0.6,0.3-1.4-1.2-1.5-1.6C158.4,86.9,160.2,82.8,157.2,83.5z"/>
	
		<linearGradient id="SVGID_26_" gradientUnits="userSpaceOnUse" x1="342.5415" y1="100.7126" x2="344.4615" y2="111.6326" gradientTransform="matrix(-1 0 0 -1 493.49 200)">
		<stop  offset="0" style="stop-color:#040000"/>
		<stop  offset="1" style="stop-color:#8CB63D"/>
	</linearGradient>
	<path class="st53" d="M152.2,89.4c-1.4-1-3.3-1.5-4,0.8c0.3-0.8-1.7-0.7-2-0.6c-1.1,0.4-1.2,1.2-1.1,2.2c-0.6-0.4-2.8-0.6-3.1,0.4
		s1,1.1,1.7,1.5c-1.3-0.7-1.7,1.3-1.2,2c0.6,1,2.9,1.8,3,0c0-2,0.7-2.5,2.8-2.7c1.3-0.2,2.6-0.4,3.9-0.8c1.2-0.4,2.5-0.2,3.5,0.5
		c0.3,0.1,1.5,1,1.8,0.7c1.1-1-2.1-4.3-4.1-2.8C153,90.1,152.7,89.7,152.2,89.4z"/>
	
		<linearGradient id="SVGID_27_" gradientUnits="userSpaceOnUse" x1="331.4018" y1="101.2951" x2="330.5418" y2="107.3151" gradientTransform="matrix(-1 0 0 -1 493.49 200)">
		<stop  offset="0" style="stop-color:#040000"/>
		<stop  offset="1" style="stop-color:#8CB63D"/>
	</linearGradient>
	<path class="st54" d="M162,92.8c-0.6,0-0.4-0.1-1-0.3c-1.7-0.6-1.5-0.1-1.9,1.4c-0.2,0.8-1.4,1.4-0.9,2.2c1.2,1.9,3.1-1.8,4.6-0.2
		c0.3,0.4,0.4,1,0.8,1.4s0.8,1,1.6,0.9c1.1-0.1,2.4-1.5,1.1-2.2c-0.5-0.3-1.1,0-1.5-0.6s0.1-1.2,0-1.8
		C164.6,91.9,163.2,92.7,162,92.8z"/>
	
		<linearGradient id="SVGID_28_" gradientUnits="userSpaceOnUse" x1="338.7878" y1="96.8844" x2="343.0877" y2="108.1444" gradientTransform="matrix(-1 0 0 -1 493.49 200)">
		<stop  offset="0" style="stop-color:#040000"/>
		<stop  offset="1" style="stop-color:#8CB63D"/>
	</linearGradient>
	<path class="st55" d="M151.6,94.3c-0.9-0.8-2.3-0.7-3.1,0.2c-0.8,0.7-0.7,1.3-0.6,2.3c0.6-0.3,0.9-1,1.5-1.3s1.4,0.1,2.1,0
		c1.1-0.1,1.5-1.2,2.8-0.7c0.6,0.2,1,0.6,1.4,1c0.7-1-0.6-2.3-1.5-2.6c-0.5-0.2-1-0.2-1.4,0C152.7,93.2,151.4,94.2,151.6,94.3z"/>
	
		<linearGradient id="SVGID_29_" gradientUnits="userSpaceOnUse" x1="331.5111" y1="110.5439" x2="332.5511" y2="117.6339" gradientTransform="matrix(-1 0 0 -1 493.49 200)">
		<stop  offset="0" style="stop-color:#040000"/>
		<stop  offset="1" style="stop-color:#8CB63D"/>
	</linearGradient>
	<path class="st56" d="M160.7,86.2c-0.1-1.1-0.7-3.8-2.4-2.6c1.5,0.9,0.9,3.8,0.9,5.3c0.6-2.5,3.9-1.6,5.2-0.3
		C164.9,86,162.5,85.5,160.7,86.2z"/>
	
		<linearGradient id="SVGID_30_" gradientUnits="userSpaceOnUse" x1="325.7199" y1="102.2512" x2="326.4999" y2="107.6012" gradientTransform="matrix(-1 0 0 -1 493.49 200)">
		<stop  offset="0" style="stop-color:#040000"/>
		<stop  offset="1" style="stop-color:#8CB63D"/>
	</linearGradient>
	<path class="st57" d="M166.4,95c1.7-1.3,5-0.8,3.9,1.9c-0.6-0.9-1.8-1.2-2.8-0.6c-0.2,0.1-0.4,0.3-0.5,0.5c0.3-1.4-1.5-1.4-2.4-1.3
		s0.7-2.3,0.9-2.5C165.1,93.4,166.3,94.7,166.4,95z"/>
	
		<linearGradient id="SVGID_31_" gradientUnits="userSpaceOnUse" x1="331.227" y1="114.3608" x2="334.217" y2="122.1709" gradientTransform="matrix(-1 0 0 -1 493.49 200)">
		<stop  offset="0" style="stop-color:#040000"/>
		<stop  offset="1" style="stop-color:#8CB63D"/>
	</linearGradient>
	<path class="st58" d="M161,80.3c-0.6-0.4-1.6,0-2.3,0.3c0-1,1.3-2.3,2.3-1.8c0.8,0.5,1,1.6,0.5,2.4C161.4,80.8,161.3,80.5,161,80.3
		z"/>
	
		<linearGradient id="SVGID_32_" gradientUnits="userSpaceOnUse" x1="332.7832" y1="107.5023" x2="336.9732" y2="118.4623" gradientTransform="matrix(-1 0 0 -1 493.49 200)">
		<stop  offset="0" style="stop-color:#040000"/>
		<stop  offset="1" style="stop-color:#8CB63D"/>
	</linearGradient>
	<path class="st59" d="M158.8,85.7c-0.6-1.1-2-1.9-2.8-0.6c-0.3-0.9,0.1-1.8,1-2.1c0,0,0.1,0,0.1,0c0.8-0.1,1.7,0.2,2.2,0.8
		c0.2,0.4,0.3,0.8,0.2,1.3c0,0.3-0.6,1.1-0.5,1.3C159,86.1,158.9,85.9,158.8,85.7z"/>
	
		<linearGradient id="SVGID_33_" gradientUnits="userSpaceOnUse" x1="321.8307" y1="103.1333" x2="325.8707" y2="113.7133" gradientTransform="matrix(-1 0 0 -1 493.49 200)">
		<stop  offset="0" style="stop-color:#040000"/>
		<stop  offset="1" style="stop-color:#8CB63D"/>
	</linearGradient>
	<path class="st60" d="M170.1,90.8c-0.1,0-0.1,0.1-0.2,0.2c-0.1-1.4-1.3-2.5-2.7-2.4c-0.2,0-0.4,0.1-0.7,0.1
		c0.7-1.7,3.3-0.6,4.1,0.3c0.3,0.4,0.4,0.6,0.2,1C170.6,90.4,170.4,90.6,170.1,90.8z"/>
	
		<linearGradient id="SVGID_34_" gradientUnits="userSpaceOnUse" x1="326.1277" y1="108.4797" x2="330.7777" y2="120.6497" gradientTransform="matrix(-1 0 0 -1 493.49 200)">
		<stop  offset="0" style="stop-color:#040000"/>
		<stop  offset="1" style="stop-color:#8CB63D"/>
	</linearGradient>
	<path class="st61" d="M164.5,83.2c-0.4-0.4-0.9-0.7-1.4-0.9c-0.1,0-1.1-0.1-1,0c0-0.7,0.5-1.3,1.2-1.3c0.1,0,0.1,0,0.2,0
		c1.3,0,2.4,1,2.4,2.3c0,0.5-0.1,1-0.4,1.4c0.2-0.3-0.6-1.3-0.8-1.5L164.5,83.2z"/>
	
		<linearGradient id="SVGID_35_" gradientUnits="userSpaceOnUse" x1="339.8177" y1="115.7521" x2="342.5876" y2="122.9921" gradientTransform="matrix(-1 0 0 -1 493.49 200)">
		<stop  offset="0" style="stop-color:#040000"/>
		<stop  offset="1" style="stop-color:#8CB63D"/>
	</linearGradient>
	<path class="st62" d="M151.5,79.8c-0.1,0.1-0.2,0.3-0.3,0.4c-0.2,0.4,0,0.7-0.5,0.3c-0.7-0.6-0.7-1.7,0-2.4c0,0,0.1-0.1,0.1-0.1
		c0.9-0.5,2.5,0.5,2.8,1.4C152.9,78.8,152,79.2,151.5,79.8z"/>
	
		<linearGradient id="SVGID_36_" gradientUnits="userSpaceOnUse" x1="337.6696" y1="107.1213" x2="341.6796" y2="117.6113" gradientTransform="matrix(-1 0 0 -1 493.49 200)">
		<stop  offset="0" style="stop-color:#040000"/>
		<stop  offset="1" style="stop-color:#8CB63D"/>
	</linearGradient>
	<path class="st63" d="M154.6,86.6c-0.4-0.4-0.9-0.8-1.5-1.1c-0.2-0.1-2.2-0.4-2,0.2c-0.3-0.7,0.1-1.5,0.9-1.8
		c0.1,0,0.2-0.1,0.3-0.1c0.9-0.1,1.8,0.3,2.3,1c0.3,0.3,0.4,0.6,0.4,1c0,0.2-0.3,1-0.2,1.1C154.7,86.8,154.6,86.7,154.6,86.6z"/>
	
		<linearGradient id="SVGID_37_" gradientUnits="userSpaceOnUse" x1="340.684" y1="103.8444" x2="344.154" y2="112.9144" gradientTransform="matrix(-1 0 0 -1 493.49 200)">
		<stop  offset="0" style="stop-color:#040000"/>
		<stop  offset="1" style="stop-color:#8CB63D"/>
	</linearGradient>
	<path class="st64" d="M148.2,90.1c0-0.1,0-0.2,0-0.2c0.1-0.4,0.3-0.7,0.6-1c0.7-0.6,1.6-0.7,2.4-0.3c0.8,0.4,1.6,1.1,1.6,2.1
		c-0.8-1.7-3.7-1.3-4.3,0.3C148.4,90.6,148.3,90.3,148.2,90.1z"/>
	
		<linearGradient id="SVGID_38_" gradientUnits="userSpaceOnUse" x1="331.1435" y1="101.7114" x2="334.0135" y2="109.2014" gradientTransform="matrix(-1 0 0 -1 493.49 200)">
		<stop  offset="0" style="stop-color:#040000"/>
		<stop  offset="1" style="stop-color:#8CB63D"/>
	</linearGradient>
	<path class="st65" d="M159,93.4c0-0.2,0-0.3,0-0.5c0-0.6,0.4-1.1,1-1.1c0.8-0.2,1.6,0.3,1.8,1.1c0,0.2,0.1,0.3,0,0.5
		c0-0.4-1.2-0.4-1.4-0.2c-0.5,0.3-0.6,1.1-0.7,1.6c0-0.1-0.5-0.7-0.5-0.8C159.1,93.7,159,93.6,159,93.4z"/>
	
		<linearGradient id="SVGID_39_" gradientUnits="userSpaceOnUse" x1="329.7198" y1="106.0998" x2="332.6798" y2="113.8698" gradientTransform="matrix(-1 0 0 -1 493.49 200)">
		<stop  offset="0" style="stop-color:#040000"/>
		<stop  offset="1" style="stop-color:#8CB63D"/>
	</linearGradient>
	<path class="st66" d="M162.3,88.9c-0.3-0.8-1.3-0.5-1.9-0.3c0.1-0.4,0.3-0.8,0.4-1.1c0.3-0.3,0.7-0.4,1.2-0.3
		c0.8,0.3,1.1,1.2,0.8,2c-0.1,0.2-0.2,0.4-0.4,0.5C162.4,89.4,162.4,89.1,162.3,88.9z"/>
	
		<linearGradient id="SVGID_40_" gradientUnits="userSpaceOnUse" x1="337.3257" y1="100.2252" x2="340.5658" y2="108.7051" gradientTransform="matrix(-1 0 0 -1 493.49 200)">
		<stop  offset="0" style="stop-color:#040000"/>
		<stop  offset="1" style="stop-color:#8CB63D"/>
	</linearGradient>
	<path class="st67" d="M155.6,93.4c0.2,0.4,0.3,0.8,0.3,1.2c-1.1-0.8-2.7-1-3.7,0.1c0.1-0.1-0.1-0.8-0.1-0.9c0-0.3,0.1-0.6,0.3-0.8
		c0.4-0.5,1-0.7,1.6-0.6C154.7,92.4,155.3,92.8,155.6,93.4z"/>
	
		<linearGradient id="SVGID_41_" gradientUnits="userSpaceOnUse" x1="356.5145" y1="94.3197" x2="354.3745" y2="101.1997" gradientTransform="matrix(-1 0 0 -1 493.49 200)">
		<stop  offset="0" style="stop-color:#040000"/>
		<stop  offset="1" style="stop-color:#8CB63D"/>
	</linearGradient>
	<path class="st68" d="M135.2,102c1.5-1.1,1.9-3.9,3.6-4.4c2.1-0.6-0.2,2.2-0.5,2.8c0.5-0.2,1.1-0.4,1.7-0.4
		c0.1,1.5-2.2,2.4-3.3,3.2c0.7,0.1,5-1,4.2,0.7c-0.7,1.5-4,0.5-5-0.1c-0.6-0.3-1.1-0.8-1.5-1.4C134.8,102.3,135,102.2,135.2,102z"/>
	<path class="st69" d="M178.8,91.5c0,0.5-0.1,1-0.4,1.4c0,0,0.1,0.1,0.1,0.1s0.2-0.1,0.3-0.2s0.4-0.6,0.7-0.7
		c0.1,0.4-0.2,1.2,0.2,1.2c0.2-0.5,0.6-0.9,1-1.2c-0.1,0.7-0.4,1.3-0.8,1.8c0.1,0.2,0.2,0.4,0.4,0.3c0.2-0.2,0.3-0.4,0.5-0.5
		c0.1,0.9-0.3,1.8-0.9,2.4c-0.6,0.6-0.7,0.1-0.5-0.5c0-0.1,0-0.2,0.1-0.2c-0.2,0.1-0.4,0.1-0.6,0.1c-0.6,0-1.2-0.2-1.2-0.9
		c0-0.3,0-0.7,0.1-1c-0.2,0.1-0.5,0.3-0.6,0.2C176.4,93.2,178.8,91.5,178.8,91.5z"/>
	
		<linearGradient id="SVGID_42_" gradientUnits="userSpaceOnUse" x1="313.2637" y1="97.7174" x2="369.9475" y2="97.7174" gradientTransform="matrix(-1 0 0 -1 493.49 200)">
		<stop  offset="0" style="stop-color:#EDF1B5"/>
		<stop  offset="0.16" style="stop-color:#72B24C"/>
		<stop  offset="1" style="stop-color:#2B883A"/>
	</linearGradient>
	<path class="st70" d="M154.5,106.2c-4.9,0.8-10,2.1-14.8,0.3c-3.9-1.5-7.3-4.8-10.1-8.1c-2.1,1.6-1.1,2.9,0.5,4.4
		c-1.8-0.8-3.4-1.9-4.9-3.2c-0.7,1-1.3,2.1-1.6,3.3c2,1.6,4.7,2.2,7,3c-5-0.6-5.5,1.7-5.6,2.2c0,0,10.7,2.9,15.6,3.4
		c12.7,1.3,20-0.9,28.7-5.9c3-1.8,15.7-8.2,9-12.2c-3.6-2.2-7.1,4.6-9.8,6.5C164.2,102.8,159.5,105.4,154.5,106.2z"/>
	
		<linearGradient id="SVGID_43_" gradientUnits="userSpaceOnUse" x1="319.5152" y1="97.5141" x2="317.6652" y2="107.6441" gradientTransform="matrix(-1 0 0 -1 493.49 200)">
		<stop  offset="0" style="stop-color:#040000"/>
		<stop  offset="1" style="stop-color:#8CB63D"/>
	</linearGradient>
	<path class="st71" d="M178.1,93.7c-1.3-1-2.9-0.3-4.9,2c-1.2,1.3-2.2,2.7-3.1,4.2c0,0,5.6-0.1,8.1-1.6
		C180.1,97.1,179.5,94.7,178.1,93.7z"/>
	
		<linearGradient id="SVGID_44_" gradientUnits="userSpaceOnUse" x1="317.6208" y1="100.7902" x2="315.1508" y2="107.1302" gradientTransform="matrix(-1 0 0 -1 493.49 200)">
		<stop  offset="0" style="stop-color:#040000"/>
		<stop  offset="1" style="stop-color:#B4D471"/>
	</linearGradient>
	<path class="st72" d="M175.7,93.3c-1.3,0.6-0.9,3.7,1.6,4.3s3-1.8,1.8-3.3C178.3,93.2,176.9,92.8,175.7,93.3z"/>
	
		<linearGradient id="SVGID_45_" gradientUnits="userSpaceOnUse" x1="360.7448" y1="105.2749" x2="358.2948" y2="90.7749" gradientTransform="matrix(-1 0 0 -1 493.49 200)">
		<stop  offset="0" style="stop-color:#72B24C"/>
		<stop  offset="1" style="stop-color:#040000"/>
	</linearGradient>
	<path class="st73" d="M129.5,99.1c2.7,3.3,6.1,6.1,9.9,8.1C139.5,107.2,126.5,102.2,129.5,99.1z"/>
	
		<linearGradient id="SVGID_46_" gradientUnits="userSpaceOnUse" x1="363.2074" y1="104.6994" x2="360.5974" y2="89.2794" gradientTransform="matrix(-1 0 0 -1 493.49 200)">
		<stop  offset="0" style="stop-color:#72B24C"/>
		<stop  offset="1" style="stop-color:#040000"/>
	</linearGradient>
	<path class="st74" d="M125.2,100.2c4.6,3.2,9.5,5.9,14.7,8c0,0-12.5-3.5-15.9-5.2C124.1,102.9,124.1,100.7,125.2,100.2z"/>
	
		<linearGradient id="SVGID_47_" gradientUnits="userSpaceOnUse" x1="361.6558" y1="96.0448" x2="360.5158" y2="89.2948" gradientTransform="matrix(-1 0 0 -1 493.49 200)">
		<stop  offset="0" style="stop-color:#72B24C"/>
		<stop  offset="1" style="stop-color:#040000"/>
	</linearGradient>
	<path class="st75" d="M125.7,107.8c0,0,0.1-2,4.9-1.4c3,0.5,6,1.3,8.8,2.5C139.5,109,131.7,108,125.7,107.8z"/>
	
		<linearGradient id="SVGID_48_" gradientUnits="userSpaceOnUse" x1="332.2267" y1="104.7246" x2="328.2966" y2="82.3846" gradientTransform="matrix(-1 0 0 -1 493.49 200)">
		<stop  offset="0" style="stop-color:#754586"/>
		<stop  offset="1" style="stop-color:#56246E"/>
	</linearGradient>
	<path class="st76" d="M144.9,101.4c-5.3,10.7,16.6,19.3,30.8,12.5c9.1-4.4,8.1-13.9-1.9-12c-5.3,1-10.4-3-15.7-4.7
		S147.4,96.3,144.9,101.4z"/>
	<g>
		
			<linearGradient id="SVGID_49_" gradientUnits="userSpaceOnUse" x1="334.6099" y1="108.1159" x2="329.8599" y2="82.2659" gradientTransform="matrix(-1 0 0 -1 493.49 200)">
			<stop  offset="0" style="stop-color:#754586"/>
			<stop  offset="1" style="stop-color:#040000"/>
		</linearGradient>
		<path class="st77" d="M162.4,110c-0.4-1.2-1.2-2.3-2.2-3.1c-2.3-1.4-5.1-1.8-7.6-1c-0.8,0.2-1.4,0.7-2.2,0.9
			c-0.9,0.1-1.9,0.1-2.8-0.1c-0.5,0-1,0-1.5,0c-0.9-0.8-1.3-2.1-1.1-3.3c0.7-3.7,3.8-6.4,7.5-6.7c7.5-0.6,13.8,6.5,20.4,5.6
			c2.6-0.4,4.1,0.2,4.5,1.3h-1.4c0.2,0.7,0.7,1.2,1.4,1.3c-0.7,1.9-3.9,4.2-9.2,4.8c-1.8,0.2-3.7,0.3-5.6,0.4
			C162.5,110.1,162.5,110.1,162.4,110z"/>
	</g>
	
		<linearGradient id="SVGID_50_" gradientUnits="userSpaceOnUse" x1="310.5844" y1="96.9101" x2="315.9843" y2="93.0101" gradientTransform="matrix(-1 0 0 -1 493.49 200)">
		<stop  offset="0" style="stop-color:#72B24C"/>
		<stop  offset="1" style="stop-color:#2B883A"/>
	</linearGradient>
	<path class="st78" d="M177.6,100.7c0.3,1,0.8,1.9,1.6,2.7h-2.6c0.3,1,1.4,1.5,2.4,1.8c-0.8,1.2-1,2.7-0.6,4.1c0.9-1,2.2-1.8,2.8-3
		c0.1,1.6-0.5,2.6,0.7,3.9c0.3-1.9,1.5-4.1,0.4-6c1.1-0.3,2-1,2.6-2c-0.3-0.5-0.8-0.9-1.2-1.2c-0.1,1.1-0.7,2.1-1.7,2.7
		C181.9,103.6,180.3,100.7,177.6,100.7z"/>
	
		<linearGradient id="SVGID_51_" gradientUnits="userSpaceOnUse" x1="315.7954" y1="99.1215" x2="311.9054" y2="96.3515" gradientTransform="matrix(-1 0 0 -1 493.49 200)">
		<stop  offset="0" style="stop-color:#72B24C"/>
		<stop  offset="1" style="stop-color:#040000"/>
	</linearGradient>
	<path class="st79" d="M178.3,101.2c1.4,0.3,2.4,1.3,2.8,2.6C181.2,103.8,178.6,102.6,178.3,101.2z"/>
	
		<linearGradient id="SVGID_52_" gradientUnits="userSpaceOnUse" x1="317.6853" y1="96.1903" x2="311.8053" y2="95.6803" gradientTransform="matrix(-1 0 0 -1 493.49 200)">
		<stop  offset="0" style="stop-color:#72B24C"/>
		<stop  offset="1" style="stop-color:#040000"/>
	</linearGradient>
	<path class="st80" d="M181.2,104.4c-1.2-0.8-2.6-1-4-0.6C178.4,104.6,179.9,104.8,181.2,104.4z"/>
	
		<linearGradient id="SVGID_53_" gradientUnits="userSpaceOnUse" x1="315.5083" y1="91.9052" x2="312.1883" y2="95.3752" gradientTransform="matrix(-1 0 0 -1 493.49 200)">
		<stop  offset="0" style="stop-color:#72B24C"/>
		<stop  offset="1" style="stop-color:#040000"/>
	</linearGradient>
	<path class="st81" d="M181.3,105c0,0-3-0.7-2.9,3.4C179.8,107.7,180.8,106.5,181.3,105z"/>
	
		<linearGradient id="SVGID_54_" gradientUnits="userSpaceOnUse" x1="312.0741" y1="89.2741" x2="311.3141" y2="95.6641" gradientTransform="matrix(-1 0 0 -1 493.49 200)">
		<stop  offset="0" style="stop-color:#72B24C"/>
		<stop  offset="1" style="stop-color:#040000"/>
	</linearGradient>
	<path class="st82" d="M182.1,105c0,0-1.3,2.4-0.4,4.3C181.7,109.3,182.9,106.2,182.1,105z"/>
	
		<linearGradient id="SVGID_55_" gradientUnits="userSpaceOnUse" x1="309.4663" y1="97.9026" x2="311.4263" y2="96.5726" gradientTransform="matrix(-1 0 0 -1 493.49 200)">
		<stop  offset="0" style="stop-color:#72B24C"/>
		<stop  offset="1" style="stop-color:#040000"/>
	</linearGradient>
	<path class="st83" d="M182.3,103.8c0.7-0.6,1.2-1.4,1.4-2.3l0.6,0.7C184.3,102.2,183.4,103.8,182.3,103.8z"/>
	
		<linearGradient id="SVGID_56_" gradientUnits="userSpaceOnUse" x1="326.6175" y1="88.1259" x2="338.9075" y2="87.9759" gradientTransform="matrix(-1 0 0 -1 493.49 200)">
		<stop  offset="0" style="stop-color:#754586"/>
		<stop  offset="1" style="stop-color:#56246E"/>
	</linearGradient>
	<path class="st84" d="M155.7,112.3c-0.9-2.3,1.6-5.5,4-4.6c1.9,0.8,2.4,3.4,3.6,4.9c1.5,1.9,5.2,1.6,7.3,1.5
		c3.1-0.4,6.1-1.4,8.6-3.2c-3.7,3.5-9.8,5.1-12.9,5.3C162.9,116.5,157.1,116,155.7,112.3z"/>
	
		<linearGradient id="SVGID_57_" gradientUnits="userSpaceOnUse" x1="343.6859" y1="93.4539" x2="342.7459" y2="79.6239" gradientTransform="matrix(-1 0 0 -1 493.49 200)">
		<stop  offset="0" style="stop-color:#D02C29"/>
		<stop  offset="1" style="stop-color:#AF1E23"/>
	</linearGradient>
	<path class="st85" d="M152.8,120.4c-2.2,0.5-4.6,0.5-6.8,0c-6.1-1.5-8-6.9-5.7-11.2c0.8-1.5,3.2-3.4,7.2-2.8
		c2.8,0.5,5.3-1.8,8.6-1.3c2.7,0.5,5,3.3,4.8,6.8C160.7,116.3,156.8,119.5,152.8,120.4z"/>
	
		<linearGradient id="SVGID_58_" gradientUnits="userSpaceOnUse" x1="344.3944" y1="97.4629" x2="343.7444" y2="90.7029" gradientTransform="matrix(-1 0 0 -1 493.49 200)">
		<stop  offset="0" style="stop-color:#72B24C"/>
		<stop  offset="1" style="stop-color:#2B883A"/>
	</linearGradient>
	<path class="st86" d="M150.2,107.8c-0.9,0.4-1.9,0.4-2.9,0.1c-0.8-0.5-1.4-1.4-1.4-2.3c0.2,0.1,1.7,0.5,1.6,0.8
		c0.1-0.5,0-0.9-0.2-1.3c-0.1-0.2-0.7-0.9-0.9-0.8c0.5-0.1,1-0.1,1.4,0.1c0.3,0.1,1,0.6,1,1c0-1.2-0.1-2.5-0.4-3.7
		c0.3-0.2,0.6-0.3,1-0.3c-0.1,1.2,0.1,2.5,0.5,3.7c0.1-0.8,0.3-1.6,0.8-2.3c-0.1,0.9,0,1.9,0.3,2.8c-0.2-0.7,1.3-0.8,1.7-0.9
		c-0.3,0.3-0.5,0.6-0.7,0.9c-0.2,0.3-0.2,0.7-0.3,1C151.4,107.2,150.9,107.6,150.2,107.8z"/>
	
		<linearGradient id="SVGID_59_" gradientUnits="userSpaceOnUse" x1="343.8032" y1="95.6849" x2="343.4232" y2="82.9449" gradientTransform="matrix(-1 0 0 -1 493.49 200)">
		<stop  offset="0" style="stop-color:#E9614F"/>
		<stop  offset="1" style="stop-color:#040000"/>
	</linearGradient>
	<path class="st87" d="M146.6,108.3c0.9,0.6,2,0.8,3.1,0.6c1.6-0.3,2.9-1.5,3.3-3.1c2.5-0.5,5.7,0,6.7,3c0.7,1.8-0.1,3.8-1.9,4.6
		c0,0,0,0,0,0c-1.4,0.6-2.8-0.7-4.2-0.3c-1,0.3-1.7,1.7-2.8,2.2c-2.2,1-3.6-0.1-5.6-0.5c-1.1-0.1-2.3-0.1-3.4,0
		c-4.3,0-0.9-9.9,3.7-6.9C145.9,107.9,146.2,108.2,146.6,108.3z"/>
	
		<linearGradient id="SVGID_60_" gradientUnits="userSpaceOnUse" x1="344.4485" y1="98.5943" x2="343.3985" y2="93.2643" gradientTransform="matrix(-1 0 0 -1 493.49 200)">
		<stop  offset="0" style="stop-color:#72B24C"/>
		<stop  offset="1" style="stop-color:#040000"/>
	</linearGradient>
	<polygon class="st88" points="149.4,101.6 148.8,101.6 149.7,106.5 	"/>
	
		<linearGradient id="SVGID_61_" gradientUnits="userSpaceOnUse" x1="345.4203" y1="95.7459" x2="344.6603" y2="91.9059" gradientTransform="matrix(-1 0 0 -1 493.49 200)">
		<stop  offset="0" style="stop-color:#72B24C"/>
		<stop  offset="1" style="stop-color:#040000"/>
	</linearGradient>
	<path class="st89" d="M147.2,104.5c1.3,0.4,2.2,1.5,2.4,2.9c0,0-0.5,0.9-0.8,0S148.1,105,147.2,104.5z"/>
	
		<linearGradient id="SVGID_62_" gradientUnits="userSpaceOnUse" x1="346.3601" y1="94.194" x2="345.9301" y2="92.034" gradientTransform="matrix(-1 0 0 -1 493.49 200)">
		<stop  offset="0" style="stop-color:#72B24C"/>
		<stop  offset="1" style="stop-color:#040000"/>
	</linearGradient>
	<path class="st90" d="M148.3,107.7c-0.4-0.8-1.1-1.4-2-1.7C146.5,107,147.3,107.8,148.3,107.7z"/>
	
		<linearGradient id="SVGID_63_" gradientUnits="userSpaceOnUse" x1="343.3686" y1="96.3682" x2="342.6286" y2="92.6082" gradientTransform="matrix(-1 0 0 -1 493.49 200)">
		<stop  offset="0" style="stop-color:#72B24C"/>
		<stop  offset="1" style="stop-color:#040000"/>
	</linearGradient>
	<path class="st91" d="M150.2,107.2c0,0-0.1-2.6,0.5-3.5c0,0,0.1,1.6,0.2,2.5S150.9,107.4,150.2,107.2z"/>
	
		<linearGradient id="SVGID_64_" gradientUnits="userSpaceOnUse" x1="342.1415" y1="94.8297" x2="341.8215" y2="93.2397" gradientTransform="matrix(-1 0 0 -1 493.49 200)">
		<stop  offset="0" style="stop-color:#72B24C"/>
		<stop  offset="1" style="stop-color:#040000"/>
	</linearGradient>
	<path class="st92" d="M152,105.1c-0.7,0.3-1.1,1-1,1.7C151,106.8,151.5,107.1,152,105.1z"/>
</g>
</svg>
