<svg id="图层_1" data-name="图层 1" xmlns="http://www.w3.org/2000/svg" viewBox="0 0 200 200"><defs><style>.cls-1{fill:#242528;}.cls-2{fill:#434447;}.cls-3{fill:#f4f4f4;}.cls-4{fill:#fff;}.cls-5{fill:#fcc0d2;opacity:0.4;}</style></defs><title>熊猫</title><path class="cls-1" d="M196.53,80.49A31.49,31.49,0,1,1,165,49,31.49,31.49,0,0,1,196.53,80.49Z"/><path class="cls-2" d="M189.64,80.49A24.6,24.6,0,1,1,165,55.89,24.6,24.6,0,0,1,189.64,80.49Z"/><path class="cls-1" d="M65.65,80.49A31.49,31.49,0,1,1,34.16,49,31.49,31.49,0,0,1,65.65,80.49Z"/><path class="cls-2" d="M58.76,80.49a24.6,24.6,0,1,1-24.6-24.6A24.6,24.6,0,0,1,58.76,80.49Z"/><path class="cls-3" d="M173.94,117.14c0,35.64-33.28,64.53-74.34,64.53s-74.34-28.89-74.34-64.53S58.55,52.61,99.6,52.61,173.94,81.51,173.94,117.14Z"/><path class="cls-1" d="M153.29,103.72c0,11.4-10.4,20.65-23.23,20.65s-23.23-9.25-23.23-20.65,10.4-20.65,23.23-20.65S153.29,92.32,153.29,103.72Z"/><path class="cls-1" d="M92.37,103.72c0,11.4-10.4,20.65-23.23,20.65s-23.23-9.25-23.23-20.65,10.4-20.65,23.23-20.65S92.37,92.32,92.37,103.72Z"/><path class="cls-4" d="M84.63,103.25A11.65,11.65,0,1,1,73,91.6,11.65,11.65,0,0,1,84.63,103.25Z"/><path class="cls-1" d="M81,103.22a8,8,0,1,1-8-8A8,8,0,0,1,81,103.22Z"/><path class="cls-4" d="M138.86,104a11.65,11.65,0,1,1-11.65-11.65A11.66,11.66,0,0,1,138.86,104Z"/><path class="cls-1" d="M135.2,103.93a8,8,0,1,1-8-8A8,8,0,0,1,135.2,103.93Z"/><path class="cls-1" d="M114.86,140.37c-.33,4.39-8.41,2.16-10.23.11a9.73,9.73,0,0,1-2.19-5.74c2.46-3.09,10.42-3.17,9.78-8.32-.61-4.94-8.25-5.73-11.88-5.55-3.43.17-14.11,1.59-14.45,6.08s7.18,5.09,11,6.5c-.07,2.56-.56,5.1-2.27,7s-9.9,4.28-10.23-.11c-.25-3.29-5.42-3.32-5.16,0,.59,7.87,9.22,8.77,15.25,6.28a10.7,10.7,0,0,0,5.17-4.39,10.7,10.7,0,0,0,5.17,4.39c6,2.49,14.66,1.59,15.26-6.28C120.28,137.05,115.11,137.08,114.86,140.37Z"/><path class="cls-5" d="M74.82,136.24c0,6.09-5.55,11-12.39,11S50,142.33,50,136.24s5.55-11,12.39-11S74.82,130.16,74.82,136.24Z"/><path class="cls-5" d="M149.16,135.21c0,6.08-5.55,11-12.39,11s-12.39-4.93-12.39-11,5.55-11,12.39-11S149.16,129.13,149.16,135.21Z"/></svg>