<svg xmlns="http://www.w3.org/2000/svg" xmlns:xlink="http://www.w3.org/1999/xlink" viewBox="0 0 200 200"><defs><style>.cls-1{fill:none;}.cls-2{isolation:isolate;}.cls-3{font-size:27.41px;font-family:STXingkaiTC-Light, Xingkai TC;font-weight:300;letter-spacing:-0.03em;}.cls-4{letter-spacing:0em;}.cls-5{letter-spacing:0.01em;}.cls-6{letter-spacing:-0.02em;}.cls-7{letter-spacing:0.01em;}.cls-8{letter-spacing:0.01em;}.cls-9{letter-spacing:-0.03em;}.cls-10{letter-spacing:0em;}.cls-11{letter-spacing:0.01em;}.cls-12{letter-spacing:-0.02em;}.cls-13{letter-spacing:0.01em;}.cls-14{fill:#e79d66;}.cls-15{fill:#915323;}.cls-16{clip-path:url(#clip-path);}.cls-17{fill:#da894f;}.cls-18{fill:#f4b681;}.cls-19{fill:#f7c190;}.cls-20{fill:#dbba9e;mix-blend-mode:multiply;}.cls-21{clip-path:url(#clip-path-3);}.cls-22{clip-path:url(#clip-path-4);}</style><clipPath id="clip-path"><path class="cls-1" d="M14.8,100.05l-.8,1.67s-.47,1,.08,1.52a118.87,118.87,0,0,0,12.25,8.94c3.86,2.24,4.5,2.84,5.9,1.36S40,105.87,40,105.87s7.53.7,5.15-9c-2.8-.92-13.68-2.62-13.68-2.62S15.25,99.87,14.8,100.05Z"/></clipPath><clipPath id="clip-path-3"><path class="cls-1" d="M24.08,93.66s-1.56-2.52,2.16-4,10.25-1.09,16.1,3.55,3,12.18-2.54,10.67c0,0-7.26,6.34-8,6.93s-1,1.28-3.85-.49-11.53-8-12.68-9-.28-1.71,1-2.39S24.08,93.66,24.08,93.66Z"/></clipPath><clipPath id="clip-path-4"><path class="cls-1" d="M5.75,102.06,5.5,103.9s-.12,1.1.55,1.41A117.39,117.39,0,0,0,20.49,110c4.36.92,5.16,1.29,6-.55s5-9.71,5-9.71S38.85,98,33.57,89.59c-2.95,0-13.82,1.78-13.82,1.78S6.12,101.75,5.75,102.06Z"/></clipPath></defs><title>未标题-4</title><g class="cls-2"><g id="图层_1" data-name="图层 1"><text class="cls-3" transform="translate(57.73 106.36)">S<tspan class="cls-4" x="17.94" y="0">h</tspan><tspan class="cls-5" x="28.8" y="0">a</tspan><tspan class="cls-6" x="40.37" y="0">b</tspan><tspan class="cls-7" x="50.59" y="0">u</tspan><tspan class="cls-8" x="61.66" y="0"> </tspan><tspan class="cls-9" x="75.61" y="0">S</tspan><tspan class="cls-10" x="93.54" y="0">h</tspan><tspan class="cls-11" x="104.41" y="0">a</tspan><tspan class="cls-12" x="115.97" y="0">b</tspan><tspan class="cls-13" x="126.19" y="0">u</tspan></text><path class="cls-14" d="M14.8,100.05l-.8,1.67s-.47,1,.08,1.52a118.87,118.87,0,0,0,12.25,8.94c3.86,2.24,4.5,2.84,5.9,1.36S40,105.87,40,105.87s7.53.7,5.15-9c-2.8-.92-13.68-2.62-13.68-2.62S15.25,99.87,14.8,100.05Z"/><path class="cls-15" d="M31.45,94.27S42.33,96,45.13,96.89c2.08,8.46-3.4,9-4.82,9H40s-6.36,6.18-7.75,7.67a2,2,0,0,1-1.45.81c-.87,0-2-.76-4.45-2.17a118.87,118.87,0,0,1-12.25-8.94c-.55-.51-.08-1.52-.08-1.52l.8-1.67c.45-.18,16.65-5.78,16.65-5.78m-.05-.51-.11,0c-.67.23-16.22,5.61-16.67,5.79l-.17.07-.09.17-.81,1.68a1.87,1.87,0,0,0,.2,2.09,116.29,116.29,0,0,0,12.34,9l.94.55c1.91,1.12,2.87,1.68,3.75,1.68a2.46,2.46,0,0,0,1.8-1c1.25-1.33,6.61-6.55,7.59-7.5h.14a5.81,5.81,0,0,0,4.57-2c1.31-1.67,1.56-4.22.73-7.58l-.07-.27-.25-.08C42.48,95.5,32,93.85,31.52,93.78l-.12,0Z"/><g class="cls-16"><path class="cls-17" d="M15.26,101.62s-1,.82,1.78,3.24,12,9.31,14.06,8.76L31,112.3s-.24-.47.5-.94c0,0,.47,1.52,2,.09s6.34-6.12,6.34-6.12,3.72.89,6.09-3.18c0,0-1.93,6.87-4,7.87s-6.47,4.73-7.92,5.41A26,26,0,0,1,27.6,117c-.76,0-2.07-1-5.15-3.43a93.27,93.27,0,0,1-10.32-11.09C12.21,102.23,12.9,99.16,15.26,101.62Z"/></g><path class="cls-18" d="M24.08,93.66s-1.56-2.52,2.16-4,10.25-1.09,16.1,3.55,3,12.18-2.54,10.67c0,0-7.26,6.34-8,6.93s-1,1.28-3.85-.49-11.53-8-12.68-9-.28-1.71,1-2.39S24.08,93.66,24.08,93.66Z"/><path class="cls-15" d="M30.68,88.87A19,19,0,0,1,42.34,93.2c5.33,4.22,3.47,10.87-1.13,10.87a5.57,5.57,0,0,1-1.41-.2s-7.26,6.34-8,6.93c-.41.3-.66.64-1.22.64a5.71,5.71,0,0,1-2.63-1.13c-2.84-1.78-11.53-8-12.68-9s-.28-1.71,1-2.39,7.86-5.24,7.86-5.24-1.56-2.52,2.16-4a12,12,0,0,1,4.44-.78m0-.49v0h0a12.56,12.56,0,0,0-4.62.81,4.18,4.18,0,0,0-2.66,2.38,2.89,2.89,0,0,0,.06,1.92c-1.36.94-6.42,4.4-7.48,5-.8.44-1.67,1-1.76,1.78a1.65,1.65,0,0,0,.69,1.42c1.17,1,9.89,7.28,12.75,9.07a6.12,6.12,0,0,0,2.89,1.2,1.87,1.87,0,0,0,1.29-.56l.22-.18c.72-.54,6.69-5.75,7.87-6.78a5.79,5.79,0,0,0,1.28.15,4.73,4.73,0,0,0,4.53-3.31c.75-2.16.39-5.67-3.1-8.44a19.5,19.5,0,0,0-12-4.43Z"/><path class="cls-19" d="M20.48,96.94c-1.7,1-4.73,2.77-4.49,3.24s9.8,7.36,11.86,8.56,2.58,1.62,4,.13,7.39-6.55,7.39-6.55,3.75.58,4.91-1.75a5.2,5.2,0,0,0-.39-4.72s-.44,1-2.33.59-4-3.9-1.82-4.09c0,0-6.16-4.87-13.51-2,0,0,4.81-1.27,7.75.22s4.39,5.13,2.07,7.27-11.16-3.8-11.16-3.8S21.52,96.29,20.48,96.94Z"/><rect class="cls-15" x="39.71" y="104.22" width="0.49" height="1.93" transform="translate(-7.72 3.27) rotate(-4.27)"/><rect class="cls-15" x="30.79" y="111.69" width="0.49" height="3.03" transform="translate(-6.2 1.89) rotate(-3.16)"/><path class="cls-17" d="M45.39,97.69c.35,3.4-2.11,6.27-5.75,5.29,0,0-7.26,6.34-8,6.93s-1,1.28-3.85-.49-11.53-8-12.68-9a2.3,2.3,0,0,1-.31-.33c-.16.36-.06.75.47,1.22,1.15,1,9.84,7.24,12.68,9s3.07,1.07,3.85.49,8-6.93,8-6.93C43.76,104.94,46.32,101.46,45.39,97.69Z"/><path class="cls-17" d="M31.79,107.77c.79-.55.87-1.46-.35-.7S29.53,109.35,31.79,107.77Z"/><path class="cls-17" d="M37.89,101.62c-.4.2-1.4,1.49-.31,1.13S39,101.08,37.89,101.62Z"/><path class="cls-17" d="M24.05,94.55c-.58,0-1.61,1-.79,1.23S24.94,94.59,24.05,94.55Z"/><path class="cls-17" d="M41.4,96.44c-.44-.43-1.16,0-.62.7S42.08,97.12,41.4,96.44Z"/><path class="cls-17" d="M42.43,100.6c-.53-.29-1,.5-.56.72S43,100.92,42.43,100.6Z"/><path class="cls-17" d="M31.14,89.9c-.47-.3-1.23,0-.66.43S31.94,90.42,31.14,89.9Z"/><path class="cls-18" d="M28.73,100c-1.17-.55-6.75-2.28-8.69-1.3s-.18,4,4.21,6.29C30.1,108,37.8,104.25,28.73,100Z"/><g class="cls-16"><polygon class="cls-20" points="26.75 113.03 27.55 110.66 26.43 109.92 23.52 110.66 26.75 113.03"/></g><g class="cls-21"><path class="cls-20" d="M35.42,89.28s1.72,1.66,1.65,6.39-4.79,5.22-4.79,5.22L27.37,111l-1.48-1.22,3.87-12.6,2.09-9.15Z"/></g><path class="cls-14" d="M5.75,102.06,5.5,103.9s-.12,1.1.55,1.41A117.39,117.39,0,0,0,20.49,110c4.36.92,5.16,1.29,6-.55s5-9.71,5-9.71S38.85,98,33.57,89.59c-2.95,0-13.82,1.78-13.82,1.78S6.12,101.75,5.75,102.06Z"/><path class="cls-15" d="M33.57,89.59c5.28,8.45-2.09,10.13-2.09,10.13s-4.11,7.86-5,9.71c-.45.95-.87,1.31-1.79,1.31a26.54,26.54,0,0,1-4.23-.76,117.39,117.39,0,0,1-14.44-4.67c-.67-.31-.55-1.41-.55-1.41l.25-1.84c.37-.31,14-10.69,14-10.69s10.87-1.78,13.82-1.78m.28-.49h-.28c-2.95,0-13.45,1.71-13.9,1.78l-.12,0-.1.08c-.55.42-13.64,10.39-14,10.7l-.14.12,0,.19L5,103.83a1.88,1.88,0,0,0,.84,1.93,115.69,115.69,0,0,0,14.54,4.7l1.07.23a17.64,17.64,0,0,0,3.26.54A2.23,2.23,0,0,0,27,109.64c.78-1.66,4.24-8.29,4.87-9.5A5.94,5.94,0,0,0,35.59,97c.84-2,.3-4.59-1.6-7.63l-.14-.23Z"/><g class="cls-22"><path class="cls-17" d="M6.67,103.41s-.74,1.1,2.7,2.52,14.31,5.09,16.09,3.93L25,108.63s-.37-.37.19-1c0,0,.92,1.29,2-.55s4.12-7.8,4.12-7.8,3.81-.31,4.79-4.91c0,0,.31,7.12-1.35,8.72s-4.67,6.51-5.84,7.62a26.52,26.52,0,0,1-5.65,3.5c-.74.18-2.27-.31-6-1.66A91.85,91.85,0,0,1,4,105.19C4,104.94,3.66,101.81,6.67,103.41Z"/></g><path class="cls-18" d="M12.57,93.09s-2.28-1.91.79-4.49,9.4-4.23,16.4-1.65,6.7,10.62.93,10.93c0,0-4.92,8.29-5.47,9.09s-.55,1.54-3.81.74S8,103.71,6.55,103.1s-.8-1.54.18-2.58S12.57,93.09,12.57,93.09Z"/><path class="cls-15" d="M22.71,85.65A20.18,20.18,0,0,1,29.76,87c7,2.58,6.7,10.62.93,10.93,0,0-4.92,8.29-5.47,9.09-.39.56-.5,1.08-1.63,1.08a9.76,9.76,0,0,1-2.18-.34c-3.25-.8-13.45-4-14.86-4.61s-.8-1.54.18-2.58,5.84-7.43,5.84-7.43-2.28-1.91.79-4.49a14.87,14.87,0,0,1,9.35-2.95m0-.49a15.41,15.41,0,0,0-9.66,3.07,4.15,4.15,0,0,0-1.79,3.09,3,3,0,0,0,.66,1.8c-1,1.32-4.72,6.18-5.55,7.06-.63.67-1.28,1.45-1.12,2.24a1.66,1.66,0,0,0,1.1,1.13c1.44.63,11.66,3.83,14.94,4.63a9.82,9.82,0,0,0,2.3.36,1.89,1.89,0,0,0,1.88-1.05l.15-.24c.51-.74,4.56-7.55,5.36-8.9a4.71,4.71,0,0,0,4.47-4.09c.39-2.62-1.16-6.17-5.52-7.78a21,21,0,0,0-7.22-1.32Z"/><path class="cls-19" d="M10.17,97.33c-1.29,1.53-3.62,4.11-3.26,4.48s11.61,3.93,14,4.42,2.95.74,3.81-1.1,5-8.54,5-8.54,3.75-.61,4.12-3.19A5.2,5.2,0,0,0,31.91,89s-.12,1-2,1.29-5-2.45-3-3.31c0,0-7.37-2.71-13.45,2.33,0,0,4.17-2.7,7.43-2.21s5.77,3.5,4.24,6.27-11.8-.13-11.8-.13S11,96.39,10.17,97.33Z"/><rect class="cls-15" x="30.99" y="98.11" width="0.49" height="1.93" transform="translate(-35.51 19.47) rotate(-22.48)"/><rect class="cls-15" x="25.03" y="107.97" width="0.49" height="3.03" transform="translate(-38.16 16.74) rotate(-21.37)"/><path class="cls-17" d="M34.06,90.26c1.4,3.12,0,6.62-3.8,6.82,0,0-4.92,8.29-5.47,9.09s-.55,1.54-3.81.74-13.45-4-14.86-4.61a2.92,2.92,0,0,1-.4-.21c0,.39.18.73.83,1,1.41.61,11.61,3.81,14.86,4.61s3.26.06,3.81-.74,5.47-9.09,5.47-9.09C34.78,97.66,36.12,93.55,34.06,90.26Z"/><path class="cls-17" d="M24.3,104.08c.57-.77.37-1.66-.56-.55S22.64,106.29,24.3,104.08Z"/><path class="cls-17" d="M28.17,96.34c-.32.32-.86,1.85.06,1.17S29,95.48,28.17,96.34Z"/><path class="cls-17" d="M12.81,94c-.56.16-1.23,1.41-.37,1.41S13.67,93.7,12.81,94Z"/><path class="cls-17" d="M29.89,90.32c-.55-.27-1.11.37-.37.86S30.75,90.75,29.89,90.32Z"/><path class="cls-17" d="M32.16,94c-.6-.11-.8.8-.31.86S32.84,94.07,32.16,94Z"/><path class="cls-17" d="M18.09,87.31c-.53-.14-1.16.37-.49.62S19,87.56,18.09,87.31Z"/><path class="cls-18" d="M19,97.63c-1.28-.16-7.12-.06-8.66,1.48s1.08,3.88,6,4.67C22.76,104.82,28.9,98.86,19,97.63Z"/></g></g></svg>