<svg id="图层_1" data-name="图层 1" xmlns="http://www.w3.org/2000/svg" xmlns:xlink="http://www.w3.org/1999/xlink" viewBox="0 0 200 200"><defs><style>.cls-1{fill:none;}.cls-2{fill:#dddcdc;}.cls-3{fill:#828084;}.cls-4{fill:#efebda;}.cls-5{fill:#fff;}.cls-6{fill:#bfbfbf;}.cls-7{fill:#fee9be;}.cls-8{fill:#d1bb90;}.cls-9{clip-path:url(#clip-path);}.cls-10{fill:#a88d54;}.cls-11{fill:#e1332e;}.cls-12{fill:#88181a;}.cls-13{clip-path:url(#clip-path-2);}.cls-14{fill:#be2627;}.cls-15{fill:#f27173;}.cls-16{clip-path:url(#clip-path-3);}.cls-17{clip-path:url(#clip-path-4);}.cls-18{fill:#7c50a1;}.cls-19{fill:#472c76;}.cls-20{fill:#623391;}.cls-21{fill:#9371b2;}.cls-22{fill:#fffcf6;}</style><clipPath id="clip-path"><path class="cls-1" d="M50,72.9S46.4,61.29,56.4,63.23c0,0-4.19-20.63,10.64-21.6,0,0-.65-8.06,6.45-3.55,0,0,16.12-12.57,24.18-.32,0,0,3.86-6.77,8.7-1.93,0,0,9.92-4.16,15.15.64a10.07,10.07,0,0,1,2.9,8.7s7.1-3.86,9.68.65c0,0,10-3.55,11.93,5.8,0,0,9-1.93,11.28,8.71,0,0,7.74-2.26,8.38,8.06,0,0,4.52,5.16,2.9,10.64,0,0,13.22-1.94,12.25,13.86,0,0,11.93,9.67,4.2,24.83,0,0,6.77,13.21-5.81,16.44,0,0,.33,23.86-25.79,24.18,0,0-7.41,13.54-28,9,0,0-5.8,11.61-20,2.91,0,0-4.51,6.44-10,3.54,0,0-8.71,3.23-12.57-2.58s-1.29-8.06-1.29-8.06-5.49-1.29-2.58-5.8c0,0-10.32,3.55-5.48-8.06,0,0-9-3.55-4.84-11.28,0,0-10-4.52-6.77-15.16,0,0-11.28-4.51-10.64-11.93,0,0-4.84-4.83-5.16-9.67s.65-3.54-3.22-6.77-5.16-9-5.16-9S37.38,70.32,50,72.9Z"/></clipPath><clipPath id="clip-path-2"><path class="cls-1" d="M107.34,130c2.51-4.34,1-14.19-10-16.77s-20-.32-18.37,15.48,6.22,16,12.89,14.83C99,142.22,103.79,136.09,107.34,130Z"/></clipPath><clipPath id="clip-path-3"><path class="cls-1" d="M121.59,102.66c-4.48,2.23-8.63,11.29-.91,19.49s16.5,11.3,23.87-2.77S148.2,102.57,142,99.9C135.34,97.06,127.93,99.5,121.59,102.66Z"/></clipPath><clipPath id="clip-path-4"><path class="cls-1" d="M80,84c.71,5.42,8.59,12.93,19.8,7.88s17.53-13,5.63-25.62S89.4,56.48,84.43,62C79.15,67.8,79,76.32,80,84Z"/></clipPath></defs><title>食物矿</title><circle class="cls-2" cx="111.74" cy="101.92" r="85.76"/><path class="cls-3" d="M111.74,16.16A85.76,85.76,0,1,1,26,101.92a85.75,85.75,0,0,1,85.75-85.76m0-2.5A88.26,88.26,0,1,0,200,101.92a88.35,88.35,0,0,0-88.26-88.26Z"/><path class="cls-4" d="M111.1,26.48a76.09,76.09,0,1,0,76.09,76.08A76.09,76.09,0,0,0,111.1,26.48Zm17.19,12s-.86-3.87,6.88-3.44S170,52.27,170.85,70.75,130.44,58.29,128.29,38.51Z"/><path class="cls-5" d="M113.46,183.81c-53.52,0-85.76-41-85.76-88.34a86,86,0,0,1,2.19-19.19,85.76,85.76,0,1,0,165.43,44.83C184.42,156,151.89,183.81,113.46,183.81Z"/><path class="cls-2" d="M65.1,126.42s-18.37-15.15-31.59-46.1S20,37.11,11.58,33.89,0,40.34,6.43,59s30.3,58,50,75.44c0,0-6.13,8.7.64,20.31S83.8,174.46,99,164.46,75.42,128,65.1,126.42Z"/><path class="cls-3" d="M8.64,33.28a8.23,8.23,0,0,1,2.94.61C20,37.11,20.29,49.37,33.51,80.32s31.59,46.1,31.59,46.1c10.32,1.61,49,28.05,33.86,38A27.52,27.52,0,0,1,83.65,169c-11.2,0-22-6.27-26.61-14.2-6.77-11.61-.64-20.31-.64-20.31C36.73,117.07,12.87,77.74,6.43,59,.8,42.72,2.54,33.28,8.64,33.28m0-2.58a7.26,7.26,0,0,0-6,3.11C-.7,38.45-.21,47.7,4,59.88,10.16,77.77,33.2,116.45,53.16,135c-1.65,3.56-3.95,11.45,1.66,21.06,5.31,9.11,17.17,15.48,28.83,15.48a30.35,30.35,0,0,0,16.73-4.95,9.47,9.47,0,0,0,4.36-10.44c-2.81-12.94-29.1-30-38.46-32.16-2.91-2.58-18.77-17.49-30.4-44.72-4.69-11-7.71-19.48-10.13-26.3C21.26,40.34,19,34,12.51,31.48a10.8,10.8,0,0,0-3.87-.78Z"/><path class="cls-5" d="M60.91,153.5c-6.77-11.6-.64-20.31-.64-20.31-19.67-17.41-43.53-56.74-50-75.44C5.9,45,6,36.47,9.17,33.33,2.65,32.8.65,42.28,6.43,59c6.44,18.7,30.3,58,50,75.44,0,0-6.13,8.7.64,20.31,6.1,10.46,22.93,18,37.28,12.08C80.94,170.15,66.47,163,60.91,153.5Z"/><path class="cls-6" d="M65.1,126.42s-18.37-15.15-31.59-46.1S20,37.11,11.58,33.89C8.23,32.6,5.72,33.41,4.31,36A9.18,9.18,0,0,1,6,36.47C14.38,39.69,14.7,52,27.92,82.9S59.51,129,59.51,129c10.32,1.61,49,28.05,33.86,38-.31.21-.63.35-.94.54A26.91,26.91,0,0,0,99,164.46C114.11,154.47,75.42,128,65.1,126.42Z"/><path class="cls-7" d="M50,72.9S46.4,61.29,56.4,63.23c0,0-4.19-20.63,10.64-21.6,0,0-.65-8.06,6.45-3.55,0,0,16.12-12.57,24.18-.32,0,0,3.86-6.77,8.7-1.93,0,0,9.92-4.16,15.15.64a10.07,10.07,0,0,1,2.9,8.7s7.1-3.86,9.68.65c0,0,10-3.55,11.93,5.8,0,0,9-1.93,11.28,8.71,0,0,7.74-2.26,8.38,8.06,0,0,4.52,5.16,2.9,10.64,0,0,13.22-1.94,12.25,13.86,0,0,11.93,9.67,4.2,24.83,0,0,6.77,13.21-5.81,16.44,0,0,.33,23.86-25.79,24.18,0,0-7.41,13.54-28,9,0,0-5.8,11.61-20,2.91,0,0-4.51,6.44-10,3.54,0,0-8.71,3.23-12.57-2.58s-1.29-8.06-1.29-8.06-5.49-1.29-2.58-5.8c0,0-10.32,3.55-5.48-8.06,0,0-9-3.55-4.84-11.28,0,0-10-4.52-6.77-15.16,0,0-11.28-4.51-10.64-11.93,0,0-4.84-4.83-5.16-9.67s.65-3.54-3.22-6.77-5.16-9-5.16-9S37.38,70.32,50,72.9Z"/><path class="cls-8" d="M86.7,155.76s-1-6.77,6.13-5.91c0,0,14-7.31,19.34-.65,0,0,7.74-5.37,13.33-1.5,0,0,12,3.44,13.33-5.59,0,0,.43,11.18-11.83,9.67,0,0,1.08,4.95-3.22,6.24s-14.83,2.79-15.69,2.57S82.51,159.09,86.7,155.76Z"/><path class="cls-8" d="M163.44,133.19s-8.71-1.61-10.86,7c0,0-4.94.43-6.66,2.57a9.74,9.74,0,0,0-1.94,4.73s-5.8-.43-6.44,5.59c0,0-2.58,7.74-8.17,6,0,0,5.8,3.65,11.17-3,0,0,7.1,1.51,11.61-3.87S167.84,132.44,163.44,133.19Z"/><path class="cls-8" d="M171.93,96.11s-1.51,4.09,1.07,6c0,0-5.59,0-6,7.1,0,0-1.93-6,1.29-8.6,0,0,2.37-7.31-2.15-9.67,0,0-1.5-5.81-6.23-5.59,0,0-4.08-7.53-6.66-7.53,0,0-3.44-10.31-8.6-11.6,0,0,8.6,3,11,9.67,0,0,5.59,1.51,7.31,6s5.16,3,6,7.95c0,0,6,2.58,6.66,7.52S171.93,96.11,171.93,96.11Z"/><path class="cls-8" d="M85.25,145.28s12.25,4.84,22.89-7.74c0,0,.33,4.19,4,2.42,0,0,5.81,2.26,7.9-4.19,0,0,13.54,7.74,21.6-6.77,0,0,11.45-7.58,9-15.31s-14-15-14-15,11.28-2.9,8.22-13.38-7.1-5.48-7.1-5.48l-29.17-11.6s-7.42-11.77-13.87-13.06-12.09,6.29-12.09,6.29l-10,21.44s-9-.17-10.64,9.67,24,33.21,24,33.21Z"/><g class="cls-9"><path class="cls-8" d="M47.37,72.9S34.8,82.25,49.31,94.82c0,0,0,12.58,6.44,14.84,0,0,1.29,8.7,10,10.31,0,0-5.48,13.22,6.12,16.44,0,0-2.58,9.35,6.45,10.32,0,0-4.51,6.45,2.9,6.77,0,0-.64,8.38,6.77,9,0,0-2.58,7.41,6.45,6.45,0,0,5.16,2.25,10.32-2.9,0,0,12.57,6.93,19.66-2.75,0,0,10.64,6,16.77-3.7,0,0,6.77.64,9.67-4.84,0,0,10,2.26,12.58-4.51,0,0,3.86.64,5.15-7.1,0,0,2.26,1,3.55-5.48,0,0,4.51-1.29,5.8-8.38,0,0,5.81-2.9,4.52-8.38s-3.55-6.45-3.55-6.45,7.09-5.16,4.19-11.61-5.16-7.09-5.16-7.09,1.94-7.41-3.22-11.28S168.59,79,168.59,79s-1-7.1-5.8-8.06c0,0-.64-7.1-7.41-7.42a10.53,10.53,0,0,0-10.64-9c-9.68-.32-1.29-.32-1.29-.32s-.33-8.06-9.35-7.09c0,0,.32-5.16-5.16-3.22s-6.77,3.86-6.77,3.86-1-8.38-8.06-8.7-9.67,3.22-9.67,3.22S97,40.66,92.18,43.89,88,49.37,88,49.37,80.9,46.46,78,52c0,0-.65-7.74,8.06-6.45,0,0,2.9-5.48,6.45-5.16s3.22-5.48,3.22-5.48S138,28.73,142.8,32.92,167,51.3,177.62,74.19s35.46,20,27.4,52.87-10.31,35.79-10.31,35.79,91.24,1.29-13.87,9.67S77,182.2,65.75,176.07,50.27,154.79,50,153.18s-17.09-56.42-17.73-58S25.45,61.94,47.37,72.9Z"/></g><path class="cls-10" d="M90.12,176A9.53,9.53,0,0,1,81.76,172c-2.62-3.93-2.57-6.56-2.06-8.1a5.16,5.16,0,0,1-2.59-2.57,4,4,0,0,1-.23-2.15,5.72,5.72,0,0,1-4.81-1.37c-1.48-1.58-1.56-4.14-.22-7.81a11,11,0,0,1-5.15-5.44,8,8,0,0,1,.27-5.95c-2.62-1.62-8.63-6.38-6.62-15-2.87-1.35-10.53-5.6-10.43-12.17-1.23-1.34-4.83-5.62-5.13-10.07-.06-1-.07-1.73-.09-2.3,0-1.39,0-1.39-1.66-2.73l-1-.84C37.87,92,36.5,86,36.44,85.76c0-.59-.15-8.4,4.54-12.31a9.75,9.75,0,0,1,7.29-2.09c-.37-2.17-.55-5.63,1.41-7.81a6.18,6.18,0,0,1,5.18-1.81c-.46-3.55-1-11.65,3-16.84a11.48,11.48,0,0,1,7.87-4.43c.08-1.4.5-3.53,2.17-4.54,1.41-.84,3.25-.64,5.49.61,2.32-1.65,9.8-6.41,16.84-5.25a12,12,0,0,1,7.41,4.3,7.52,7.52,0,0,1,4.47-2.75,5.69,5.69,0,0,1,4.52,1.5c2.59-.92,10.82-3.34,15.74,1.18a10.79,10.79,0,0,1,3.42,7.62c2.87-1.06,6.63-1.47,8.82,1.19,1.71-.43,5.38-1,8.43.7A8.49,8.49,0,0,1,147,50.22a10.89,10.89,0,0,1,6.52,1.64,11.75,11.75,0,0,1,4.76,7,7.68,7.68,0,0,1,5,1.25c2.11,1.49,3.33,4.1,3.64,7.78.93,1.18,3.72,5.17,3.22,9.77a12.4,12.4,0,0,1,8.15,3c2.76,2.54,4.05,6.47,3.84,11.69a21.23,21.23,0,0,1,4.31,25.38c.8,1.81,2.85,7.29.78,11.9-1.18,2.61-3.45,4.46-6.76,5.51-.16,2.8-1.14,10.85-7.15,17-4.6,4.72-11.05,7.22-19.19,7.45-1.86,2.72-10.1,12.75-28.12,9.2a13.38,13.38,0,0,1-7.33,5.5c-3.89,1.11-8.25.32-13-2.36-2.08,2.38-6.07,5.19-10.4,3.25A18.21,18.21,0,0,1,90.12,176Zm-7.73-11.87s-1.57,1.76,1.52,6.38c3.26,4.9,11,2.11,11,2.08l.54-.2.51.27c4.43,2.34,8.3-3.09,8.34-3.14l.69-1,1,.64c4.47,2.75,8.48,3.64,11.91,2.66a10.87,10.87,0,0,0,6.25-5l.45-.9,1,.22c19.36,4.23,26.35-7.88,26.64-8.4l.36-.65h.75c7.76-.1,13.84-2.35,18.07-6.69,6.5-6.68,6.45-16.09,6.45-16.18v-1l1-.25c3-.78,5-2.24,6-4.34,2-4.37-1-10.21-1-10.27l-.3-.58.3-.59c7.17-14.06-3.75-23.15-3.86-23.24l-.51-.42,0-.66c.29-4.72-.72-8.17-3-10.25-3.15-2.9-7.74-2.26-7.79-2.26l-2,.3.57-1.94c1.39-4.74-2.6-9.38-2.64-9.42l-.29-.33,0-.44c-.19-3.07-1.05-5.16-2.55-6.23a5.41,5.41,0,0,0-4.19-.67l-1.32.37-.29-1.34c-.66-3.1-2-5.31-3.94-6.58a8.55,8.55,0,0,0-5.82-1.14l-1.27.28-.26-1.28a6.45,6.45,0,0,0-3-4.6c-3-1.69-7.23-.26-7.27-.24l-1,.36-.54-.94c-1.91-3.36-7.87-.18-7.93-.15l-2.36,1.28.47-2.65a8.68,8.68,0,0,0-2.5-7.52C116.09,33.24,107,37,106.87,37l-.8.33-.61-.61a3.6,3.6,0,0,0-3-1.34c-1.74.22-3.26,2.24-3.7,3l-1,1.81-1.15-1.74a9.91,9.91,0,0,0-6.76-4.64C82.68,32.64,74.36,39,74.28,39.1l-.72.56-.77-.49c-1.62-1-2.92-1.41-3.54-1-.86.52-1,2.54-.93,3.39l.11,1.3-1.31.09a9.2,9.2,0,0,0-7.19,3.55c-4.39,5.74-2.29,16.4-2.27,16.5L58,64.86l-1.89-.36c-2.18-.43-3.7-.16-4.55.77-1.6,1.79-.85,5.84-.42,7.26l.63,2.07-2.12-.44c-2.95-.6-5.32-.18-7.06,1.27C38.94,78.5,39,85.22,39,85.44h0s1.28,5.23,4.69,8.07l1,.82c2.26,1.86,2.56,2.19,2.6,4.68,0,.55,0,1.24.09,2.18.28,4.3,4.74,8.8,4.78,8.84l.43.43-.06.6c-.55,6.38,9.73,10.57,9.84,10.62l1.09.44-.34,1.13c-2.85,9.4,5.71,13.44,6.07,13.6l1.26.58-.66,1.21a6,6,0,0,0-.66,5c1.07,2.94,4.8,4.48,4.84,4.49l1.22.48-.5,1.22c-1.28,3.06-1.55,5.32-.73,6.19s3.5.53,4.6.15l3.51-1.21-2,3.13a2.57,2.57,0,0,0-.55,2.25c.39,1,2,1.51,2.34,1.6l2.44.57-1.89,1.65Z"/><path class="cls-7" d="M99.6,151.24s-4.19-1-5.8,2.58c0,0-4.84-1-7.1,1.94s2.26,8.7,6.77,5.48c0,0,5.16,5.8,9.35,2.26,0,0,8.71,5.8,12.9-.33,0,0,5.16,2.26,7.42-2.9,0,0,5.8-4.19,3.86-6.12a3.54,3.54,0,0,0-4.19-.65s-4.51-8.06-9.35-.64c0,0-4.19-2.58-7.09-1C106.37,151.89,105.08,148.34,99.6,151.24Z"/><path class="cls-10" d="M110.26,166.61a15.09,15.09,0,0,1-7.4-2.32c-3.4,2.45-7.46-.16-9.49-2.22a5,5,0,0,1-6.36-.9c-1.46-1.53-2.21-4-.82-5.81,2.06-2.64,5.88-2.42,7.24-2.24,1.48-2.62,4.47-2.84,6.07-2.55,2.18-1.11,4-1.39,5.46-.83a3.65,3.65,0,0,1,1.68,1.31c2.47-1,5.42.33,6.62,1,1.44-2,3-3,4.68-2.93,2.51.08,4.41,2.53,5.12,3.61a4.14,4.14,0,0,1,4.4,1,2,2,0,0,1,.58,1.59c-.18,2.16-3.56,4.8-4.39,5.41a5.66,5.66,0,0,1-5,3.61,7.51,7.51,0,0,1-2.65-.36A6.9,6.9,0,0,1,110.26,166.61Zm-7.48-3.92.4.27c.34.22,8.23,5.38,12-.15l.3-.44.49.21c.18.08,4.6,1.93,6.56-2.57l.07-.16.15-.1c1.48-1.08,3.89-3.27,4-4.58a.67.67,0,0,0-.2-.57,2.92,2.92,0,0,0-3.42-.54l-.56.32-.32-.56s-1.93-3.37-4.36-3.45h-.08c-1.3,0-2.58.95-3.81,2.84l-.34.52-.54-.32s-3.9-2.36-6.44-1l-.66.37-.26-.71a2.26,2.26,0,0,0-1.29-1.18c-1.12-.41-2.7-.11-4.57.89l-.21.11-.23-.06c-.16,0-3.7-.8-5.08,2.22l-.21.47-.5-.1s-4.48-.85-6.46,1.69c-.94,1.21-.32,3,.73,4.12a3.75,3.75,0,0,0,5.16.44l.47-.33.38.43c.2.22,4.79,5.3,8.46,2.19Z"/><path class="cls-7" d="M156,143.18s-7.74-.64-9.35,5.81c0,0-4.51.64-4.51,4.83s8.7,1,8.7,1,11,1,12.58-4.51c0,0,4.51-.65,5.15-7.1,0,0,2.91.33,3.55-5.48a10,10,0,0,0,3.22-7.09c.33-4.83-5.15-6.12-5.15,0,0,0-4.52-3.22-6.77,2.58C163.44,133.19,156.34,134.8,156,143.18Z"/><path class="cls-10" d="M145.18,156.62a4.62,4.62,0,0,1-2.62-.64,2.52,2.52,0,0,1-1.05-2.16,5.58,5.58,0,0,1,4.65-5.39c1.6-5.37,7.3-5.89,9.25-5.9a10.91,10.91,0,0,1,7.54-9.87,5.43,5.43,0,0,1,3.29-3.41,4.91,4.91,0,0,1,3.38.31c.24-2.19,1.22-3.07,1.84-3.41a2.63,2.63,0,0,1,2.71.15,4.69,4.69,0,0,1,1.84,4.35,10.89,10.89,0,0,1-3.26,7.38c-.31,2.45-1.05,4.16-2.22,5.09a3.22,3.22,0,0,1-1.36.66c-.73,5.35-4.07,6.73-5.24,7.05-2,5.23-11.61,4.72-13,4.62A19.69,19.69,0,0,1,145.18,156.62Zm10.19-12.81c-1.77,0-6.85.43-8.08,5.33l-.1.42-.43.07c-.16,0-4,.62-4,4.19a1.18,1.18,0,0,0,.5,1.1c1.35.94,5.22.05,7.34-.73l.13-.05h.15c.11,0,10.45.86,11.89-4.05l.12-.4.41-.06c.16,0,4-.69,4.61-6.52l.07-.65.64.07c.09,0,2.28.1,2.84-4.91l0-.26.21-.17a9.55,9.55,0,0,0,3-6.63,3.41,3.41,0,0,0-1.24-3.19,1.34,1.34,0,0,0-1.4-.09c-.78.42-1.23,1.64-1.23,3.32v1.25l-1-.72a4.21,4.21,0,0,0-3.22-.66c-1.08.33-1.94,1.32-2.57,2.94l-.13.32-.33.08c-.27.06-6.62,1.62-6.92,9.39l0,.67-.67,0A5.46,5.46,0,0,0,155.37,143.81Z"/><path class="cls-7" d="M89,60s-7.41-5.16-11,1.61c0,0-4.51-3.55-7.09,1,0,0-8.06-2.25-5.48,4.2,0,0-3.87,3.22-2.91,6.77s3.55,2.25,3.55,2.25,0,6.77,3.87,5.81c0,0,6.12,1.93,6.45-2.91,0,0,7.41,0,9.35-5.15S90.57,61,89,60Z"/><path class="cls-10" d="M72.51,82.63a10.24,10.24,0,0,1-2.59-.36,2.9,2.9,0,0,1-2.46-.53c-1.51-1.17-1.9-3.74-2-5.1a2.76,2.76,0,0,1-1.58-.2,3.84,3.84,0,0,1-2-2.72c-.89-3.28,1.78-6.19,2.77-7.13-.61-1.73-.52-3.06.28-4,1.4-1.56,4.44-1.07,5.65-.79a4.58,4.58,0,0,1,3-2.12,6.26,6.26,0,0,1,4.22,1,6.38,6.38,0,0,1,4-3c3.58-.88,7.26,1.58,7.57,1.8,1.82,1.13.13,6.07-2.65,13.46l-.32.84c-1.76,4.7-7.52,5.44-9.38,5.56a3.65,3.65,0,0,1-1.54,2.54A5.21,5.21,0,0,1,72.51,82.63ZM70,80.94l.17,0s3,.91,4.57-.19a2.6,2.6,0,0,0,1-2.14l0-.6h.61c.06,0,7-.07,8.74-4.74l.32-.85c1.16-3.08,4.24-11.27,3.18-11.91l0,0S85.11,58.16,82,58.92a5.42,5.42,0,0,0-3.47,3l-.36.68-.61-.47s-2-1.51-3.8-1.13a3.53,3.53,0,0,0-2.34,1.9l-.25.44-.48-.13c-.94-.27-3.87-.78-4.82.29-.63.7-.29,2,.11,3l.18.43-.36.3s-3.54,3-2.7,6.11a2.69,2.69,0,0,0,1.26,1.88,1.77,1.77,0,0,0,1.38,0l.93-.47v1c0,1,.28,4,1.54,4.93a1.68,1.68,0,0,0,1.53.25Z"/><path class="cls-7" d="M100.24,62.91s-.32-6.13,6.13-3.87c0,0-.64-7.09,5.48-6.77S116.69,60,116.69,60s6.45-1,6.12,6.12c0,0,6.77.32,5.16,5.8,0,0,5.16,1.62,3.55,9,0,0,7.09,4.84,5.16,8.06s-15.8,6.77-16.12-3.22c0,0-7.74,1-11.29-8.06S99.28,67.1,100.24,62.91Z"/><path class="cls-10" d="M127.86,93a10.66,10.66,0,0,1-2.74-.33A6.63,6.63,0,0,1,120,86.47c-2,0-8.22-.71-11.28-8.5a26.4,26.4,0,0,0-6.09-9c-2-2.07-3.49-3.71-3-6.09a5.34,5.34,0,0,1,1.74-4.2,5,5,0,0,1,4.37-.49,7.66,7.66,0,0,1,1.78-5,6.09,6.09,0,0,1,8.53.43,8.51,8.51,0,0,1,1.39,5.74,6.66,6.66,0,0,1,4.23,1.44,6.22,6.22,0,0,1,1.83,4.79c1.11.16,3.44.68,4.64,2.37a4.44,4.44,0,0,1,.62,3.65c1.37.7,4.65,3.05,3.5,9.11,1.59,1.14,7,5.37,5,8.67C136.07,91.28,131.79,93,127.86,93Zm-6.68-7.94,0,.71c.1,3,1.53,5,4.25,5.65,4,1,9.6-1,10.67-2.74,1.33-2.21-3.14-5.94-5-7.2l-.36-.24.1-.43c1.47-6.76-3.07-8.26-3.11-8.27l-.61-.19.18-.61a3.48,3.48,0,0,0-.28-3.08c-1.23-1.72-4.26-1.89-4.29-1.9l-.64,0,0-.64a5.33,5.33,0,0,0-1.39-4.38,5.52,5.52,0,0,0-4-1.08l-.88.13.15-.87s.58-3.5-1-5.52a4.18,4.18,0,0,0-3.19-1.47,4.23,4.23,0,0,0-3.4,1.13C106.75,55.78,107,59,107,59l.09,1-.95-.33c-1.8-.63-3.16-.63-4,0-1.3,1-1.22,3.16-1.22,3.18V63l0,.09c-.38,1.68.65,2.87,2.65,5a27.82,27.82,0,0,1,6.35,9.44c3.33,8.47,10.54,7.66,10.6,7.66Z"/><path class="cls-8" d="M81.22,71.18s-4.51,2.37-6.44,1.51c0,0-.22,7.52-5.38,6,0,0,3.87,4.52,6.66-2.36C76.06,76.34,81.65,75.05,81.22,71.18Z"/><path class="cls-8" d="M103.79,64s4.84,6.12,9,2.41c0,0-.16,4,3.06,4,0,0,1.13,6.45,7.09,6l-5.8,5-6.45-4.36S100.73,65.16,103.79,64Z"/><path class="cls-7" d="M59.94,95.47s-3.54,11.61,3.87,13.86c0,0-2.25,7.1,5.81,5.16,0,0-3.55,4.19.64,5.8,0,0,1,6.13,7.42,6.13s9-2.58,7.73-8.38S81.22,110,81.22,110s1.62-7.74-2.9-11S64.14,87.09,59.94,95.47Z"/><path class="cls-10" d="M77.68,127.07a8,8,0,0,1-8-6.31,3.33,3.33,0,0,1-2-2.2,4.54,4.54,0,0,1,.58-3.16q-3,.36-4.37-1.12c-1.28-1.37-1.05-3.49-.84-4.53a6.55,6.55,0,0,1-3.46-3.1c-2.34-4.39-.34-11.09-.25-11.37l0-.1a6.46,6.46,0,0,1,4.26-3.74c4.35-1,9.8,3.11,13.42,5.83.6.45,1.15.87,1.65,1.22,4.26,3.05,3.49,9.6,3.22,11.25.81.77,3,3.24,4.12,8.16.66,2.93.37,5.11-.86,6.65C83.82,126.24,81.36,127.07,77.68,127.07Zm-6.31-13.66-1.26,1.5c-.44.52-1.5,2.13-1.19,3.34a2.24,2.24,0,0,0,1.57,1.44l.35.14.06.36a6.69,6.69,0,0,0,6.78,5.59c3.27,0,5.39-.67,6.49-2,1-1.21,1.18-3,.61-5.56-1.21-5.47-3.93-7.67-4-7.69l-.31-.25.08-.39c0-.08,1.47-7.37-2.65-10.31-.49-.35-1.06-.78-1.66-1.24-3.43-2.58-8.62-6.49-12.35-5.6a5.13,5.13,0,0,0-3.38,3,21.69,21.69,0,0,0-.81,5.86c.06,3.9,1.49,6.3,4.26,7.15l.62.19-.19.62s-.8,2.59.39,3.87c.79.85,2.4,1,4.64.46Z"/><path class="cls-7" d="M71.55,66.45c-2.12-.76-5.48,4.19-2.9,6.13S76.06,68.07,71.55,66.45Z"/><path class="cls-10" d="M69.73,73.58a2.42,2.42,0,0,1-1.47-.48c-1.35-1-1.57-2.9-.55-4.8.88-1.63,2.55-3,4.06-2.45h0A3.1,3.1,0,0,1,74,68.54a5.33,5.33,0,0,1-2.73,4.6A3.32,3.32,0,0,1,69.73,73.58ZM71.08,67c-.68,0-1.64.79-2.23,1.89s-.8,2.41.19,3.15a1.49,1.49,0,0,0,1.65,0,4.06,4.06,0,0,0,2.06-3.36,1.86,1.86,0,0,0-1.42-1.59h0A.66.66,0,0,0,71.08,67Z"/><path class="cls-7" d="M69,51.62c-2.46-.82-5.8,2.9-2.9,4.52S76.71,54.2,69,51.62Z"/><path class="cls-10" d="M67.93,57.19a4.51,4.51,0,0,1-2.17-.49,2.49,2.49,0,0,1-1.21-3.37A4.05,4.05,0,0,1,69.17,51h0c2.34.78,3.61,1.76,3.77,2.9a2.31,2.31,0,0,1-1.2,2.17A7.08,7.08,0,0,1,67.93,57.19Zm.3-5a3,3,0,0,0-2.5,1.69,1.23,1.23,0,0,0,.65,1.73c1.19.66,3.47.25,4.63-.55.21-.15.71-.53.65-.93,0-.22-.33-1-2.89-1.85h0A1.61,1.61,0,0,0,68.23,52.15Z"/><path class="cls-7" d="M137.32,51.3c-2.85-1.63-7.41,1-3.55,3.87S141.83,53.88,137.32,51.3Z"/><path class="cls-10" d="M136.49,56.8a5.25,5.25,0,0,1-3.1-1.11c-2.49-1.87-1.68-3.54-1.37-4,1-1.56,3.75-2,5.62-.95h0c2,1.17,2.31,2.54,2.28,3.25a2.85,2.85,0,0,1-1.73,2.44A4,4,0,0,1,136.49,56.8Zm-1.14-5.36a2.74,2.74,0,0,0-2.25,1c-.56.86.42,1.79,1.06,2.26a3.39,3.39,0,0,0,3.48.61,1.59,1.59,0,0,0,1-1.32c0-.71-.57-1.47-1.63-2.08h0A3.35,3.35,0,0,0,135.35,51.44Z"/><path class="cls-7" d="M143.45,54.2c-2.23-.47-4.52,1-2.58,3.87S149.57,55.49,143.45,54.2Z"/><path class="cls-10" d="M142.51,59.55a2.5,2.5,0,0,1-2.18-1.12c-1.27-1.91-.81-3.15-.43-3.72a3.54,3.54,0,0,1,3.68-1.14c2.4.51,3,1.62,3,2.46.08,1.44-1.4,2.82-2.87,3.31A4,4,0,0,1,142.51,59.55Zm.1-4.79a2,2,0,0,0-1.64.68c-.35.52-.2,1.33.43,2.27a1.6,1.6,0,0,0,1.92.41c1.08-.36,2-1.32,2-2,0-.54-.76-1-2-1.27h0A3.39,3.39,0,0,0,142.61,54.76Z"/><path class="cls-7" d="M123.14,68.71c-2.5-1.16-6.13-.64-3.87,2.58S128,71,123.14,68.71Z"/><path class="cls-10" d="M121.87,73.23a3.69,3.69,0,0,1-3.13-1.57c-1.2-1.71-.89-2.74-.41-3.31,1-1.17,3.36-1,5.08-.22s2.18,1.91,2.12,2.63a3,3,0,0,1-2.44,2.31A4.79,4.79,0,0,1,121.87,73.23Zm-1.21-4.44a1.83,1.83,0,0,0-1.34.39c-.26.31-.09.94.47,1.74a2.69,2.69,0,0,0,3,.9c.81-.21,1.45-.72,1.49-1.17s-.48-.93-1.38-1.36h0A5.36,5.36,0,0,0,120.66,68.79Z"/><path class="cls-7" d="M160.21,77.09c3.93.22,7.42,6.77,3.55,7.74S154.41,76.77,160.21,77.09Z"/><path class="cls-10" d="M163.15,85.55c-1.71,0-3.39-1.33-4.48-2.71s-2.14-3.6-1.36-5.11c.33-.64,1.12-1.37,2.94-1.28,2.93.16,5.58,3.35,5.82,5.88a2.75,2.75,0,0,1-2.16,3.13A3.29,3.29,0,0,1,163.15,85.55Zm-3.23-7.82c-.58,0-1.22.12-1.46.59-.4.76.12,2.33,1.22,3.72s2.64,2.49,3.92,2.16a1.44,1.44,0,0,0,1.18-1.75c-.18-2-2.39-4.59-4.61-4.71h-.25Z"/><path class="cls-7" d="M159.89,69.36c2,1.88,1.29,4.19-1.61,3.22S155.38,65.16,159.89,69.36Z"/><path class="cls-10" d="M159.52,73.45a4.45,4.45,0,0,1-1.45-.26,4,4,0,0,1-2.44-3.52,2.13,2.13,0,0,1,1-2.2c.94-.46,2.18,0,3.67,1.41h0c1.25,1.16,1.68,2.62,1.09,3.62A2.06,2.06,0,0,1,159.52,73.45Zm-2.13-4.85a.48.48,0,0,0-.18,0c-.2.1-.32.49-.29,1A2.71,2.71,0,0,0,158.48,72c.89.29,1.61.24,1.83-.12s0-1.22-.86-2h0A3.74,3.74,0,0,0,157.39,68.6Z"/><path class="cls-7" d="M174.72,96.11c3.22,1.62,3.22,6.45.32,7.1S169.56,93.54,174.72,96.11Z"/><path class="cls-10" d="M174.78,103.88a3.24,3.24,0,0,1-2.56-2c-1-1.76-1.68-4.91-.39-6.26.5-.53,1.45-1,3.18-.11a5.19,5.19,0,0,1,2.78,5.19,3.41,3.41,0,0,1-2.61,3.11A1.81,1.81,0,0,1,174.78,103.88Zm-1.5-7.54a.69.69,0,0,0-.52.2c-.66.7-.37,3,.58,4.73.51.91,1.12,1.41,1.56,1.31a2.22,2.22,0,0,0,1.61-2,3.89,3.89,0,0,0-2.08-3.88A2.83,2.83,0,0,0,173.28,96.34Z"/><path class="cls-7" d="M169.24,121.26c-.4,3.58-5.16,3.55-4.52,1S169.88,115.46,169.24,121.26Z"/><path class="cls-10" d="M166.33,124.72a2.49,2.49,0,0,1-1.67-.58,2,2,0,0,1-.56-2.07c.46-1.86,2.74-4.68,4.46-4.35,1.12.2,1.56,1.41,1.32,3.61a3.72,3.72,0,0,1-2.32,3.15A3.4,3.4,0,0,1,166.33,124.72Zm1.95-5.74c-.7,0-2.54,1.83-2.93,3.41-.13.52.09.72.16.78a1.63,1.63,0,0,0,1.59.11,2.43,2.43,0,0,0,1.5-2.09c.19-1.73-.13-2.18-.26-2.21Z"/><path class="cls-7" d="M166.66,141.9c-2.17,2.31-5.48-1.29-2.9-3.55S171.5,136.74,166.66,141.9Z"/><path class="cls-10" d="M165.08,143.29a2.57,2.57,0,0,1-.67-.09,3.13,3.13,0,0,1-2.16-2.29,3.08,3.08,0,0,1,1.08-3c1.72-1.5,4.36-1.85,5.46-.72.61.63,1.2,2.14-1.66,5.2h0A2.83,2.83,0,0,1,165.08,143.29Zm1.83-5.53a4.39,4.39,0,0,0-2.73,1.07,1.78,1.78,0,0,0-.68,1.79,1.85,1.85,0,0,0,1.24,1.33,1.39,1.39,0,0,0,1.45-.5h0c1.69-1.8,2.06-3,1.67-3.41A1.33,1.33,0,0,0,166.91,137.76Z"/><path class="cls-7" d="M157.31,148.34c-2.64-.33-6.77,2.26-3.55,3.55S162.47,149,157.31,148.34Z"/><path class="cls-10" d="M155.12,152.78a4.29,4.29,0,0,1-1.6-.29c-1.71-.69-1.64-1.75-1.53-2.18.42-1.64,3.4-2.86,5.4-2.61,1.48.19,2.36.68,2.61,1.47a2,2,0,0,1-.76,2A6.46,6.46,0,0,1,155.12,152.78ZM156.8,149c-1.59,0-3.39,1-3.56,1.67-.08.3.56.58.76.66a4.78,4.78,0,0,0,4.36-1c.34-.32.45-.59.42-.7s-.43-.45-1.55-.59h0Z"/><path class="cls-7" d="M106.69,153.82c-2.17-1.14-8.7-2.25-6.12,1.29S112.17,156.73,106.69,153.82Z"/><path class="cls-10" d="M105.2,157.67a6.36,6.36,0,0,1-5.16-2.18c-1-1.4-.76-2.24-.36-2.7,1.26-1.45,5.7-.39,7.31.47s2.17,1.61,2.07,2.49-.8,1.39-2,1.7A7.47,7.47,0,0,1,105.2,157.67Zm-3.32-4.32a1.85,1.85,0,0,0-1.23.28c-.09.11,0,.51.44,1.1,1.17,1.62,4,1.9,5.64,1.48.76-.2,1-.5,1-.61s-.21-.58-1.39-1.21h0A11.35,11.35,0,0,0,101.88,153.35Z"/><path class="cls-7" d="M73.81,115.14c-2.63.87-1.61,6.12,1.29,6.12S77.68,113.85,73.81,115.14Z"/><path class="cls-10" d="M75.1,121.91c-1.95,0-3.12-1.79-3.39-3.45-.3-1.88.46-3.46,1.89-3.94a2.73,2.73,0,0,1,3,.7,5.14,5.14,0,0,1,.65,5.1A2.39,2.39,0,0,1,75.1,121.91Zm-.43-6.28a2.05,2.05,0,0,0-.66.12c-.94.31-1.19,1.48-1,2.5s.93,2.37,2.12,2.37c.42,0,.76-.28,1-.82a3.89,3.89,0,0,0-.43-3.71A1.29,1.29,0,0,0,74.67,115.63Z"/><path class="cls-7" d="M115.72,127.71c-2,1.12-4.19,6.77-.64,9.35S120.88,124.81,115.72,127.71Z"/><path class="cls-11" d="M107.34,130c2.51-4.34,1-14.19-10-16.77s-20-.32-18.37,15.48,6.22,16,12.89,14.83C99,142.22,103.79,136.09,107.34,130Z"/><path class="cls-12" d="M90.42,112.29a30.77,30.77,0,0,1,6.92.91c11,2.58,12.51,12.43,10,16.77-3.55,6.12-8.38,12.25-15.48,13.54A22.29,22.29,0,0,1,88,144c-4.57,0-7.74-2.75-9-15.27-1.26-12.29,3.92-16.39,11.45-16.39m0-2.58c-4.61,0-8.19,1.38-10.63,4.09-2.94,3.25-4.08,8.35-3.39,15.14.93,9.13,3,17.59,11.58,17.59a24.61,24.61,0,0,0,4.34-.49c8.7-1.58,14-9.19,17.25-14.78,1.77-3.06,1.85-7.51.2-11.34-2-4.63-6.2-7.9-11.84-9.23a33.12,33.12,0,0,0-7.51-1Z"/><g class="cls-13"><path class="cls-14" d="M98.79,141.41s3.87-5.64,2.74-10.48c0,0,5.65-1.29,3.71-6.61,0,0,1.94-3.7-2.25-6.44s-4.68-1.13-4.68-1.13,1,1.13-.32,3.54c0,0-1.13-4-4.84-3.86,0,0-.32-2.1-3.54-2.26a3.34,3.34,0,0,0-3.71,2.58s3.06-.16,3.71,1.29c0,0-5.81-1.45-6.94,4.35a10.76,10.76,0,0,0-4.35,8.54s.49-15.15,2.42-17.24,7.58-4.84,9-4.68,13.7,1,16.92,2.58,4.36,4.84,5.32,8.22,1.61,10.32,1,12.09S105.73,143,98.79,141.41Z"/></g><path class="cls-15" d="M84.77,123.36s-5.32-1.29-4.68,5.16C80.09,128.52,81.71,124.32,84.77,123.36Z"/><path class="cls-15" d="M82.51,134.64s1.13-4.83,4.36-5.8C86.87,128.84,81.87,128.19,82.51,134.64Z"/><path class="cls-15" d="M85.41,136.74c-5.15,3.22,1.29,6,1.29,6A4.15,4.15,0,0,1,85.41,136.74Z"/><path class="cls-15" d="M88.64,124.81s2.26-3.87,6-1.78C94.6,123,89.61,118.84,88.64,124.81Z"/><path class="cls-15" d="M90.41,118.52s-5.32-3.38-5.48,3.23C84.93,121.75,86.38,117.72,90.41,118.52Z"/><path class="cls-15" d="M92.35,117.23c2.58-.48,5.64,3.06,5.64,3.06C95.25,113.85,92.35,117.23,92.35,117.23Z"/><path class="cls-15" d="M99.92,123.2c3.23-.33,5,2.74,5,2.74C104.11,121.1,99.92,123.2,99.92,123.2Z"/><path class="cls-15" d="M99.28,128.84c1.93,1.13.16,5,.16,5C103.15,131.58,99.28,128.84,99.28,128.84Z"/><path class="cls-11" d="M121.59,102.66c-4.48,2.23-8.63,11.29-.91,19.49s16.5,11.3,23.87-2.77S148.2,102.57,142,99.9C135.34,97.06,127.93,99.5,121.59,102.66Z"/><path class="cls-12" d="M135.63,98.65A16,16,0,0,1,142,99.9c6.23,2.67,9.95,5.42,2.58,19.48-3.66,7-7.67,9.74-11.72,9.74s-8.26-2.84-12.15-7c-7.72-8.2-3.57-17.26.91-19.49s9.26-4,14-4m0-2.58c-4.49,0-9.32,1.36-15.18,4.28-3.17,1.57-5.69,5.24-6.42,9.35-.89,5,.81,10,4.77,14.22,4.86,5.16,9.58,7.78,14,7.78,5.43,0,10.14-3.74,14-11.12,4-7.62,5.18-12.69,3.84-16.46-1.28-3.6-4.5-5.23-7.68-6.59a18.59,18.59,0,0,0-7.36-1.46Z"/><g class="cls-16"><path class="cls-14" d="M135,97.82s-6.34,2.58-8.06,7.23c0,0-5.42-2-6.74,3.47,0,0-3.66,2-1.68,6.62s3.28,3.52,3.28,3.52-.18-1.47,2.23-2.78c0,0-1.29,4,1.9,5.9,0,0-.89,1.92,1.71,3.83a3.32,3.32,0,0,0,4.51-.1s-2.64-1.56-2.38-3.12c0,0,4,4.41,8.19.19a10.76,10.76,0,0,0,8.34-4.72s-8.76,12.37-11.53,13-9-.15-10.11-1.08-10.9-8.37-12.7-11.49-1-6.43.1-9.79,4.35-9.5,5.87-10.62S130.14,92.66,135,97.82Z"/></g><path class="cls-15" d="M136.77,120.62s3.73,4,6.75-1.72C143.52,118.9,139.86,121.5,136.77,120.62Z"/><path class="cls-15" d="M144.88,112.45s-3.61,3.41-6.83,2.44C138.05,114.89,141.86,118.19,144.88,112.45Z"/><path class="cls-15" d="M143.61,109.1c6.09.16,2.22-5.68,2.22-5.68A4.14,4.14,0,0,1,143.61,109.1Z"/><path class="cls-15" d="M134.34,117.27s-4,2-6-1.81C128.39,115.46,130.25,121.72,134.34,117.27Z"/><path class="cls-15" d="M129.4,121.54s2.57,5.76,6.35.33C135.75,121.87,132.31,124.44,129.4,121.54Z"/><path class="cls-15" d="M127.07,121.55c-2.42-1-3-5.67-3-5.67C122.79,122.77,127.07,121.55,127.07,121.55Z"/><path class="cls-15" d="M124,112.39c-2.86-1.51-2.65-5-2.65-5C119.39,111.83,124,112.39,124,112.39Z"/><path class="cls-15" d="M127.69,108c-1-2,2.63-4.25,2.63-4.25C126,103.62,127.69,108,127.69,108Z"/><path class="cls-11" d="M80,84c.71,5.42,8.59,12.93,19.8,7.88s17.53-13,5.63-25.62S89.4,56.48,84.43,62C79.15,67.8,79,76.32,80,84Z"/><path class="cls-12" d="M92,57.31c3.2,0,7.3,2.37,13.48,8.93,11.9,12.61,5.58,20.56-5.63,25.62a17.64,17.64,0,0,1-7.23,1.67c-7.26,0-12-5.39-12.57-9.55-1-7.66-.88-16.18,4.4-22C86.82,59.33,89,57.31,92,57.31m0-2.58c-4.12,0-6.93,2.72-9.46,5.5-6.41,7.08-6,17.14-5,24.08.74,5.67,6.73,11.8,15.12,11.8a20.13,20.13,0,0,0,8.29-1.9c7.81-3.52,12.29-7.95,13.32-13.18,1-5.08-1.3-10.66-6.87-16.56C101,57.73,96.25,54.73,92,54.73Z"/><g class="cls-17"><path class="cls-14" d="M79.82,68.39s.4,7.46,4.6,10.89c0,0-4,4.87,1.18,8.19,0,0,.79,4.5,6.24,4.09s4.8-2.13,4.8-2.13-1.59-.34-2.08-3.29c0,0,3.66,2.74,6.76.14,0,0,1.67,1.6,4.57-.4a3.65,3.65,0,0,0,1.5-4.7s-2.55,2.17-4.07,1.34c0,0,6-2.6,3.11-8.37a11.77,11.77,0,0,0-1.91-10.3s9.65,13.45,9.37,16.55-3.35,9.23-4.71,10-12.51,8.27-16.37,9-7-1.3-10.08-3.59S74.48,88,73.86,86.05,72.75,71.6,79.82,68.39Z"/></g><path class="cls-15" d="M104,74.7s5.47-2.42.62-7.57C104.59,67.13,106,71.83,104,74.7Z"/><path class="cls-15" d="M98.43,63.43s2.23,4.94.08,7.92C98.51,71.35,103.27,68.59,98.43,63.43Z"/><path class="cls-15" d="M94.52,63.54c2.32-6.22-5.08-4.31-5.08-4.31C94.26,58.86,94.52,63.54,94.52,63.54Z"/><path class="cls-15" d="M99.66,76s.61,4.85-4,5.5C95.67,81.52,102.78,81.83,99.66,76Z"/><path class="cls-15" d="M102.3,82.64s6.86-.6,2.6-6.43C104.9,76.21,106.33,80.66,102.3,82.64Z"/><path class="cls-15" d="M101.48,85c-1.91,2.14-6.92,1.1-6.92,1.1C101.22,89.9,101.48,85,101.48,85Z"/><path class="cls-15" d="M91,84.91c-2.58,2.43-6.15,1-6.15,1C88.72,89.52,91,84.91,91,84.91Z"/><path class="cls-15" d="M87.76,79.6c-2.42.31-3.46-4.22-3.46-4.22C82.59,79.8,87.76,79.6,87.76,79.6Z"/><circle class="cls-18" cx="103.58" cy="104.28" r="11.39"/><path class="cls-19" d="M103.58,92.89a11.39,11.39,0,1,1-11.4,11.39,11.39,11.39,0,0,1,11.4-11.39m0-2.58a14,14,0,1,0,14,14,14,14,0,0,0-14-14Z"/><path class="cls-20" d="M105.73,112.23a11.39,11.39,0,0,1-11.4-11.39,11.54,11.54,0,0,1,.81-4.16,11.37,11.37,0,1,0,19,11.76A11.34,11.34,0,0,1,105.73,112.23Z"/><path class="cls-20" d="M105.73,97.4c2.35-.5,6.66,3.44,3.43,4.52S102.72,98.05,105.73,97.4Z"/><path class="cls-21" d="M110,105.14c-1.55-.14-3.86,1.08-1.72,2.58S112.39,105.36,110,105.14Z"/><path class="cls-21" d="M102.93,106.65c-1.26-.36-2.15,1.07-.64,1.93S104.44,107.08,102.93,106.65Z"/><path class="cls-21" d="M106.59,94.61s-6-1.07-9.89,3.22a1.86,1.86,0,0,0-.22,2.58C97.56,101.92,100.14,94.82,106.59,94.61Z"/><path class="cls-21" d="M94.12,102.13c-.61.49-1.72,2.58-.22,3.23S95.19,101.27,94.12,102.13Z"/><circle class="cls-18" cx="126.36" cy="87.09" r="11.39"/><path class="cls-19" d="M126.35,75.69a11.4,11.4,0,0,1,0,22.79,11.73,11.73,0,0,1-2.74-.33,11.4,11.4,0,0,1,2.72-22.46m0-2.58h0A14,14,0,0,0,123,100.65a14.11,14.11,0,0,0,3.36.41,14,14,0,0,0,3.34-27.54,14.11,14.11,0,0,0-3.36-.41Z"/><path class="cls-20" d="M134.6,86.91A11.34,11.34,0,0,1,117,93.45a11.36,11.36,0,1,0,16-15.64A11.33,11.33,0,0,1,134.6,86.91Z"/><path class="cls-20" d="M120.2,83.35c.07-2.4,4.93-5.64,5.2-2.25S120.1,86.43,120.2,83.35Z"/><path class="cls-21" d="M128.74,81c-.51,1.48.12,4,2.09,2.29S129.51,78.79,128.74,81Z"/><path class="cls-21" d="M128.5,88.28c-.65,1.13.53,2.34,1.72,1.09S129.28,86.92,128.5,88.28Z"/><path class="cls-21" d="M117.69,81.85s-2.49,5.58.76,10.37a1.86,1.86,0,0,0,2.45.83C122.62,92.36,116.35,88.16,117.69,81.85Z"/><path class="cls-21" d="M122,95.75c.32.71,2.09,2.29,3.07,1S121.43,94.5,122,95.75Z"/><circle class="cls-18" cx="71.99" cy="100.72" r="11.39"/><path class="cls-19" d="M72,89.33A11.39,11.39,0,1,1,60.93,98,11.29,11.29,0,0,1,72,89.33m0-2.58h0a14,14,0,0,0-3.34,27.54,14.11,14.11,0,0,0,3.36.41,14,14,0,0,0,3.34-27.54A14.11,14.11,0,0,0,72,86.75Z"/><path class="cls-20" d="M80.23,100.54a11.36,11.36,0,0,1-17.64,6.55,11.36,11.36,0,1,0,16-15.64A11.31,11.31,0,0,1,80.23,100.54Z"/><path class="cls-20" d="M65.83,97c.07-2.4,4.93-5.64,5.2-2.26S65.73,100.07,65.83,97Z"/><path class="cls-21" d="M74.37,94.67c-.51,1.48.12,4,2.09,2.29S75.14,92.43,74.37,94.67Z"/><path class="cls-21" d="M74.13,101.92c-.65,1.13.53,2.34,1.72,1.09S74.91,100.56,74.13,101.92Z"/><path class="cls-21" d="M63.32,95.49s-2.49,5.58.76,10.37a1.85,1.85,0,0,0,2.45.82C68.25,106,62,101.8,63.32,95.49Z"/><path class="cls-21" d="M67.64,109.39c.32.7,2.09,2.29,3.08,1S67.06,108.14,67.64,109.39Z"/><path class="cls-22" d="M155.59,145.12s-6-.65-6.66,3.65S150.22,145.55,155.59,145.12Z"/><path class="cls-22" d="M162.9,135.66a6.5,6.5,0,0,0-4.52,6.24C158.38,146.84,159.67,137,162.9,135.66Z"/><path class="cls-22" d="M121.42,157.59s-1.08,4.72-6.45,3.43c0,0-4.3,5.38-10.75.86,0,0,7.52,1.29,9.89-3.22C114.11,158.66,118.84,162.53,121.42,157.59Z"/><path class="cls-22" d="M178.16,125.56s5.37-5.59-.43-10.1C177.73,115.46,181,122.77,178.16,125.56Z"/><path class="cls-22" d="M178.8,112s4.95-6.23,1.72-10.53S182.24,106.22,178.8,112Z"/><path class="cls-22" d="M159.24,90.1s5.59,1.93,3.23,7.09c0,0,3.65,8.17-2.37,11.61,0,0,6-7.74-.43-12C159.67,96.76,162.47,92.68,159.24,90.1Z"/><path class="cls-22" d="M173.43,96.76a2.81,2.81,0,0,1,1.93,3.87C174.72,102.78,171.93,96.33,173.43,96.76Z"/><path class="cls-22" d="M160.1,78.06c1.45.6,3.87,1.93,3.87,3.87S157.52,77,160.1,78.06Z"/><path class="cls-22" d="M109.38,54.2s7.09-3.87,6,7.74C115.4,61.94,115.83,54.63,109.38,54.2Z"/><path class="cls-22" d="M117.12,62.15s3.65-1.07,3.87,3.23S121.85,62.58,117.12,62.15Z"/><path class="cls-22" d="M108.09,60.87s4.51,2.36,3.44,3.22S106.59,60.65,108.09,60.87Z"/><path class="cls-22" d="M53.07,76.77s-5.81-2.36-8,2.15,5,13.11,5,13.11S40,79.56,53.07,76.77Z"/><path class="cls-22" d="M58.87,66.45s-8.6-3.44-5.8,6.45C53.07,72.9,52,66.88,58.87,66.45Z"/><path class="cls-22" d="M66.82,45s-10.1.86-8.38,16.33C58.44,61.29,61.66,45.82,66.82,45Z"/><path class="cls-22" d="M75.42,41.74s7.31-9.89,16.12-4.09C91.54,37.65,83.59,33.78,75.42,41.74Z"/><path class="cls-22" d="M93.9,156.08s-6.44-1.72-5.8,2.79S89.18,156.73,93.9,156.08Z"/><path class="cls-22" d="M115.61,153.72s1.94-4.73,4.3-1.29S119.48,150.92,115.61,153.72Z"/><path class="cls-22" d="M116.9,130.07s-.43,5.81-1.29,5S115.18,128.78,116.9,130.07Z"/><path class="cls-22" d="M135.82,138.89s4.51-.86,6.44-8.17c0,0,5.16,1.72,7.31-5.37,0,0-2.15,7.73-6.23,7.73C143.34,133.08,143.55,138.67,135.82,138.89Z"/><path class="cls-6" d="M109.16,21.32A85.75,85.75,0,0,1,187,143,85.76,85.76,0,1,0,33.87,66,85.74,85.74,0,0,1,109.16,21.32Z"/></svg>