<svg id="图层_1" data-name="图层 1" xmlns="http://www.w3.org/2000/svg" viewBox="0 0 200 200"><defs><style>.cls-1{fill:#dddcdc;}.cls-2{fill:#828084;}.cls-3{fill:#fff5c7;}.cls-4{fill:#cd962b;}.cls-5{fill:#ffd582;}.cls-6{fill:#f8972d;}.cls-7{fill:#f8ed44;}.cls-8{fill:#fff;}.cls-9{fill:#a5a4a4;}.cls-10{fill:#fed382;}.cls-11{fill:#aa7029;}.cls-12{fill:#ddb464;}.cls-13{fill:#ffeabc;}.cls-14{fill:#eb6f71;}.cls-15{fill:#883233;}.cls-16{fill:#f7a2a5;}.cls-17{fill:#b34a4a;}.cls-18{fill:#f89f59;}.cls-19{fill:#924821;}.cls-20{fill:#f8bf92;}.cls-21{fill:#bd6428;}.cls-22{fill:#aa5c26;}.cls-23{fill:#d68328;}.cls-24{fill:#ffcb65;}.cls-25{fill:#fffffb;}.cls-26{fill:#278140;}.cls-27{fill:#1d592d;}.cls-28{fill:#60bd66;}</style></defs><title>食物矿</title><ellipse class="cls-1" cx="100.1" cy="134.26" rx="97.65" ry="36.37"/><path class="cls-2" d="M100.1,97.89c53.93,0,97.65,16.29,97.65,36.37S154,170.64,100.1,170.64,2.46,154.35,2.46,134.26,46.18,97.89,100.1,97.89m0-2.36c-56.08,0-100,17-100,38.73S44,173,100.1,173s100-17,100-38.74-43.92-38.73-100-38.73Z"/><path class="cls-3" d="M34.35,110.9s-5.59-5.17-2.51-9.93c0,0-3.36-3.36,1.12-7.28s5.87-3.35,7.83-8.11,6.43-27.42,34.69-36.65,58.2-3.08,71.63,8.11,14.55,25.74,17.07,27.7,10.07,10.07,7.27,16S93.39,111.88,87,111.88,34.35,112.72,34.35,110.9Z"/><path class="cls-4" d="M104.06,44.44c18.06,0,34.17,5.2,43.05,12.6,13.43,11.19,14.55,25.74,17.07,27.7s10.07,10.07,7.27,16S93.39,111.88,87,111.88c-3.08,0-15.33.19-27.22.19-12.89,0-25.38-.22-25.38-1.17,0,0-5.59-5.17-2.51-9.93,0,0-3.36-3.36,1.12-7.28s5.87-3.35,7.83-8.11,6.43-27.42,34.69-36.65a92.23,92.23,0,0,1,28.58-4.49m0-2.24v0h0a94.09,94.09,0,0,0-29.27,4.6C48.53,55.38,41.91,75.25,39.42,82.73c-.28.83-.52,1.55-.7,2a8,8,0,0,1-3.62,4.46A42.88,42.88,0,0,0,31.48,92a8,8,0,0,0-3.09,5.73,6.63,6.63,0,0,0,.84,3.4c-1.75,4.28.86,8.61,3.13,10.94.79,1.57,3.61,1.77,9.76,2,4.19.15,10.11.23,17.61.23,7.89,0,16-.08,21.36-.14l5.86,0c3.24,0,23.69-1.32,43.85-3.41,40.34-4.16,41.86-7.35,42.67-9.06,3.58-7.51-5.48-16.78-7.92-18.68A25,25,0,0,1,164,79.13c-2.11-5.85-5.64-15.64-15.44-23.81S121.79,42.2,104.06,42.2Z"/><path class="cls-5" d="M76,54.52s1.12,6.72,24.62,6.72c18.75,0,29.28-6.41,31.36-12.27-15.27-5.35-36.32-6.65-56.54,0C60.88,53.7,52.64,62.05,47.8,69.67,54.66,62.74,64.3,55.74,76,54.52Z"/><path class="cls-6" d="M39.39,107.68S35.75,101.25,43,95.37,53.66,83.06,56.74,73.55,70.73,55.92,79.12,54s7-.56,5.32,1.4S77.72,64.88,78,71.59,74.64,82.22,68.21,87,53.94,99.29,55.62,106.84Z"/><path class="cls-4" d="M84.66,53c1.87,0,.89,1-.22,2.34-1.68,2-6.72,9.52-6.44,16.23S74.64,82.22,68.21,87,53.94,99.29,55.62,106.84l-16.23.84S35.75,101.25,43,95.37,53.66,83.06,56.74,73.55,70.73,55.92,79.12,54A29.23,29.23,0,0,1,84.66,53m0-1.12h0a29.85,29.85,0,0,0-5.79,1c-8.65,2-20,10.37-23.2,20.34-2.91,9-6,15.39-13.35,21.29-7.92,6.4-3.94,13.66-3.9,13.73l.34.61.69,0L55.68,108l1.32-.07-.29-1.29c-1.62-7.27,6.93-14.85,12.16-18.72,6.72-5,10.55-9.23,10.25-16.34-.25-5.89,4.13-13.07,6.17-15.45l.14-.16c.93-1.09,1.74-2,1.27-3.06a2.12,2.12,0,0,0-2-1Z"/><path class="cls-7" d="M48.34,95.37C55.62,89.5,59,83.06,62.05,73.55S76,55.92,84.44,54l1.22-.27c.28-.84-1-1-6.54.27-8.39,2-19.3,10.08-22.38,19.59S50.3,89.5,43,95.37s-3.64,12.31-3.64,12.31l5.18-.26C44,106.15,41.94,100.55,48.34,95.37Z"/><path class="cls-8" d="M100.1,166.16c-51.9,0-94.33-15.09-97.44-34.13a13.9,13.9,0,0,0-.2,2.23c0,20.09,43.72,36.38,97.64,36.38s97.65-16.29,97.65-36.38a13.9,13.9,0,0,0-.2-2.23C194.44,151.07,152,166.16,100.1,166.16Z"/><ellipse class="cls-9" cx="100.2" cy="131.47" rx="78.71" ry="25.37"/><path class="cls-10" d="M171.45,125.68c0,11-6.51,17.34-15.29,19.59-14.55,3.73-25.37,4.85-58.2,4.85-34.32,0-41-1.87-53.72-5.22-8.76-2.32-14.92-8.19-14.92-19.22h0c0-11,7.35-20,16.41-20H155c9.06,0,16.41,8.93,16.41,20Z"/><path class="cls-11" d="M155,105.73c9.06,0,16.41,8.93,16.41,20s-6.51,17.34-15.29,19.59c-14.55,3.73-25.37,4.85-58.2,4.85-34.32,0-41-1.87-53.72-5.22-8.76-2.32-14.92-8.19-14.92-19.22s7.35-20,16.41-20H155m0-2.24H45.73c-10.28,0-18.65,10-18.65,22.19,0,11.12,5.74,18.51,16.59,21.38l.36.09c12.67,3.36,19.64,5.21,53.93,5.21,33.85,0,44.36-1.23,58.75-4.92,10.79-2.77,17-10.7,17-21.76,0-12.24-8.37-22.19-18.65-22.19Z"/><path class="cls-12" d="M156.16,140.42c-14.55,3.73-25.37,4.85-58.2,4.85-34.32,0-41-1.87-53.72-5.22-8.08-2.14-13.93-7.31-14.8-16.73-.07.78-.12,1.56-.12,2.36,0,11,6.16,16.9,14.92,19.22,12.68,3.35,19.4,5.22,53.72,5.22,32.83,0,43.65-1.12,58.2-4.85,8.78-2.25,15.29-8.56,15.29-19.59a23.25,23.25,0,0,0-.13-2.38C170.42,132.8,164.26,138.34,156.16,140.42Z"/><path class="cls-13" d="M155,108.8H45.73c-6.58,0-13.77,1.63-15.57,11.19,2.64,4,7.53,6.87,12.59,8.21,12.68,3.36,19.4,5.22,53.72,5.22,32.83,0,43.64-1.11,58.19-4.85,6.28-1.6,12.14-6.22,14.55-12.21C169.21,116.36,166.6,106,155,108.8Z"/><path class="cls-12" d="M155,105.73H45.73c-6.58,0-12.24,4.72-14.86,11.52,2.64,4,6.82,6.54,11.88,7.87,12.68,3.36,19.4,5.23,53.72,5.23,32.83,0,43.64-1.12,58.19-4.85,6.28-1.61,11.38-5.31,13.79-11.3C168.45,114.2,163.8,106,155,105.73Z"/><path class="cls-13" d="M30.58,118.32s-4.2,8.39,4.33,17.06c0,0-5.73-6.43-2.51-14.41Z"/><path class="cls-13" d="M161,134.64c-2.43,0-5.41,2.05-3.18,2.79S164.74,134.64,161,134.64Z"/><path class="cls-13" d="M142.91,139.67c-2.08,0-4.1.94-2,1.31S145.9,139.67,142.91,139.67Z"/><path class="cls-13" d="M87.33,141.17c-2-.38-4.11.18-1.49,1.11S90.31,141.72,87.33,141.17Z"/><path class="cls-14" d="M112.7,115c2.51,3.36,15.1,10.07,37.77,6.71s31.89-19.86,20.42-23.78-35.25-5.31-40,10.07C130.88,108,108.11,108.84,112.7,115Z"/><path class="cls-15" d="M154.38,95.3a53.79,53.79,0,0,1,16.51,2.59c11.47,3.92,2.24,20.43-20.42,23.78a81.4,81.4,0,0,1-11.89.92c-15.22,0-23.85-4.92-25.88-7.63-4.59-6.12,18.18-7,18.18-7,3-9.59,13.33-12.66,23.5-12.66m0-1.68c-12.85,0-21.57,4.5-24.71,12.72-5.1.27-16.91,1.35-18.92,5.57a3.79,3.79,0,0,0,.6,4.06c2.5,3.33,11.82,8.3,27.23,8.3a83.11,83.11,0,0,0,12.13-.94c16.5-2.44,26.1-11.43,26.76-18.64.35-3.9-1.85-7-6-8.39a55.72,55.72,0,0,0-17.05-2.68Z"/><path class="cls-16" d="M130.88,108s2.8,2.52,6.72-.84,11.19-8.67,19-5.87,3.36,9.79-5.31,11.47S134,112.44,130.88,108Z"/><path class="cls-17" d="M130.88,108s3.36,4.48,8.67,0a20.7,20.7,0,0,1,15.11-5c7.28.56,10.54,6.35-1.4,9.79C138.72,116.92,130.32,111.88,130.88,108Z"/><path class="cls-16" d="M114.37,110.76s5.6,8.12,22.39,8.67,34.21-3,38.37-18.29c0,0,.8,9.9-12.35,16.34s-35.26,7-50.08-2.52A3.33,3.33,0,0,1,114.37,110.76Z"/><path class="cls-17" d="M175.13,101.14c0,8.78-9.55,16.9-24.66,19.13-21,3.11-35-2.51-37.59-8.43a2.09,2.09,0,0,0-.18,3.12c2.51,3.36,15.1,10.07,37.77,6.71C169,118.93,178.54,107.39,175.13,101.14Z"/><path class="cls-18" d="M82.48,117.48c2.52,3.35,15.11,10.07,37.77,6.71s31.9-19.86,20.42-23.78-35.25-5.32-40,10.07C100.66,110.48,77.89,111.36,82.48,117.48Z"/><path class="cls-19" d="M124.16,97.82a53.74,53.74,0,0,1,16.51,2.59c11.48,3.92,2.24,20.42-20.42,23.78a81.37,81.37,0,0,1-11.88.92c-15.22,0-23.85-4.92-25.89-7.63-4.59-6.12,18.18-7,18.18-7,3-9.6,13.33-12.66,23.5-12.66m0-1.68c-12.85,0-21.57,4.5-24.71,12.72-5.1.27-16.91,1.35-18.92,5.57a3.78,3.78,0,0,0,.61,4c2.5,3.34,11.82,8.31,27.23,8.31a83.11,83.11,0,0,0,12.13-.94c16.49-2.44,26.09-11.43,26.75-18.65.36-3.89-1.84-7-6-8.38a55.84,55.84,0,0,0-17.06-2.68Z"/><path class="cls-20" d="M100.66,110.48s2.8,2.52,6.72-.84,11.19-8.67,19-5.87,3.36,9.79-5.31,11.47S103.74,115,100.66,110.48Z"/><path class="cls-21" d="M100.66,110.48s3.36,4.48,8.68,0a20.67,20.67,0,0,1,15.11-5c7.27.56,10.53,6.35-1.4,9.79C108.5,119.43,100.1,114.4,100.66,110.48Z"/><path class="cls-20" d="M84.16,113.28s5.59,8.11,22.38,8.67,34.21-3,38.37-18.29c0,0,.8,9.9-12.35,16.33s-35.25,7-50.08-2.51A3.33,3.33,0,0,1,84.16,113.28Z"/><path class="cls-21" d="M144.91,103.66c0,8.78-9.55,16.89-24.66,19.13-21,3.11-35-2.52-37.58-8.43a2.09,2.09,0,0,0-.19,3.12c2.52,3.35,15.11,10.07,37.77,6.71C138.78,121.45,148.32,109.91,144.91,103.66Z"/><path class="cls-14" d="M40.79,117.48c2.52,3.35,15.11,10.07,37.77,6.71s31.9-19.86,20.43-23.78-35.26-5.32-40,10.07C59,110.48,36.2,111.36,40.79,117.48Z"/><path class="cls-15" d="M82.47,97.82A53.81,53.81,0,0,1,99,100.41c11.47,3.92,2.23,20.42-20.43,23.78a81.37,81.37,0,0,1-11.88.92c-15.22,0-23.85-4.92-25.89-7.63-4.59-6.12,18.19-7,18.19-7,3-9.6,13.33-12.66,23.49-12.66m0-1.68c-12.85,0-21.56,4.5-24.71,12.72-5.1.27-16.91,1.35-18.92,5.57a3.78,3.78,0,0,0,.61,4c2.5,3.34,11.82,8.31,27.23,8.31a83.11,83.11,0,0,0,12.13-.94c16.49-2.44,26.09-11.43,26.75-18.65.36-3.89-1.84-7-6-8.38a55.84,55.84,0,0,0-17.06-2.68Z"/><path class="cls-16" d="M59,110.48s2.79,2.52,6.71-.84,11.19-8.67,19-5.87,3.35,9.79-5.32,11.47S62.05,115,59,110.48Z"/><path class="cls-17" d="M59,110.48s3.35,4.48,8.67,0a20.7,20.7,0,0,1,15.11-5c7.27.56,10.53,6.35-1.4,9.79C66.81,119.43,58.42,114.4,59,110.48Z"/><path class="cls-16" d="M42.47,113.28s5.59,8.11,22.38,8.67,34.21-3,38.37-18.29c0,0,.8,9.9-12.35,16.33s-35.25,7-50.08-2.51A3.33,3.33,0,0,1,42.47,113.28Z"/><path class="cls-17" d="M103.22,103.66c0,8.78-9.54,16.89-24.66,19.13-21,3.11-35-2.52-37.58-8.43a2.09,2.09,0,0,0-.19,3.12c2.52,3.35,15.11,10.07,37.77,6.71C97.1,121.45,106.63,109.91,103.22,103.66Z"/><path class="cls-6" d="M51.51,111.13c-4.43-4-11.56-1.49-14.73.94s-6.72,2.42-3.54-2.61,9.14-6.53,14.17-5.6,7.09,2,9.51-.93,8.58-4.11,11.57-2.43-3.36,4.67-6.16,8.21.38,8.77,8.58,8.21,10.82-2.8,11.57.56-9.7-1.31-8.58,8.39,2.24,14.74,7.83,18.47,8.4,4.66,6,6.9S71.29,147.88,73,152s5,8.21.37,8.4-10.07-6.9-10.26-3.73-.56,5.78-10.07,3.54S29,149.56,38.46,149.56s21.26.93,18.28-.75-2.05-3.17,4.66-3.73,13.8,2,6.72-5.41-4.67-13.24-3.55-16.78-1.27-5.28-4.47-4.48C54.87,119.71,56.74,115.8,51.51,111.13Z"/><path class="cls-22" d="M64.92,99.72a7.44,7.44,0,0,1,3.57.78c3,1.68-3.36,4.67-6.16,8.21-2.65,3.37.08,8.25,7.39,8.25.39,0,.78,0,1.19,0,4.86-.33,7.76-1.25,9.47-1.25,1.18,0,1.79.44,2.1,1.81.74,3.35-9.7-1.31-8.58,8.39s2.24,14.74,7.83,18.47,8.4,4.66,6,6.9a3.41,3.41,0,0,1-2.25.55c-3,0-8-1.36-10.73-1.36-1.44,0-2.23.38-1.75,1.55,1.67,4.11,5,8.21.37,8.4h-.18c-3.77,0-8-4.55-9.49-4.55-.35,0-.56.24-.59.82C62.94,159,62.7,161,58.74,161a26.36,26.36,0,0,1-5.73-.84C43.49,158,29,149.56,38.46,149.56c5,0,10.63.26,14.4.26,3.4,0,5.29-.21,3.88-1-3-1.68-2.05-3.17,4.66-3.73.78-.06,1.57-.09,2.34-.09,1.62,0,3.17.1,4.41.1,3.24,0,4.49-.66,0-5.42-7.09-7.46-4.67-13.24-3.55-16.78.94-3-.59-4.67-3-4.67a6,6,0,0,0-1.48.19,7.47,7.47,0,0,1-1.74.25c-3.12,0-2.31-3.48-6.85-7.53a8.58,8.58,0,0,0-5.87-2.08,15.72,15.72,0,0,0-8.86,3,6.78,6.78,0,0,1-3.6,1.58c-1.35,0-1.82-1.22.06-4.19a13,13,0,0,1,11.31-5.86,15.93,15.93,0,0,1,2.86.26,40.1,40.1,0,0,0,5.84,1,4.37,4.37,0,0,0,3.67-1.93c1.66-2,5.06-3.21,8-3.21m0-1.12c-3,0-6.83,1.12-8.86,3.62a3.26,3.26,0,0,1-2.81,1.52,18.24,18.24,0,0,1-3.36-.52c-.69-.15-1.44-.31-2.27-.46a16.62,16.62,0,0,0-3.07-.28,14,14,0,0,0-12.26,6.38c-1.36,2.16-1.74,3.74-1.14,4.83a2.19,2.19,0,0,0,2,1.08A7.66,7.66,0,0,0,37.46,113a14.56,14.56,0,0,1,8.18-2.79,7.43,7.43,0,0,1,5.13,1.8,15.69,15.69,0,0,1,3.55,4.67c.87,1.62,1.7,3.14,4,3.14a8.09,8.09,0,0,0,2-.29,5.27,5.27,0,0,1,1.21-.15,2.17,2.17,0,0,1,1.82.73,2.79,2.79,0,0,1,.1,2.48l-.19.59c-1.18,3.65-3.17,9.77,4,17.3,2,2.12,2.5,3,2.61,3.38a6.49,6.49,0,0,1-1.76.15c-.57,0-1.2,0-1.88,0s-1.65-.05-2.53-.05-1.7,0-2.43.09c-4.75.39-6.92,1.23-7.26,2.79a2.1,2.1,0,0,0,.62,1.91c-.47,0-1.07,0-1.81,0-1.73,0-3.89-.06-6.18-.12-2.72-.07-5.53-.14-8.22-.14-1,0-4,0-4.21,2.05-.42,3.62,11.92,9.24,18.5,10.79a27.39,27.39,0,0,0,6,.87c4.78,0,5.28-2.84,5.43-5,.47.27,1.14.73,1.68,1.1,2.07,1.44,4.66,3.22,7.31,3.22h.22c1.56-.07,2.57-.53,3.1-1.42.92-1.55-.1-3.6-1.28-6-.41-.82-.84-1.67-1.18-2.51a4.59,4.59,0,0,1,.7,0,34.38,34.38,0,0,1,4.87.63,37.56,37.56,0,0,0,5.86.73,4.27,4.27,0,0,0,3-.85,3.24,3.24,0,0,0,1.23-2.5c-.14-1.57-1.73-2.57-4.6-4.39-.81-.51-1.73-1.09-2.74-1.77-5.2-3.46-6.23-8-7.34-17.66-.21-1.84,0-3.21.69-4,.93-1.17,2.7-1.36,4.26-1.53s2.66-.29,3.32-1.21a2.11,2.11,0,0,0,.29-1.72,3,3,0,0,0-3.19-2.68,19.23,19.23,0,0,0-3.13.41,56,56,0,0,1-6.41.84c-.39,0-.76,0-1.12,0-4,0-6.23-1.59-6.95-3.07a3.07,3.07,0,0,1,.44-3.37,25.87,25.87,0,0,1,3.55-3.34c2.1-1.73,3.76-3.1,3.62-4.69A2.35,2.35,0,0,0,69,99.53a8.42,8.42,0,0,0-4.12-.93Z"/><path class="cls-23" d="M74.53,121.47c2.17-3.67,8.54-1.34,8-4l-.06-.21C80.59,118.05,75.5,117,74.53,121.47Z"/><path class="cls-23" d="M62.89,107.31a4.5,4.5,0,0,0-.89,1.91,4,4,0,0,1,.33-.51c2.36-3,7.21-5.57,6.9-7.32C67.91,103,64.68,105,62.89,107.31Z"/><path class="cls-23" d="M51.51,111.13c5.23,4.67,3.36,8.58,8.59,7.28,3.2-.8,5.59.93,4.47,4.48s-3.54,9.32,3.55,16.78a15.64,15.64,0,0,1,3,4.81c1.23-.49.72-2.84-2.47-6.21C61.59,130.81,64,125,65.13,121.49s-1.27-5.28-4.48-4.48c-5.22,1.31-3.35-2.61-8.58-7.27-4.43-4-11.56-1.5-14.73.93-2.54,1.94-5.31,2.32-4.69-.19-2.06,4,1.19,3.83,4.13,1.59C40,109.64,47.08,107.17,51.51,111.13Z"/><path class="cls-23" d="M88.26,149.84c-2.42,2.24-16.39-3.35-14.74.74,2.67-.85,12.22,2.47,14.18.66.69-.64.92-1.18.81-1.7C88.42,149.64,88.37,149.73,88.26,149.84Z"/><path class="cls-23" d="M73.9,159c-4.67.18-10.07-6.9-10.26-3.73,0,.2,0,.4,0,.6,1.47-.18,5.86,4.68,9.74,4.53,1.87-.08,2.44-.79,2.35-1.87A3.32,3.32,0,0,1,73.9,159Z"/><path class="cls-23" d="M53.57,158.79c-6.8-1.6-16.15-6.33-17.49-8.91-3.81,1.55,8.52,8.33,16.93,10.31,7.76,1.83,9.43.43,9.89-1.87C61.92,159.68,59.56,160.2,53.57,158.79Z"/><path class="cls-23" d="M56.74,149.51c1.62-.11,1.54-1.54.56-2.1a4,4,0,0,1-1.45-1.17C54.22,146.57,55.66,148.72,56.74,149.51Z"/><path class="cls-24" d="M61.49,156c.41,1.12,1.26,4.89-10.21.7,0,0,7.84,1.54,7.84.42S60.79,154,61.49,156Z"/><path class="cls-24" d="M47.5,154.83c-1.66-1.43-5.17-3.5-4-2S48.48,155.67,47.5,154.83Z"/><path class="cls-24" d="M74.5,157.07c-.07.55-.84,1.68-3.07.56a44.26,44.26,0,0,1-5.74-3.92s5.88,3.64,6.86,3.22S74.64,156.09,74.5,157.07Z"/><path class="cls-24" d="M86.12,148.25c.48.87.55,1.54-2.94.7s-5.46-1.26-5.46-1.26,7.56,1.4,6.86.56S85.42,147,86.12,148.25Z"/><path class="cls-24" d="M60.37,146.15c-1.38-.17-2.51.28-1.39.7S61.49,146.29,60.37,146.15Z"/><path class="cls-24" d="M65.13,127.41c-.28.84.14,4.9.7,4.06S65.41,126.57,65.13,127.41Z"/><path class="cls-24" d="M67.65,134.68c1,1,2.94,3.08,1.54,2.52S66.39,133.42,67.65,134.68Z"/><path class="cls-24" d="M57.86,116.08c-1.38.25-2.8-4.48-2-3.64S59.4,115.8,57.86,116.08Z"/><path class="cls-24" d="M36.45,110.48c-.74.65-2.93,1.54-2.1.42S37.57,109.5,36.45,110.48Z"/><path class="cls-24" d="M43.45,106.56c-1.58.2-2.94,1-2.1,1.12S44.57,106.42,43.45,106.56Z"/><path class="cls-24" d="M76.6,60.68c-2.4,0-8.95,3.36-11.47,11.47s1.45,0,3.92-3.64C72.69,63.2,77.44,60.68,76.6,60.68Z"/><path class="cls-24" d="M60.93,83.06c.12-1.76-3.63,6.72-6.15,8.68s-3.92,4.47-1.68,3.63S60.65,87.26,60.93,83.06Z"/><path class="cls-14" d="M97.59,62.36C95.35,61.8,88.35,66,89.47,68s5,4.48,7.28,2C96.75,69.91,99.83,62.92,97.59,62.36Z"/><path class="cls-15" d="M97.12,62.31a1.74,1.74,0,0,1,.47,0c2.24.56-.84,7.55-.84,7.55A3,3,0,0,1,94.4,71a6.53,6.53,0,0,1-4.93-3c-1-1.83,5-5.64,7.65-5.64m0-1.12c-2.52,0-7.19,2.7-8.47,4.9a2.34,2.34,0,0,0-.15,2.42,7.65,7.65,0,0,0,5.9,3.58,4.16,4.16,0,0,0,3.18-1.43l.12-.14.07-.16c.6-1.35,2.46-5.91,1.45-8a2.06,2.06,0,0,0-1.36-1.12,3.43,3.43,0,0,0-.74-.08Z"/><path class="cls-14" d="M113.53,60.12c-2.79,3.92,7,3.36,5.88,0S114.68,58.51,113.53,60.12Z"/><path class="cls-15" d="M117.06,58.2a2.41,2.41,0,0,1,2.35,1.92c.58,1.74-1.78,2.73-3.79,2.73s-3.43-.85-2.09-2.73a4.87,4.87,0,0,1,3.53-1.92m0-1.12a6,6,0,0,0-4.44,2.39,2.69,2.69,0,0,0-.47,2.93c.52,1,1.78,1.57,3.47,1.57,1.47,0,3.53-.47,4.5-1.82a2.56,2.56,0,0,0,.35-2.38,3.54,3.54,0,0,0-3.41-2.69Z"/><path class="cls-14" d="M130,62.08c-3.91,1.68-.56,5.31,2.24,5.59s5.88-3.35,4.48-5S132.25,61.13,130,62.08Z"/><path class="cls-15" d="M133.43,61.37a4.23,4.23,0,0,1,3.33,1.27c1.34,1.62-1.46,5-4.17,5l-.31,0c-2.8-.28-6.15-3.91-2.24-5.59a8.87,8.87,0,0,1,3.39-.71m0-1.12a9.92,9.92,0,0,0-3.83.8c-2.52,1.08-2.53,2.86-2.42,3.58.33,2.19,2.9,4,5,4.16l.42,0a6.26,6.26,0,0,0,5.24-3.54,3.06,3.06,0,0,0-.21-3.35,5.25,5.25,0,0,0-4.19-1.67Z"/><path class="cls-14" d="M146.27,68.51c-2.24,0-3.08.84-2,3.64s4.2,4.2,6.16.56S149.08,68.51,146.27,68.51Z"/><path class="cls-15" d="M146.27,68.51c2.81,0,6.16.56,4.2,4.2-.84,1.55-1.88,2.19-2.88,2.19a3.92,3.92,0,0,1-3.28-2.75c-1.12-2.8-.28-3.64,2-3.64m0-1.12a3.6,3.6,0,0,0-3.14,1.23c-.81,1.19-.31,2.82.14,3.95A5,5,0,0,0,147.59,76c.88,0,2.56-.36,3.86-2.78q1.26-2.34.32-3.92c-1-1.73-3.63-1.93-5.5-1.93Z"/><path class="cls-14" d="M183.48,123.63c-2.24.56-1.68,2.18-1.68,5a2.6,2.6,0,0,0,5,.56C188,126.15,185.72,123.07,183.48,123.63Z"/><path class="cls-15" d="M184,123.57c2,0,3.85,2.83,2.82,5.66a2.44,2.44,0,0,1-2.35,1.78,2.62,2.62,0,0,1-2.69-2.34c0-2.86-.56-4.48,1.68-5a2.48,2.48,0,0,1,.54-.06m0-1.12a3.21,3.21,0,0,0-.81.1c-2.72.68-2.64,2.74-2.56,4.74q0,.63,0,1.38a3.71,3.71,0,0,0,3.81,3.46,3.56,3.56,0,0,0,3.4-2.52,5.82,5.82,0,0,0-.64-5.32,4,4,0,0,0-3.23-1.84Z"/><path class="cls-14" d="M176.77,140.42c-4.2.84-2.24,3.64-2.24,6.71s4.48,0,5.59-2.51A3,3,0,0,0,176.77,140.42Z"/><path class="cls-15" d="M177.35,140.36a3,3,0,0,1,2.77,4.26c-.78,1.76-3.22,3.8-4.6,3.8-.59,0-1-.37-1-1.29,0-3.07-2-5.87,2.24-6.71a2.86,2.86,0,0,1,.58-.06m0-1.12a4.26,4.26,0,0,0-.8.08c-4.19.84-3.72,3.66-3.37,5.72a13.5,13.5,0,0,1,.23,2.09,2.12,2.12,0,0,0,2.11,2.41c2,0,4.73-2.46,5.63-4.47a4,4,0,0,0-.25-3.91,4.28,4.28,0,0,0-3.55-1.92Z"/><path class="cls-14" d="M83.88,159.16c-4.48.56,2.52,6.16,5.31,6.16s8.4-1.68,7.28-4.76S88.35,158.61,83.88,159.16Z"/><path class="cls-15" d="M91.14,158.5c2.58,0,4.75.46,5.33,2.06,1.12,3.08-4.48,4.76-7.28,4.76s-9.79-5.6-5.31-6.16a63.35,63.35,0,0,1,7.26-.66m0-1.12a53.4,53.4,0,0,0-6.51.56l-.89.11c-2.38.3-2.47,1.85-2.44,2.32.16,2.5,5.24,6.07,7.89,6.07,2.3,0,6.4-1,7.92-3.19a3.22,3.22,0,0,0,.41-3.07c-1-2.8-5-2.8-6.38-2.8Z"/><path class="cls-14" d="M14.77,123.63c-4.2,0-5.46,1-6.72,3.36-2,3.64,4.2,3.64,6.44,2S19,123.63,14.77,123.63Z"/><path class="cls-15" d="M14.77,123.63c4.2,0,2,3.64-.28,5.32A6.89,6.89,0,0,1,10.65,130c-2.05,0-3.76-.87-2.6-3s2.52-3.36,6.72-3.36m0-1.12c-4.71,0-6.29,1.33-7.7,3.95a3,3,0,0,0-.16,3.1c.61,1,1.94,1.59,3.74,1.59a7.84,7.84,0,0,0,4.51-1.31c1.55-1.16,3.62-3.59,3-5.55-.28-.81-1.08-1.78-3.36-1.78Z"/><path class="cls-17" d="M96.75,68.51c-2.18,2.45-5.93.14-7.16-1.79A1.24,1.24,0,0,0,89.47,68c1.12,2,5,4.48,7.28,2,0,0,2-4.58,1.59-6.62A23.87,23.87,0,0,1,96.75,68.51Z"/><path class="cls-17" d="M119.38,60.06c-.77,1.85-5.39,2.27-6.22.72-1.27,3.18,7.3,2.49,6.25-.66Z"/><path class="cls-17" d="M132.56,66.42c-1.78-.18-3.77-1.72-4-3.24-1.22,1.81,1.43,4.27,3.71,4.49s4.91-2.32,4.79-4.13A5,5,0,0,1,132.56,66.42Z"/><path class="cls-17" d="M145.15,71.31a4,4,0,0,1-.39-2.57c-1,.39-1.26,1.38-.45,3.41,1,2.55,3.66,3.89,5.6,1.36C148.11,74.8,146,73.51,145.15,71.31Z"/><path class="cls-17" d="M184,123.6a4.51,4.51,0,0,1,1.28,5.07,2.41,2.41,0,0,1-2.5,1.74,2.52,2.52,0,0,0,4-1.18C187.87,126.4,186.06,123.61,184,123.6Z"/><path class="cls-17" d="M177.23,140.39a2.94,2.94,0,0,1,1.78,4.09,7.84,7.84,0,0,1-4.11,3.73c1.09.94,4.3-1.51,5.22-3.59A3,3,0,0,0,177.23,140.39Z"/><path class="cls-17" d="M89.33,164.06c-1.92,0-5.82-2.64-6.62-4.47-1.63,1.44,4,5.73,6.48,5.73,2.68,0,7.91-1.54,7.37-4.37C95.64,163,91.58,164.06,89.33,164.06Z"/><path class="cls-17" d="M9.59,126.85a5.24,5.24,0,0,1,4.3-3.19c-3.48.15-4.68,1.18-5.84,3.33-1.44,2.68,1.52,3.38,4.08,2.89C10.11,129.87,8.44,129,9.59,126.85Z"/><path class="cls-25" d="M84.9,61.15c-1.89,1.37-4.29,5.41-2.61,8.2S87,59.65,84.9,61.15Z"/><path class="cls-25" d="M73.9,87.26c-2.94,1.54-8,6-7.09,7.46S77.82,85.21,73.9,87.26Z"/><path class="cls-25" d="M51.89,72.52c-1.3,2-1.87,10.64-5.41,13.81s-6,5-4.48,5.78,8-6.34,9.7-12.31S53,70.85,51.89,72.52Z"/><path class="cls-25" d="M58,63.2c-1.7,1.27-3.35,3.91-2,3.91S59.54,62.08,58,63.2Z"/><path class="cls-25" d="M34.17,94.91c-1.74,1-3.92,2.42-1.68,4.29S36.22,93.79,34.17,94.91Z"/><path class="cls-25" d="M33.24,102a1.68,1.68,0,0,0-.38,2.62C33.61,105.35,34.54,101.06,33.24,102Z"/><path class="cls-25" d="M159,84.65c-1.34-.47-10.81-1.68-15.1.74S128.55,90.8,123,89.5s-15.85-.93-18.83,2.42,1.49,1.49,4.47.19,10.07-1.87,15.11-.37,13.06-.19,17-3,12.5-3.17,16.05-2.61S162.68,86,159,84.65Z"/><path class="cls-26" d="M102.06,52.85c-4.26-.62-15.39-.78-12.59-4.2,2.52-3.08,11.47-.28,11.47-.28s-9.79-4.48-9-8.67,10.35.83,13.15,5.87c0,0-10.08-16.81-4.48-17.35,5.88-.56,8.12,14.55,8.12,14.55s-2-17.34,1.4-18.18,5.59,12.31,2.24,18.74c0,0,7-14.27,10.91-14s-1.68,11.19-7.56,15.39c0,0,10.08-7.55,13.15-6.43s-11.19,9-11.19,9,6.44-1.4,10.63-.28-4.75,5-11.75,5.6S104.63,53.21,102.06,52.85Z"/><path class="cls-27" d="M110.48,24.55c3.13,0,5.12,12.12,2.1,18.46-.11.21-.16.32-.16.32s.1-.21.16-.32c1-2.09,7-13.67,10.63-13.67h.12c3.84.28-1.47,10.78-7.22,15.14l-.34.25.34-.25c1.65-1.2,8.83-6.3,12.08-6.3a2,2,0,0,1,.73.12c3.08,1.12-11.19,9-11.19,9a36,36,0,0,1,6.69-.71,15.66,15.66,0,0,1,3.94.43c4.2,1.12-4.75,5-11.75,5.6-4.19.33-7.66.5-10.32.5a32.91,32.91,0,0,1-4.23-.22c-4.26-.62-15.39-.78-12.59-4.2.9-1.09,2.6-1.45,4.43-1.45a27.62,27.62,0,0,1,7,1.17s-9.79-4.48-9-8.67a1.93,1.93,0,0,1,2.16-1.57c3.09,0,8.54,3.47,10.77,7.06l.22.38h0l-.22-.38c-1.45-2.49-9.36-16.48-4.26-17H101c5.64,0,7.8,14.56,7.8,14.56s-2-17.34,1.4-18.18a1,1,0,0,1,.3,0m0-1.12a2.22,2.22,0,0,0-.57.07C107.78,24,107.1,28,107,32.56c-1.38-3-3.35-5.47-6.06-5.47l-.42,0a2.74,2.74,0,0,0-2.31,1.5c-1.13,2.2.39,6.67,2.38,10.88A13.07,13.07,0,0,0,94.15,37a3,3,0,0,0-3.26,2.47C90.4,42,92.55,44.31,95,46.12l-1,0c-2.51,0-4.29.62-5.29,1.85a2.36,2.36,0,0,0-.54,2.52c.87,2.09,4.84,2.61,10.8,3.17,1.15.11,2.24.21,3,.32a31.63,31.63,0,0,0,4.39.24c2.72,0,6.23-.17,10.41-.51,4.74-.38,13.59-2.84,13.85-5.73,0-.46-.06-1.57-1.9-2.06a16.8,16.8,0,0,0-4.23-.47c-.45,0-.9,0-1.34,0,5-3.08,7.5-5.35,7.39-6.78a1.63,1.63,0,0,0-1.16-1.43,3.29,3.29,0,0,0-1.12-.18c-1.49,0-3.59.87-5.71,2,2.27-3.38,3.75-7,3.13-9.09a2.35,2.35,0,0,0-2.2-1.74h-.2c-2.49,0-5.51,3.75-8,7.84.16-4.26-.65-8.63-2.07-10.87a3.09,3.09,0,0,0-2.61-1.76Z"/><path class="cls-28" d="M122.58,30.46c2.41.17,1.21,4.37-1.43,8.56,3.14-4.52,4.8-9.49,2.18-9.68-1.87-.13-4.42,3-6.6,6.39C118.73,32.83,120.93,30.34,122.58,30.46Z"/><path class="cls-28" d="M115,45.85s10.07-7.55,13.15-6.43a.52.52,0,0,1,.4.63c.81-.83,1.08-1.49.34-1.75-2.16-.79-7.78,2.71-10.93,4.86A19.8,19.8,0,0,1,115,45.85Z"/><path class="cls-28" d="M109.43,25.71c3.36-.84,5.6,12.31,2.24,18.74,0,0,.54-1.1,1.39-2.66,2.36-6.78.23-18-2.88-17.2-.5.12-.86.63-1.15,1.36A1,1,0,0,1,109.43,25.71Z"/><path class="cls-28" d="M100.2,49.49a35.68,35.68,0,0,1-3.79-2.1c-2.62-.35-5.64-.33-6.94,1.26a1.83,1.83,0,0,0-.39.78C92,46.93,100.2,49.49,100.2,49.49Z"/><path class="cls-28" d="M128.36,47c-2.83-.75-6.67-.36-8.88,0-1.45.85-2.49,1.43-2.49,1.43s6.43-1.4,10.63-.28c.68.18,1,.44,1,.75C129.67,48.06,129.79,47.35,128.36,47Z"/><path class="cls-28" d="M99.92,29.34c5.87-.56,8.11,14.55,8.11,14.55s-.34-3-.49-6.64c-1.22-4.26-3.42-9.36-6.88-9a1.68,1.68,0,0,0-1.55,1.38A2,2,0,0,1,99.92,29.34Z"/><path class="cls-28" d="M104.39,46.69s-1.32-2.21-2.74-5c-3.82-3.13-8.93-5-9.63-2C94.52,38,102,42.33,104.39,46.69Z"/></svg>