<svg xmlns="http://www.w3.org/2000/svg" xmlns:xlink="http://www.w3.org/1999/xlink" viewBox="0 0 200 200"><defs><style>.cls-1{fill:none;}.cls-2{isolation:isolate;}.cls-3{fill:#dddcdc;}.cls-4{fill:#828084;}.cls-5{fill:#bfbfbf;}.cls-6{fill:#fff;}.cls-7{fill:#fdd8c5;}.cls-8{fill:#b88064;}.cls-9{fill:#db9977;}.cls-10{fill:#fccb57;}.cls-11{fill:#bb7c2b;}.cls-12,.cls-14{fill:#fcf9e4;}.cls-12{opacity:0.2;}.cls-13{fill:#fbad48;}.cls-15{fill:#fcde56;}.cls-16{fill:#ecac21;}.cls-17{clip-path:url(#clip-path);}.cls-18{fill:#fdefa4;}.cls-19{fill:#f68a57;}.cls-20{fill:#974421;}.cls-21{fill:#f9a880;}.cls-22{fill:#bb6339;}.cls-23{clip-path:url(#clip-path-2);}.cls-24{clip-path:url(#clip-path-3);}.cls-25{fill:#e84344;}.cls-26{fill:#8f1a1c;}.cls-27{fill:#b33839;}.cls-28{fill:#f58d90;}.cls-29{fill:#6fa341;}.cls-30{fill:#364a21;}.cls-31{fill:#83bf4b;}.cls-32,.cls-37{fill:#d36740;}.cls-33{fill:#a93924;}.cls-34{fill:#c4542d;}.cls-35{clip-path:url(#clip-path-4);}.cls-36{fill:#faae79;}.cls-37{opacity:0.4;mix-blend-mode:multiply;}.cls-38{clip-path:url(#clip-path-6);}</style><clipPath id="clip-path"><path class="cls-1" d="M47.76,88.31s-1.88,10.14,5.63,12.4c0,0-7.51,11.26,2.26,15.39,0,0-.38,11.27,9,12.77,0,0,1.88,13.9,15.77,12.77,0,0,3.38,7.51,11.64,1.5,0,0,11.27,6,15-5.26,0,0,6.76-.75,7.89-7.51,0,0,4.13,2.63,5.26-7.13,0,0,6,1.5,7.51-10.14,0,0,6.38-5.26,3.75-15.77,0,0,8.64-3.76,2.26-13.15,0,0,2.63-9.76-4.88-14.27,0,0-4.14-13.89-17.28-10.89,0,0,.38-6-5.26-2.63,0,0-3.75-6.75-16.14-3S50.39,78.18,47.76,88.31Z"/></clipPath><clipPath id="clip-path-2"><path class="cls-1" d="M26.4,93.8c-3.57-4.89-2.12-12,3.24-15.93,0,0,19.16-17.13,35.6-29.12A381.32,381.32,0,0,1,103,24.34c5.35-3.9,12.59-3.11,16.16,1.78h0c3.57,4.89,2.12,12-3.24,15.93A440.72,440.72,0,0,0,78.16,66.46c-17.28,12.61-35.6,29.12-35.6,29.12C37.21,99.49,30,98.69,26.4,93.8Z"/></clipPath><clipPath id="clip-path-3"><path class="cls-1" d="M12.07,77C8.5,72.07,10,64.94,15.3,61c0,0,19.16-17.13,35.61-29.12A380.59,380.59,0,0,1,88.66,7.51C94,3.6,101.25,4.39,104.82,9.29h0c3.57,4.89,2.12,12-3.23,15.93a437.38,437.38,0,0,0-37.76,24.4c-17.29,12.61-35.6,29.12-35.6,29.12C22.87,82.65,15.64,81.85,12.07,77Z"/></clipPath><clipPath id="clip-path-4"><path class="cls-1" d="M133.14,30.41,115.43,41.52A33,33,0,0,0,124.5,62c9,9.69,12.27,11.39,14.13,20s2.78,12.77,11.56,19.66,17.28,13.8,16.34,29.42c0,0,9.65-2.79,18.27-14.55,0,0-1.8-14.54-12.64-22.39s-11-10.09-13.89-20.58c-2.94-10.77-5.33-12.84-11.7-18S131.89,39,133.14,30.41Z"/></clipPath><clipPath id="clip-path-6"><path class="cls-1" d="M145.12,11.59,127.4,22.7a33,33,0,0,0,9.08,20.43c9,9.69,12.27,11.4,14.13,20s2.77,12.77,11.55,19.66,17.28,13.8,16.34,29.42c0,0,9.66-2.79,18.27-14.55,0,0-1.79-14.54-12.63-22.39s-11-10.09-13.9-20.58c-2.94-10.77-5.32-12.84-11.69-17.95S143.86,20.17,145.12,11.59Z"/></clipPath></defs><title>食物矿</title><g class="cls-2"><g id="图层_1" data-name="图层 1"><circle class="cls-3" cx="100.15" cy="99.58" r="97.64"/><path class="cls-4" d="M100.15,1.94A97.64,97.64,0,1,1,2.51,99.58,97.64,97.64,0,0,1,100.15,1.94m0-2.21A99.85,99.85,0,1,0,200,99.58,100,100,0,0,0,100.15-.27Z"/><path class="cls-5" d="M100.15,176.94a77.36,77.36,0,1,1,77.36-77.36A77.44,77.44,0,0,1,100.15,176.94Z"/><path class="cls-6" d="M197.16,88.63c0,.84.06,1.66.06,2.5a97.63,97.63,0,0,1-194.65,11,97.62,97.62,0,0,0,195.21-2.5A99.07,99.07,0,0,0,197.16,88.63Z"/><path class="cls-7" d="M113.68,149c2.48-3.14,7.06-7,9.26-9.08s2.67-1,3.7-.09,6.7,7.11,6.7,7.11-2-3.36,3-5.4,8.66.46,9,8.7-4.16,18.43-15.76,20.82c-10.21,2.1-14.59-.27-15.05-4.2-.56-4.76,2.38-7.57,5.5-6.12,0,0-4.82-4.58-6.18-5.77S111.58,151.65,113.68,149Z"/><path class="cls-8" d="M125,138.69c.66,0,1.06.58,1.65,1.13,1,1,6.7,7.11,6.7,7.11s-2-3.36,3-5.4a8.24,8.24,0,0,1,3.09-.68c3.39,0,5.64,2.94,5.89,9.38.32,8.24-4.16,18.43-15.76,20.82a33.74,33.74,0,0,1-6.74.78c-5.46,0-8-2.06-8.31-5-.46-3.91,1.44-6.5,3.86-6.5a3.87,3.87,0,0,1,1.64.38s-4.82-4.58-6.18-5.77-2.3-3.31-.2-6c2.48-3.14,7.06-7,9.26-9.08.94-.9,1.56-1.22,2-1.22m0-1.69h0a5,5,0,0,0-3.22,1.69c-.57.54-1.29,1.2-2.1,1.93a68.25,68.25,0,0,0-7.31,7.32c-2.73,3.46-1.49,6.63.41,8.29.61.54,2,1.82,3.27,3a5.34,5.34,0,0,0-1.45,1.17,8.29,8.29,0,0,0-1.7,6.62c.22,1.95,1.65,6.47,10,6.47a36,36,0,0,0,7.08-.82c12.32-2.53,17.47-13.14,17.11-22.54-.37-9.57-4.91-11-7.58-11a10.07,10.07,0,0,0-3.73.8,7.55,7.55,0,0,0-3.83,2.95c-1.64-1.76-3.53-3.77-4.12-4.32q-.17-.15-.3-.3A3.5,3.5,0,0,0,125,137Z"/><path class="cls-9" d="M123.72,139.48c1,1,9.66,10.08,9.66,10.08a3.28,3.28,0,0,1-.09-2.91c-1.53-1.64-6.14-6.35-6.65-6.83-.91-.85-1.4-1.77-3-.47Z"/><path class="cls-9" d="M138.58,141c2.24,1,3.67,3.89,3.87,8.94.32,8.24-4.16,18.43-15.76,20.82a32.48,32.48,0,0,1-7.33.76c2.4.56,5.76.5,10.25-.42,11.6-2.39,16.08-12.58,15.76-20.82C145.1,143.25,142.46,140.42,138.58,141Z"/><path class="cls-6" d="M134.24,142.86c-3.07,2.07-.86,6.7-.86,6.7C132.83,147.23,134.24,142.86,134.24,142.86Z"/><path class="cls-6" d="M132.17,166.68c2.56-.64,7-6.36,7-7.91C139.1,156.3,129.62,167.33,132.17,166.68Z"/><path class="cls-6" d="M125.77,168.2c-1.93-.34-7.07-.08-5.15,1.11S127.93,168.58,125.77,168.2Z"/><path class="cls-6" d="M139.24,143.12c-2.08-1-.69,7.94.61,7.71S140.38,143.65,139.24,143.12Z"/><path class="cls-7" d="M138.42,123.53c4-.35,9.91.37,13,.53s2.6,1.23,2.6,2.64-.59,9.75-.59,9.75,1.06-3.78,6-1.48,5.59,6.63-.19,12.5-16.29,9.59-26,2.77c-8.52-6-9.79-10.82-7.24-13.84,3.09-3.67,7.15-3.45,8.22-.19,0,0,0-6.65,0-8.45S135,123.82,138.42,123.53Z"/><path class="cls-8" d="M140.86,123.43c3.69,0,8,.5,10.51.63,3,.16,2.6,1.23,2.6,2.64s-.59,9.75-.59,9.75a3.21,3.21,0,0,1,3.15-2.22,6.85,6.85,0,0,1,2.87.74c5,2.29,5.59,6.63-.19,12.5a21.32,21.32,0,0,1-14.84,6.44,19.13,19.13,0,0,1-11.13-3.67c-8.52-6-9.79-10.82-7.24-13.84a6.64,6.64,0,0,1,4.86-2.69,3.42,3.42,0,0,1,3.36,2.5s0-6.65,0-8.45.84-3.94,4.22-4.23c.75-.07,1.58-.1,2.44-.1m0-1.68c-1,0-1.83,0-2.59.09-4.38.38-5.84,3.46-5.76,6,0,.82,0,2.69,0,4.46a5.53,5.53,0,0,0-1.69-.26,8.35,8.35,0,0,0-6.15,3.29,6.48,6.48,0,0,0-1.51,5.11c.45,3.51,3.5,7.28,9.07,11.2a20.72,20.72,0,0,0,12.1,4,23.1,23.1,0,0,0,16-6.94c3.53-3.58,5-6.88,4.51-9.8-.29-1.59-1.36-3.83-4.81-5.43a8.71,8.71,0,0,0-3.58-.89,5.68,5.68,0,0,0-1.2.12c.16-2.4.33-5.16.33-6,0-.15,0-.29,0-.42.07-1.82-.38-3.71-4.21-3.91-.78,0-1.76-.12-2.84-.21-2.32-.18-5.19-.41-7.76-.41Z"/><path class="cls-9" d="M152.22,124.34c0,1.41-.73,13.93-.73,13.93a3.26,3.26,0,0,1,2-2.05c.15-2.24.43-8.82.43-9.52,0-1.26.34-2.24-1.75-2.55Z"/><path class="cls-9" d="M161.32,136.17c.79,2.33-.32,5.34-3.87,8.94-5.78,5.87-16.28,9.59-26,2.77a32.41,32.41,0,0,1-5.57-4.82c1.23,2.13,3.58,4.54,7.32,7.18,9.68,6.82,20.18,3.1,26-2.77C164.11,142.5,164.37,138.64,161.32,136.17Z"/><path class="cls-6" d="M157,134.32c-3.61-.82-5.47,4-5.47,4C152.8,136.28,157,134.32,157,134.32Z"/><path class="cls-6" d="M138.18,149.12c2.22,1.42,9.45.76,10.55-.33C150.49,147.06,136,147.7,138.18,149.12Z"/><path class="cls-6" d="M132.69,145.49c-1.08-1.64-4.78-5.21-4.33-3S133.89,147.33,132.69,145.49Z"/><path class="cls-6" d="M160.2,138.14c-.72-2.18-6.26,4.93-5.21,5.72S160.59,139.33,160.2,138.14Z"/><path class="cls-7" d="M123.15,106.9c3-2.66,8.17-5.63,10.7-7.32s2.82-.56,3.66.56,5.35,8.17,5.35,8.17-1.4-3.66,3.95-4.79,8.45,2,7.32,10.14-7.31,17.43-19.15,17.75c-10.42.28-14.32-2.82-14.08-6.76.28-4.79,3.66-7,6.47-5.07,0,0-3.94-5.35-5.07-6.76S120.61,109.16,123.15,106.9Z"/><path class="cls-8" d="M135.87,98.72c.8,0,1.11.71,1.64,1.42.85,1.13,5.35,8.17,5.35,8.17s-1.4-3.66,3.95-4.79a9.54,9.54,0,0,1,2-.22c4.1,0,6.31,3.27,5.33,10.36-1.13,8.17-7.31,17.43-19.15,17.75h-1.29c-9.46,0-13-3-12.79-6.77.21-3.62,2.18-5.79,4.35-5.79a3.63,3.63,0,0,1,2.12.72s-3.94-5.35-5.07-6.76-1.69-3.66.85-5.92c3-2.66,8.17-5.63,10.7-7.32a4,4,0,0,1,2-.86m0-1.69h0a5.44,5.44,0,0,0-3,1.14c-.65.44-1.48,1-2.4,1.54a68.39,68.39,0,0,0-8.48,5.93c-3.29,2.92-2.62,6.26-1,8.23.52.64,1.65,2.15,2.71,3.57-2.24.76-4.25,3.17-4.48,7.11a6.43,6.43,0,0,0,1.78,4.92c2.28,2.42,6.55,3.64,12.7,3.64H135c12.58-.34,19.5-9.89,20.78-19.21.64-4.6,0-8-1.78-10.08a6.69,6.69,0,0,0-5.22-2.2,11.56,11.56,0,0,0-2.34.26,7.5,7.5,0,0,0-4.29,2.24c-1.31-2-2.82-4.34-3.31-5l-.24-.34A3.28,3.28,0,0,0,135.87,97Z"/><path class="cls-9" d="M134.7,99.3c.84,1.13,7.74,11.6,7.74,11.6a3.28,3.28,0,0,1,.42-2.87c-1.22-1.89-4.93-7.33-5.35-7.89-.75-1-1.07-2-2.93-1Z"/><path class="cls-9" d="M149.07,103.34c2,1.39,2.93,4.48,2.24,9.48-1.12,8.17-7.31,17.42-19.15,17.74a32.13,32.13,0,0,1-7.35-.53c2.27,1,5.58,1.5,10.17,1.38,11.84-.32,18-9.58,19.15-17.75C155.08,106.74,153,103.49,149.07,103.34Z"/><path class="cls-6" d="M144.46,104.46c-3.38,1.5-2,6.44-2,6.44C142.31,108.52,144.46,104.46,144.46,104.46Z"/><path class="cls-6" d="M138.26,127.56c2.63-.19,8-5,8.26-6.57C146.9,118.54,135.63,127.74,138.26,127.56Z"/><path class="cls-6" d="M131.69,127.93c-1.84-.67-7-1.31-5.26.19S133.76,128.68,131.69,127.93Z"/><path class="cls-6" d="M149.34,105.59c-1.88-1.32-2.06,7.7-.75,7.7S150.37,106.31,149.34,105.59Z"/><path class="cls-10" d="M64.35,150l-6,19.54c-1.33,4.34-2.19,7.62,1.17,9.64S95,194,103.82,187.52s12.86-26.05,1.64-30.59S74.84,147.28,71,146.6,66.19,146.05,64.35,150Z"/><path class="cls-11" d="M68.34,146.29a15.93,15.93,0,0,1,2.62.31c3.88.68,23.29,5.79,34.5,10.33s7.21,24.14-1.64,30.59c-1.76,1.29-4.43,1.81-7.62,1.81-12.84,0-34-8.52-36.67-10.13-3.36-2-2.5-5.3-1.17-9.64l6-19.54c1.34-2.87,2.16-3.73,4-3.73m0-1.69c-3.09,0-4.28,2-5.52,4.71l0,.1,0,.11-6,19.54c-1.27,4.13-2.71,8.81,1.91,11.59C61.48,182.34,83,191,96.2,191c3.83,0,6.65-.7,8.62-2.13,6.07-4.43,10-14.32,9-22.5-.66-5.36-3.42-9.27-7.75-11-11.25-4.54-30.86-9.73-34.85-10.42a17.36,17.36,0,0,0-2.91-.34Z"/><path class="cls-12" d="M89.16,152.07s15.71,4.18,16.25,11.71-3.34,17.43-18.69,12-27.25-9.35-27.25-9.35-3.33,8.43-1.91,10.11,37.87,14.77,45.16,9.9S125.06,158.5,89.16,152.07Z"/><path class="cls-13" d="M110.55,161.49c1.63,7.66-2.11,18-8.09,22.36-8.85,6.46-40.92-6.3-44.29-8.32a6.89,6.89,0,0,1-1-.73,4.47,4.47,0,0,0,2.32,4.4c3.37,2,35.44,14.78,44.29,8.32C110.83,182.41,114.77,169.08,110.55,161.49Z"/><path class="cls-14" d="M109,166c.7-5.6-7.26-9.33-5.3-8.08a10,10,0,0,1,4,5l.34,2.92c.35,2.92-2.38,11.16-2.38,11.16A39.51,39.51,0,0,0,109,166Z"/><path class="cls-14" d="M63.7,170.06c-.86-.24-2.41.72-.52,1.34S65.07,170.45,63.7,170.06Z"/><path class="cls-14" d="M79.16,177.34c-1.75-1.22-5.65-2.84-3.89-.68S81.07,178.68,79.16,177.34Z"/><path class="cls-14" d="M94.93,179.53c1.36.38,3.06-.32,1.42-.75C95.09,178.45,93.57,179.15,94.93,179.53Z"/><path class="cls-14" d="M102,177.48c-1.37.48-.21,1.28.85.87C103.62,178.05,103.38,177,102,177.48Z"/><path class="cls-14" d="M87.34,182.06c.78.43,3.28,0,1.25-.63C87.64,181.13,86.55,181.64,87.34,182.06Z"/><path class="cls-14" d="M66.28,175c-.61-.36-1.39-.25-.68.59S67.32,175.56,66.28,175Z"/><path class="cls-10" d="M69.64,135.63,67.1,155.91c-.56,4.51-.84,7.88,2.82,9.29s37.46,8.45,45.06.57,8.17-27.89-3.66-30.42-31.83-4.23-35.77-4.23S70.76,131.41,69.64,135.63Z"/><path class="cls-11" d="M75.55,131.12c3.94,0,23.94,1.69,35.77,4.23s11.27,22.53,3.66,30.42c-2.64,2.73-8.43,3.67-15,3.67-12.41,0-27.64-3.32-30-4.24-3.66-1.41-3.38-4.78-2.82-9.29l2.54-20.28c1.12-4.22,2-4.51,5.91-4.51m0-1.69c-4.66,0-6.21.76-7.55,5.77l0,.11v.11L65.42,155.7c-.53,4.29-1.14,9.15,3.89,11.08,2.82,1.08,18.17,4.35,30.64,4.35,8.21,0,13.53-1.37,16.25-4.19,5.22-5.41,7.42-15.83,5-23.72-1.57-5.16-5-8.54-9.54-9.52-11.85-2.54-32.07-4.27-36.12-4.27Z"/><path class="cls-12" d="M94.42,133.38s16.2,1.41,18,8.73-.29,17.74-16.34,15.07-28.45-4.51-28.45-4.51-1.83,8.87-.14,10.28,39.86,8,46.19,2S130.89,133.52,94.42,133.38Z"/><path class="cls-13" d="M117.12,139c2.93,7.27,1,18.1-4.11,23.43-7.61,7.88-41.4.84-45.06-.57a5.74,5.74,0,0,1-1.08-.55,4.46,4.46,0,0,0,3,3.93c3.66,1.41,37.46,8.45,45.06.57C121,159.52,122.58,145.71,117.12,139Z"/><path class="cls-14" d="M116.39,143.66c-.28-5.64-8.76-7.94-6.62-7a9.88,9.88,0,0,1,4.79,4.22l.84,2.82c.85,2.81-.42,11.4-.42,11.4A39.66,39.66,0,0,0,116.39,143.66Z"/><path class="cls-14" d="M72.45,155.49c-.89-.09-2.25,1.12-.28,1.4S73.86,155.63,72.45,155.49Z"/><path class="cls-14" d="M88.93,160c-1.93-.9-6.06-1.83-3.94,0S91,161,88.93,160Z"/><path class="cls-14" d="M104.84,159.43c1.41.14,3-.85,1.27-1C104.82,158.34,103.43,159.29,104.84,159.43Z"/><path class="cls-14" d="M111.46,156.19c-1.27.7,0,1.29,1,.7C113.15,156.47,112.73,155.49,111.46,156.19Z"/><path class="cls-14" d="M97.8,163.23c.85.28,3.24-.56,1.13-.84C97.94,162.25,97,163,97.8,163.23Z"/><path class="cls-14" d="M75.83,159.85c-.66-.25-1.41,0-.56.71S77,160.27,75.83,159.85Z"/><path class="cls-15" d="M47.76,88.31s-1.88,10.14,5.63,12.4c0,0-7.51,11.26,2.26,15.39,0,0-.38,11.27,9,12.77,0,0,1.88,13.9,15.77,12.77,0,0,3.38,7.51,11.64,1.5,0,0,11.27,6,15-5.26,0,0,6.76-.75,7.89-7.51,0,0,4.13,2.63,5.26-7.13,0,0,6,1.5,7.51-10.14,0,0,6.38-5.26,3.75-15.77,0,0,8.64-3.76,2.26-13.15,0,0,2.63-9.76-4.88-14.27,0,0-4.14-13.89-17.28-10.89,0,0,.38-6-5.26-2.63,0,0-3.75-6.75-16.14-3S50.39,78.18,47.76,88.31Z"/><path class="cls-11" d="M97.1,52.25c6.94,0,9.24,4.14,9.24,4.14a6,6,0,0,1,2.91-1c2.58,0,2.35,3.66,2.35,3.66a16.27,16.27,0,0,1,3.6-.42c10.31,0,13.68,11.31,13.68,11.31,7.51,4.51,4.88,14.27,4.88,14.27,6.38,9.39-2.26,13.15-2.26,13.15,2.63,10.51-3.75,15.77-3.75,15.77-1.2,9.25-5.24,10.2-6.84,10.2a3.16,3.16,0,0,1-.67-.06c-.73,6.34-2.74,7.46-4,7.46a2.43,2.43,0,0,1-1.21-.33c-1.13,6.76-7.89,7.51-7.89,7.51-1.81,5.45-5.39,6.86-8.59,6.86a15.43,15.43,0,0,1-6.43-1.6,10.21,10.21,0,0,1-5.92,2.33c-4,0-5.72-3.83-5.72-3.83-.54,0-1.06.06-1.57.06-12.46,0-14.2-12.83-14.2-12.83-9.39-1.5-9-12.77-9-12.77-9.77-4.13-2.26-15.39-2.26-15.39-7.51-2.26-5.63-12.4-5.63-12.4,2.63-10.13,30-31.16,42.44-34.92a23.76,23.76,0,0,1,6.9-1.14m0-2.25a26.61,26.61,0,0,0-7.56,1.23c-12.37,3.75-41,25.19-44,36.52l0,.08v.07c-.68,3.67-.38,10.65,4.7,13.85-1.17,2.45-2.57,6.49-1.45,10.23a9.39,9.39,0,0,0,4.62,5.54c.29,4.49,2.47,11.28,9.31,13.23C64,136,68.53,144,78.86,144h.33a8.52,8.52,0,0,0,7,3.77,11.61,11.61,0,0,0,6.15-2A17.12,17.12,0,0,0,98.5,147c4.7,0,8.31-2.52,10.26-7.14a11.47,11.47,0,0,0,7.87-6.92c2.07-.18,4.49-1.75,5.56-7.5,2.51-.48,6.37-2.67,7.68-11.25,1.69-1.76,5.74-7,4.17-15.75a10,10,0,0,0,4-5.32c.83-2.87.21-6-1.86-9.37.51-2.84,1.23-10.77-5.4-15.3-1.08-2.88-5.33-12.09-15.55-12.09a15.87,15.87,0,0,0-1.68.08,5.23,5.23,0,0,0-1.13-2,4.21,4.21,0,0,0-3.14-1.32,6.38,6.38,0,0,0-2.32.48C105.35,52,102.28,50,97.1,50Z"/><path class="cls-16" d="M131.88,78.18A13.72,13.72,0,0,1,134,82.8c.3-2.1.49-6.21-1.74-9.62A17.4,17.4,0,0,1,131.88,78.18Z"/><path class="cls-16" d="M47.58,92a11,11,0,0,0,2.15,6.34,20.52,20.52,0,0,1,1.79-3.59A7.35,7.35,0,0,1,47.58,92Z"/><path class="cls-16" d="M134.2,84.91c-.22,4.49-4.57,6.41-4.57,6.41,2.62,10.51-3.76,15.77-3.76,15.77-1.5,11.64-7.51,10.14-7.51,10.14-1.13,9.76-5.26,7.13-5.26,7.13-1.12,6.76-7.88,7.52-7.88,7.52-3.76,11.26-15,5.25-15,5.25-8.27,6-11.65-1.5-11.65-1.5-13.89,1.13-15.77-12.77-15.77-12.77a9.53,9.53,0,0,1-7-4.78c.37,3.29,2,9.68,8.9,10.79,0,0,1.88,13.9,15.77,12.77,0,0,3.38,7.51,11.64,1.5,0,0,11.27,6,15-5.26,0,0,6.76-.75,7.89-7.51,0,0,4.13,2.63,5.26-7.13,0,0,6,1.5,7.51-10.14,0,0,6.38-5.26,3.75-15.77C131.5,97.33,139.64,93.76,134.2,84.91Z"/><path class="cls-16" d="M53.77,110.09A8.87,8.87,0,0,1,50.69,108a7.22,7.22,0,0,0,4,7.55A17.62,17.62,0,0,1,53.77,110.09Z"/><path class="cls-16" d="M66.54,112s2.81,5.07,7.7,2.63c0,0,.18,7.14,5.44,7.7,0,0-6.19.75-7.88-5.45C71.8,116.85,67.66,118.17,66.54,112Z"/><path class="cls-16" d="M91.51,108.78s5.45,1.88,7.7-2.63c0,0,6,2.25,8.07-3.38,0,0,3.38-.37,4.7-4.69,0,0-1.13,6-4.32,6.38,0,0-1.13,5.45-7.89,4.13C99.77,108.59,96.58,111,91.51,108.78Z"/><path class="cls-16" d="M113.29,77.61s8.45,2.82,6.76,10.14a6.2,6.2,0,0,1,2.25,7.14s2.44-5.45-.75-7.89C121.55,87,123.43,79.3,113.29,77.61Z"/><path class="cls-16" d="M112.92,71.6s-2.82-3.38-6.39-1.69c0,0-1.31-6-5.82-5.25,0,0,4.51-2.26,7,3.19C107.66,67.85,111,66.16,112.92,71.6Z"/><path class="cls-16" d="M118.92,71.23s5.45.75,5.26,6.38c0,0,5.82,1.5,4.51,7.14,0,0,3.56,1.5.94,6.57l3.56.94s1.51-6.57-1.69-8.26c0,0-.56-6-4.88-7C126.62,77.05,125.5,70.85,118.92,71.23Z"/><path class="cls-16" d="M102.59,138.07s6-7.51-3.94-9c0,0,6.75-1.32,8.82,4.69S104.84,139.76,102.59,138.07Z"/><path class="cls-16" d="M112.54,115.92s5.45-2.26,4.51-7.7c0,0,4.69.37,4.5-6,0,0,1.88,5.82-2.63,7.32A6.18,6.18,0,0,1,112.54,115.92Z"/><g class="cls-17"><path class="cls-16" d="M62.78,122.86s-8.26-2.44-4.13-13.14c0,0-7.32-6.57-2.06-13.9,0,0-4.13,3.76-6.39-3.19,0,0,8.26-9.57,13.52-7.88,0,0,4.32-9.39,12.77-7.14,0,0,1.13-7.7,7.13-9.57s7.7-1.69,7.7-1.69,3.76-9,8.45-9.2c0,0,2.26-3.57,4.7-3.57S101.09,51,100.34,51s-18.59,4.13-23.66,7.32S57.53,74,55.27,76.3s-9.39,13.14-9.39,13.14,2.26,7.14,2.63,8.07,3,3.38,3,3.38a39.85,39.85,0,0,0-1.32,5.83c0,1.31.57,6,1.51,7.32s3.94,2.06,3.94,2.06a7.64,7.64,0,0,0-.57,3.76C55.46,121.36,58.65,125.87,62.78,122.86Z"/></g><path class="cls-18" d="M76.68,83.81s-5.07,5.26.37,11.26c0,0-3.94,5.64-.37,8.83s6.38.94,6.38.94S85.69,114,93.58,112c0,0-8.27,4.88-11.46-4.88,0,0-5.17,1.28-7.51-3.57-2.44-5.07.94-7.7.94-7.7S69.92,88.88,76.68,83.81Z"/><path class="cls-18" d="M112.54,83.62s3.94,5.26-.75,7.51c0,0,1.5,4.32-2.25,6.38,0,0,4.5-.56,4.13-5.82C113.67,91.69,118.92,86.81,112.54,83.62Z"/><path class="cls-18" d="M105.22,119.86s-3.19,4.5-8.45,3.38C96.77,123.24,102,128.31,105.22,119.86Z"/><path class="cls-18" d="M90.57,124s-4.13,2.25-7.51-.94C83.06,123.05,85.13,129.43,90.57,124Z"/><path class="cls-18" d="M69.92,122.86s1.88,6.57,8.45,5.26c0,0-1.69,7.89,5.44,8.07a6.58,6.58,0,0,1-7.51-6.38S70.29,130.75,69.92,122.86Z"/><path class="cls-18" d="M62,90.38s-5.44,1.88-1.69,8.07C60.34,98.45,57.9,94.32,62,90.38Z"/><path class="cls-18" d="M99.21,73.48s6.57,0,7,6.39C106.16,79.87,109,72.17,99.21,73.48Z"/><path class="cls-16" d="M94.14,130.56s-3.38,6.2-10.14,4.23C84,134.79,89.91,140.7,94.14,130.56Z"/><path class="cls-19" d="M26.4,93.8c-3.57-4.89-2.12-12,3.24-15.93,0,0,19.16-17.13,35.6-29.12A381.32,381.32,0,0,1,103,24.34c5.35-3.9,12.59-3.11,16.16,1.78h0c3.57,4.89,2.12,12-3.24,15.93A440.72,440.72,0,0,0,78.16,66.46c-17.28,12.61-35.6,29.12-35.6,29.12C37.21,99.49,30,98.69,26.4,93.8Z"/><path class="cls-20" d="M110.46,21.86a10.63,10.63,0,0,1,8.7,4.26c3.57,4.89,2.12,12-3.24,15.93A440.72,440.72,0,0,0,78.16,66.46c-17.28,12.61-35.6,29.12-35.6,29.12a12.69,12.69,0,0,1-7.46,2.48,10.63,10.63,0,0,1-8.7-4.26c-3.57-4.89-2.12-12,3.24-15.93,0,0,19.16-17.13,35.6-29.12A381.32,381.32,0,0,1,103,24.34a12.69,12.69,0,0,1,7.46-2.48m0-2.25h0a14.85,14.85,0,0,0-8.67,2.83A389.18,389.18,0,0,0,63.91,46.93C48.11,58.45,29.6,74.88,28.22,76.12A14.7,14.7,0,0,0,22.47,85a12.67,12.67,0,0,0,2.11,10.11,12.84,12.84,0,0,0,10.52,5.18,14.8,14.8,0,0,0,8.79-2.91l.09-.07.09-.08c.18-.16,18.43-16.58,35.42-29A438.67,438.67,0,0,1,117,44l.11-.07.11-.08c6.35-4.63,8-13.19,3.73-19.07a12.82,12.82,0,0,0-10.52-5.19Z"/><path class="cls-21" d="M116.49,39a437.38,437.38,0,0,0-37.76,24.4C61.44,76,43.12,92.48,43.12,92.48,37.77,96.39,30.53,95.59,27,90.7A10.22,10.22,0,0,1,25,84.27,10.57,10.57,0,0,0,26.4,93.8c3.57,4.89,10.81,5.69,16.16,1.78,0,0,18.32-16.51,35.6-29.12a440.72,440.72,0,0,1,37.76-24.41,12.36,12.36,0,0,0,5.17-9.49A12.65,12.65,0,0,1,116.49,39Z"/><path class="cls-22" d="M29.64,82.75S48.8,65.62,65.24,53.63A381.32,381.32,0,0,1,103,29.22c5.35-3.9,12.59-3.11,16.16,1.79a10,10,0,0,1,1.65,3.69,10.5,10.5,0,0,0-1.65-8.58c-3.57-4.89-10.81-5.68-16.16-1.78A381.32,381.32,0,0,0,65.24,48.75c-16.44,12-35.6,29.12-35.6,29.12a12,12,0,0,0-4.89,12.24A12.56,12.56,0,0,1,29.64,82.75Z"/><g class="cls-23"><path class="cls-21" d="M94.5,40c-.84-.06-1.61,1.15-1.72,2.7L91,68.22c-.11,1.56.48,2.86,1.33,2.92S93.9,70,94,68.44l1.82-25.56C95.94,41.32,95.35,40,94.5,40Z"/><path class="cls-21" d="M77.89,52.07c-.85-.06-1.62,1.15-1.73,2.7L74.34,80.33c-.11,1.56.49,2.86,1.33,2.92s1.62-1.15,1.73-2.7L79.21,55C79.32,53.44,78.73,52.13,77.89,52.07Z"/><path class="cls-21" d="M58.73,66.71c-.84-.06-1.61,1.15-1.72,2.71L55.19,95c-.11,1.55.48,2.86,1.33,2.92s1.61-1.15,1.72-2.7l1.82-25.57C60.17,68.08,59.58,66.77,58.73,66.71Z"/><path class="cls-22" d="M93.09,41.08c-.84-.06-1.61,1.15-1.72,2.71L89.55,69.35c-.11,1.55.49,2.86,1.33,2.92s1.61-1.15,1.72-2.7L94.42,44C94.53,42.45,93.94,41.14,93.09,41.08Z"/><path class="cls-22" d="M76.48,53.2c-.85-.06-1.62,1.14-1.73,2.7L72.93,81.46c-.11,1.55.49,2.86,1.33,2.92s1.62-1.15,1.73-2.7L77.8,56.11C77.91,54.56,77.32,53.26,76.48,53.2Z"/><path class="cls-22" d="M57.33,67.84c-.85-.06-1.62,1.15-1.73,2.7L53.78,96.11c-.11,1.55.49,2.85,1.33,2.91s1.62-1.14,1.73-2.7l1.81-25.56C58.76,69.21,58.17,67.9,57.33,67.84Z"/></g><path class="cls-19" d="M12.07,77C8.5,72.07,10,64.94,15.3,61c0,0,19.16-17.13,35.61-29.12A380.59,380.59,0,0,1,88.66,7.51C94,3.6,101.25,4.39,104.82,9.29h0c3.57,4.89,2.12,12-3.23,15.93a437.38,437.38,0,0,0-37.76,24.4c-17.29,12.61-35.6,29.12-35.6,29.12C22.87,82.65,15.64,81.85,12.07,77Z"/><path class="cls-20" d="M96.12,5a10.59,10.59,0,0,1,8.7,4.26c3.57,4.89,2.12,12-3.23,15.93a437.38,437.38,0,0,0-37.76,24.4c-17.29,12.61-35.6,29.12-35.6,29.12a12.69,12.69,0,0,1-7.46,2.48A10.62,10.62,0,0,1,12.07,77C8.5,72.07,10,64.94,15.3,61c0,0,19.16-17.13,35.61-29.12A380.59,380.59,0,0,1,88.66,7.51,12.69,12.69,0,0,1,96.12,5m0-2.26h0A14.79,14.79,0,0,0,87.46,5.6,386.49,386.49,0,0,0,49.58,30.09c-15.8,11.53-34.31,28-35.7,29.19a14.79,14.79,0,0,0-5.75,8.9,12.63,12.63,0,0,0,2.12,10.11,12.81,12.81,0,0,0,10.52,5.19,14.81,14.81,0,0,0,8.78-2.92l.1-.07.08-.07c.19-.17,18.44-16.58,35.43-29a440.49,440.49,0,0,1,37.53-24.26l.12-.07.1-.07a14.77,14.77,0,0,0,5.85-9A12.63,12.63,0,0,0,106.64,8,12.81,12.81,0,0,0,96.12,2.77Z"/><path class="cls-21" d="M102.15,22.12a437.38,437.38,0,0,0-37.76,24.4c-17.28,12.61-35.6,29.13-35.6,29.13-5.36,3.9-12.59,3.11-16.16-1.79a10.22,10.22,0,0,1-1.93-6.43A10.57,10.57,0,0,0,12.07,77c3.57,4.89,10.8,5.69,16.16,1.78,0,0,18.31-16.51,35.6-29.12a437.38,437.38,0,0,1,37.76-24.4,12.34,12.34,0,0,0,5.16-9.5A12.59,12.59,0,0,1,102.15,22.12Z"/><path class="cls-22" d="M15.3,65.91S34.46,48.79,50.91,36.79a382.84,382.84,0,0,1,37.75-24.4c5.36-3.91,12.59-3.11,16.16,1.78a10,10,0,0,1,1.66,3.69,10.48,10.48,0,0,0-1.66-8.57C101.25,4.39,94,3.6,88.66,7.51a380.59,380.59,0,0,0-37.75,24.4C34.46,43.9,15.3,61,15.3,61a12,12,0,0,0-4.89,12.24A12.59,12.59,0,0,1,15.3,65.91Z"/><g class="cls-24"><path class="cls-21" d="M80.17,23.12c-.85-.06-1.62,1.15-1.73,2.7L76.62,51.39c-.11,1.55.49,2.85,1.33,2.91s1.62-1.15,1.73-2.7L81.49,26C81.6,24.49,81,23.18,80.17,23.12Z"/><path class="cls-21" d="M63.55,35.23c-.84-.06-1.62,1.15-1.73,2.7L60,63.5c-.11,1.55.48,2.85,1.32,2.91s1.62-1.14,1.73-2.7l1.82-25.56C65,36.6,64.39,35.29,63.55,35.23Z"/><path class="cls-21" d="M44.4,49.88c-.85-.06-1.62,1.15-1.73,2.7L40.86,78.14c-.12,1.55.48,2.86,1.32,2.92s1.62-1.15,1.73-2.7l1.81-25.57C45.83,51.24,45.24,49.94,44.4,49.88Z"/><path class="cls-22" d="M78.76,24.25c-.84-.06-1.62,1.15-1.73,2.7L75.22,52.51c-.11,1.55.48,2.86,1.32,2.92s1.62-1.15,1.73-2.7l1.82-25.57C80.2,25.61,79.6,24.31,78.76,24.25Z"/><path class="cls-22" d="M62.14,36.36c-.84-.06-1.61,1.15-1.72,2.7L58.6,64.62c-.11,1.56.48,2.86,1.33,2.92s1.61-1.15,1.72-2.7l1.82-25.56C63.58,37.72,63,36.42,62.14,36.36Z"/><path class="cls-22" d="M43,51c-.84-.06-1.62,1.15-1.73,2.7L39.45,79.27c-.11,1.55.48,2.86,1.32,2.92s1.62-1.15,1.73-2.7l1.82-25.57C44.43,52.37,43.83,51.06,43,51Z"/></g><circle class="cls-25" cx="38.37" cy="114.79" r="18.03" transform="translate(-8.16 3.06) rotate(-4.13)"/><path class="cls-26" d="M38.37,96.76a18,18,0,0,1,6.18,35,17.83,17.83,0,0,1-6.17,1.1,18,18,0,1,1,0-36.06m0-2.25h0a20.29,20.29,0,0,0-19,27.23,20.36,20.36,0,0,0,19.06,13.33,20.28,20.28,0,0,0,0-40.56Z"/><path class="cls-27" d="M44.63,97.9a17.84,17.84,0,0,1,4.14,6.5,18,18,0,0,1-23.19,23.07A18,18,0,1,0,44.63,97.9Z"/><path class="cls-28" d="M32.38,100a18,18,0,0,1,24,14.27A18,18,0,0,0,32.2,97.85a18.05,18.05,0,0,0-11.66,19.6A18,18,0,0,1,32.38,100Z"/><path class="cls-28" d="M24.62,119.81c-1.11,1.61,1.4,5.48,3.71,5.24S25.53,118.47,24.62,119.81Z"/><path class="cls-28" d="M33.89,126.62c3.19-.26,8.81,2.78,5.56,3.17S30.4,126.89,33.89,126.62Z"/><path class="cls-29" d="M27.57,104.34s-3.68-4-5.14-3.12,1.77,6,1.77,6-7.52.74-5.77,1.7a25.3,25.3,0,0,0,3.79,1.62s-5.35,8.35-3.3,7.4,5.93-4.56,5.93-4.56-.78,6.08.55,4.79,1.89-4.68,1.89-4.68,4.94,4.79,5.34,2A5.07,5.07,0,0,0,31,111.07s7-.55,5.65-2A6.94,6.94,0,0,0,33,107.16s7.25-6.44,4.94-6.2a12.71,12.71,0,0,0-5,2.22s.68-7.44-.74-5.33S27.57,104.34,27.57,104.34Z"/><path class="cls-30" d="M32.64,97.48c.82,0,.3,5.7.3,5.7a12.71,12.71,0,0,1,5-2.22h.12C40,101,33,107.16,33,107.16A6.94,6.94,0,0,1,36.67,109c1.35,1.5-5.65,2-5.65,2a5.07,5.07,0,0,1,1.61,4.41c-.09.61-.4.85-.84.85-1.51,0-4.5-2.89-4.5-2.89s-.56,3.4-1.89,4.68a.55.55,0,0,1-.33.18c-.86,0-.22-5-.22-5s-3.88,3.61-5.93,4.56a.67.67,0,0,1-.27.07c-1.22,0,3.57-7.47,3.57-7.47a25.3,25.3,0,0,1-3.79-1.62c-1.75-1,5.77-1.7,5.77-1.7s-3.23-5-1.77-6a.92.92,0,0,1,.52-.14c1.66,0,4.62,3.26,4.62,3.26s3.2-4.37,4.63-6.49c.18-.26.32-.37.44-.37m0-1.13a1.73,1.73,0,0,0-1.38.88c-1,1.43-2.78,3.94-3.81,5.37-1.18-1.14-3-2.65-4.5-2.65a2,2,0,0,0-1.12.32,1.84,1.84,0,0,0-.84,1.24c-.29,1.3.58,3.29,1.36,4.73-5,.64-5.16,1.47-5.29,2.08a1.42,1.42,0,0,0,.83,1.54,22.64,22.64,0,0,0,2.63,1.21c-3.75,6-3.3,6.84-3,7.34a1.28,1.28,0,0,0,1.15.68,1.75,1.75,0,0,0,.74-.18,22,22,0,0,0,4.1-2.89c0,2.25.39,2.74.56,2.94a1.36,1.36,0,0,0,1,.47,1.58,1.58,0,0,0,1.11-.5,8.1,8.1,0,0,0,1.77-3.4c1.15.92,2.67,1.93,3.84,1.93a1.94,1.94,0,0,0,2-1.81,6,6,0,0,0-.63-3.67c4.16-.57,4.58-1.64,4.74-2a1.61,1.61,0,0,0-.35-1.7,6.68,6.68,0,0,0-2.3-1.59c4.78-4.46,4.43-5.39,4.21-6a1.39,1.39,0,0,0-1.37-.88h-.24a10.54,10.54,0,0,0-3.59,1.23c.14-3.47-.38-4-.6-4.28a1.34,1.34,0,0,0-1-.44Z"/><path class="cls-31" d="M19,109.14c1.57-.27,3.22-.43,3.22-.43s-.32-.49-.7-1.19c-1.95.31-4.06.8-3,1.35C18.6,109,18.78,109.06,19,109.14Z"/><path class="cls-31" d="M25.53,105.88l1.52-2.08c-1.06-1.06-3.49-3.3-4.62-2.58-.47.3-.45,1-.21,1.87A17.5,17.5,0,0,1,25.53,105.88Z"/><path class="cls-31" d="M22.81,114.87s-1.15,1.07-2.53,2.2c.83-.57,1.72-1.27,2.5-1.93C22.8,115,22.81,114.87,22.81,114.87Z"/><path class="cls-31" d="M37.93,101a12.71,12.71,0,0,0-5,2.22s.68-7.44-.74-5.33c-.34.5-.78,1.13-1.25,1.8a27.79,27.79,0,0,1-.05,5.07,12.86,12.86,0,0,1,5-2.22c2.31-.24-4.93,6.2-4.93,6.2a7,7,0,0,1,3.66,1.85c1.47-.33,2.68-.83,2.05-1.53A6.94,6.94,0,0,0,33,107.16S40.24,100.72,37.93,101Z"/><path class="cls-31" d="M29,112.62A5.14,5.14,0,0,1,30.63,116c1,.5,1.85.59,2-.49a4.87,4.87,0,0,0-.67-3.26C30.48,112.5,29,112.62,29,112.62Z"/><path class="cls-31" d="M25.25,115a16.76,16.76,0,0,1-.6,2.32c.07.8.28,1.28.75.82a5.59,5.59,0,0,0,1.16-2C25.81,115.52,25.25,115,25.25,115Z"/><circle class="cls-25" cx="48.89" cy="144.27" r="18.03"/><path class="cls-26" d="M48.89,126.24a18,18,0,1,1-18,18,18,18,0,0,1,18-18m0-2.25a20.28,20.28,0,1,0,20.28,20.28A20.31,20.31,0,0,0,48.89,124Z"/><path class="cls-27" d="M60.56,130.54a18,18,0,0,1-28,21.26,18,18,0,1,0,28-21.26Z"/><path class="cls-28" d="M48.33,128.31a18,18,0,0,1,18,18,18.57,18.57,0,0,1-.36,3.61,18,18,0,1,0-34.76-9.28A18,18,0,0,1,48.33,128.31Z"/><path class="cls-28" d="M34.24,144.27c-1.59,1.14-.56,5.63,1.69,6.19S35.56,143.33,34.24,144.27Z"/><path class="cls-28" d="M40.63,153.84c3.07.86,7.32,5.64,4.13,4.89S37.25,152.9,40.63,153.84Z"/><path class="cls-29" d="M42.32,130.75s-2.07-5.07-3.76-4.7-.37,6.2-.37,6.2-7.33-1.88-6-.37a24.62,24.62,0,0,0,3,2.81s-7.88,6-5.63,5.82,7.13-2.25,7.13-2.25-2.81,5.44-1.12,4.69,3.38-3.75,3.38-3.75,3,6.19,4.32,3.75a5.07,5.07,0,0,0,0-4.69s6.76,1.88,6,0a7,7,0,0,0-2.81-3s9-3.56,6.76-4.13a12.77,12.77,0,0,0-5.45.38s3.19-6.76,1.13-5.26S42.32,130.75,42.32,130.75Z"/><path class="cls-30" d="M49.36,126c1,0-1.6,5.48-1.6,5.48a15.3,15.3,0,0,1,3.79-.56,6.93,6.93,0,0,1,1.66.18c2.25.57-6.76,4.13-6.76,4.13a7,7,0,0,1,2.81,3c.25.63-.33.83-1.22.83a23.94,23.94,0,0,1-4.78-.83,5.07,5.07,0,0,1,0,4.69.9.9,0,0,1-.77.57c-1.46,0-3.55-4.32-3.55-4.32s-1.69,3-3.38,3.75a.67.67,0,0,1-.28.07c-1.06,0,1.4-4.76,1.4-4.76s-4.88,2.06-7.13,2.25h-.1c-1.91,0,5.73-5.83,5.73-5.83a24.62,24.62,0,0,1-3-2.81c-.38-.43,0-.59.61-.59a32.85,32.85,0,0,1,5.4,1s-1.32-5.82.37-6.2l.18,0c1.66,0,3.58,4.72,3.58,4.72s4.5-3,6.57-4.51a.93.93,0,0,1,.47-.22m0-1.12a2,2,0,0,0-1.13.43c-1.4,1-4,2.75-5.43,3.74-.87-1.8-2.34-4.16-4.06-4.16h0a1.86,1.86,0,0,0-1.64.92c-.71,1.13-.57,3.3-.34,4.93a22,22,0,0,0-4-.59h0A1.82,1.82,0,0,0,31,131a1.43,1.43,0,0,0,.32,1.59,23.05,23.05,0,0,0,2.06,2c-5.82,4.55-5.52,5.43-5.3,6.08a1.35,1.35,0,0,0,1.36.9h.19a21.69,21.69,0,0,0,4.84-1.3c-.9,2.29-.55,2.86-.36,3.17a1.33,1.33,0,0,0,1.16.65A1.65,1.65,0,0,0,36,144a8.11,8.11,0,0,0,2.83-2.58c1,1.61,2.28,3.25,3.65,3.25a2,2,0,0,0,1.76-1.16,6,6,0,0,0,.66-3.68,16.71,16.71,0,0,0,3.13.41,2.49,2.49,0,0,0,2.15-.83,1.62,1.62,0,0,0,.12-1.55,6.73,6.73,0,0,0-1.61-2.29c6.1-2.58,6-3.6,6-4.22a1.44,1.44,0,0,0-1.21-1.3,8.15,8.15,0,0,0-1.93-.21,13.8,13.8,0,0,0-1.87.14c1.43-3.45,1-4.08.8-4.45a1.33,1.33,0,0,0-1.12-.61Z"/><path class="cls-31" d="M32.58,132.31c1.57.28,3.17.69,3.17.69s-.13-.56-.26-1.35c-1.93-.38-4.07-.65-3.31.23C32.31,132,32.44,132.17,32.58,132.31Z"/><path class="cls-31" d="M39.88,131.5,42,130.06c-.63-1.36-2.14-4.3-3.45-4-.54.13-.77.81-.84,1.69A17.18,17.18,0,0,1,39.88,131.5Z"/><path class="cls-31" d="M34.24,139s-1.45.61-3.13,1.2c1-.25,2-.6,3-1Z"/><path class="cls-31" d="M53.21,131.12a12.77,12.77,0,0,0-5.45.38s3.19-6.76,1.13-5.26c-.49.36-1.12.8-1.78,1.26a28.47,28.47,0,0,1-1.79,4.75,12.67,12.67,0,0,1,5.45-.37C53,132.44,44,136,44,136a7,7,0,0,1,2.81,3c1.48.19,2.8.14,2.44-.74a7,7,0,0,0-2.81-3S55.46,131.69,53.21,131.12Z"/><path class="cls-31" d="M40.81,139a5.14,5.14,0,0,1,.4,3.71c.75.81,1.53,1.19,2,.23a4.89,4.89,0,0,0,.48-3.29C42.26,139.41,40.81,139,40.81,139Z"/><path class="cls-31" d="M36.5,140a17.32,17.32,0,0,1-1.36,2c-.21.78-.18,1.3.42,1a5.45,5.45,0,0,0,1.77-1.47C36.84,140.64,36.5,140,36.5,140Z"/><path class="cls-32" d="M133.14,30.41,115.43,41.52A33,33,0,0,0,124.5,62c9,9.69,12.27,11.39,14.13,20s2.78,12.77,11.56,19.66,17.28,13.8,16.34,29.42c0,0,9.65-2.79,18.27-14.55,0,0-1.8-14.54-12.64-22.39s-11-10.09-13.89-20.58c-2.94-10.77-5.33-12.84-11.7-18S131.89,39,133.14,30.41Z"/><path class="cls-33" d="M133.14,30.41c-1.25,8.58,7.07,20,13.43,25.15s8.76,7.18,11.7,18c2.86,10.49,3,12.74,13.89,20.58s12.64,22.39,12.64,22.39C176.18,128.24,166.53,131,166.53,131c.94-15.62-7.56-22.54-16.34-29.42S140.49,90.55,138.63,82s-5.11-10.31-14.13-20a33,33,0,0,1-9.07-20.43l17.71-11.11m2.93-4.5-4.13,2.59L114.23,39.61l-1.07.66v1.26c0,.47.18,11.73,9.68,21.95,1.8,1.93,3.37,3.55,4.74,5,5.45,5.61,7.48,7.71,8.84,14,1.89,8.73,2.92,13.54,12.37,20.95,8.41,6.6,16.36,12.84,15.48,27.52l-.19,3.18,3.06-.88c.43-.13,10.5-3.15,19.47-15.38l.52-.72-.11-.89c-.07-.64-2-15.62-13.55-23.94-9.69-7-10.2-8.9-12.66-18l-.38-1.4c-3-11.1-5.57-13.58-12.46-19.11-6-4.82-13.71-15.51-12.61-23.07l.7-4.82Z"/><path class="cls-34" d="M172.16,94.09c-10.84-7.84-11-10.09-13.89-20.58-2.94-10.77-5.33-12.84-11.7-18S131.89,39,133.14,30.41L115.43,41.52a16.18,16.18,0,0,0,.14,1.79l15.84-9.93c-1.25,8.58,7.07,20,13.44,25.15s8.75,7.18,11.69,18c2.87,10.5,3.06,12.74,13.9,20.59,9.48,6.86,12,18.86,12.53,21.75.61-.74,1.22-1.51,1.83-2.34C184.8,116.48,183,101.94,172.16,94.09Z"/><g class="cls-35"><path class="cls-36" d="M180.52,129.23c-3-16.19-5.32-21.69-16.5-29.33-9.73-6.66-11.73-13.61-13.85-21-.44-1.52-.89-3.07-1.41-4.65-2.51-7.51-2.51-7.51-7.76-11.83-.87-.72-1.88-1.55-3.05-2.55-8.73-7.36-15-34.34-15.17-35.15l2.21-.45c0,.19,6.29,27,14.41,33.88,1.17,1,2.17,1.81,3,2.53,5.64,4.64,5.8,4.88,8.46,12.86.54,1.61,1,3.18,1.44,4.73,2.09,7.26,3.9,13.53,13,19.73,11.67,8,14.25,13.65,17.43,30.77Z"/><path class="cls-36" d="M173.18,132.67c-3-16.18-5.29-21.4-16.47-29C147,97,145,90,142.85,82.67c-.44-1.53-.88-3.07-1.41-4.65-2.51-7.51-2.51-7.51-7.75-11.84-.87-.71-1.88-1.54-3.06-2.54-8.72-7.36-14.32-33-14.48-33.8l2.21-.44c0,.19,5.6,25.67,13.72,32.52,1.17,1,2.17,1.81,3,2.52,5.64,4.65,5.79,4.89,8.46,12.87.53,1.6,1,3.18,1.44,4.73,2.09,7.26,3.89,13.52,13,19.73,11.67,8,14.23,13.37,17.41,30.49Z"/></g><g class="cls-35"><path class="cls-37" d="M141.19,48.66s3,7.29-3.24,11.25-9.44,5.94-14.59,1.85-3.51,2-3.51,2L131.43,80.3s-.11-7.91,7.21-11.64,14.86-8,19.66-4.77S145.81,46.58,141.19,48.66Z"/><path class="cls-37" d="M161.17,74.39s.87,7-4.76,10.58-11.89,9.77-15.8,7-2.92,2.22-2.92,2.22L152,112.76s-2.35-7.72,3-11,10-11.59,17.15-11.06S164.35,75.25,161.17,74.39Z"/></g><path class="cls-32" d="M145.12,11.59,127.4,22.7a33,33,0,0,0,9.08,20.43c9,9.69,12.27,11.4,14.13,20s2.77,12.77,11.55,19.66,17.28,13.8,16.34,29.42c0,0,9.66-2.79,18.27-14.55,0,0-1.79-14.54-12.63-22.39s-11-10.09-13.9-20.58c-2.94-10.77-5.32-12.84-11.69-17.95S143.86,20.17,145.12,11.59Z"/><path class="cls-33" d="M145.12,11.59c-1.26,8.58,7.06,20,13.43,25.15s8.75,7.18,11.69,17.95c2.87,10.49,3.06,12.74,13.9,20.58s12.63,22.39,12.63,22.39c-8.61,11.76-18.27,14.55-18.27,14.55.94-15.62-7.56-22.54-16.34-29.42s-9.7-11.06-11.55-19.66-5.12-10.31-14.13-20A33,33,0,0,1,127.4,22.7l17.72-11.11m2.93-4.5-4.13,2.59L126.2,20.79l-1.06.66v1.26c0,.47.17,11.73,9.68,21.95,1.79,1.93,3.36,3.55,4.74,5,5.44,5.61,7.48,7.71,8.83,14,1.89,8.73,2.93,13.54,12.37,21,8.42,6.6,16.36,12.84,15.48,27.52l-.19,3.18,3.07-.88c.42-.13,10.49-3.15,19.46-15.38l.53-.72-.11-.89c-.08-.64-2-15.62-13.55-23.94-9.7-7-10.21-8.9-12.66-18l-.38-1.4C169.38,43,166.85,40.51,160,35c-6-4.82-13.72-15.51-12.62-23.07l.71-4.82Z"/><path class="cls-34" d="M184.14,75.27c-10.84-7.84-11-10.09-13.9-20.58-2.94-10.77-5.32-12.84-11.69-17.95s-14.69-16.57-13.43-25.15L127.4,22.7a15.12,15.12,0,0,0,.15,1.79l15.84-9.93c-1.25,8.59,7.06,20,13.43,25.15s8.76,7.18,11.7,17.95c2.86,10.5,3,12.74,13.89,20.59C191.9,85.11,194.46,97.11,195,100c.61-.74,1.22-1.51,1.82-2.34C196.77,97.66,195,83.12,184.14,75.27Z"/><g class="cls-38"><path class="cls-36" d="M192.49,110.41c-3-16.19-5.31-21.69-16.49-29.33-9.74-6.66-11.74-13.61-13.86-21-.44-1.52-.88-3.07-1.41-4.65C158.22,48,158.22,48,153,43.64c-.87-.72-1.88-1.55-3.06-2.55-8.72-7.36-15-34.34-15.16-35.15L137,5.49c0,.19,6.28,27,14.4,33.88,1.17,1,2.18,1.81,3,2.53,5.64,4.64,5.79,4.88,8.46,12.86.53,1.61,1,3.18,1.44,4.73,2.09,7.26,3.89,13.53,13,19.73,11.68,8,14.25,13.65,17.44,30.77Z"/><path class="cls-36" d="M185.15,113.85c-3-16.18-5.29-21.4-16.47-29C159,78.15,157,71.2,154.82,63.85c-.43-1.53-.88-3.07-1.41-4.65-2.5-7.51-2.5-7.51-7.75-11.84-.87-.71-1.88-1.54-3.06-2.54-8.72-7.36-14.32-33-14.48-33.8l2.21-.44c0,.19,5.61,25.67,13.73,32.52,1.17,1,2.17,1.81,3,2.52,5.64,4.65,5.8,4.89,8.46,12.87.54,1.6,1,3.18,1.44,4.73,2.09,7.26,3.9,13.52,13,19.73,11.67,8,14.22,13.37,17.41,30.49Z"/></g><g class="cls-38"><path class="cls-37" d="M153.16,29.84s3,7.29-3.24,11.25-9.44,5.94-14.59,1.85-3.5,2-3.5,2L143.4,61.48s-.1-7.91,7.21-11.64,14.87-8,19.67-4.77S157.79,27.76,153.16,29.84Z"/><path class="cls-37" d="M173.14,55.57s.88,7-4.75,10.58-11.9,9.77-15.81,7-2.92,2.22-2.92,2.22L164,93.94s-2.35-7.72,3-11,10-11.59,17.15-11.06S176.33,56.43,173.14,55.57Z"/></g></g></g></svg>