<svg id="图层_1" data-name="图层 1" xmlns="http://www.w3.org/2000/svg" xmlns:xlink="http://www.w3.org/1999/xlink" viewBox="0 0 200 200"><defs><style>.cls-1{fill:none;}.cls-2{fill:#dddcdc;}.cls-3{fill:#828084;}.cls-4{fill:#a5a4a4;}.cls-5{fill:#f9ba3c;}.cls-6{fill:#9f5c26;}.cls-7{fill:#ffd78a;}.cls-8{fill:#d99135;}.cls-9{fill:#b06928;}.cls-10{clip-path:url(#clip-path);}.cls-11{fill:#e9a231;}.cls-12{fill:#e1332e;}.cls-13{fill:#88181a;}.cls-14{clip-path:url(#clip-path-2);}.cls-15{fill:#be2627;}.cls-16{fill:#f27173;}.cls-17{clip-path:url(#clip-path-3);}.cls-18{clip-path:url(#clip-path-4);}.cls-19{fill:#7c50a1;}.cls-20{fill:#472c76;}.cls-21{fill:#623391;}.cls-22{fill:#9371b2;}.cls-23{fill:#ffd43e;}.cls-24{fill:#b87c2b;}.cls-25{clip-path:url(#clip-path-5);}.cls-26{fill:#fceba5;}.cls-27{fill:#e3a13e;}.cls-28{clip-path:url(#clip-path-7);}.cls-29{fill:#fff;}</style><clipPath id="clip-path"><ellipse class="cls-1" cx="95.32" cy="82.75" rx="72.28" ry="51.26" transform="matrix(0.92, -0.38, 0.38, 0.92, -24.3, 42.46)"/></clipPath><clipPath id="clip-path-2"><path class="cls-1" d="M75.75,74.36c2.35,2.65,9.32,3.81,13.5-3S93.92,58,82.94,55.57s-12.17.61-12.84,5.36C69.38,66,72.42,70.61,75.75,74.36Z"/></clipPath><clipPath id="clip-path-3"><path class="cls-1" d="M108.73,53c-3.17,1.57-6.11,8-.65,13.8s11.69,8,16.91-2,2.59-11.91-1.83-13.8C118.47,49,113.22,50.73,108.73,53Z"/></clipPath><clipPath id="clip-path-4"><path class="cls-1" d="M86.69,61.54c.5,3.83,6.09,9.15,14,5.58s12.41-9.22,4-18.15-11.37-6.91-14.89-3C86.07,50.07,86,56.11,86.69,61.54Z"/></clipPath><clipPath id="clip-path-5"><path class="cls-1" d="M85.36,98c-1.86-1.55-8.14-5-11.79-5.7s-6.07,2.44-8.63,6.37-5.23,7.61-4.33,10.62,6.4,5,11.28,6.36c5.68,1.56,7.24,2,9.06-.71S88.58,100.66,85.36,98Z"/></clipPath><clipPath id="clip-path-7"><path class="cls-1" d="M87.89,97.79c2.38-.45,9.55-.4,13.07.78s4.11,5.09,4.42,9.78.84,9.19-1.41,11.38-8,1.26-13,0c-5.72-1.42-7.3-1.79-7.56-5S83.76,98.56,87.89,97.79Z"/></clipPath></defs><title>食物矿</title><ellipse class="cls-2" cx="100.08" cy="124.6" rx="97.77" ry="63.97"/><path class="cls-3" d="M100.08,60.63c54,0,97.77,28.64,97.77,64s-43.77,64-97.77,64-97.76-28.64-97.76-64,43.77-64,97.76-64m0-2.44C44.83,58.19-.11,88-.11,124.6S44.83,191,100.08,191s100.2-29.79,100.2-66.4-44.95-66.41-100.2-66.41Z"/><ellipse class="cls-4" cx="100.08" cy="121.27" rx="77.25" ry="49.19"/><ellipse class="cls-5" cx="100.95" cy="110.11" rx="72.28" ry="51.26" transform="translate(-16.75 18.13) rotate(-9.48)"/><path class="cls-6" d="M109.13,58.15c32.35,0,59.12,16.13,63.12,40.06,4.66,27.92-23.48,55.89-62.86,62.46a101.2,101.2,0,0,1-16.62,1.39c-32.35,0-59.12-16.13-63.12-40C25,94.08,53.13,66.12,92.51,59.55a100.15,100.15,0,0,1,16.62-1.4m0-2.41h0a104.43,104.43,0,0,0-17,1.42C51.49,64,22.4,93.21,27.27,122.41c4.14,24.77,31.07,42.07,65.5,42.07a103.35,103.35,0,0,0,17-1.43c40.62-6.78,69.71-36.05,64.84-65.24-4.14-24.77-31.07-42.07-65.5-42.07Z"/><path class="cls-7" d="M165.37,101.55c.26-5.27-6.64-3.17-9.58-.63-4.3,3.72-2.59,11.32,1.29,12.21S165.1,106.81,165.37,101.55Z"/><path class="cls-7" d="M149.6,117.06c-4.58.84-6.84,6.59-6.33,9.84s5.48,3.45,9.16-1.67S153.25,116.4,149.6,117.06Z"/><path class="cls-7" d="M140.39,105.24c-6.55,2.58-6.52,7.92-3.65,10.45s7.74-2.3,9.72-6.87S143.71,103.93,140.39,105.24Z"/><path class="cls-7" d="M136,128.68c-1.91-2.63-2.91-1-6.15,3.61s2.6,7.81,6.63,5.28S137.74,131.12,136,128.68Z"/><path class="cls-7" d="M128.48,117.57c-4.81.46-5.37,5.66-3.91,8.88s5.87.34,7.42-3.69S132.14,117.21,128.48,117.57Z"/><path class="cls-7" d="M108.33,141.87c-5.33-6.48-13.8-1.91-13.7,3.06s3.41,5.42,9.89,4.12S110.1,144,108.33,141.87Z"/><path class="cls-7" d="M87.59,140.54c-4.6-2.91-8.33-2.84-11.26.52s-.08,7.1,7.25,7.54S90.34,142.27,87.59,140.54Z"/><path class="cls-7" d="M86.59,129.32c-.12-4.21-8.15-2.95-11.94,1.45s3.44,5.62,6.91,5A6,6,0,0,0,86.59,129.32Z"/><path class="cls-7" d="M60.39,134.94c-6.92,1.82-7.5,5.72-3.06,8s9.33,5.22,11.63-.75S63.32,134.17,60.39,134.94Z"/><path class="cls-7" d="M45,109.71c-4.66,1.41-4.32,3.58-3.49,8.48,1.58,9.34,11.25,6.29,11.58.79S49.66,108.29,45,109.71Z"/><path class="cls-7" d="M55,98.38c4.49-6.1.07-11.13-4.25-11.19s-9.56,9.12-9.27,12.12C42.24,106.91,50.54,104.47,55,98.38Z"/><path class="cls-7" d="M72.23,73.21c-2.84-2.5-10.46,2.52-13.92,6.73C53.59,85.67,64,89,68,86.47S75.06,75.72,72.23,73.21Z"/><path class="cls-7" d="M74.59,88.61c-4,1.52-7.73,1.33-5.44,6.18s3.14,6.6,7.9,3.36S83.74,85.13,74.59,88.61Z"/><path class="cls-7" d="M66.09,102.76c-3.05,1-6.78,1.24-4.32,6.75s8.74,5.09,10.27,1.11S71.11,101.12,66.09,102.76Z"/><path class="cls-7" d="M125.58,64.82c-6.11-1.71-5.41,1-6.8,4-2.45,5.32,11.51,7.89,17.13,3.6S131.69,66.53,125.58,64.82Z"/><path class="cls-7" d="M149.57,75c-3.53-.81-8.88,0-8.13,3.09,1.28,5.24,9.42,6.18,13.69,3.75S153.1,75.75,149.57,75Z"/><path class="cls-7" d="M98.59,62.37c-5.61,1.5-3.7,6.81-1.52,8,3.85,2.11,14.2.15,15.19-5.51S104.2,60.86,98.59,62.37Z"/><path class="cls-8" d="M163.54,101.4c.26-5.2-6.55-3.12-9.45-.61-4.25,3.67-2.56,11.18,1.27,12S163.28,106.61,163.54,101.4Z"/><path class="cls-8" d="M148,116.73c-4.52.82-6.75,6.5-6.24,9.71s5.41,3.41,9-1.65S151.58,116.07,148,116.73Z"/><path class="cls-8" d="M138.88,105.05c-6.47,2.55-6.43,7.82-3.6,10.32s7.64-2.27,9.6-6.78S142.16,103.76,138.88,105.05Z"/><path class="cls-8" d="M134.52,128.2c-1.89-2.6-2.88-1-6.08,3.56S131,139.47,135,137,136.26,130.61,134.52,128.2Z"/><path class="cls-8" d="M127.12,117.22c-4.75.47-5.3,5.6-3.86,8.78s5.8.33,7.33-3.65S130.74,116.87,127.12,117.22Z"/><path class="cls-8" d="M108.85,140.29c1.77,2.15,2.68,5.87-3.81,7.17s-9.79.86-9.89-4.11S103.52,133.81,108.85,140.29Z"/><path class="cls-8" d="M88.11,139c2.74,1.74,3.32,8.5-4,8.06s-10.19-4.18-7.26-7.54S83.51,136,88.11,139Z"/><path class="cls-8" d="M60.91,133.36c2.93-.78,10.86,1.24,8.56,7.21s-7.18,3-11.62.75S54,135.18,60.91,133.36Z"/><path class="cls-8" d="M82.08,134.17c-3.48.63-10.7-.59-6.91-5s11.82-5.66,11.94-1.45A6,6,0,0,1,82.08,134.17Z"/><path class="cls-8" d="M46.38,110.23c-4.65,1.41-4.31,3.58-3.48,8.49,1.58,9.33,11.25,6.28,11.58.79S51,108.81,46.38,110.23Z"/><path class="cls-8" d="M56.4,98.9c4.49-6.1.07-11.13-4.25-11.19s-9.56,9.12-9.27,12.12C43.62,107.43,51.91,105,56.4,98.9Z"/><path class="cls-8" d="M73.6,73.73c-2.83-2.5-10.46,2.53-13.91,6.73-4.72,5.73,5.67,9,9.65,6.54S76.44,76.24,73.6,73.73Z"/><path class="cls-8" d="M76,89.13c-4,1.52-7.74,1.33-5.44,6.19s3.13,6.59,7.9,3.35S85.12,85.65,76,89.13Z"/><path class="cls-8" d="M67.47,103.28c-3,1-6.78,1.24-4.33,6.75s8.74,5.1,10.27,1.11S72.49,101.64,67.47,103.28Z"/><path class="cls-8" d="M96.69,71.58c-2.18-1.2-4.08-6.51,1.52-8s14.65-3.15,13.67,2.5S100.54,73.7,96.69,71.58Z"/><path class="cls-9" d="M163.54,101.4c.22-4.28-4.35-3.63-7.6-1.86,2.71-.8,5.37-.42,5.21,2.86-.19,3.75-2.37,8.48-5,10.51C159.72,112.75,163.3,106.25,163.54,101.4Z"/><path class="cls-9" d="M139.82,104.76c2.48-.15,4.54.91,3.12,4.16-1.29,3-3.83,6.07-6.22,7.1,2.81.37,6.5-3.62,8.16-7.43C146.66,104.5,143,103.87,139.82,104.76Z"/><path class="cls-9" d="M127.12,117.22a5.12,5.12,0,0,0-2,.63,3,3,0,0,1,.32-.08c3.61-.35,5,1.14,3.47,5.13a9,9,0,0,1-3.63,4.46c1.86-.07,4.25-2.27,5.3-5C132.12,118.37,130.74,116.87,127.12,117.22Z"/><path class="cls-9" d="M148,116.73c-.13,0-.24.09-.36.12,3,.21,4.92,3.61,1.68,8.12a9.24,9.24,0,0,1-4.86,3.72c1.84.1,4.28-1,6.34-3.9C154.4,119.74,151.58,116.07,148,116.73Z"/><path class="cls-9" d="M134.52,128.2c-.78-1.07-1.4-1.38-2.09-1.12a4.59,4.59,0,0,1,.71.81c1.75,2.4,4.45,6.27.47,8.77a5.71,5.71,0,0,1-3.6.84,5.71,5.71,0,0,0,5-.53C139,134.48,136.26,130.61,134.52,128.2Z"/><path class="cls-9" d="M109.78,141.82c-.16,1.53-1.48,3-5.07,3.71-5.41,1.09-8.57.92-9.54-2,.16,4.83,3.45,5.26,9.87,4C110.16,146.44,110.67,143.9,109.78,141.82Z"/><path class="cls-9" d="M84.76,145.46C79,145.12,76,142.7,76.47,140c-2.16,3.2.71,6.56,7.63,7,3.76.23,5.43-1.45,5.8-3.36C89.06,144.81,87.44,145.62,84.76,145.46Z"/><path class="cls-9" d="M77.06,129.51a12.14,12.14,0,0,1,8.46-4c-2.56-1-7.58.48-10.35,3.7s.45,4.77,3.74,5.08C76.46,133.62,74.79,132.14,77.06,129.51Z"/><path class="cls-8" d="M60.91,133.36c2.93-.78,10.86,1.24,8.56,7.21s-7.18,3-11.62.75S54,135.18,60.91,133.36Z"/><path class="cls-9" d="M60,141.5c-4.44-2.25-3.86-6.14,3.05-8a5.28,5.28,0,0,1,1.13-.14,7.73,7.73,0,0,0-3.25,0c-6.92,1.82-7.5,5.71-3.06,8,2.7,1.37,5.56,3,7.91,2.73A29.78,29.78,0,0,1,60,141.5Z"/><path class="cls-9" d="M44.56,119.1c-.83-4.91-1.17-7.08,3.49-8.49a5.26,5.26,0,0,1,1.77-.23,5,5,0,0,0-3.44-.15c-4.65,1.41-4.31,3.58-3.48,8.49.7,4.16,3,5.85,5.4,6C46.58,124,45.1,122.27,44.56,119.1Z"/><path class="cls-9" d="M64.41,109.91c-2.46-5.51,1.28-5.75,4.33-6.75.22-.07.43-.11.64-.16a5.6,5.6,0,0,0-1.91.28c-3,1-6.78,1.24-4.33,6.75,1.5,3.38,4.44,4.52,6.84,4A6.34,6.34,0,0,1,64.41,109.91Z"/><path class="cls-9" d="M44.29,100.88c-.29-3,5-12.18,9.27-12.12a6.17,6.17,0,0,1,2.88.79,6.34,6.34,0,0,0-4.29-1.84c-4.32-.06-9.56,9.12-9.27,12.12.23,2.43,1.25,3.82,2.65,4.41A6.07,6.07,0,0,1,44.29,100.88Z"/><path class="cls-9" d="M72.1,95.67c-2.3-4.85,1.45-4.67,5.44-6.18A9.26,9.26,0,0,1,81,88.78c-1-.55-2.65-.56-5,.35-4,1.52-7.74,1.33-5.44,6.19,1.58,3.33,2.49,5.15,4.44,4.94C74,99.56,73.19,98,72.1,95.67Z"/><path class="cls-9" d="M61.11,81c2.94-3.57,8.89-7.73,12.35-7.35-2.94-2.24-10.37,2.68-13.77,6.82-2.8,3.4-.27,5.93,3.07,6.92C60.21,86.16,58.73,83.88,61.11,81Z"/><path class="cls-8" d="M125.2,66c-6.11-1.7-5.41,1-6.8,4-2.45,5.32,11.51,7.89,17.13,3.61S131.31,67.73,125.2,66Z"/><path class="cls-8" d="M149.2,76.15c-3.53-.81-8.89,0-8.14,3.09,1.28,5.25,9.42,6.18,13.69,3.75S152.73,77,149.2,76.15Z"/><path class="cls-8" d="M98.21,63.57c-5.6,1.5-3.7,6.81-1.52,8,3.85,2.12,14.21.15,15.19-5.51S103.82,62.07,98.21,63.57Z"/><path class="cls-9" d="M97.48,65c5.61-1.5,14.65-3.15,13.67,2.51a5.48,5.48,0,0,1-.23.79,5.11,5.11,0,0,0,1-2.18c1-5.65-8.06-4-13.67-2.5-2.17.58-3.21,1.74-3.54,3A5.44,5.44,0,0,1,97.48,65Z"/><path class="cls-9" d="M125.2,66c-3.2-.89-4.52-.57-5.27.37.86-.31,2.15-.26,4.28.34,6,1.66,15.47,3.26,10.65,7.34.23-.14.47-.27.67-.42C141.15,69.36,131.31,67.73,125.2,66Z"/><path class="cls-9" d="M149.2,76.15c-2.27-.52-5.28-.35-6.95.64a12.17,12.17,0,0,1,5.47-.05c3.53.81,9.82,4.41,5.56,6.84-.15.08-.32.13-.47.2a8.86,8.86,0,0,0,1.94-.79C159,80.56,152.73,77,149.2,76.15Z"/><path class="cls-7" d="M33.06,100.79s-6.45,18.33,6,31.5l41-15s-36.46,11.48-40,11.5S29.54,117.11,33.06,100.79Z"/><path class="cls-7" d="M117.55,144.65s4.14,4.45-10.24,7.77c-13.59,3.14-41.5,3.72-60.83-11a80.14,80.14,0,0,0,31.79,10.77C97.16,154.43,116.31,151,117.55,144.65Z"/><path class="cls-7" d="M167.63,89.85s6.84,5.28,1,20.24-26.42,35.23-42.78,34.59c0,0,15.63-1.59,30-17.3S173.24,96.91,167.63,89.85Z"/><ellipse class="cls-5" cx="99.34" cy="98.84" rx="72.28" ry="51.26" transform="translate(-20.78 26.67) rotate(-13.86)"/><path class="cls-6" d="M110.81,46.13c29.1,0,53.34,13.64,58.71,35.4,6.78,27.49-19.14,57.52-57.9,67.08a99.51,99.51,0,0,1-23.75,2.94c-29.1,0-53.34-13.64-58.71-35.39C22.38,88.67,48.3,58.64,87.06,49.07a99.57,99.57,0,0,1,23.75-2.94m0-2.41v0h0a101.61,101.61,0,0,0-24.33,3c-40,9.86-66.75,41.27-59.66,70C32.31,139,56.85,154,87.87,154a102.12,102.12,0,0,0,24.33-3c40-9.87,66.75-41.27,59.66-70-5.49-22.27-30-37.23-61.05-37.23Z"/><path class="cls-7" d="M162.91,85.38c-.14-5.27-6.85-2.65-9.59.12-4,4-1.71,11.48,2.21,12.07S163.05,90.66,162.91,85.38Z"/><path class="cls-7" d="M148.38,102.06c-4.51,1.18-6.32,7.09-5.56,10.29s5.73,3,9-2.36S152,101.12,148.38,102.06Z"/><path class="cls-7" d="M138.29,91c-6.33,3.07-5.89,8.39-2.83,10.7s7.53-2.89,9.16-7.6S141.51,89.41,138.29,91Z"/><path class="cls-7" d="M135.68,114.69c-2.11-2.48-3-.76-5.86,4.07s3.19,7.58,7,4.75S137.62,117,135.68,114.69Z"/><path class="cls-7" d="M127.36,104.18c-4.76.83-4.92,6.06-3.22,9.15s5.88-.11,7.12-4.25S131,103.54,127.36,104.18Z"/><path class="cls-7" d="M109.13,130c-5.81-6-13.91-.86-13.43,4.1s3.81,5.14,10.18,3.35S111.05,132,109.13,130Z"/><path class="cls-7" d="M88.34,130.2c-4.8-2.55-8.52-2.18-11.19,1.38s.47,7.09,7.81,7S91.21,131.72,88.34,130.2Z"/><path class="cls-7" d="M86.49,119.1c-.44-4.19-8.35-2.32-11.79,2.35s3.85,5.34,7.27,4.45A6,6,0,0,0,86.49,119.1Z"/><path class="cls-7" d="M60.8,126.7c-6.76,2.35-7,6.27-2.44,8.18s9.7,4.5,11.53-1.64S63.66,125.71,60.8,126.7Z"/><path class="cls-7" d="M43.53,102.72c-4.53,1.76-4,3.9-2.83,8.73,2.29,9.19,11.7,5.4,11.61-.1S48.06,101,43.53,102.72Z"/><path class="cls-7" d="M52.65,90.65c4-6.42-.78-11.1-5.09-10.83s-8.84,9.83-8.32,12.8C40.56,100.14,48.64,97.07,52.65,90.65Z"/><path class="cls-7" d="M67.88,64.25C64.87,62,57.64,67.56,54.52,72c-4.26,6.07,6.35,8.57,10.12,5.78S70.9,66.53,67.88,64.25Z"/><path class="cls-7" d="M71.42,79.42c-3.87,1.82-7.61,1.92-5,6.58s3.63,6.34,8.13,2.74S80.27,75.25,71.42,79.42Z"/><path class="cls-7" d="M64,94.18c-3,1.23-6.66,1.75-3.79,7.06s9.1,4.41,10.32.32S68.9,92.16,64,94.18Z"/><path class="cls-7" d="M120.44,51.8c-6.23-1.23-5.32,1.42-6.48,4.53-2,5.49,12.08,7,17.36,2.29S126.66,53,120.44,51.8Z"/><path class="cls-7" d="M145.14,60.07c-3.59-.54-8.86.71-7.88,3.7,1.68,5.14,9.87,5.44,13.94,2.7S148.72,60.6,145.14,60.07Z"/><path class="cls-7" d="M93.34,51.42c-5.47,1.93-3.17,7.07-.9,8.1,4,1.82,14.17-.93,14.72-6.65S98.82,49.49,93.34,51.42Z"/><path class="cls-8" d="M161.09,85.38c-.14-5.2-6.77-2.61-9.48.11-4,4-1.69,11.34,2.19,11.92S161.22,90.59,161.09,85.38Z"/><path class="cls-8" d="M146.73,101.85c-4.45,1.17-6.23,7-5.48,10.16s5.65,3,8.89-2.33S150.28,100.92,146.73,101.85Z"/><path class="cls-8" d="M136.77,90.91c-6.25,3-5.81,8.28-2.8,10.56s7.45-2.85,9.05-7.5S140,89.36,136.77,90.91Z"/><path class="cls-8" d="M134.19,114.32c-2.08-2.45-2.94-.75-5.79,4s3.16,7.49,6.93,4.7S136.11,116.58,134.19,114.32Z"/><path class="cls-8" d="M126,103.94c-4.7.82-4.86,6-3.18,9s5.81-.11,7-4.2S129.56,103.31,126,103.94Z"/><path class="cls-8" d="M109.52,128.33c1.93,2,3.12,5.65-3.25,7.45s-9.69,1.6-10.17-3.35S103.71,122.28,109.52,128.33Z"/><path class="cls-8" d="M88.74,128.58c2.87,1.53,4,8.22-3.38,8.35s-10.48-3.4-7.81-7S83.93,126,88.74,128.58Z"/><path class="cls-8" d="M61.19,125.08c2.87-1,10.92.41,9.09,6.55s-6.93,3.54-11.53,1.63S54.43,127.43,61.19,125.08Z"/><path class="cls-8" d="M82.36,124.28c-3.41.89-10.71.23-7.27-4.45s11.35-6.54,11.8-2.35A6,6,0,0,1,82.36,124.28Z"/><path class="cls-8" d="M44.94,103.13c-4.53,1.76-4,3.9-2.83,8.73,2.29,9.19,11.71,5.41,11.61-.1S49.48,101.37,44.94,103.13Z"/><path class="cls-8" d="M54.07,91.07c4-6.42-.79-11.1-5.1-10.83S40.13,90.06,40.65,93C42,100.55,50.06,97.49,54.07,91.07Z"/><path class="cls-8" d="M69.3,64.66c-3-2.28-10.24,3.32-13.37,7.77-4.26,6.08,6.35,8.58,10.12,5.78S72.31,66.94,69.3,64.66Z"/><path class="cls-8" d="M72.83,79.83c-3.86,1.82-7.61,1.92-5,6.59s3.63,6.34,8.13,2.74S81.69,75.67,72.83,79.83Z"/><path class="cls-8" d="M65.44,94.6c-3,1.22-6.67,1.75-3.8,7.06s9.1,4.41,10.32.32S70.32,92.58,65.44,94.6Z"/><path class="cls-8" d="M92.15,60.75c-2.26-1-4.57-6.17.91-8.1s14.36-4.26,13.81,1.45S96.15,62.57,92.15,60.75Z"/><path class="cls-9" d="M161.09,85.38c-.12-4.28-4.63-3.28-7.73-1.28,2.65-1,5.33-.83,5.41,2.46.1,3.76-1.71,8.63-4.19,10.86C158.14,97,161.22,90.24,161.09,85.38Z"/><path class="cls-9" d="M137.69,90.54c2.46-.34,4.59.56,3.43,3.91-1.06,3.07-3.36,6.34-5.66,7.56,2.83.15,6.2-4.11,7.56-8C144.48,89.76,140.76,89.41,137.69,90.54Z"/><path class="cls-9" d="M126,103.94a5,5,0,0,0-1.94.77,2.81,2.81,0,0,1,.31-.1c3.58-.63,5.07.76,3.85,4.85a9.08,9.08,0,0,1-3.27,4.73c1.85-.22,4.06-2.59,4.9-5.41C131.05,104.7,129.56,103.31,126,103.94Z"/><path class="cls-9" d="M146.73,101.85a3.68,3.68,0,0,0-.35.15c3,0,5.18,3.22,2.29,8a9.21,9.21,0,0,1-4.56,4.08c1.85,0,4.2-1.36,6-4.37C153.37,104.37,150.28,100.92,146.73,101.85Z"/><path class="cls-9" d="M134.19,114.32c-.85-1-1.5-1.28-2.16-1a4.82,4.82,0,0,1,.77.75c1.92,2.27,4.91,5.92,1.14,8.71a5.68,5.68,0,0,1-3.53,1.11,5.68,5.68,0,0,0,4.92-.9C139.1,120.24,136.11,116.58,134.19,114.32Z"/><path class="cls-9" d="M110.57,129.79c0,1.53-1.25,3.09-4.77,4.09-5.32,1.49-8.48,1.56-9.68-1.31.54,4.8,3.85,5,10.15,3.21C111.3,134.36,111.61,131.79,110.57,129.79Z"/><path class="cls-9" d="M85.9,135.33c-5.81.1-8.93-2.09-8.68-4.77-1.91,3.35,1.21,6.48,8.14,6.37,3.76-.07,5.3-1.86,5.53-3.8C90.13,134.36,88.58,135.28,85.9,135.33Z"/><path class="cls-9" d="M77,120a12.15,12.15,0,0,1,8.13-4.66c-2.63-.84-7.52,1.06-10,4.47s.81,4.73,4.12,4.78C76.72,124.16,74.94,122.81,77,120Z"/><path class="cls-8" d="M61.19,125.08c2.87-1,10.92.41,9.09,6.55s-6.93,3.54-11.53,1.63S54.43,127.43,61.19,125.08Z"/><path class="cls-9" d="M60.88,133.27c-4.59-1.9-4.31-5.83,2.45-8.18a6,6,0,0,1,1.11-.23,8,8,0,0,0-3.25.22c-6.76,2.35-7,6.27-2.44,8.18,2.8,1.16,5.77,2.56,8.09,2.11A30.45,30.45,0,0,1,60.88,133.27Z"/><path class="cls-9" d="M43.81,112.11c-1.21-4.83-1.71-7,2.82-8.73a5.37,5.37,0,0,1,1.76-.36,5,5,0,0,0-3.45.11c-4.53,1.76-4,3.9-2.83,8.73,1,4.1,3.47,5.61,5.85,5.54C46.19,116.83,44.58,115.23,43.81,112.11Z"/><path class="cls-9" d="M62.89,101.44c-2.87-5.31.84-5.84,3.8-7.06a5.81,5.81,0,0,1,.63-.21,5.29,5.29,0,0,0-1.88.43c-3,1.22-6.67,1.75-3.8,7.06,1.75,3.25,4.77,4.16,7.12,3.45A6.35,6.35,0,0,1,62.89,101.44Z"/><path class="cls-9" d="M42.14,94c-.52-3,4-12.53,8.32-12.8a6.24,6.24,0,0,1,2.93.57A6.36,6.36,0,0,0,49,80.24c-4.31.27-8.84,9.82-8.32,12.79.42,2.4,1.54,3.72,3,4.19A5.91,5.91,0,0,1,42.14,94Z"/><path class="cls-9" d="M69.47,86.66c-2.66-4.67,1.09-4.77,5-6.59a9.22,9.22,0,0,1,3.41-1c-1.06-.47-2.68-.36-5,.73-3.86,1.82-7.61,1.92-5,6.59,1.82,3.2,2.88,4.94,4.8,4.58C71.62,90.38,70.73,88.87,69.47,86.66Z"/><path class="cls-9" d="M57.4,72.85c2.65-3.78,8.26-8.38,11.74-8.27-3.1-2-10.13,3.47-13.21,7.85-2.53,3.61.19,5.94,3.59,6.67C56.89,78.07,55.24,75.92,57.4,72.85Z"/><path class="cls-8" d="M120.15,53c-6.22-1.23-5.31,1.42-6.47,4.53-2,5.49,12.08,7,17.35,2.28S126.37,54.27,120.15,53Z"/><path class="cls-8" d="M144.85,61.3C141.27,60.76,136,62,137,65c1.67,5.13,9.86,5.44,13.93,2.69S148.43,61.83,144.85,61.3Z"/><path class="cls-8" d="M93.06,52.65c-5.48,1.93-3.17,7.07-.91,8.1,4,1.82,14.18-.93,14.72-6.65S98.53,50.72,93.06,52.65Z"/><path class="cls-9" d="M92.44,54.08c5.47-1.93,14.36-4.26,13.81,1.46a4.36,4.36,0,0,1-.16.8,5.09,5.09,0,0,0,.78-2.24c.55-5.71-8.34-3.38-13.81-1.45-2.13.75-3.07,2-3.31,3.27A5.4,5.4,0,0,1,92.44,54.08Z"/><path class="cls-9" d="M120.15,53c-3.25-.64-4.55-.22-5.22.77.82-.37,2.12-.42,4.29,0,6.08,1.21,15.67,2.08,11.18,6.5a4.91,4.91,0,0,0,.63-.47C136.31,55.14,126.37,54.27,120.15,53Z"/><path class="cls-9" d="M144.85,61.3c-2.3-.35-5.29.05-6.88,1.16a12.23,12.23,0,0,1,5.45-.46c3.59.53,10.14,3.65,6.07,6.4-.14.09-.31.15-.45.23a8.84,8.84,0,0,0,1.87-.94C155,65,148.43,61.83,144.85,61.3Z"/><path class="cls-7" d="M30.94,94.73s-5,18.78,8.4,31l39.71-18.07s-35.48,14.23-39,14.52S28.68,111.28,30.94,94.73Z"/><path class="cls-7" d="M118.53,132s4.47,4.13-9.61,8.54c-13.32,4.16-41.1,6.88-61.5-6.34a80.2,80.2,0,0,0,32.52,8.32C98.94,143.33,117.78,138.41,118.53,132Z"/><path class="cls-7" d="M164.28,73.55s7.22,4.74,2.49,20.1-23.65,37.15-40,37.76c0,0,15.46-2.77,28.54-19.53S170.41,80.16,164.28,73.55Z"/><ellipse class="cls-5" cx="95.32" cy="82.75" rx="72.28" ry="51.26" transform="matrix(0.92, -0.38, 0.38, 0.92, -24.3, 42.46)"/><path class="cls-6" d="M111.92,27.94c23.33,0,43,9.79,50.25,27.32,10.77,26.19-10.44,59.72-47.36,74.9a95.69,95.69,0,0,1-36.1,7.4c-23.33,0-43-9.79-50.25-27.33C17.7,84.05,38.9,50.52,75.82,35.34a95.5,95.5,0,0,1,36.1-7.4m0-2.42h0a98.43,98.43,0,0,0-37,7.58C36.81,48.77,15,83.78,26.23,111.15,33.54,128.93,53.65,140,78.71,140a98.51,98.51,0,0,0,37-7.58c38.09-15.66,59.93-50.67,48.67-78C157.09,36.57,137,25.52,111.93,25.52Z"/><path class="cls-7" d="M156.21,60.05c-.92-5.2-7.18-1.61-9.48,1.53-3.36,4.58,0,11.61,4,11.61S157.12,65.24,156.21,60.05Z"/><path class="cls-7" d="M144.29,78.69c-4.28,1.83-5.2,8-4,11s6.11,2.14,8.55-3.67S147.71,77.23,144.29,78.69Z"/><path class="cls-7" d="M132.68,69.22c-5.81,4-4.59,9.16-1.23,11s7-4,8-8.86S135.63,67.2,132.68,69.22Z"/><path class="cls-7" d="M133.59,93.05c-2.44-2.14-3.05-.3-5.19,4.89s4.28,7,7.64,3.67S135.86,95,133.59,93.05Z"/><path class="cls-7" d="M123.82,83.88c-4.59,1.53-4,6.73-1.83,9.54s5.8-1,6.41-5.26S127.31,82.72,123.82,83.88Z"/><path class="cls-7" d="M109.59,112.07c-6.64-5.13-13.88,1.21-12.67,6s4.52,4.53,10.56,1.81S111.79,113.77,109.59,112.07Z"/><path class="cls-7" d="M89.07,115.39c-5.13-1.81-8.75-.91-10.86,3s1.51,6.94,8.75,5.74S92.14,116.47,89.07,115.39Z"/><path class="cls-7" d="M85.6,104.68c-1.06-4.08-8.6-1.06-11.32,4.07s4.6,4.71,7.85,3.32A6,6,0,0,0,85.6,104.68Z"/><path class="cls-7" d="M61.31,116c-6.34,3.32-6,7.24-1.21,8.45s10.26,3,11.17-3.32S64,114.58,61.31,116Z"/><path class="cls-7" d="M40.69,94.82c-4.22,2.41-3.41,4.45-1.51,9.05,3.62,8.75,12.37,3.62,11.47-1.81S44.91,92.4,40.69,94.82Z"/><path class="cls-7" d="M47.93,81.54c3-6.94-2.41-10.86-6.64-10S34,82.6,35,85.46C37.37,92.71,44.91,88.48,47.93,81.54Z"/><path class="cls-7" d="M59.1,53.18C55.78,51.37,49.46,58,47,62.83c-3.32,6.64,7.54,7.55,10.86,4.23S62.42,55,59.1,53.18Z"/><path class="cls-7" d="M64.83,67.66c-3.55,2.37-7.24,3-3.92,7.24s4.52,5.74,8.45,1.51S73,62.23,64.83,67.66Z"/><path class="cls-7" d="M59.7,83.35C57,85,53.36,86.07,57,90.9s9.66,3,10.26-1.21S64.23,80.64,59.7,83.35Z"/><path class="cls-7" d="M109.24,33.11c-6.34-.3-5,2.18-5.74,5.43-1.2,5.74,13,5.13,17.51-.3S115.57,33.41,109.24,33.11Z"/><path class="cls-7" d="M134.89,37.64c-3.62,0-8.65,2-7.25,4.82,2.42,4.83,10.57,3.93,14.19.61S138.51,37.64,134.89,37.64Z"/><path class="cls-7" d="M82.38,36.73c-5.13,2.72-2.09,7.46.3,8.15,4.23,1.21,13.88-3,13.58-8.75S87.51,34,82.38,36.73Z"/><path class="cls-8" d="M154.4,60.32c-.91-5.13-7.08-1.59-9.35,1.51-3.32,4.52,0,11.46,3.92,11.46S155.3,65.45,154.4,60.32Z"/><path class="cls-8" d="M142.63,78.72c-4.22,1.82-5.13,7.85-3.92,10.87s6,2.11,8.45-3.62S146,77.28,142.63,78.72Z"/><path class="cls-8" d="M131.16,69.37c-5.73,3.92-4.52,9-1.2,10.86s6.94-3.92,7.84-8.75S134.08,67.38,131.16,69.37Z"/><path class="cls-8" d="M132.07,92.91c-2.41-2.12-3-.3-5.13,4.82s4.22,7,7.54,3.63S134.31,94.86,132.07,92.91Z"/><path class="cls-8" d="M122.41,83.85c-4.52,1.51-3.92,6.64-1.8,9.42s5.73-1,6.33-5.19S125.86,82.71,122.41,83.85Z"/><path class="cls-8" d="M109.74,110.41c2.2,1.7,3.92,5.13-2.11,7.84s-9.36,3-10.56-1.81S103.1,105.28,109.74,110.41Z"/><path class="cls-8" d="M89.22,113.73c3.07,1.08,5.13,7.54-2.11,8.75s-10.86-1.81-8.75-5.73S84.09,111.92,89.22,113.73Z"/><path class="cls-8" d="M61.46,114.33c2.69-1.41,10.86-1.21,10,5.13s-6.34,4.53-11.17,3.32S55.12,117.65,61.46,114.33Z"/><path class="cls-8" d="M82.28,110.41c-3.24,1.39-10.56,1.81-7.84-3.32S84.7,98.94,85.75,103A6,6,0,0,1,82.28,110.41Z"/><path class="cls-8" d="M42.15,95c-4.23,2.41-3.41,4.45-1.51,9,3.62,8.75,12.37,3.62,11.47-1.81S46.37,92.61,42.15,95Z"/><path class="cls-8" d="M49.39,81.74c3-6.94-2.41-10.86-6.64-10s-7.29,11-6.33,13.88C38.83,92.91,46.37,88.68,49.39,81.74Z"/><path class="cls-8" d="M60.56,53.38c-3.32-1.81-9.64,4.79-12.07,9.65-3.32,6.64,7.54,7.55,10.86,4.23S63.87,55.19,60.56,53.38Z"/><path class="cls-8" d="M66.29,67.86c-3.55,2.37-7.24,3-3.92,7.24s4.52,5.74,8.44,1.51S74.44,62.43,66.29,67.86Z"/><path class="cls-8" d="M61.16,83.55c-2.75,1.65-6.34,2.72-2.72,7.55s9.66,3,10.26-1.21S65.69,80.84,61.16,83.55Z"/><path class="cls-8" d="M82.58,46.14c-2.39-.69-5.43-5.44-.3-8.15s13.58-6.34,13.88-.6S86.81,47.34,82.58,46.14Z"/><path class="cls-9" d="M154.4,60.32c-.75-4.22-5.06-2.57-7.83-.13,2.47-1.38,5.14-1.61,5.72,1.64.65,3.69-.43,8.79-2.55,11.35C153.2,72.23,155.24,65.1,154.4,60.32Z"/><path class="cls-9" d="M132,68.87c2.39-.69,4.63-.12,4,3.37-.6,3.19-2.38,6.76-4.48,8.31,2.82-.27,5.53-5,6.29-9.07C138.63,67.1,134.89,67.3,132,68.87Z"/><path class="cls-9" d="M122.41,83.85a5.25,5.25,0,0,0-1.8,1.05c.11,0,.18-.1.3-.14,3.44-1.15,5.12,0,4.52,4.22a9.09,9.09,0,0,1-2.54,5.17c1.8-.49,3.63-3.17,4-6.07C127.54,83.85,125.86,82.71,122.41,83.85Z"/><path class="cls-9" d="M142.63,78.72c-.12.06-.21.14-.33.2,3-.47,5.61,2.43,3.45,7.55a9.2,9.2,0,0,1-3.91,4.71c1.82-.32,3.95-2,5.32-5.21C149.57,80.23,146,77.28,142.63,78.72Z"/><path class="cls-9" d="M132.07,92.91c-1-.87-1.67-1-2.28-.63a4.89,4.89,0,0,1,.87.63c2.24,2,5.74,5.13,2.42,8.45a5.71,5.71,0,0,1-3.33,1.61,5.67,5.67,0,0,0,4.73-1.61C137.8,98,134.31,94.86,132.07,92.91Z"/><path class="cls-9" d="M111,111.69c.18,1.53-.78,3.25-4.12,4.75-5,2.27-8.15,2.81-9.76.14,1.24,4.67,4.55,4.36,10.52,1.67C112.39,116.11,112.32,113.53,111,111.69Z"/><path class="cls-9" d="M87.41,120.82c-5.73,1-9.13-.75-9.29-3.44-1.39,3.6,2.15,6.24,9,5.1,3.72-.62,5-2.62,4.91-4.58C91.45,119.23,90.06,120.38,87.41,120.82Z"/><path class="cls-9" d="M76.35,107a12.16,12.16,0,0,1,7.35-5.81c-2.73-.45-7.28,2.16-9.26,5.91s1.5,4.56,4.77,4.12C76.68,111.13,74.73,110.05,76.35,107Z"/><path class="cls-8" d="M61.46,114.33c2.69-1.41,10.86-1.21,10,5.13s-6.34,4.53-11.17,3.32S55.12,117.65,61.46,114.33Z"/><path class="cls-9" d="M62.37,122.48c-4.83-1.21-5.13-5.13,1.2-8.45a5.74,5.74,0,0,1,1.07-.39,7.77,7.77,0,0,0-3.18.69c-6.34,3.32-6,7.24-1.21,8.45,2.94.73,6.09,1.68,8.32.89A29.88,29.88,0,0,1,62.37,122.48Z"/><path class="cls-9" d="M42.35,104.07c-1.9-4.6-2.72-6.64,1.51-9a5,5,0,0,1,1.68-.61,5,5,0,0,0-3.39.61c-4.23,2.41-3.41,4.45-1.51,9,1.62,3.91,4.25,5,6.6,4.62C45.4,108.39,43.58,107,42.35,104.07Z"/><path class="cls-9" d="M59.65,90.69c-3.62-4.82,0-5.89,2.72-7.54a5.46,5.46,0,0,1,.59-.3,5.49,5.49,0,0,0-1.8.7c-2.75,1.65-6.34,2.72-2.72,7.55,2.22,3,5.33,3.41,7.56,2.36A6.34,6.34,0,0,1,59.65,90.69Z"/><path class="cls-9" d="M38,86.37c-1-2.86,2.12-13,6.34-13.88a6.2,6.2,0,0,1,3,.13,6.42,6.42,0,0,0-4.6-.84c-4.22.91-7.29,11-6.33,13.88.77,2.32,2.06,3.45,3.57,3.71A5.94,5.94,0,0,1,38,86.37Z"/><path class="cls-9" d="M64,75.1c-3.32-4.22.37-4.87,3.92-7.24a9.26,9.26,0,0,1,3.23-1.46c-1.12-.31-2.71,0-4.84,1.46-3.55,2.37-7.24,3-3.92,7.24,2.28,2.9,3.57,4.47,5.42,3.83C66.65,78.47,65.55,77.11,64,75.1Z"/><path class="cls-9" d="M50,63.23c2.07-4.13,6.95-9.51,10.4-9.91C57,51.79,50.88,58.24,48.49,63c-2,3.94,1,5.85,4.53,6.07C50.26,68.47,48.32,66.59,50,63.23Z"/><path class="cls-8" d="M109.14,34.37c-6.34-.3-5,2.18-5.74,5.43-1.2,5.73,13,5.13,17.51-.3S115.47,34.67,109.14,34.37Z"/><path class="cls-8" d="M134.79,38.89c-3.63,0-8.66,2-7.25,4.83,2.42,4.83,10.56,3.92,14.19.61S138.41,38.89,134.79,38.89Z"/><path class="cls-8" d="M82.28,38c-5.13,2.71-2.09,7.46.3,8.15,4.23,1.2,13.88-3,13.58-8.75S87.41,35.27,82.28,38Z"/><path class="cls-9" d="M81.88,39.5c5.13-2.72,13.58-6.34,13.88-.61a5.7,5.7,0,0,1,0,.83,5.32,5.32,0,0,0,.44-2.33c-.3-5.74-8.75-2.12-13.88.6-2,1-2.74,2.41-2.79,3.72A5.46,5.46,0,0,1,81.88,39.5Z"/><path class="cls-9" d="M109.14,34.37c-3.32-.16-4.54.45-5.06,1.53.77-.49,2-.73,4.25-.63,6.19.3,15.81-.26,12,4.79.19-.19.39-.37.56-.56C125.43,34.07,115.47,34.67,109.14,34.37Z"/><path class="cls-9" d="M134.79,38.89c-2.33,0-5.22.83-6.63,2.17a12.31,12.31,0,0,1,5.32-1.26c3.62,0,10.56,2.11,6.94,5.43-.12.11-.28.19-.41.3a9.92,9.92,0,0,0,1.72-1.2C145.35,41,138.41,38.89,134.79,38.89Z"/><path class="cls-7" d="M27.06,88.78s-2.21,19.31,12.88,29.37L76.55,94.42s-33,19.31-36.41,20.11S27.26,105.48,27.06,88.78Z"/><path class="cls-7" d="M119.2,112.72s5,3.42-8.25,9.86c-12.56,6.09-39.63,12.87-61.76,2.82a80.15,80.15,0,0,0,33.39,3.42C101.49,126.8,119.4,119.16,119.2,112.72Z"/><path class="cls-7" d="M155.81,48.15s7.84,3.62,5.43,19.51-17.9,40.23-34,43.25c0,0,14.89-5,25.35-23.54S162.85,53.78,155.81,48.15Z"/><g class="cls-10"><path class="cls-11" d="M163.45,56.19c-4.83,41.44-31.78,55.32-36.21,54.72s-29-28-29-28,8.45-5.63,19.52-12.88,35.6-22.32,38-21.92,6.84,6,6.84,6a25.45,25.45,0,0,0-14.49-17.3c3.62,3,3.42,7.85-2.61,11.87s-48.68,32-48.68,32S83.19,59.82,77,50s-4.63-14.28-4.63-14.28L67.09,39.1s27,41,27.36,42.64-54.51,36.41-54.51,36.41C19,102.86,29.88,74.3,29.88,74.3c-16,21.13-4.82,38.52,1.76,45.89l-1.56.18,2.71,7.24,4,.6c2.34,1.34,7.39,4.16,15.37,8.15,11.46,5.73,71.21,7.54,99.27-25.05S163.45,56.19,163.45,56.19Zm-45.56,62.37c-3,3-20.82,12.67-46.47,11.46-21.6-1-24.37-5.67-24.7-7.11.44-2.45,2.21-5,4-7.1,4.26-2.62,9.6-6.1,14.7-9.93,10.87-8.15,31.69-21.32,31.69-21.32s10.26,12.57,17.5,21.62S120.91,115.54,117.89,118.56Z"/></g><path class="cls-12" d="M75.75,74.36c2.35,2.65,9.32,3.81,13.5-3S93.92,58,82.94,55.57s-12.17.61-12.84,5.36C69.38,66,72.42,70.61,75.75,74.36Z"/><path class="cls-13" d="M76.55,54.71a30.48,30.48,0,0,1,6.39.86c11,2.44,10.49,9,6.31,15.81-2.3,3.74-5.44,5.07-8.19,5.07a7.26,7.26,0,0,1-5.31-2.09C72.42,70.61,69.38,66,70.1,60.93c.51-3.6,1.31-6.22,6.45-6.22m0-2.41c-7.67,0-8.43,5.4-8.84,8.3C66.79,67,70.83,72.45,73.94,76a9.68,9.68,0,0,0,7.12,2.9c4.08,0,7.81-2.27,10.24-6.21,3-5,3.86-9.19,2.41-12.61s-4.85-5.62-10.24-6.82a32.57,32.57,0,0,0-6.92-.92Z"/><g class="cls-14"><path class="cls-15" d="M70,66.06s2.93,3.86,6.43,4.18c0,0-.39,4.08,3.62,4,0,0,2.06,2.13,4.84-.08s1.8-2.89,1.8-2.89-1,.4-2.32-1c0,0,3,.14,3.68-2.39,0,0,1.49.25,2.31-1.88a2.35,2.35,0,0,0-.9-3.06s-.58,2.09-1.7,2.2c0,0,2.27-3.58-1.38-5.63a7.63,7.63,0,0,0-4.77-4.83s10.08,3.7,11.06,5.47,1.56,6.17,1.12,7.11-3.7,9-5.51,10.81S84,79.87,81.53,79.77s-7.29-1.22-8.34-2S67.33,70.36,70,66.06Z"/></g><path class="cls-16" d="M85.22,60.66s2.06-3.29-2.42-4.29C82.8,56.37,85.26,58.39,85.22,60.66Z"/><path class="cls-16" d="M78.14,56.63s3,1.83,2.93,4.22C81.07,60.85,82.62,57.63,78.14,56.63Z"/><path class="cls-16" d="M76.09,58.11c-1-4.19-4.3-.46-4.3-.46A2.94,2.94,0,0,1,76.09,58.11Z"/><path class="cls-16" d="M83.39,62.94s2.09,2.38-.14,4.4C83.25,67.34,87.18,64.92,83.39,62.94Z"/><path class="cls-16" d="M87.22,65.53s3.46-2.82-1-4.4C86.27,61.13,88.66,63,87.22,65.53Z"/><path class="cls-16" d="M87.65,67.12c-.25,1.84-3.32,3.11-3.32,3.11C89.28,69.83,87.65,67.12,87.65,67.12Z"/><path class="cls-16" d="M82,70.88a4,4,0,0,1-3,2.75A2.32,2.32,0,0,0,82,70.88Z"/><path class="cls-16" d="M78.3,69.19c-1.19,1-3.39-1-3.39-1C75.6,71.18,78.3,69.19,78.3,69.19Z"/><path class="cls-12" d="M108.73,53c-3.17,1.57-6.11,8-.65,13.8s11.69,8,16.91-2,2.59-11.91-1.83-13.8C118.47,49,113.22,50.73,108.73,53Z"/><path class="cls-13" d="M118.67,50.13a11.3,11.3,0,0,1,4.49.88c4.42,1.89,7.05,3.84,1.83,13.8-2.59,5-5.43,6.9-8.3,6.9s-5.85-2-8.61-4.94c-5.46-5.8-2.52-12.23.65-13.8s6.55-2.84,9.94-2.84m0-2.42c-3.27,0-6.77,1-11,3.09a9.87,9.87,0,0,0-4.87,7.05,12.19,12.19,0,0,0,3.54,10.58c3.55,3.78,7,5.69,10.36,5.69,4.08,0,7.59-2.75,10.44-8.19s3.76-9.29,2.75-12.12-3.49-4-5.77-5a13.83,13.83,0,0,0-5.44-1.08Z"/><g class="cls-17"><path class="cls-15" d="M118.25,49.54s-4.49,1.82-5.71,5.12c0,0-3.84-1.44-4.78,2.46,0,0-2.59,1.43-1.18,4.69s2.32,2.49,2.32,2.49-.13-1,1.57-2c0,0-.9,2.82,1.35,4.18,0,0-.63,1.36,1.21,2.72a2.37,2.37,0,0,0,3.2-.08s-1.87-1.1-1.68-2.21c0,0,2.86,3.13,5.79.14a7.6,7.6,0,0,0,5.91-3.35S120,72.49,118.08,73s-6.36-.11-7.16-.77-7.71-5.92-9-8.14-.68-4.55.07-6.93,3.08-6.73,4.15-7.52S114.79,45.88,118.25,49.54Z"/></g><path class="cls-16" d="M119.48,65.69s2.64,2.84,4.78-1.22C124.26,64.47,121.67,66.31,119.48,65.69Z"/><path class="cls-16" d="M125.22,59.9s-2.55,2.42-4.84,1.73C120.38,61.63,123.08,64,125.22,59.9Z"/><path class="cls-16" d="M124.33,57.53c4.31.11,1.57-4,1.57-4A2.94,2.94,0,0,1,124.33,57.53Z"/><path class="cls-16" d="M117.76,63.32s-2.84,1.4-4.21-1.28C113.55,62,114.86,66.47,117.76,63.32Z"/><path class="cls-16" d="M114.26,66.34s1.82,4.08,4.5.24C118.76,66.58,116.32,68.39,114.26,66.34Z"/><path class="cls-16" d="M112.61,66.35c-1.71-.73-2.14-4-2.14-4C109.57,67.21,112.61,66.35,112.61,66.35Z"/><path class="cls-16" d="M110.47,59.86a4,4,0,0,1-1.89-3.57A2.33,2.33,0,0,0,110.47,59.86Z"/><path class="cls-16" d="M113.05,56.78c-.7-1.42,1.86-3,1.86-3C111.84,53.65,113.05,56.78,113.05,56.78Z"/><path class="cls-12" d="M86.69,61.54c.5,3.83,6.09,9.15,14,5.58s12.41-9.22,4-18.15-11.37-6.91-14.89-3C86.07,50.07,86,56.11,86.69,61.54Z"/><path class="cls-13" d="M95.15,42.64c2.27,0,5.17,1.69,9.55,6.33,8.43,8.93,4,14.57-4,18.15a12.5,12.5,0,0,1-5.13,1.18c-5.14,0-8.51-3.82-8.9-6.76-.71-5.43-.62-11.47,3.12-15.6,1.69-1.86,3.25-3.3,5.34-3.3m0-2.41c-3.15,0-5.33,2.11-7.13,4.09-4.71,5.2-4.38,12.49-3.72,17.53.56,4.26,5,8.86,11.29,8.86a15,15,0,0,0,6.12-1.39c5.71-2.58,9-5.86,9.77-9.76s-.94-7.92-5-12.25c-4.62-4.9-8.11-7.08-11.31-7.08Z"/><g class="cls-18"><path class="cls-15" d="M86.54,50.49s.29,5.29,3.26,7.72c0,0-2.86,3.45.83,5.8,0,0,.56,3.19,4.42,2.89s3.4-1.5,3.4-1.5-1.12-.24-1.47-2.33c0,0,2.59,1.94,4.79.1,0,0,1.18,1.13,3.24-.29a2.59,2.59,0,0,0,1.06-3.33s-1.8,1.54-2.88,1c0,0,4.24-1.85,2.2-5.94A8.34,8.34,0,0,0,104,47.28s6.84,9.53,6.64,11.72-2.38,6.54-3.34,7.12S98.48,72,95.74,72.51s-4.95-.92-7.13-2.54-5.85-5.57-6.29-7S81.53,52.77,86.54,50.49Z"/></g><path class="cls-16" d="M103.65,55s3.87-1.72.44-5.37C104.09,49.6,105.07,52.93,103.65,55Z"/><path class="cls-16" d="M99.72,47s1.59,3.5.06,5.61C99.78,52.59,103.15,50.63,99.72,47Z"/><path class="cls-16" d="M97,47.06c1.65-4.4-3.6-3.05-3.6-3.05A3.2,3.2,0,0,1,97,47.06Z"/><path class="cls-16" d="M100.59,55.9s.44,3.43-2.82,3.89C97.77,59.79,102.81,60,100.59,55.9Z"/><path class="cls-16" d="M102.46,60.59s4.86-.43,1.85-4.56C104.31,56,105.32,59.19,102.46,60.59Z"/><path class="cls-16" d="M101.89,62.29c-1.36,1.51-4.91.78-4.91.78C101.7,65.73,101.89,62.29,101.89,62.29Z"/><path class="cls-16" d="M94.43,62.2a4.36,4.36,0,0,1-4.36.67A2.55,2.55,0,0,0,94.43,62.2Z"/><path class="cls-16" d="M92.17,58.43c-1.72.22-2.45-3-2.45-3C88.5,58.57,92.17,58.43,92.17,58.43Z"/><circle class="cls-19" cx="107.74" cy="84.56" r="10.66"/><path class="cls-20" d="M107.74,73.9A10.66,10.66,0,1,1,97.07,84.56,10.66,10.66,0,0,1,107.74,73.9m0-2.42a13.08,13.08,0,1,0,13.07,13.08,13.1,13.1,0,0,0-13.07-13.08Z"/><path class="cls-21" d="M109.75,92a10.63,10.63,0,0,1-9.91-14.55,10.64,10.64,0,1,0,17.8,11A10.57,10.57,0,0,1,109.75,92Z"/><path class="cls-21" d="M109.75,78.12c2.2-.47,6.23,3.22,3.22,4.23S106.93,78.72,109.75,78.12Z"/><path class="cls-22" d="M113.77,85.36c-1.46-.13-3.62,1-1.61,2.42S116,85.56,113.77,85.36Z"/><path class="cls-22" d="M107.13,86.77c-1.17-.33-2,1-.6,1.81S108.54,87.17,107.13,86.77Z"/><path class="cls-22" d="M110.55,75.51s-5.63-1-9.25,3a1.74,1.74,0,0,0-.2,2.42C102.1,82.35,104.52,75.71,110.55,75.51Z"/><path class="cls-22" d="M98.89,82.55c-.57.45-1.61,2.41-.21,3S99.89,81.74,98.89,82.55Z"/><circle class="cls-19" cx="88.63" cy="83.15" r="10.66"/><path class="cls-20" d="M88.62,72.49a10.79,10.79,0,0,1,2.56.31,10.66,10.66,0,0,1-2.55,21,10.79,10.79,0,0,1-2.56-.31,10.66,10.66,0,0,1,2.55-21m0-2.42h0a13.08,13.08,0,0,0-3.13,25.78,13.35,13.35,0,0,0,3.14.38,13.07,13.07,0,0,0,3.13-25.77,12.86,12.86,0,0,0-3.14-.39Z"/><path class="cls-21" d="M96.33,83a10.61,10.61,0,0,1-16.5,6.13,10.64,10.64,0,1,0,15-14.64A10.57,10.57,0,0,1,96.33,83Z"/><path class="cls-21" d="M82.86,79.65c.07-2.24,4.62-5.28,4.87-2.11S82.77,82.53,82.86,79.65Z"/><path class="cls-22" d="M90.85,77.48c-.48,1.39.11,3.76,2,2.14S91.58,75.38,90.85,77.48Z"/><path class="cls-22" d="M90.63,84.27c-.61,1.06.49,2.19,1.61,1S91.36,83,90.63,84.27Z"/><path class="cls-22" d="M80.51,78.25s-2.32,5.22.71,9.7a1.74,1.74,0,0,0,2.3.78C85.13,88.09,79.26,84.15,80.51,78.25Z"/><path class="cls-22" d="M84.55,91.26c.31.66,2,2.14,2.88.92S84,90.09,84.55,91.26Z"/><circle class="cls-19" cx="101.11" cy="70.37" r="10.66"/><path class="cls-20" d="M101.1,59.7a10.32,10.32,0,0,1,2.56.32,10.66,10.66,0,0,1-2.55,21,10.79,10.79,0,0,1-2.56-.31,10.67,10.67,0,0,1,2.55-21m0-2.41h0A13.08,13.08,0,0,0,98,83.06a12.85,12.85,0,0,0,3.14.38,13.08,13.08,0,0,0,3.13-25.77,13.35,13.35,0,0,0-3.14-.38Z"/><path class="cls-21" d="M108.81,70.2a10.63,10.63,0,0,1-16.5,6.13,10.64,10.64,0,1,0,15-14.65A10.6,10.6,0,0,1,108.81,70.2Z"/><path class="cls-21" d="M95.34,66.87c.07-2.25,4.62-5.28,4.87-2.11S95.25,69.75,95.34,66.87Z"/><path class="cls-22" d="M103.33,64.7c-.47,1.38.11,3.76,2,2.14S104.06,62.6,103.33,64.7Z"/><path class="cls-22" d="M103.11,71.48c-.61,1.06.49,2.2,1.61,1S103.84,70.21,103.11,71.48Z"/><path class="cls-22" d="M93,65.46s-2.32,5.23.71,9.71a1.74,1.74,0,0,0,2.3.77C97.61,75.3,91.74,71.37,93,65.46Z"/><path class="cls-22" d="M97,78.48c.31.66,2,2.14,2.88.92S96.49,77.31,97,78.48Z"/><path class="cls-23" d="M85.36,98c-1.86-1.55-8.14-5-11.79-5.7s-6.07,2.44-8.63,6.37-5.23,7.61-4.33,10.62,6.4,5,11.28,6.36c5.68,1.56,7.24,2,9.06-.71S88.58,100.66,85.36,98Z"/><path class="cls-24" d="M72.58,92.17a5.69,5.69,0,0,1,1,.09c3.65.69,9.93,4.15,11.79,5.7,3.22,2.7-2.58,14.22-4.41,16.94a3.52,3.52,0,0,1-3.21,2,26,26,0,0,1-5.85-1.25c-4.88-1.33-10.38-3.34-11.28-6.36s1.77-6.68,4.33-10.62c2.32-3.57,4.53-6.46,7.64-6.46m0-1.81c-4.08,0-6.76,3.6-9.16,7.29l-.62.95c-2.57,3.91-5,7.6-3.92,11.17.93,3.13,4.8,5.47,12.54,7.59a26.84,26.84,0,0,0,6.32,1.31,5.28,5.28,0,0,0,4.72-2.77c.1-.14,9.24-15,4.06-19.33-2-1.68-8.58-5.33-12.61-6.09a7.56,7.56,0,0,0-1.33-.12Z"/><g class="cls-25"><path class="cls-26" d="M73.57,92.26s-2.88.08-6.2,4.79-6.89,10-4.43,11.89,13,6.88,15.64,5.38l.29,3.4s-15.24-3.24-18.44-7-1.77-5.57-.48-8.08S62,86.19,73.57,92.26Z"/></g><g class="cls-25"><path class="cls-27" d="M83.41,95.6s-4.42,7.52-2.68,14c0,0,2.07,3.07-2.77,4.94l.25,4.27s4.91-.75,7.42-10.18,2.16-10.67,1.23-11.07S86.21,94.17,83.41,95.6Z"/></g><path class="cls-26" d="M72.54,94.17c-1.08.18-3.9,2.6-3.07,4.11S74.48,93.85,72.54,94.17Z"/><path class="cls-26" d="M66.9,101.6c-1.55.33-3.41,3-2.58,4.48S68.7,101.23,66.9,101.6Z"/><path class="cls-23" d="M87.89,97.79c2.38-.45,9.55-.4,13.07.78s4.11,5.09,4.42,9.78.84,9.19-1.41,11.38-8,1.26-13,0c-5.72-1.42-7.3-1.79-7.56-5S83.76,98.56,87.89,97.79Z"/><path class="cls-24" d="M92,97.53a32.38,32.38,0,0,1,8.94,1c3.51,1.18,4.11,5.09,4.42,9.78s.84,9.19-1.41,11.38c-1,1-2.65,1.32-4.62,1.32A37.24,37.24,0,0,1,91,119.77c-5.72-1.42-7.3-1.79-7.56-5s.3-16.16,4.43-16.93A26,26,0,0,1,92,97.53m0-1.81h0a26.63,26.63,0,0,0-4.46.29c-6.64,1.25-5.92,18.68-5.9,18.85.36,4.54,3,5.2,8.81,6.64a38.38,38.38,0,0,0,8.88,1.36c2.69,0,4.61-.6,5.88-1.83,2.68-2.6,2.36-7,2-11.67l-.08-1.13c-.26-3.86-.65-9.69-5.66-11.38-3.13-1-8.07-1.13-9.51-1.13Z"/><g class="cls-28"><path class="cls-26" d="M101,98.57s2.47,1.48,3.08,7.21,1.14,12-1.94,12.53-14.95-.25-16.5-2.85l-1.7,2.74s14.89,4.62,19.52,2.88,4.27-4,4.37-6.81S114.07,99,101,98.57Z"/></g><g class="cls-28"><path class="cls-27" d="M96.24,97.26s-8.07-.64-9.5,1.95c0,0-4.17,15.29-.21,17L84,119.42s-3.92-3-1.5-12.5S85.8,96.56,86.8,96.66,94.5,94.65,96.24,97.26Z"/></g><path class="cls-26" d="M100.93,100.74c.85.68,2.13,4.17.67,5.08S99.39,99.52,100.93,100.74Z"/><path class="cls-26" d="M102.22,110c1.19,1,1.52,4.26.06,5.17S100.83,108.77,102.22,110Z"/><path class="cls-29" d="M100.08,181.33C48,181.33,5.35,154.62,2.48,121c-.1,1.19-.16,2.4-.16,3.62,0,35.33,43.77,64,97.76,64s97.77-28.64,97.77-64c0-1.22-.06-2.43-.16-3.62C194.81,154.62,152.22,181.33,100.08,181.33Z"/></svg>