<svg xmlns="http://www.w3.org/2000/svg" xmlns:xlink="http://www.w3.org/1999/xlink" viewBox="0 0 200 200"><defs><style>.cls-1{fill:url(#linear-gradient);}.cls-2{isolation:isolate;}.cls-3{fill:#fff;}.cls-4{fill:#eeb184;}.cls-5{fill:#ede1d0;}.cls-40,.cls-41,.cls-42,.cls-43,.cls-47,.cls-48,.cls-49,.cls-50,.cls-51,.cls-59,.cls-6,.cls-60{opacity:0.2;}.cls-15,.cls-16,.cls-19,.cls-21,.cls-40,.cls-41,.cls-42,.cls-43,.cls-45,.cls-47,.cls-48,.cls-49,.cls-50,.cls-51,.cls-52,.cls-59,.cls-6,.cls-60,.cls-88,.cls-9{mix-blend-mode:multiply;}.cls-6{fill:url(#radial-gradient);}.cls-7{fill:#0d0b0b;}.cls-8{fill:#1e1917;}.cls-9{fill:#8f8c89;}.cls-15,.cls-36,.cls-53,.cls-54,.cls-55,.cls-56,.cls-57,.cls-58,.cls-71,.cls-88,.cls-9{opacity:0.5;}.cls-10{fill:#d0c2ad;}.cls-11{fill:#f8c79c;}.cls-12,.cls-13,.cls-45,.cls-52{opacity:0.4;}.cls-12,.cls-13,.cls-29,.cls-31,.cls-32,.cls-53,.cls-54,.cls-55,.cls-56,.cls-57,.cls-58,.cls-61,.cls-62,.cls-63,.cls-64,.cls-65,.cls-66,.cls-67,.cls-68,.cls-69,.cls-70,.cls-71,.cls-74,.cls-75,.cls-76,.cls-77,.cls-78,.cls-80,.cls-83,.cls-84,.cls-85,.cls-86,.cls-87,.cls-91,.cls-92,.cls-93,.cls-94,.cls-95,.cls-96{mix-blend-mode:screen;}.cls-12{fill:url(#linear-gradient-2);}.cls-13{fill:url(#linear-gradient-3);}.cls-14{fill:#c22926;}.cls-15,.cls-19{fill:#d4ab93;}.cls-16{fill:#ae5523;}.cls-16,.cls-21{opacity:0.35;}.cls-17{fill:#f9d4b3;}.cls-18{fill:#a58e8f;}.cls-19{opacity:0.6;}.cls-20{fill:#f4b686;}.cls-22{fill:#bf6c40;}.cls-23{fill:#8a3734;}.cls-24{fill:#fff7ef;}.cls-25{fill:#e5d7c3;}.cls-26{fill:#332a25;}.cls-27{fill:#f5e9da;}.cls-28{fill:#fff6ea;}.cls-29{fill:url(#radial-gradient-2);}.cls-30{fill:#ab1e24;}.cls-31{fill:url(#linear-gradient-4);}.cls-32{fill:url(#linear-gradient-5);}.cls-33{fill:#d5312d;}.cls-34{fill:#ad814f;}.cls-35{clip-path:url(#clip-path);}.cls-36{mix-blend-mode:overlay;}.cls-37{fill:#bfa191;}.cls-38{fill:#fbe8c4;}.cls-39{fill:#fae1b4;opacity:0.75;}.cls-40{fill:url(#radial-gradient-3);}.cls-41{fill:url(#radial-gradient-4);}.cls-42{fill:url(#radial-gradient-5);}.cls-43{fill:url(#radial-gradient-6);}.cls-44{fill:url(#linear-gradient-7);}.cls-45{fill:url(#linear-gradient-8);}.cls-46{fill:url(#linear-gradient-9);}.cls-47{fill:url(#linear-gradient-10);}.cls-48{fill:url(#linear-gradient-11);}.cls-49{fill:url(#linear-gradient-12);}.cls-50{fill:url(#linear-gradient-13);}.cls-51{fill:url(#linear-gradient-14);}.cls-52{fill:url(#linear-gradient-15);}.cls-53{fill:url(#linear-gradient-16);}.cls-54{fill:url(#linear-gradient-17);}.cls-55{fill:url(#linear-gradient-18);}.cls-56{fill:url(#linear-gradient-19);}.cls-57{fill:url(#linear-gradient-20);}.cls-58{fill:url(#linear-gradient-21);}.cls-59{fill:url(#linear-gradient-22);}.cls-60{fill:url(#linear-gradient-23);}.cls-61{fill:url(#linear-gradient-24);}.cls-62{fill:url(#linear-gradient-25);}.cls-63{fill:url(#linear-gradient-26);}.cls-64{fill:url(#linear-gradient-27);}.cls-65{fill:url(#linear-gradient-28);}.cls-66{fill:url(#linear-gradient-29);}.cls-67{fill:url(#linear-gradient-30);}.cls-68{fill:url(#linear-gradient-31);}.cls-69{fill:url(#linear-gradient-32);}.cls-70{fill:url(#linear-gradient-33);}.cls-71{fill:url(#linear-gradient-34);}.cls-72{fill:#ddd0bc;}.cls-73{fill:url(#linear-gradient-35);}.cls-74{fill:url(#linear-gradient-36);}.cls-75{fill:url(#linear-gradient-37);}.cls-76{fill:url(#linear-gradient-38);}.cls-77{fill:url(#linear-gradient-39);}.cls-78{fill:url(#linear-gradient-40);}.cls-79{fill:url(#linear-gradient-41);}.cls-81{fill:url(#linear-gradient-42);}.cls-82{fill:url(#linear-gradient-43);}.cls-83{fill:url(#linear-gradient-44);}.cls-84{fill:url(#linear-gradient-45);}.cls-85{fill:url(#linear-gradient-46);}.cls-86{fill:url(#linear-gradient-47);}.cls-87{fill:url(#linear-gradient-48);}.cls-88{fill:url(#linear-gradient-49);}.cls-89{fill:url(#linear-gradient-50);}.cls-90{fill:url(#linear-gradient-51);}.cls-91{fill:url(#linear-gradient-52);}.cls-92{fill:url(#linear-gradient-53);}.cls-93{fill:url(#linear-gradient-54);}.cls-94{fill:url(#linear-gradient-55);}.cls-95{fill:url(#linear-gradient-56);}.cls-96{fill:url(#linear-gradient-57);}</style><linearGradient id="linear-gradient" x1="372.07" y1="136.22" x2="352.51" y2="95.24" gradientTransform="matrix(-1, -0.08, -0.08, 1, 515.69, 24.01)" gradientUnits="userSpaceOnUse"><stop offset="0" stop-color="#e5be76"/><stop offset="0.24" stop-color="#e2b970"/><stop offset="0.56" stop-color="#daab5e"/><stop offset="0.93" stop-color="#cd9541"/><stop offset="1" stop-color="#ca903b"/></linearGradient><radialGradient id="radial-gradient" cx="-1505.95" cy="47849.29" r="50.92" gradientTransform="matrix(-1.04, 0, 0, 0.15, -1480.57, -6893.53)" gradientUnits="userSpaceOnUse"><stop offset="0" stop-color="#040000"/><stop offset="0.01" stop-color="#090505"/><stop offset="0.26" stop-color="#5f5d5d"/><stop offset="0.48" stop-color="#a4a2a2"/><stop offset="0.66" stop-color="#d5d4d4"/><stop offset="0.79" stop-color="#f4f3f3"/><stop offset="0.87" stop-color="#fff"/></radialGradient><linearGradient id="linear-gradient-2" x1="1195.2" y1="184.51" x2="1195.2" y2="197.15" gradientTransform="translate(-1097.24)" gradientUnits="userSpaceOnUse"><stop offset="0" stop-color="#040000"/><stop offset="1" stop-color="#828074"/></linearGradient><linearGradient id="linear-gradient-3" x1="1173.36" y1="184.51" x2="1173.36" y2="197.15" xlink:href="#linear-gradient-2"/><radialGradient id="radial-gradient-2" cx="1183.41" cy="153.24" r="19.83" gradientTransform="translate(-1097.24)" gradientUnits="userSpaceOnUse"><stop offset="0" stop-color="#e62c26"/><stop offset="1" stop-color="#040000"/></radialGradient><linearGradient id="linear-gradient-4" x1="1193.15" y1="122.59" x2="1206.15" y2="135.01" gradientTransform="translate(-1097.24)" gradientUnits="userSpaceOnUse"><stop offset="0" stop-color="#040000"/><stop offset="1" stop-color="#e62c26"/></linearGradient><linearGradient id="linear-gradient-5" x1="1182.35" y1="122.45" x2="1165.9" y2="134.47" xlink:href="#linear-gradient-4"/><clipPath id="clip-path"><path class="cls-1" d="M113.66,111.18l14.92,17a4.46,4.46,0,0,0,4.39.94l41.81-13.56c1.52-.49,2-1.73,1.15-2.74L161,95.81a4.49,4.49,0,0,0-4.39-.94l-41.81,13.57C113.29,108.93,112.77,110.16,113.66,111.18ZM130,125.54c.05-.61.87-1.05,1.83-1s1.7.63,1.65,1.24-.86,1-1.82,1S129.93,126.15,130,125.54Z"/></clipPath><radialGradient id="radial-gradient-3" cx="-769.65" cy="44940.19" r="20.89" gradientTransform="translate(787.24 -3523.21) scale(0.84 0.08)" gradientUnits="userSpaceOnUse"><stop offset="0" stop-color="#040000"/><stop offset="0.13" stop-color="#3d3a3a"/><stop offset="0.28" stop-color="#757272"/><stop offset="0.42" stop-color="#a3a2a2"/><stop offset="0.55" stop-color="#c7c6c6"/><stop offset="0.67" stop-color="#e1e1e1"/><stop offset="0.78" stop-color="#f1f0f0"/><stop offset="0.87" stop-color="#f6f6f6"/></radialGradient><radialGradient id="radial-gradient-4" cx="-778.7" cy="55068.38" r="20.89" gradientTransform="translate(1013.49 -17275.7) scale(1.12 0.32)" gradientUnits="userSpaceOnUse"><stop offset="0" stop-color="#040000"/><stop offset="0.1" stop-color="#171313"/><stop offset="0.29" stop-color="#484545"/><stop offset="0.57" stop-color="#989696"/><stop offset="0.87" stop-color="#f6f6f6"/></radialGradient><radialGradient id="radial-gradient-5" cx="-751.22" cy="44888.4" r="20.89" xlink:href="#radial-gradient-3"/><radialGradient id="radial-gradient-6" cx="-781.58" cy="43372.79" r="20.89" gradientTransform="translate(787.24 -5682.02) scale(0.84 0.13)" xlink:href="#radial-gradient-3"/><linearGradient id="linear-gradient-7" x1="359.45" y1="101.69" x2="368.9" y2="106.34" gradientTransform="matrix(-1, 0, 0, 1, 493.49, 0)" gradientUnits="userSpaceOnUse"><stop offset="0" stop-color="#569235"/><stop offset="1" stop-color="#72a937"/></linearGradient><linearGradient id="linear-gradient-8" x1="362.51" y1="112.24" x2="358.3" y2="98.67" gradientTransform="matrix(-1, 0, 0, 1, 493.49, 0)" gradientUnits="userSpaceOnUse"><stop offset="0" stop-color="#040000"/><stop offset="1" stop-color="#8cb63d"/></linearGradient><linearGradient id="linear-gradient-9" x1="344.83" y1="100.91" x2="351.78" y2="81.09" gradientTransform="matrix(-1, 0, 0, 1, 493.49, 0)" gradientUnits="userSpaceOnUse"><stop offset="0" stop-color="#6e9d35"/><stop offset="1" stop-color="#8cb63d"/></linearGradient><linearGradient id="linear-gradient-10" x1="349.62" y1="86.07" x2="350.1" y2="82.77" xlink:href="#linear-gradient-8"/><linearGradient id="linear-gradient-11" x1="355.84" y1="91.91" x2="356.96" y2="84.26" xlink:href="#linear-gradient-8"/><linearGradient id="linear-gradient-12" x1="349.54" y1="93.38" x2="350.38" y2="87.59" xlink:href="#linear-gradient-8"/><linearGradient id="linear-gradient-13" x1="340.92" y1="94.85" x2="341.6" y2="90.16" xlink:href="#linear-gradient-8"/><linearGradient id="linear-gradient-14" x1="352.67" y1="95.79" x2="353.1" y2="92.83" xlink:href="#linear-gradient-8"/><linearGradient id="linear-gradient-15" x1="345.39" y1="102.08" x2="343.53" y2="94.98" xlink:href="#linear-gradient-8"/><linearGradient id="linear-gradient-16" x1="349.15" y1="95.54" x2="347.79" y2="77.91" xlink:href="#linear-gradient-8"/><linearGradient id="linear-gradient-17" x1="340.57" y1="96.28" x2="336.84" y2="87.46" xlink:href="#linear-gradient-8"/><linearGradient id="linear-gradient-18" x1="347.9" y1="101.89" x2="350.82" y2="81.9" xlink:href="#linear-gradient-8"/><linearGradient id="linear-gradient-19" x1="352.81" y1="100.14" x2="354.73" y2="89.22" xlink:href="#linear-gradient-8"/><linearGradient id="linear-gradient-20" x1="341.62" y1="99.55" x2="340.76" y2="93.53" xlink:href="#linear-gradient-8"/><linearGradient id="linear-gradient-21" x1="349.01" y1="103.96" x2="353.31" y2="92.7" xlink:href="#linear-gradient-8"/><linearGradient id="linear-gradient-22" x1="341.73" y1="90.3" x2="342.77" y2="83.21" xlink:href="#linear-gradient-8"/><linearGradient id="linear-gradient-23" x1="335.92" y1="98.59" x2="336.7" y2="93.24" xlink:href="#linear-gradient-8"/><linearGradient id="linear-gradient-24" x1="341.44" y1="86.48" x2="344.43" y2="78.67" xlink:href="#linear-gradient-8"/><linearGradient id="linear-gradient-25" x1="343" y1="93.34" x2="347.19" y2="82.38" xlink:href="#linear-gradient-8"/><linearGradient id="linear-gradient-26" x1="332.05" y1="97.71" x2="336.09" y2="87.13" xlink:href="#linear-gradient-8"/><linearGradient id="linear-gradient-27" x1="336.39" y1="92.38" x2="341.04" y2="80.21" xlink:href="#linear-gradient-8"/><linearGradient id="linear-gradient-28" x1="350.06" y1="85.1" x2="352.83" y2="77.86" xlink:href="#linear-gradient-8"/><linearGradient id="linear-gradient-29" x1="347.91" y1="93.73" x2="351.92" y2="83.24" xlink:href="#linear-gradient-8"/><linearGradient id="linear-gradient-30" x1="350.88" y1="96.99" x2="354.35" y2="87.92" xlink:href="#linear-gradient-8"/><linearGradient id="linear-gradient-31" x1="341.41" y1="99.15" x2="344.28" y2="91.66" xlink:href="#linear-gradient-8"/><linearGradient id="linear-gradient-32" x1="339.93" y1="94.74" x2="342.89" y2="86.97" xlink:href="#linear-gradient-8"/><linearGradient id="linear-gradient-33" x1="347.55" y1="100.62" x2="350.79" y2="92.14" xlink:href="#linear-gradient-8"/><linearGradient id="linear-gradient-34" x1="366.72" y1="106.53" x2="364.58" y2="99.65" xlink:href="#linear-gradient-8"/><linearGradient id="linear-gradient-35" x1="323.47" y1="103.16" x2="380.17" y2="103.16" gradientTransform="matrix(-1, 0, 0, 1, 493.49, 0)" gradientUnits="userSpaceOnUse"><stop offset="0" stop-color="#edf1b5"/><stop offset="0.16" stop-color="#72b24c"/><stop offset="1" stop-color="#2b883a"/></linearGradient><linearGradient id="linear-gradient-36" x1="329.74" y1="103.33" x2="327.89" y2="93.2" xlink:href="#linear-gradient-8"/><linearGradient id="linear-gradient-37" x1="327.88" y1="100.04" x2="325.41" y2="93.7" gradientTransform="matrix(-1, 0, 0, 1, 493.49, 0)" gradientUnits="userSpaceOnUse"><stop offset="0" stop-color="#040000"/><stop offset="1" stop-color="#b4d471"/></linearGradient><linearGradient id="linear-gradient-38" x1="370.97" y1="95.57" x2="368.52" y2="110.07" gradientTransform="matrix(-1, 0, 0, 1, 493.49, 0)" gradientUnits="userSpaceOnUse"><stop offset="0" stop-color="#72b24c"/><stop offset="1" stop-color="#040000"/></linearGradient><linearGradient id="linear-gradient-39" x1="373.4" y1="96.14" x2="370.79" y2="111.56" xlink:href="#linear-gradient-38"/><linearGradient id="linear-gradient-40" x1="371.88" y1="104.8" x2="370.74" y2="111.55" xlink:href="#linear-gradient-38"/><linearGradient id="linear-gradient-41" x1="342.45" y1="96.12" x2="338.52" y2="118.46" gradientTransform="matrix(-1, 0, 0, 1, 493.49, 0)" gradientUnits="userSpaceOnUse"><stop offset="0" stop-color="#754586"/><stop offset="1" stop-color="#56246e"/></linearGradient><linearGradient id="linear-gradient-42" x1="344.84" y1="92.73" x2="340.09" y2="118.58" gradientTransform="matrix(-1, 0, 0, 1, 493.49, 0)" gradientUnits="userSpaceOnUse"><stop offset="0" stop-color="#754586"/><stop offset="1" stop-color="#040000"/></linearGradient><linearGradient id="linear-gradient-43" x1="320.81" y1="103.93" x2="326.21" y2="107.83" gradientTransform="matrix(-1, 0, 0, 1, 493.49, 0)" gradientUnits="userSpaceOnUse"><stop offset="0" stop-color="#72b24c"/><stop offset="1" stop-color="#2b883a"/></linearGradient><linearGradient id="linear-gradient-44" x1="326.03" y1="101.74" x2="322.14" y2="104.51" xlink:href="#linear-gradient-38"/><linearGradient id="linear-gradient-45" x1="327.91" y1="104.68" x2="322.03" y2="105.19" xlink:href="#linear-gradient-38"/><linearGradient id="linear-gradient-46" x1="325.73" y1="108.94" x2="322.41" y2="105.47" xlink:href="#linear-gradient-38"/><linearGradient id="linear-gradient-47" x1="322.3" y1="111.57" x2="321.54" y2="105.18" xlink:href="#linear-gradient-38"/><linearGradient id="linear-gradient-48" x1="319.69" y1="102.94" x2="321.65" y2="104.27" xlink:href="#linear-gradient-38"/><linearGradient id="linear-gradient-49" x1="336.84" y1="112.72" x2="349.13" y2="112.87" xlink:href="#linear-gradient-41"/><linearGradient id="linear-gradient-50" x1="353.9" y1="107.39" x2="352.96" y2="121.22" gradientTransform="matrix(-1, 0, 0, 1, 493.49, 0)" gradientUnits="userSpaceOnUse"><stop offset="0" stop-color="#d02c29"/><stop offset="1" stop-color="#af1e23"/></linearGradient><linearGradient id="linear-gradient-51" x1="354.6" y1="103.38" x2="353.95" y2="110.14" xlink:href="#linear-gradient-43"/><linearGradient id="linear-gradient-52" x1="354.04" y1="105.16" x2="353.66" y2="117.9" gradientTransform="matrix(-1, 0, 0, 1, 493.49, 0)" gradientUnits="userSpaceOnUse"><stop offset="0" stop-color="#e9614f"/><stop offset="1" stop-color="#040000"/></linearGradient><linearGradient id="linear-gradient-53" x1="354.67" y1="102.25" x2="353.62" y2="107.58" xlink:href="#linear-gradient-38"/><linearGradient id="linear-gradient-54" x1="355.65" y1="105.1" x2="354.89" y2="108.94" xlink:href="#linear-gradient-38"/><linearGradient id="linear-gradient-55" x1="356.58" y1="106.65" x2="356.15" y2="108.81" xlink:href="#linear-gradient-38"/><linearGradient id="linear-gradient-56" x1="353.61" y1="104.48" x2="352.87" y2="108.24" xlink:href="#linear-gradient-38"/><linearGradient id="linear-gradient-57" x1="352.39" y1="106.02" x2="352.07" y2="107.61" xlink:href="#linear-gradient-38"/></defs><title>食物矿</title><g class="cls-2"><g id="图层_1" data-name="图层 1"><rect class="cls-3" x="0.5" y="0.5" width="199" height="199"/><path d="M199,1V199H1V1H199m1-1H0V200H200V0Z"/><path class="cls-4" d="M143.4,106.3c-5,.24-9.71,2.58-9.9,2.4-3.46-3.19-8.64-2.64-5.55.53,1.4,1.43,2.71,2.42,3.66,4.18.75,1.4,1.18,2.8,2.95,3.25a4.69,4.69,0,0,0,5.38-2.17,9.64,9.64,0,0,1,4.09-3.33c1.15-.6,2.4-1.28,2.15-2.72A2.72,2.72,0,0,0,143.4,106.3Z"/><path class="cls-5" d="M98.79,113.88s12.14,19.42,25.53,18.24c15.47-1.36,16.21-16.87,16.21-16.87l-8.51-.14s-.47,8.49-8.1,9.43-19-12.7-19-12.7Z"/><path class="cls-6" d="M33.45,188.16c0,3.6,24.51,6.52,54.73,6.52s54.73-2.92,54.73-6.52-24.51-6.51-54.73-6.51S33.45,184.56,33.45,188.16Z"/><path class="cls-7" d="M96.88,178.56c-6.16-1.73-7.56,8.13-4.39,11.8,1.87,2.16,6.35,2.9,8.84,1.44,3.37-2,1.27-4.48-.06-7C100.06,182.56,99.79,179.37,96.88,178.56Z"/><path class="cls-7" d="M77.71,178.69c6.16-1.73,7.56,8.13,4.39,11.8-2.88,3.33-14.74,2-10.52-3.65C73.38,184.44,74.49,179.59,77.71,178.69Z"/><path class="cls-8" d="M73.42,146.67c-.16,4.45-.27,8.9-.41,13.35-.21,6.66.89,15.69-1.28,22,1,.47,1.93.9,2.92,1.27,3.79,1.4,7.71,0,11.58-.65-1.2-11.47,1.5-23.19,1.66-34.65C87.93,145.34,73.56,142.81,73.42,146.67Z"/><path class="cls-8" d="M87.52,150.1c.9,6,.49,12.34.54,18.38,0,4.28-.13,9.82-.4,14.1a29.44,29.44,0,0,0,6.5,1.24,20.73,20.73,0,0,0,8.47-2c-1.31-4.41-2.32-12.59-2.75-19.25-.31-4.88,1.19-11.37-.18-16.1C98.69,142.93,86.63,144.16,87.52,150.1Z"/><path class="cls-9" d="M100.88,173.85c-5.23-2.3-11.82-.64-12.84.46.1-1.95.11-4.22,0-6.89-.11-3.32,7.6-4.64,10.44-4.4,1.64.13,1.37.82,1.5,2.28C100.18,167.39,100.59,171.59,100.88,173.85Z"/><path class="cls-9" d="M73.06,174.51c4.77-3.15,11.72-.53,12.91.38,0-1.66.34-5.26.38-7.93.05-3.33-9.21-3.16-12-2.44-1.59.41-1.23,1.08-1.32,2.54S73.15,172.69,73.06,174.51Z"/><path class="cls-5" d="M109.24,150.51c5.94-9.55,2.07-25.95-2.48-35.76-4.43-9.54-14.2-10.52-23.81-9.27-4.69.62-14.63,3.33-17,11.42-3.18,11.09-5.71,30,4.55,37.87C77,159.69,102.29,161.67,109.24,150.51Z"/><path class="cls-10" d="M73.83,120.6c.64.33,1.28.63,1.92,1-3.19,1.91-2.82,6.31-3.66,9.45A31.37,31.37,0,0,1,70,136.8a7.81,7.81,0,0,1-2.22,2.81c6.07.57,11.64,2.34,16.82-2.26a17.49,17.49,0,0,0,5-8.5c.84-.13,2,.12,2.68-.5,1,11.7,8.39,11.15,14,11.81a31.26,31.26,0,0,0,3.87.1c-2.08-4-4.58-7.74-6.93-11.65-1-1.68-1.57-3.14-3.29-4.33a14.58,14.58,0,0,1-2.64-1.64c6.08,1,10.78-3.84,10.3-9.83-2,1.37-4.87,1.81-7.14,2.44a66.08,66.08,0,0,1-11.27,2.46,25.17,25.17,0,0,1-16.29-3.95c-1.57-1-2.65-2.83-4.08-3.71a21.24,21.24,0,0,0-.78,3.15,8.61,8.61,0,0,0,.92,2.74A10.85,10.85,0,0,0,73.83,120.6Z"/><path class="cls-10" d="M66.25,149.77c-.65-1.13-1.78-3.51-1.33-5.22.34-1.29.86-4.75,1.71-3S66.83,149.38,66.25,149.77Z"/><path class="cls-10" d="M103.16,118.71s7.92,14,4.28,31C107.44,149.71,108.56,132.67,103.16,118.71Z"/><path class="cls-11" d="M59.47,140.43c.85.51-.38,2.33,1.11,3.84s-1.48-.3-2.22,1.11,5.69,5,7.89.39-1.11-7.21-6.84-8.1S59.47,140.43,59.47,140.43Z"/><path class="cls-5" d="M70.22,113c-3.39.06-20.47,5.61-22,15.66s10,15.55,10,15.55l4.6-5.93s-7.21-3-7.21-9.47,14.54-10.44,14.54-10.44Z"/><path class="cls-8" d="M75.87,146.69a1.47,1.47,0,0,1-1,1.76c-.68.09-1.32-.57-1.43-1.46a1.46,1.46,0,0,1,1-1.76C75.12,145.14,75.75,145.79,75.87,146.69Z"/><path class="cls-8" d="M75.89,139.87a1.27,1.27,0,1,1-1.23-1.61A1.45,1.45,0,0,1,75.89,139.87Z"/><path class="cls-8" d="M76.51,133a1.26,1.26,0,1,1-2.45-.34,1.26,1.26,0,1,1,2.45.34Z"/><path class="cls-8" d="M78.19,126.69a1.26,1.26,0,1,1-1-1.68A1.41,1.41,0,0,1,78.19,126.69Z"/><path class="cls-8" d="M103.13,146a1.48,1.48,0,0,0,1,1.8c.68.1,1.33-.54,1.47-1.43a1.47,1.47,0,0,0-1-1.79C103.92,144.43,103.26,145.06,103.13,146Z"/><path class="cls-8" d="M103,139.69a1.28,1.28,0,1,0,1.28-1.57A1.46,1.46,0,0,0,103,139.69Z"/><path class="cls-8" d="M102.21,132.92a1.26,1.26,0,1,0,2.45-.27,1.26,1.26,0,1,0-2.45.27Z"/><path class="cls-8" d="M100.83,126.37a1.26,1.26,0,1,0,1.06-1.65A1.41,1.41,0,0,0,100.83,126.37Z"/><path class="cls-12" d="M94.22,187.56a1.08,1.08,0,0,0,.17.69c.68,1.09,2.54.59,3.46.21,1.15-.47,1.89-.13,3-.08s1-1,.48-1.63C100,185,94.48,184.65,94.22,187.56Z"/><path class="cls-13" d="M79.85,187.42a1.14,1.14,0,0,1-.16.69c-.69,1.09-2.55.59-3.47.21-1.14-.47-1.88-.12-3-.08s-1-1-.48-1.63C74.1,184.9,79.59,184.51,79.85,187.42Z"/><path class="cls-14" d="M66.25,149.77s23.89,9.91,43.71-.32c0,0-1.06,6.79-1.5,10.51-.52,4.5-1.13,9.39-1.13,9.39s-16,4.67-39.28-.87C68.05,168.48,67.19,158.5,66.25,149.77Z"/><path class="cls-14" d="M90.8,124.47s25.4-6.48,15.89-18.12c-8.18-10-28.6-7.28-34.92-2.14S65.76,120.72,90.8,124.47Z"/><path class="cls-8" d="M111.37,60.7c6.22-5.48-2.12-10.41-6.7-13.65-7.26-5.15-16.86-6.64-25.53-4.66C42.79,50.71,50,89.68,60.62,87.51c8.3-1.7,17.36-6.25,25.92-3,6,2.25,11.37,6,17.43,8.18,5.38,2,10.64,7.19,12.14-.19C119.46,76.1,114,64.7,111.37,60.7Z"/><path class="cls-11" d="M56,85c1.29,19.16,14.33,32,32.68,31.86,20.31-.19,28.11-16.9,26.82-36.06S99.73,46.44,84,47.5,54.68,65.86,56,85Z"/><path class="cls-15" d="M108.12,79.81c-1.19-1.8,3.62-1.21,4.29-.86-.33,1.08-2.33.21-3,.28.39.77,2.06,1,2.63,1.61s.44.92-.41.76A12.79,12.79,0,0,1,108.12,79.81Z"/><path class="cls-15" d="M75.35,82.9c1-1.89-3.71-.93-4.35-.53.41,1,2.34,0,3,0-.33.79-2,1.19-2.49,1.8s-.38,1,.46.73A12.92,12.92,0,0,0,75.35,82.9Z"/><path class="cls-8" d="M78.19,83.8a5.07,5.07,0,0,0-3.49-.32c-2.39-2.06-.14-8.3,3.38-6.76C80.7,77.87,80.56,82.59,78.19,83.8Z"/><path class="cls-16" d="M97.26,85.14c.76.79-.85,3.68-4.32,3.92s-5.35-2.75-4-3.55,2.16,0,4.12-.1C95.24,85.31,96.36,84.22,97.26,85.14Z"/><path class="cls-17" d="M97.07,85.53c2.45-2.49-1.51-11-5.77-10.67-1.79.14-3,2.67-3.2,5.93s-.13,4.79.74,5.42A7,7,0,0,0,97.07,85.53Z"/><path class="cls-8" d="M107.59,74.6c2,.89,2.29,4,1.08,5.74a4.51,4.51,0,0,0-3,1.12C101.63,80.81,103.84,73,107.59,74.6Z"/><path class="cls-18" d="M76.27,78c1.27-.42,2,1.54,1,2.27C75.91,81.27,74.84,78.48,76.27,78Z"/><path class="cls-18" d="M105.88,76c1.19-.39,1.92,1.44,1,2.11C105.55,79.09,104.55,76.49,105.88,76Z"/><path class="cls-11" d="M54.58,94.19a17.39,17.39,0,0,0,6.26.51,1.83,1.83,0,0,1,.13-.16c1-1.29-.53-7.82-1-9.16-1.1-3.39-3-5.77-6.75-4.83C45.44,82.49,48.3,92.29,54.58,94.19Z"/><path class="cls-19" d="M60.67,74.72a54.32,54.32,0,0,1,1.32-8c1.43-6.8,9.19-9.43,15.27-10,8.63-.86,17.68-1.09,26.24.28,2.47.39,7.9.53,8.17,3.87.31,3.92-6.17,4.5-8.76,4.8-6.69.77-16.16,1.57-34.51-1.12-.78,2.23-4.46,7.31-5.35,22.63-.06,1-2.23-8.83-2.34-9.84A16.43,16.43,0,0,1,60.67,74.72Z"/><path class="cls-19" d="M58.6,92.18c3.61-1.15,1.18-6.81-1.24-8-2-1-7.39-.32-5.37,3,1.7-2.61,3.74-.51,3.1,1.41-.43,1.29-2.37,1.07-.69,3C55.3,92.62,57.47,92.54,58.6,92.18Z"/><path class="cls-8" d="M69.45,45.92a19.39,19.39,0,0,0-7.33,6.24C58,58.06,52.87,67.77,55,74.93c.48,1.61.21,3.89.79,5.51,1.41,4,3.57,19.44,7,19.51,1.27,0,4.92.87,4.3-.29C61.58,89.46,63,71.51,67.51,63c28.18,3.43,44.23-.46,43.16-6.79-.73-4.36-5.9-8.11-9.65-9.85C92.3,42.36,78.85,41.18,69.45,45.92Z"/><path class="cls-20" d="M79.68,86.44a4.22,4.22,0,0,1,1,1.08c2.69,4.28-8.13,6.3-10,4.68-3.52-3-.37-5.17,2.23-6C74.86,85.51,77.77,85,79.68,86.44Z"/><path class="cls-20" d="M104.48,84.9c-1.11,1.38-1.07,3.17,1.29,4.31s7.19,1.32,8.38-1.67c1.62-4.08-4.12-5.07-6.74-4.43A5.51,5.51,0,0,0,104.48,84.9Z"/><path class="cls-4" d="M98.89,111.12c-1-1.29-4.15-2.11-6.21-1.79-3.47.53-4.68,2.46-4.7,2.79a4.46,4.46,0,0,1,3.23-4.4C94,106.81,99.14,107.9,98.89,111.12Z"/><path class="cls-8" d="M106,70.84a7.42,7.42,0,0,1-4.43,1A4.19,4.19,0,0,1,97.7,68c2.19.55,4.7-1.2,6.89-1.45s4.52.29,5.81,2.56a3.46,3.46,0,0,1,.37,1.08,9.46,9.46,0,0,0-3,0A15,15,0,0,0,106,70.84Z"/><path class="cls-8" d="M80.61,73.65c-2.53-.44-5.58-2.14-7.69.09-.4.43-.78.93-1.21,1.31C69.55,72.12,73,67.62,76.36,68c1.33.13,2.75.84,4.11,1.09a9.74,9.74,0,0,0,5-.17C85.61,72.12,84,74.24,80.61,73.65Z"/><g class="cls-21"><path class="cls-22" d="M110.1,90.77a7.45,7.45,0,0,1,3.06-.64c-1.89-1.81-6-1.14-8.13-.27.35-.14,1.39.94,1.42,1.29,0,.7-.76,1.14-1.27,1.42-1.73,1-3.93,1.08-5.84,1.41a54.29,54.29,0,0,1-14.51.68,32,32,0,0,1-8.06-1.85,1.79,1.79,0,0,1,.26-.2c1.34-.83,3.35-.94,2.77-1.19-3-1.33-6.45.23-8.87,2,2.78-.6,5.69-.37,7.26,2.31,4,6.8,8,11.33,14.64,11.22,8.66-.14,10.47-5.88,11.53-9.71a7.76,7.76,0,0,1,2.07-3.54A11.43,11.43,0,0,1,110.1,90.77Z"/></g><path class="cls-23" d="M78.69,94.4a40.41,40.41,0,0,0,27.65-1.7s-1.76.89-2.58,4c-.78,2.94-3.55,6.35-10.47,6.9C83.08,104.39,78.69,94.4,78.69,94.4Z"/><path class="cls-24" d="M82.12,95.33a5.42,5.42,0,0,0,3.57,4.33,21.58,21.58,0,0,0,13.24.13c3.06-.91,4.53-5.84,4.53-5.84S94.8,97.19,82.12,95.33Z"/><path class="cls-24" d="M83.69,100.07c-.38-.8-.42-1.71,1.33-1.11a31.25,31.25,0,0,0,10.29,1c4.38-.2,5.28-1.9,6.12-1.06s-1.92,5.13-8.93,4.84C84.47,103.37,83.69,100.07,83.69,100.07Z"/><path class="cls-25" d="M83.43,98.16s14.67-2,18.44-.85A10.37,10.37,0,0,0,103.46,94s-10.9,3.28-21.36,1.33A4.43,4.43,0,0,0,83.43,98.16Z"/><path class="cls-25" d="M85.93,99a31.8,31.8,0,0,0,14.53-.22S93,101.92,85.93,99Z"/><path class="cls-8" d="M93.09,96.54a33.15,33.15,0,0,0,6.2-.76,22.11,22.11,0,0,0,7.28-3c1.73-1.14,4.34-2.65,4.1-5.28a2.63,2.63,0,0,0-4.86-1.15c1.25-.76,2.44,0,2.38.89-.08,1.35-1.78,1.23-2.72,1.13-3-.29-6.17-1.37-9.24-.41-4,1.26-6.7-.17-10.84.47A54.43,54.43,0,0,0,79.29,90c-1,.28-2.32.46-2.57-.65a1.2,1.2,0,0,1,1.93-1c-.46-.94-2.3-1.18-3.17-.86a2.39,2.39,0,0,0-1.56,3c.39,2,3.27,3.33,5,4a36,36,0,0,0,8.29,1.81A37.28,37.28,0,0,0,93.09,96.54Z"/><path class="cls-26" d="M53.91,76c.3,2.36,1.83,5,3.64,1-.6,5.81,5.38,14.94,4.9,11.1-.69-5.52-.66-11.42,1.68-17.34,0-.05-.58-.24-.6-.19C60.05,75,52.81,67.38,53.91,76Z"/><path class="cls-26" d="M62.63,60.19S80.47,65,96.91,62.73,111,55.4,111,55.4s.1,2.19-17.47,4.7A106.52,106.52,0,0,1,62.63,60.19Z"/><path class="cls-26" d="M89.32,89.63c-3-1.27-9.88,1-8.94,2.12s4.13.57,4.13.57a2.15,2.15,0,0,0,1.41,1.88c1.31.37,3.76-1.41,3.76-1.41a1.74,1.74,0,0,0,1.69,1.87c1.78.1,3.28-2,3.28-2s1.14,1.9,2.91,1.6a1.74,1.74,0,0,0,1.6-1.88s2.15,1.06,3.48.66.56-2.26.56-2.26a4.15,4.15,0,0,0,3.48-.18c2-.94-2.07-.94-4.51-1.41a10.78,10.78,0,0,0-6.48.28A7.56,7.56,0,0,1,89.32,89.63Z"/><path class="cls-25" d="M56.88,56.35s31.62,7.18,55.06-3.49l-2.17-17.6s17.61-7.44,12.16-18.07-24.85-2.53-24.85-2.53S98.69,6.48,82.69,6A19.18,19.18,0,0,0,63.47,18.6S45.4,12.44,41.9,22.29C37.71,34.08,56,37.4,56,37.4Z"/><path class="cls-27" d="M43.9,21.43c2.52-8.06,21-.07,21-.07S68.8,7,82.52,7.17c16.79.16,11.82,10.68,11.82,10.68s17.94-9,24.19-2.42S115,29.78,115,29.78s-1.11-2.86-11,4.92c-12.16,9.62-24.11,9.35-40.69.39-12.58-6.8-14-2.25-11.35-.13C52,35,40.68,31.74,43.9,21.43Z"/><path class="cls-10" d="M109.77,35.26s-12.35,4.1-10.58,6.48,10.64-6,10.64-6-4.13,3.5-3.09,4.38,3.2-3.5,3.2-3.5Z"/><path class="cls-10" d="M56,37.4s11.51,1.68,12.62,4.21c1.46,3.35-12.11-3.44-12.11-3.44s5.84,3.47,4.4,4.17-4.82-3.76-4.82-3.76Z"/><path class="cls-10" d="M75.94,42.28s6.62,2.63,18.45-.58C94.39,41.7,87.88,50.42,75.94,42.28Z"/><path class="cls-5" d="M64.09,56.92q-3-.6-6.1-1.44s.09-4.39.09-4.5c12.16,3.81,18.48-1,29.38-1.91,12.82-1.1,16.83,3.38,22.91.3l.66,2.91S92.6,62.64,64.09,56.92Z"/><path class="cls-28" d="M81,15.59c23.44-2.35,37.45,17,10.68,23C65.71,44.37,50.57,18.64,81,15.59Z"/><path class="cls-28" d="M109.52,15.9a15.65,15.65,0,0,0-6.86,4c-3,3.46-2.83,9.6,2.43,9.7,4.62.08,12.66-2.88,12.94-8.29C118.34,15.39,113.88,14.61,109.52,15.9Z"/><path class="cls-28" d="M47,22.13c-5.21,5.86,9.88,9.11,12.92,9.66,10.7,1.94,4.22-10-2.18-11.54C54.4,19.47,49.54,19.27,47,22.13Z"/><path class="cls-14" d="M89.26,120.57c5.78-.42,5.61,5.71,1.29,6.28S84.91,120.89,89.26,120.57Z"/><path class="cls-14" d="M90.09,123.9S73.63,117,71,126.77c-2.84,10.38-5.34,10.55-5.34,10.55s15.09,2.65,19.94-4a18.35,18.35,0,0,0,3.39-7.94Z"/><path class="cls-14" d="M90.55,123.55s12.72-6.56,15.7,2.12c3.22,9.41,5.86,11.37,5.86,11.37s-13.24,4.59-17-4.23a76.49,76.49,0,0,0-3.56-7.88Z"/><path class="cls-29" d="M76.15,163.71c.23-1.75-3.31-2.75-4.42-3.5,1.91-.12,0-3.62-1.89-5.16,13.6,5.21,22.08,3.08,31.25,2.15-2.29,1.46-5.18,1.5-7.39,3,2.7,2.11,6,.61,9,1-1.26-.18-1.17,3.93-.81,4.66.65,1.3,3.3,1.44,4.21,2.4-9.4,2.6-26.28,3.46-36.35-1.19C70.41,167.43,76,164.65,76.15,163.71Z"/><path class="cls-30" d="M109.83,149.8a13,13,0,0,1-5.58,3.95c-3.85,1.52-6.24,2.22-6,2.71S107.62,154.34,109.83,149.8Z"/><path class="cls-30" d="M105.76,155.44a16.47,16.47,0,0,0-2.38,2.34,8.31,8.31,0,0,0,4.4-2.73,10.42,10.42,0,0,0,1.68-4.06,17.94,17.94,0,0,0-1.4,2.11A12.42,12.42,0,0,1,105.76,155.44Z"/><path class="cls-30" d="M71,152.66a24.13,24.13,0,0,0-4.08-2c.74,1.65,2.72,3,4.93,4,1.92.78,4.52.8,6.81,1a32.88,32.88,0,0,0-3.59-1A19.82,19.82,0,0,1,71,152.66Z"/><path class="cls-31" d="M99.23,130.23c0,3.7,2,4,6,4.73a23.52,23.52,0,0,0,4.06.61c-4-1.86-3.23-6.35-4-9.57-.62-2.68-3-3.75-5.9-3.57-1.19.07-4,.14-5,.62A3.1,3.1,0,0,0,93,124C96,125.72,99.27,126.06,99.23,130.23Z"/><path class="cls-32" d="M78.08,130.44c.25,3.21-1,4.78-4.73,5.43a48.11,48.11,0,0,1-5.41.58c7.65-3,.72-13.47,11.62-13.83,2.9-.1,8-.31,4.62,2S77.75,126.12,78.08,130.44Z"/><path class="cls-30" d="M95.67,131.69c3.69-1.76.2-5.64-2.1-6.33C93.78,126.11,96.43,131.33,95.67,131.69Z"/><path class="cls-30" d="M82.76,132.79c-2.92-.21-.73-4.76,0-5.44a5.59,5.59,0,0,1,3.53-1.73C85.22,126.66,84.5,132.91,82.76,132.79Z"/><path class="cls-30" d="M92.83,119.23c2.39-1.49,5.21-2,7.92-2.75h0c-1.22,1-3.26,1.69-4.17,2.91,1.48.08,2.92-.6,4.35-.74-.7,2.09-5,2.85-6.62,4.06.21-1.08.44-1.24-.07-2.19A17.31,17.31,0,0,0,92.83,119.23Z"/><path class="cls-30" d="M86.21,122c.17-1.2-9.14-2.39-9.93-3.67,2.39-.25,4.78,1.34,7.25,1.17-.84-.84-2.12-1.19-3-2.08,2.54,1.59,5.24,1.25,8,1.66C87.8,118.91,86.31,121.24,86.21,122Z"/><path class="cls-33" d="M92.56,123.68c2.06-3.2-3.25-3.45-4.42-1.94S90.26,127.25,92.56,123.68Z"/><path class="cls-8" d="M88.35,50.8a2.19,2.19,0,0,1-.24,3c-.81-1.68-4-2.54-4.38-.12-.32,2.22,3.48,3.75,5.06,4.1a38.86,38.86,0,0,0,6.46.56c-3.78.11-20.75,6-19.47-3.42C76.38,50.51,85.39,46,88.35,50.8Z"/><path class="cls-26" d="M82.33,52.92c-1.72,3.1,1.91,5.15,4.3,6a27.3,27.3,0,0,0,8.57,1.22c-4.91,2.14-9.22,3.71-15.09.27a9.57,9.57,0,0,1-2.55-2.47,5,5,0,0,1-.31-4.74,7.63,7.63,0,0,1,4-3c1.79-.57,6.93-1.49,6.61,1.77.07-.8-2.46-1.06-2.92-1A3.8,3.8,0,0,0,82.33,52.92Z"/><path class="cls-34" d="M112.83,110.48c0,.52.24,2.87.69,3.37l14.69,17.25c.88,1,3.28,1.47,4.81,1l41.62-13.85c1.52-.5,2.78-4,1.89-5L161.63,96a5.08,5.08,0,0,0-5.4-1.32l-41.81,13.6A2.13,2.13,0,0,0,112.83,110.48Zm16.94,16.74c0-.61.86-1,1.82-1s1.7.63,1.65,1.24-.86,1-1.82,1S129.72,127.83,129.77,127.22Z"/><path class="cls-1" d="M113.66,111.18l14.92,17a4.46,4.46,0,0,0,4.39.94l41.81-13.56c1.52-.49,2-1.73,1.15-2.74L161,95.81a4.49,4.49,0,0,0-4.39-.94l-41.81,13.57C113.29,108.93,112.77,110.16,113.66,111.18ZM130,125.54c.05-.61.87-1.05,1.83-1s1.7.63,1.65,1.24-.86,1-1.82,1S129.93,126.15,130,125.54Z"/><g class="cls-35"><g class="cls-36"><path class="cls-37" d="M142.67,125.63c15.22-3.62,31.66-10.23,44.85-16-4.69.88-15.62,5.56-27.78,9.88,9.6-4,17.68-8.94,21.32-12.67-2.63.95-5.46,1.62-8.2,2.47,6.79-3.67-.4-4-5.47-3.21-3,.46-6.6,1-10.39,1.58,10.56-2.38,19.22-4.68,19.28-6.63-.26-4.26-47.65,7.83-50.75,9.07,9.64-5,23-6.67,34.45-9.58,3.14-.79,11.2-5.54,2.44-5.1-8.45-2.11-29.5,6.45-36,9.1-6.27,2.54-13.74,6.39-15.73,11.1C103.92,131.42,129.42,128.78,142.67,125.63ZM114.3,113.4c8.56-9.63,39.06-17.54,49.57-16.25C161,99.27,125.48,105.47,114.3,113.4Zm55.23-11.13c-11.57,3.21-24.22,5-36,7.9.78-.19,1.46-.35-.1,0s-.87.21-.09,0a102,102,0,0,0-9.87,2.86C136.56,106.88,153.6,104.58,169.53,102.27ZM130.4,113.73c-4.57,1.62-8.41,3.54-10.85,5.85C117.09,117.85,122.28,115.84,130.4,113.73Zm9-.27c8.69-2.17,17.62-4.07,26.75-5.49-13.09,4.15-30,9-44.55,11a115.44,115.44,0,0,1,16.36-5.2l.57-.15C142.06,112.8,140.8,113.12,139.44,113.46Zm33-6.27c-4.78,3.43-48,15.71-52.85,12.44,10,0,18.67-3.16,27.61-5.33C154.9,112.4,164.38,107.69,172.47,107.19Zm-18.14,7.55c2.47-.6,5-1.15,7.48-1.67-7.78,2.73-15.63,5.58-24.33,7.14,5.77-1.64,11-4,16.85-5.47h0C156.39,114.21,154.62,114.66,154.33,114.74ZM131,122.84c.69,0,1.83-.12-.1,0a47.76,47.76,0,0,1-6.22.08c20.59-1.17,35.27-9.2,53-14.47A113.4,113.4,0,0,1,131,122.84Zm-17.92-1.23a17.79,17.79,0,0,0,3,1.92c6.68,3.41,15.58,3.51,24.71,1.8C128.26,128.29,117.18,128.58,113.07,121.61Z"/><path class="cls-37" d="M110.68,115.67c-.45,1,.43-1,0,0Z"/><path class="cls-37" d="M138.57,113.67l.87-.21-1.44.36Z"/><path class="cls-37" d="M131,122.84h-.1C130.34,122.88,130.59,122.87,131,122.84Z"/><polygon class="cls-37" points="154.33 114.74 154.33 114.74 154.32 114.74 154.33 114.74"/></g></g><path class="cls-38" d="M128.69,127.7a4.79,4.79,0,0,0,4.55.89L168,117.77l-35,11.41a4.46,4.46,0,0,1-4.39-.94l-11-12.7Z"/><path class="cls-38" d="M133.43,125.94c.2-.66-.38-1.28-1.33-1.47a1.92,1.92,0,0,0-2,.76,2.17,2.17,0,0,1,1.91-.49C133.45,125,133.43,125.94,133.43,125.94Z"/><polygon class="cls-39" points="136.28 127.86 135.2 123.38 135.6 128.11 136.28 127.86"/><polygon class="cls-39" points="123.49 105.62 123.76 108.05 123.06 105.76 123.49 105.62"/><polygon class="cls-39" points="125.02 105.13 125.42 110.17 124.43 105.31 125.02 105.13"/><polygon class="cls-39" points="166.06 118.36 165.5 116.33 165.28 118.63 166.06 118.36"/><polygon class="cls-39" points="167.16 118.01 166.97 116.75 166.64 118.17 167.16 118.01"/><polygon class="cls-39" points="120.6 119.11 119.72 113.66 119.71 118.08 120.6 119.11"/><path class="cls-40" d="M157.27,121.43c0,.81-8.13,1.47-18.16,1.47S121,122.24,121,121.43s8.13-1.46,18.15-1.46S157.27,120.63,157.27,121.43Z"/><path class="cls-41" d="M168.59,114.89c0,4-10.77,7.19-24.05,7.19s-24.06-3.22-24.06-7.19,10.78-7.19,24.06-7.19S168.59,110.92,168.59,114.89Z"/><path class="cls-42" d="M172.79,117.23c0,.81-8.13,1.47-18.16,1.47s-18.15-.66-18.15-1.47,8.13-1.46,18.15-1.46S172.79,116.43,172.79,117.23Z"/><path class="cls-43" d="M147.21,112.58c0,1.34-8.12,2.42-18.15,2.42s-18.15-1.08-18.15-2.42,8.13-2.41,18.15-2.41S147.21,111.25,147.21,112.58Z"/><path class="cls-44" d="M127.27,99.3c-1.46,1.27-4,2.64-4,4.84,0,2,2.28,6.11,4.33,6a75.38,75.38,0,0,0,8.39-1.22c2.21-.46,6.58-.83,8.77-1.26,5-1,4.1-8.69,2.69-13a9,9,0,0,0-6-5.79C134.29,86.51,131.69,95.45,127.27,99.3Z"/><path class="cls-45" d="M130.82,99.55c-.8,2-.22,5.38,2.16,5.87.41,2-1.82,2.22-1.78,4,2.32,0,5.22.23,6.86-1.78,1.85-2.25.19-5.72-1.19-7.81-1-1.46-2.57-4.11-4.37-4.61C130.06,94.56,128.63,98,130.82,99.55Z"/><path class="cls-46" d="M132.17,97.92c-1,.22-1.59-.48-2-1.3a2.11,2.11,0,0,1,.7-2.26A1.9,1.9,0,0,1,129.8,92a2.45,2.45,0,0,1,2.26-1.23,3,3,0,0,1-1.73-2.15,2.32,2.32,0,0,1,.72-2.24c-1.73-1.37.41-2.84,1.87-2-1.06-2.4.23-4.22,2.72-4.44,1-.09,2.67-.06,3.33.63.09-1.25,0-3,1.6-3.29,2-.35,2.35,3,4,.85.51-.65.52-1.51,1.64-1.17.67.2,2.15,2.42,1.59,3.06a2.39,2.39,0,0,1,3.13-.86,1.61,1.61,0,0,1,1,2.32,2.48,2.48,0,0,1,3.88.85c.3.56-.15,1.3.41,1.8s1.45-.08,2,.2c1.85,1,.2,2.77-.81,4.14,3.93-1.42,4.52,2.06,3.86,3.46,1.25,0,2,.75,1.69,2.09s-1.76,1.89-2.94,2.42c3.43,1.19.16,6.84-1.32,5.45.93.88.57,2.8-1.09,2.27.1,1.18-.16,4.15-1.75,4.54-.76.19-1.09-.58-1.9-.17-.57.28-.42,1.13-1.24,1.37-.28.09-.49-.38-.74-.38-1.31,0-2.6.7-3.86.46-1.75-.33-2.05-1.31-2.15-2.9a2.33,2.33,0,0,1-2.91,1.3,2.23,2.23,0,0,1-1.86-2.24c-1.33.79-3.08.92-3-1.21-.68.48-1.27,1.44-2.2.92-1.1-.61-.64-2.3-.07-3.1-.4.07-.8.29-1.19.33C131.8,103.33,130.54,100.27,132.17,97.92Z"/><path class="cls-47" d="M144,85.67c-.52-1.71-2.53-.41-3.08.56-.07-1.29,1.56-3.49,3-2.56a1,1,0,0,1,1.36-.81h0c.83.21,1.22,1.2,1.41,1.94C146.38,83.69,144.19,85.13,144,85.67Z"/><path class="cls-48" d="M137.54,89.87c-1.3-1.21-3,.47-3,1.86-.24-1.4-.18-2.69,1.4-3.13-1.05-1.12-.48-3,1.2-2.47a1.34,1.34,0,0,1,2.61-.6c-.21-.72-1.41.17-1.63.37C137.17,86.8,137.16,88.68,137.54,89.87Z"/><path class="cls-49" d="M143.21,89.77c-.52-.89-2.93-2.18-3.46-.68l0,0c1.56,0,2.21,1.07,3.1,2.07,1.77-1.77,3.19-.23,4.51,1.19-.51-.55,0-2.11-1-2.83S144.21,89.23,143.21,89.77Z"/><path class="cls-50" d="M152.28,92.34c1.6-1,4.22-.85,3.82,1.61-1.27-1.32-3.26-1-4.66-.14.12-.08-1.06-1.4-1.23-1.48-.72-.33-1-.08-1.78.11.37-.09.42-1.47,1.41-1.61A2.47,2.47,0,0,1,152.28,92.34Z"/><path class="cls-51" d="M137.41,95.77a4.84,4.84,0,0,1,4.33-.36c.22.06,1.36-1.63,2.22-1.53-.25-2-2.53-1.07-3.23.06C139.46,93.54,137.17,94,137.41,95.77Z"/><path class="cls-52" d="M145.28,96.44c-.19,0-.42,0-.79,0-.87,0-2.32-.9-2.52.62a2.27,2.27,0,0,0-3.44,1.24c-.9,3.81,4.87,4.57,7.27,4.94,4,.62,7.72.8,11.29-1.31.83-.49,2.92-2.11,2.17-3.36-1.1-1.83-3.68,1-4.42,1.78-.67-1-2.33-3.22-3.75-3-1,.13-2.22,1.95-3.22.48-.83-1.21.09-3,.78-4a3.6,3.6,0,0,1-3.14.24c.36.1.42,1.66.28,1.92S145.45,96.41,145.28,96.44Z"/><path class="cls-53" d="M147.71,81.16a3.15,3.15,0,0,1,.09.36c.73-.5,1.17-1.38,2.19-1.32,2,.12.48,3.76,2.56,2.89.63-.26.71-1.23,1.61-.8,1.26.6.41,3.18,2,3.29.58,0,1-.7,1.58-.21,1,.79-2.66,5.45-3.51,2-.4-1.57-.42-.8-1.93-1-1.81-.2-1.25-2.45-2.19-3.54-1.39-1.6-2.14.75-3.37.93s-1.11-1.55-2-2c-1.44-.62-2,1.56-3.09,2-1.45.56-3.39-2.11-4.36-.34-.31.57.05,1.36-.26,1.89s-1,.54-1.56.81c-1.79.9.32,1.19,0,2.51-.12.52-.74.52-1,.91s0,.69-.1.86a1.93,1.93,0,0,0,.06.45c-.55-.67-1.94-1.09-2.26-1.84-.22-.5.77-2.43,1.21-2-1.73-1.7-.24-2.09,1.5-1.94-.09-.55-.25-1.1-.32-1.65-.41-3.44,3.89-2.78,5.94-1.77a3.62,3.62,0,0,1-.1-2c.74-1.58,3,.66,4.45,0,.73-.35,1-.87,1.81-.41A2.83,2.83,0,0,1,147.71,81.16Z"/><path class="cls-54" d="M160.14,90.64c.44,1.2-.62,1.48-1.39,2.15.85,0,2.07.52,1.4,1.5a6.27,6.27,0,0,1-3.68,1.17c-1.23-.36-.29-1.78-.32-2.68-.05-1.46-1.1-.83-2.22-.74-1.76.14-1.3-.74-1.86-2-.48-1.06-1.81-.53-2.2-1.23-.69-1.23,3.3-.32,3.79.1.75.65.82,1.18,1.92.79C157,89.2,159.42,88.71,160.14,90.64Z"/><path class="cls-55" d="M146.93,84.39c-.89.21-1.33,1-2.11,1.32s-.78.16-1.38-.38c-1.32-1.17-1.18.06-2.43.74s-2.1-1-3-.07c-.7.67-.2,2.16-.21,3a2.41,2.41,0,0,0,1.28-.33c.39-.26.49-.83,1-1,1-.22,1.91,1,2.84,1.25,1.28.41,2.06-1.08,3-.47.75.48.9,1.8,1.84,2.22a3,3,0,0,0,2.09-.08c-.59.32-1.45-1.22-1.51-1.64C148.17,87.73,150,83.64,146.93,84.39Z"/><path class="cls-56" d="M142,90.25c-1.42-1-3.29-1.48-4,.78.27-.84-1.69-.73-2-.62-1.09.4-1.16,1.17-1.15,2.2-.62-.45-2.76-.61-3.09.37s1,1.12,1.71,1.46c-1.3-.67-1.66,1.26-1.21,2,.62,1,2.92,1.81,3,0,0-2,.67-2.51,2.76-2.7a20.34,20.34,0,0,0,3.88-.85,4.07,4.07,0,0,1,3.48.5c.27.14,1.53,1,1.84.68,1.09-1-2.07-4.33-4.06-2.76A6.08,6.08,0,0,0,142,90.25Z"/><path class="cls-57" d="M151.74,93.63c-.58,0-.45-.06-1-.27-1.66-.62-1.54-.12-1.91,1.38-.19.78-1.39,1.42-.92,2.17,1.18,1.9,3.13-1.82,4.63-.2.34.37.44,1,.83,1.42s.78,1,1.62.9c1.11-.08,2.4-1.46,1.09-2.19-.53-.29-1.14,0-1.53-.56s.09-1.19,0-1.75C154.33,92.76,153,93.57,151.74,93.63Z"/><path class="cls-58" d="M141.33,95.14a2.18,2.18,0,0,0-3.05.19c-.77.69-.68,1.32-.62,2.28.62-.29.87-1,1.53-1.29s1.37.1,2.09,0c1.08-.07,1.49-1.2,2.79-.74a4.09,4.09,0,0,1,1.45,1c.72-1-.6-2.31-1.47-2.63a2.13,2.13,0,0,0-1.45,0C142.44,94,141.16,95,141.33,95.14Z"/><path class="cls-59" d="M150.47,87c-.06-1.06-.71-3.75-2.38-2.62,1.49.94.93,3.81.91,5.3.57-2.51,3.94-1.55,5.25-.28C154.7,86.8,152.29,86.37,150.47,87Z"/><path class="cls-60" d="M156.18,95.88c1.72-1.31,5-.83,3.94,1.89a2,2,0,0,0-3.31-.08c.28-1.36-1.48-1.37-2.4-1.32s.7-2.32.91-2.49C154.85,94.26,156.07,95.55,156.18,95.88Z"/><path class="cls-61" d="M150.78,81.11c-.6-.4-1.65,0-2.34.3,0-1,1.26-2.35,2.28-1.84a1.76,1.76,0,0,1,.49,2.39A1.09,1.09,0,0,0,150.78,81.11Z"/><path class="cls-62" d="M148.54,86.54c-.6-1.05-2-1.87-2.8-.58a1.65,1.65,0,0,1,1.11-2.14,2.29,2.29,0,0,1,2.2.84,1.79,1.79,0,0,1,.25,1.26c0,.3-.55,1.06-.51,1.27A2.08,2.08,0,0,0,148.54,86.54Z"/><path class="cls-63" d="M159.85,91.67a.92.92,0,0,0-.18.15,2.54,2.54,0,0,0-3.37-2.22c.69-1.7,3.26-.6,4.08.34.32.37.44.62.25,1A4,4,0,0,1,159.85,91.67Z"/><path class="cls-64" d="M154.25,84a4.22,4.22,0,0,0-1.41-.86c-.1,0-1.05-.1-1,0a1.24,1.24,0,0,1,1.35-1.3,2.35,2.35,0,0,1,2,3.71c.18-.28-.61-1.29-.8-1.48Z"/><path class="cls-65" d="M141.27,80.68a2.27,2.27,0,0,0-.27.44c-.17.36,0,.68-.52.35a1.68,1.68,0,0,1,.11-2.51c.9-.46,2.47.54,2.79,1.37C142.68,79.6,141.78,80,141.27,80.68Z"/><path class="cls-66" d="M144.35,87.41a5.25,5.25,0,0,0-1.48-1.08c-.2-.1-2.21-.37-2,.17a1.42,1.42,0,0,1,1.21-1.87,2.44,2.44,0,0,1,2.27,1,1.44,1.44,0,0,1,.4,1c0,.19-.28,1-.2,1.07A1.84,1.84,0,0,0,144.35,87.41Z"/><path class="cls-67" d="M138,90.92a.54.54,0,0,1,0-.25,3.49,3.49,0,0,1,.56-1,2.25,2.25,0,0,1,2.41-.35c.75.44,1.65,1.12,1.64,2.08-.77-1.65-3.69-1.27-4.32.29A4.07,4.07,0,0,1,138,90.92Z"/><path class="cls-68" d="M148.73,94.26a2.27,2.27,0,0,1,0-.52,1.13,1.13,0,0,1,1-1.12,1.51,1.51,0,0,1,1.88,1.56c0-.37-1.22-.36-1.44-.22-.46.3-.55,1.11-.71,1.57,0-.06-.48-.7-.53-.81A2.44,2.44,0,0,1,148.73,94.26Z"/><path class="cls-69" d="M152.07,89.71c-.3-.81-1.27-.53-1.88-.34a10.29,10.29,0,0,1,.43-1.14,1.16,1.16,0,0,1,1.16-.31,1.52,1.52,0,0,1,.36,2.55A1.76,1.76,0,0,0,152.07,89.71Z"/><path class="cls-70" d="M145.42,94.26a2.73,2.73,0,0,1,.32,1.18c-1.1-.76-2.71-1-3.67.1.05-.06-.14-.76-.12-.9a1.61,1.61,0,0,1,.32-.84,1.72,1.72,0,0,1,1.56-.61A2.05,2.05,0,0,1,145.42,94.26Z"/><path class="cls-71" d="M125,102.87c1.51-1.13,1.93-3.86,3.6-4.36,2.08-.61-.21,2.24-.46,2.77a5.1,5.1,0,0,1,1.71-.41c.05,1.49-2.25,2.39-3.28,3.15.69.08,5-1,4.2.71-.71,1.47-4,.5-5-.09a3.59,3.59,0,0,1-1.47-1.39A2.61,2.61,0,0,0,125,102.87Z"/><path class="cls-72" d="M168.54,92.31a2.11,2.11,0,0,1-.41,1.44s.06.08.1.08.18-.11.26-.19.4-.57.7-.7c.09.4-.25,1.2.25,1.25a3.72,3.72,0,0,1,1-1.17,3.23,3.23,0,0,1-.79,1.76c.08.23.21.4.41.26a3.32,3.32,0,0,1,.54-.54,2.8,2.8,0,0,1-.93,2.39c-.56.58-.68.07-.52-.48a2.09,2.09,0,0,1,.08-.23,1.87,1.87,0,0,1-.62.1c-.59,0-1.17-.2-1.2-.87a4.53,4.53,0,0,1,.07-1c-.21.14-.48.26-.61.15C166.19,94,168.56,92.39,168.54,92.31Z"/><path class="cls-73" d="M144.27,107c-4.87.75-10,2.1-14.79.31-3.93-1.47-7.3-4.8-10.11-8.07-2.15,1.56-1.05,2.88.46,4.43a20.57,20.57,0,0,1-4.9-3.25,9.57,9.57,0,0,0-1.61,3.28c2,1.64,4.74,2.25,7,3-5-.57-5.52,1.66-5.57,2.19,0,0,10.73,2.88,15.63,3.36,12.7,1.27,20-.86,28.71-5.93,3-1.76,15.67-8.16,9-12.24-3.63-2.21-7.11,4.63-9.84,6.54C154,103.63,149.31,106.27,144.27,107Z"/><path class="cls-74" d="M167.86,94.5c-1.32-1-2.86-.34-4.9,2a25.12,25.12,0,0,0-3.06,4.19s5.61-.14,8.13-1.64C169.92,97.91,169.23,95.58,167.86,94.5Z"/><path class="cls-75" d="M165.51,94.11c-1.33.63-.9,3.73,1.63,4.28s3-1.81,1.75-3.34A3,3,0,0,0,165.51,94.11Z"/><path class="cls-76" d="M119.31,99.91a33.14,33.14,0,0,0,9.93,8.14S116.26,103.08,119.31,99.91Z"/><path class="cls-77" d="M115,101a74.05,74.05,0,0,0,14.75,8s-12.49-3.54-15.91-5.21C113.87,103.77,113.87,101.56,115,101Z"/><path class="cls-78" d="M115.49,108.68s.14-2,4.91-1.37a36.29,36.29,0,0,1,8.84,2.53S121.52,108.83,115.49,108.68Z"/><path class="cls-79" d="M134.71,102.26c-5.28,10.69,16.62,19.34,30.79,12.46,9.12-4.44,8.11-13.93-1.91-12-5.27,1-10.42-3-15.7-4.66S137.22,97.18,134.71,102.26Z"/><g class="cls-80"><path class="cls-81" d="M152.2,110.85a7,7,0,0,0-2.25-3.1,9.46,9.46,0,0,0-7.65-1c-.76.22-1.41.74-2.16.93a9.1,9.1,0,0,1-2.8-.09,8.63,8.63,0,0,0-1.52,0,3.81,3.81,0,0,1-1.1-3.26,8.15,8.15,0,0,1,7.54-6.65c7.54-.6,13.82,6.48,20.35,5.59,2.65-.37,4.11.25,4.49,1.27l-1.42,0a1.78,1.78,0,0,0,1.38,1.28c-.69,1.91-3.87,4.23-9.17,4.83-1.79.2-3.67.34-5.56.39A2.38,2.38,0,0,1,152.2,110.85Z"/></g><path class="cls-82" d="M167.35,101.51a6.55,6.55,0,0,0,1.57,2.69l-2.64,0c.3,1,1.44,1.46,2.37,1.84a4.87,4.87,0,0,0-.59,4.07c.92-1,2.21-1.75,2.84-3,.06,1.56-.48,2.56.69,3.89.34-1.9,1.53-4.06.37-6a4,4,0,0,0,2.56-2,6.57,6.57,0,0,0-1.22-1.25,3.52,3.52,0,0,1-1.66,2.73S170.07,101.58,167.35,101.51Z"/><path class="cls-83" d="M168.12,102a3.78,3.78,0,0,1,2.84,2.6S168.42,103.46,168.12,102Z"/><path class="cls-84" d="M171,105.27a4.73,4.73,0,0,0-4-.6A5.14,5.14,0,0,0,171,105.27Z"/><path class="cls-85" d="M171.08,105.87s-3-.72-2.88,3.4A6.29,6.29,0,0,0,171.08,105.87Z"/><path class="cls-86" d="M171.84,105.83s-1.28,2.36-.4,4.32C171.44,110.15,172.72,107,171.84,105.83Z"/><path class="cls-87" d="M172.08,104.63a4.64,4.64,0,0,0,1.4-2.28l.64.68S173.2,104.63,172.08,104.63Z"/><path class="cls-88" d="M145.52,113.15c-.85-2.29,1.58-5.54,4-4.57,1.92.79,2.44,3.44,3.62,4.91,1.54,1.92,5.18,1.63,7.28,1.49a19.45,19.45,0,0,0,8.65-3.19c-3.72,3.52-9.81,5.09-12.93,5.31C152.71,117.35,146.9,116.86,145.52,113.15Z"/><path class="cls-89" d="M142.61,121.22a15.86,15.86,0,0,1-6.79,0c-6.14-1.46-8-6.92-5.68-11.24.77-1.46,3.19-3.42,7.22-2.76,2.77.46,5.29-1.85,8.58-1.26,2.7.48,5,3.3,4.8,6.78C150.52,117.16,146.59,120.34,142.61,121.22Z"/><path class="cls-90" d="M140,108.65a4,4,0,0,1-2.85.14,3,3,0,0,1-1.43-2.32c.18.08,1.69.47,1.61.77a1.79,1.79,0,0,0-.21-1.32c-.1-.16-.68-.86-.88-.81a2.26,2.26,0,0,1,1.45.12c.3.14,1,.58,1,1a15.38,15.38,0,0,0-.35-3.65,2.89,2.89,0,0,1,1-.32,9.63,9.63,0,0,0,.51,3.68,6,6,0,0,1,.75-2.32,8.85,8.85,0,0,0,.27,2.77c-.22-.65,1.32-.8,1.66-.86a3.14,3.14,0,0,0-.68.94c-.17.32-.17.65-.32,1A2.48,2.48,0,0,1,140,108.65Z"/><path class="cls-91" d="M136.36,109.18a4.17,4.17,0,0,0,3.08.58,4.28,4.28,0,0,0,3.33-3.13c2.54-.54,5.66,0,6.7,3a3.5,3.5,0,0,1-1.93,4.58c-1.45.55-2.84-.73-4.16-.34-1,.31-1.72,1.69-2.75,2.15-2.17,1-3.57-.09-5.65-.54a15.37,15.37,0,0,0-3.39,0c-4.34,0-.86-9.91,3.73-6.91C135.7,108.77,136,109,136.36,109.18Z"/><polygon class="cls-92" points="139.2 102.43 138.54 102.46 139.48 107.36 139.2 102.43"/><path class="cls-93" d="M137,105.38a3.36,3.36,0,0,1,2.36,2.88s-.5.9-.84,0S137.84,105.81,137,105.38Z"/><path class="cls-94" d="M138.12,108.54a3.28,3.28,0,0,0-2-1.68A1.89,1.89,0,0,0,138.12,108.54Z"/><path class="cls-95" d="M140,108s-.06-2.6.49-3.53c0,0,.07,1.55.22,2.48S140.68,108.23,140,108Z"/><path class="cls-96" d="M141.78,105.93a1.69,1.69,0,0,0-1,1.7S141.25,107.92,141.78,105.93Z"/></g></g></svg>