<svg id="图层_1" data-name="图层 1" xmlns="http://www.w3.org/2000/svg" viewBox="0 0 145.92 171.18"><defs><style>.cls-1{fill:#a7cb38;}.cls-2{fill:#95bc3d;}.cls-2,.cls-5,.cls-6{fill-rule:evenodd;}.cls-3,.cls-6{fill:#6c933d;}.cls-4{fill:#4e7636;}.cls-5{fill:#fff;}</style></defs><title>竹子</title><rect class="cls-1" x="75.34" y="2.21" width="21.55" height="55.56"/><path class="cls-2" d="M123.52,13h-3c-.27,15.1-2.21,42.13-11.66,55.56h14.66Z" transform="translate(-26.63 -10.82)"/><path class="cls-3" d="M102.41,10.82A2.19,2.19,0,0,0,100.2,13a2.24,2.24,0,0,0,2.21,2.21h20.67A2.24,2.24,0,0,0,125.29,13a2.19,2.19,0,0,0-2.21-2.21Z" transform="translate(-26.63 -10.82)"/><path class="cls-4" d="M120.52,15.24h2.56A2.24,2.24,0,0,0,125.29,13a2.19,2.19,0,0,0-2.21-2.21h-4.24c.09,0,1.86.27,1.68,4.42Z" transform="translate(-26.63 -10.82)"/><path class="cls-5" d="M103.38,59V19.48a2.66,2.66,0,0,1,2.92-2.92h2.47c6.63,0,1.59.53.35.88-1.59.45-2.91,1.24-3.18,2.48-.61,2.56,0,17.75,0,27a65,65,0,0,1-1.14,11.39c-.09.53-1.42,7.16-1.42.62Z" transform="translate(-26.63 -10.82)"/><rect class="cls-1" x="75.34" y="57.77" width="21.55" height="55.56"/><path class="cls-2" d="M123.52,68.59h-3c-.27,15.1-2.21,42.13-11.66,55.56h14.66Z" transform="translate(-26.63 -10.82)"/><path class="cls-3" d="M102.41,66.38a2.21,2.21,0,0,0,0,4.42h20.67a2.21,2.21,0,0,0,0-4.42Z" transform="translate(-26.63 -10.82)"/><path class="cls-4" d="M120.52,70.8h2.56a2.21,2.21,0,0,0,0-4.42h-4.24c.09,0,1.86.26,1.68,4.42Z" transform="translate(-26.63 -10.82)"/><path class="cls-5" d="M103.38,114.52V75.12a2.66,2.66,0,0,1,2.92-2.91h2.47c6.63,0,1.59.44.35.79-1.59.53-2.91,1.33-3.18,2.48-.61,2.65,0,17.75,0,27.11a63.92,63.92,0,0,1-1.14,11.31c-.09.53-1.42,7.15-1.42.62Z" transform="translate(-26.63 -10.82)"/><rect class="cls-1" x="75.34" y="113.32" width="21.55" height="55.65"/><path class="cls-2" d="M123.52,124.15h-3c-.27,15.19-2.21,42.22-11.66,55.64h14.66Z" transform="translate(-26.63 -10.82)"/><path class="cls-3" d="M102.41,121.94a2.24,2.24,0,0,0-2.21,2.21,2.18,2.18,0,0,0,2.21,2.2h20.67a2.18,2.18,0,0,0,2.21-2.2,2.24,2.24,0,0,0-2.21-2.21Z" transform="translate(-26.63 -10.82)"/><path class="cls-4" d="M120.52,126.35h2.56a2.18,2.18,0,0,0,2.21-2.2,2.24,2.24,0,0,0-2.21-2.21h-4.24c.09.09,1.86.26,1.68,4.41Z" transform="translate(-26.63 -10.82)"/><path class="cls-5" d="M103.38,170.16V130.68a2.66,2.66,0,0,1,2.92-2.91h2.47c6.63,0,1.59.44.35.88-1.59.44-2.91,1.24-3.18,2.38-.61,2.65,0,17.76,0,27.12a65.15,65.15,0,0,1-1.14,11.4c-.09.53-1.42,7.15-1.42.61Z" transform="translate(-26.63 -10.82)"/><path class="cls-3" d="M102.41,177.58a2.21,2.21,0,0,0,0,4.42h20.67a2.21,2.21,0,1,0,0-4.42Z" transform="translate(-26.63 -10.82)"/><path class="cls-4" d="M120.52,182h2.56a2.21,2.21,0,1,0,0-4.42h-4.24c.09,0,1.86.27,1.68,4.42Z" transform="translate(-26.63 -10.82)"/><path class="cls-6" d="M126.79,125.21s16.43-20.76,45.75-.62c0,0-15.37,18.37-45.75.62Z" transform="translate(-26.63 -10.82)"/><path class="cls-2" d="M125.91,127.68s22,1,22.7,30.74c0,0-20-1.51-22.7-30.74Z" transform="translate(-26.63 -10.82)"/><rect class="cls-1" x="45.4" y="2.21" width="21.55" height="55.56"/><path class="cls-2" d="M93.58,13h-3c-.27,15.1-2.21,42.13-11.66,55.56H93.58Z" transform="translate(-26.63 -10.82)"/><path class="cls-3" d="M72.47,10.82A2.19,2.19,0,0,0,70.26,13a2.24,2.24,0,0,0,2.21,2.21H93.14A2.31,2.31,0,0,0,95.35,13a2.24,2.24,0,0,0-2.21-2.21Z" transform="translate(-26.63 -10.82)"/><path class="cls-4" d="M90.58,15.24h2.56A2.31,2.31,0,0,0,95.35,13a2.24,2.24,0,0,0-2.21-2.21H88.9c.09,0,1.76.27,1.68,4.42Z" transform="translate(-26.63 -10.82)"/><path class="cls-5" d="M73.44,59V19.48a2.65,2.65,0,0,1,2.91-2.92h2.48c6.62,0,1.5.53.35.88-1.59.45-2.91,1.24-3.18,2.48-.62,2.56,0,17.75,0,27a64.92,64.92,0,0,1-1.15,11.39c-.17.53-1.41,7.16-1.41.62Z" transform="translate(-26.63 -10.82)"/><rect class="cls-1" x="45.4" y="57.77" width="21.55" height="55.56"/><path class="cls-2" d="M93.58,68.59h-3c-.27,15.1-2.21,42.13-11.66,55.56H93.58Z" transform="translate(-26.63 -10.82)"/><path class="cls-3" d="M72.47,66.38a2.21,2.21,0,0,0,0,4.42H93.14a2.21,2.21,0,0,0,0-4.42Z" transform="translate(-26.63 -10.82)"/><path class="cls-4" d="M90.58,70.8h2.56a2.21,2.21,0,0,0,0-4.42H88.9c.09,0,1.76.26,1.68,4.42Z" transform="translate(-26.63 -10.82)"/><path class="cls-5" d="M73.44,114.52V75.12a2.65,2.65,0,0,1,2.91-2.91h2.48c6.62,0,1.5.44.35.79-1.59.53-2.91,1.33-3.18,2.48-.62,2.65,0,17.75,0,27.11a63.82,63.82,0,0,1-1.15,11.31c-.17.53-1.41,7.15-1.41.62Z" transform="translate(-26.63 -10.82)"/><rect class="cls-1" x="45.4" y="113.32" width="21.55" height="55.65"/><path class="cls-2" d="M93.58,124.15h-3c-.27,15.19-2.21,42.22-11.66,55.64H93.58Z" transform="translate(-26.63 -10.82)"/><path class="cls-3" d="M72.47,121.94a2.24,2.24,0,0,0-2.21,2.21,2.18,2.18,0,0,0,2.21,2.2H93.14a2.24,2.24,0,0,0,2.21-2.2,2.31,2.31,0,0,0-2.21-2.21Z" transform="translate(-26.63 -10.82)"/><path class="cls-4" d="M90.58,126.35h2.56a2.24,2.24,0,0,0,2.21-2.2,2.31,2.31,0,0,0-2.21-2.21H88.9c.09.09,1.76.26,1.68,4.41Z" transform="translate(-26.63 -10.82)"/><path class="cls-5" d="M73.44,170.16V130.68a2.65,2.65,0,0,1,2.91-2.91h2.48c6.62,0,1.5.44.35.88-1.59.44-2.91,1.24-3.18,2.38-.62,2.65,0,17.76,0,27.12a65,65,0,0,1-1.15,11.4c-.17.53-1.41,7.15-1.41.61Z" transform="translate(-26.63 -10.82)"/><path class="cls-3" d="M72.47,177.58a2.21,2.21,0,0,0,0,4.42H93.14a2.21,2.21,0,1,0,0-4.42Z" transform="translate(-26.63 -10.82)"/><path class="cls-4" d="M90.58,182h2.56a2.21,2.21,0,1,0,0-4.42H88.9c.09,0,1.76.27,1.68,4.42Z" transform="translate(-26.63 -10.82)"/><path class="cls-6" d="M68.67,70.09s-18.11-16.52-42,6.36c0,0,16.78,14.48,42-6.36Z" transform="translate(-26.63 -10.82)"/><path class="cls-2" d="M68.49,66.64s-5.12-12-30.65-16.78c0,0,5.21,11,30.65,16.78Z" transform="translate(-26.63 -10.82)"/></svg>