<svg xmlns="http://www.w3.org/2000/svg" xmlns:xlink="http://www.w3.org/1999/xlink" viewBox="0 0 200 200"><defs><style>.cls-1{fill:none;}.cls-2{isolation:isolate;}.cls-3{fill:#e79d66;}.cls-4{fill:#915323;}.cls-5{clip-path:url(#clip-path);}.cls-6{fill:#da894f;}.cls-7{fill:#f4b681;}.cls-8{fill:#f7c190;}.cls-9{fill:#dbba9e;mix-blend-mode:multiply;}.cls-10{clip-path:url(#clip-path-3);}.cls-11{clip-path:url(#clip-path-4);}</style><clipPath id="clip-path"><path class="cls-1" d="M47.72,102.25l-3.93,8.14s-2.25,4.93.41,7.38c5.63,5.19,40.88,32.64,59.65,43.53s21.89,13.81,28.67,6.59,37.76-37.31,37.76-37.31,36.64,3.42,25.07-43.69c-13.64-4.48-66.62-12.77-66.62-12.77S49.9,101.39,47.72,102.25Z"/></clipPath><clipPath id="clip-path-3"><path class="cls-1" d="M92.89,71.14S85.27,58.88,103.4,51.62s49.9-5.31,78.35,17.27,14.81,59.31-12.36,52c0,0-35.33,30.87-39.1,33.72s-4.89,6.26-18.73-2.38-56.13-38.91-61.73-43.9S48.47,100,54.6,96.64,92.89,71.14,92.89,71.14Z"/></clipPath><clipPath id="clip-path-4"><path class="cls-1" d="M3.64,112l-1.2,9s-.6,5.38,2.69,6.88c7,3.17,49,18.23,70.26,22.72s25.12,6.28,29.31-2.69,24.21-47.24,24.21-47.24,35.88-8.2,10.17-49.34C124.73,51.32,71.81,60,71.81,60S5.43,110.52,3.64,112Z"/></clipPath></defs><title>食物矿</title><g class="cls-2"><g id="图层_1" data-name="图层 1"><path class="cls-3" d="M47.72,102.25l-3.93,8.14s-2.25,4.93.41,7.38c5.63,5.19,40.88,32.64,59.65,43.53s21.89,13.81,28.67,6.59,37.76-37.31,37.76-37.31,36.64,3.42,25.07-43.69c-13.64-4.48-66.62-12.77-66.62-12.77S49.9,101.39,47.72,102.25Z"/><path class="cls-4" d="M128.73,74.12s53,8.29,66.62,12.77c10.11,41.14-16.56,43.75-23.47,43.75-1,0-1.6-.06-1.6-.06s-31,30.1-37.76,37.31c-2.51,2.68-4.52,4-7,4-4.24,0-9.85-3.7-21.66-10.55-18.77-10.89-54-38.34-59.65-43.53-2.66-2.45-.41-7.38-.41-7.38l3.93-8.14c2.18-.86,81-28.13,81-28.13m-.22-2.46-.56.2C124.73,73,49,99.15,46.84,100l-.86.35-.41.84-3.94,8.14c-1.12,2.47-2.16,7.32.94,10.18,5.51,5.07,40.71,32.6,60.07,43.84,1.66,1,3.19,1.85,4.61,2.69,9.3,5.45,14,8.18,18.26,8.18,3.8,0,6.46-2.26,8.75-4.71,6.08-6.47,32.18-31.88,36.94-36.51h.68c4.38,0,15.31-1,22.26-9.81,6.36-8.12,7.55-20.54,3.53-36.9L197.35,85l-1.26-.41c-13.66-4.49-64.82-12.53-67-12.87l-.59-.09Z"/><g class="cls-5"><path class="cls-6" d="M49.93,109.9s-5.09,4,8.67,15.75S117,171,127,168.29l-.41-6.42s-1.14-2.27,2.44-4.55c0,0,2.3,7.36,9.93.43s30.89-29.81,30.89-29.81S188,132.3,199.52,112.5c0,0-9.41,33.41-19.51,38.27s-31.49,23-38.56,26.35S113.68,185,110,184.72,100,179.85,85,168s-50.61-52.83-50.24-54S38.44,97.94,49.93,109.9Z"/></g><path class="cls-7" d="M92.89,71.14S85.27,58.88,103.4,51.62s49.9-5.31,78.35,17.27,14.81,59.31-12.36,52c0,0-35.33,30.87-39.1,33.72s-4.89,6.26-18.73-2.38-56.13-38.91-61.73-43.9S48.47,100,54.6,96.64,92.89,71.14,92.89,71.14Z"/><path class="cls-4" d="M125,47.85c17,0,37.61,5.86,56.74,21,25.94,20.57,16.9,52.91-5.48,52.91a26.4,26.4,0,0,1-6.88-1s-35.33,30.87-39.1,33.72c-2,1.49-3.21,3.13-5.92,3.13-2.48,0-6.19-1.38-12.81-5.51-13.84-8.64-56.13-38.91-61.73-43.9S48.47,100,54.6,96.64s38.29-25.5,38.29-25.5S85.27,58.88,103.4,51.62A58.67,58.67,0,0,1,125,47.85m0-2.39v0h0a61.39,61.39,0,0,0-22.5,3.94c-7,2.8-11.35,6.69-13,11.57a14.18,14.18,0,0,0,.31,9.34c-6.64,4.57-31.25,21.42-36.41,24.23-3.92,2.13-8.15,4.74-8.6,8.65-.27,2.33.87,4.65,3.38,6.89,5.72,5.09,48.12,35.44,62.05,44.14,6.6,4.12,10.81,5.87,14.08,5.87,3,0,4.76-1.46,6.3-2.75.34-.28.69-.57,1.06-.86,3.5-2.64,32.54-28,38.29-33a28.45,28.45,0,0,0,6.25.73c10.13,0,18.57-6.17,22-16.1C202,97.57,200.23,80.49,183.24,67,165.72,53.12,145,45.46,125,45.46Z"/><path class="cls-8" d="M75.37,87.1c-8.3,5.14-23,13.52-21.88,15.78s47.71,35.83,57.76,41.65,12.51,7.89,19.29.68,36-31.92,36-31.92,18.26,2.86,23.89-8.51-1.89-23-1.89-23-2.16,4.64-11.33,2.89-19.56-19-8.88-19.92c0,0-30-23.7-65.75-9.66,0,0,23.42-6.14,37.73,1.08s21.37,25,10.07,35.41S96,73.12,96,73.12,80.41,84,75.37,87.1Z"/><rect class="cls-4" x="168.93" y="122.53" width="2.39" height="9.38" transform="translate(-9 13.02) rotate(-4.27)"/><rect class="cls-4" x="125.55" y="158.93" width="2.39" height="14.77" transform="translate(-8.99 7.25) rotate(-3.16)"/><path class="cls-6" d="M196.58,90.74c1.73,16.58-10.23,30.56-28,25.76,0,0-35.33,30.87-39.1,33.73s-4.89,6.26-18.73-2.39-56.14-38.91-61.74-43.9a11.74,11.74,0,0,1-1.48-1.59c-.79,1.74-.29,3.67,2.26,5.94,5.6,5,47.89,35.26,61.73,43.9s15,5.23,18.73,2.38,39.1-33.72,39.1-33.72C188.66,126.06,201.1,109.1,196.58,90.74Z"/><path class="cls-6" d="M130.42,139.82c3.84-2.68,4.23-7.11-1.72-3.4S119.39,147.53,130.42,139.82Z"/><path class="cls-6" d="M160.08,109.92c-1.92,1-6.78,7.21-1.49,5.49S165.36,107.25,160.08,109.92Z"/><path class="cls-6" d="M92.71,75.49c-2.81-.11-7.82,4.67-3.85,6S97.06,75.66,92.71,75.49Z"/><path class="cls-6" d="M177.19,84.7c-2.14-2.12-5.68,0-3,3.41S180.51,88,177.19,84.7Z"/><path class="cls-6" d="M182.18,104.91c-2.58-1.41-4.9,2.48-2.72,3.51S185.12,106.5,182.18,104.91Z"/><path class="cls-6" d="M127.23,52.85c-2.27-1.48-6-.07-3.21,2.09S131.11,55.39,127.23,52.85Z"/><path class="cls-7" d="M115.51,101.87c-5.7-2.69-32.85-11.11-42.29-6.35s-.9,19.62,20.46,30.65C122.2,140.9,159.66,122.68,115.51,101.87Z"/><g class="cls-5"><polygon class="cls-9" points="105.89 165.44 109.78 153.88 104.3 150.29 90.14 153.88 105.89 165.44"/></g><g class="cls-10"><path class="cls-9" d="M148.05,49.83s8.37,8.07,8.07,31.09-23.32,25.42-23.32,25.42l-23.92,49.33-7.17-6L120.54,88.4l10.17-44.55Z"/></g><path class="cls-3" d="M3.64,112l-1.2,9s-.6,5.38,2.69,6.88c7,3.17,49,18.23,70.26,22.72s25.12,6.28,29.31-2.69,24.21-47.24,24.21-47.24,35.88-8.2,10.17-49.34C124.73,51.32,71.81,60,71.81,60S5.43,110.52,3.64,112Z"/><path class="cls-4" d="M139.08,51.32c25.71,41.14-10.17,49.34-10.17,49.34s-20,38.27-24.21,47.24c-2.17,4.63-4.25,6.4-8.69,6.4-4.15,0-10.36-1.54-20.62-3.71C54.17,146.1,12.11,131,5.13,127.87,1.84,126.37,2.44,121,2.44,121l1.2-9c1.79-1.5,68.17-52,68.17-52s52.92-8.68,67.27-8.68m1.33-2.39h-1.33c-14.38,0-65.49,8.35-67.66,8.71l-.59.09-.47.36c-2.71,2.07-66.44,50.58-68.25,52.09l-.72.6-.12.92-1.2,9c-.3,2.69.23,7.63,4.07,9.37C11,133.14,53,148.3,74.9,152.93c1.87.39,3.61.77,5.22,1.12,7.37,1.59,12.24,2.64,15.89,2.64,6,0,8.61-3,10.85-7.78,3.76-8,20.61-40.33,23.69-46.22,3.46-1,14-5,18.33-15.47,4.1-9.85,1.48-22.36-7.77-37.16l-.7-1.13Z"/><g class="cls-11"><path class="cls-6" d="M8.12,118.6S4.53,124,21.28,130.86,90.94,155.67,99.61,150l-2.39-6s-1.79-1.79.9-5.08c0,0,4.48,6.28,9.57-2.69s20-38,20-38,18.54-1.5,23.32-23.92c0,0,1.49,34.68-6.58,42.45s-22.72,31.7-28.4,37.08-23.92,16.14-27.51,17-11.06-1.49-29-8.07S-5,128.46-5,127.27-6.53,110.82,8.12,118.6Z"/></g><path class="cls-7" d="M36.83,68.37S25.76,59.1,40.71,46.54s45.75-20.63,79.83-8.07S153.13,90.19,125,91.69c0,0-23.92,40.36-26.61,44.25s-2.69,7.47-18.54,3.59S14.4,120.09,7.52,117.1s-3.88-7.47.9-12.55S36.83,68.37,36.83,68.37Z"/><path class="cls-4" d="M86.21,32.17a99.09,99.09,0,0,1,34.33,6.3C154.63,51,153.13,90.19,125,91.69c0,0-23.92,40.36-26.61,44.25-1.87,2.7-2.45,5.26-8,5.26a47.16,47.16,0,0,1-10.59-1.67C64,135.64,14.4,120.09,7.52,117.1s-3.88-7.47.9-12.55S36.83,68.37,36.83,68.37,25.76,59.1,40.71,46.54c9.67-8.12,26-14.37,45.5-14.37m0-2.39c-18.33,0-35.92,5.58-47,14.93-5.76,4.84-8.68,9.9-8.68,15a14.24,14.24,0,0,0,3.21,8.78c-4.89,6.41-23,30.11-27,34.39-3.06,3.25-6.26,7-5.47,10.9.48,2.3,2.28,4.15,5.36,5.49,7,3,56.78,18.64,72.74,22.55a49.69,49.69,0,0,0,11.16,1.74c6,0,7.75-2.85,9.17-5.14.23-.37.47-.76.74-1.15,2.49-3.6,22.17-36.75,26.07-43.32,11.77-1.11,20.06-8.63,21.76-19.89,1.93-12.77-5.65-30.06-26.84-37.87a101.64,101.64,0,0,0-35.15-6.44Z"/><path class="cls-8" d="M25.16,89c-6.27,7.47-17.64,20-15.84,21.82S65.83,130,77.19,132.35s14.35,3.59,18.54-5.38,24.21-41.56,24.21-41.56,18.24-3,20-15.55-9-21.23-9-21.23-.6,5.09-9.87,6.28S96.62,43,106.49,38.77c0,0-35.88-13.16-65.48,11.36,0,0,20.33-13.16,36.18-10.76s28.1,17,20.63,30.49-57.41-.6-57.41-.6S29,84.45,25.16,89Z"/><rect class="cls-4" x="126.52" y="92.83" width="2.39" height="9.38" transform="translate(-27.58 56.24) rotate(-22.48)"/><rect class="cls-4" x="97.52" y="140.81" width="2.39" height="14.77" transform="translate(-47.22 46.16) rotate(-21.37)"/><path class="cls-6" d="M141.45,54.6c6.83,15.2-.17,32.23-18.52,33.2,0,0-23.91,40.37-26.61,44.25s-2.69,7.48-18.53,3.59S12.31,116.21,5.43,113.22a11.53,11.53,0,0,1-1.91-1c-.2,1.9.87,3.57,4,4.93,6.88,3,56.51,18.54,72.36,22.43s15.85.3,18.54-3.59S125,91.69,125,91.69C145,90.63,151.49,70.63,141.45,54.6Z"/><path class="cls-6" d="M93.93,121.89c2.81-3.75,1.8-8.08-2.69-2.69S85.86,132.65,93.93,121.89Z"/><path class="cls-6" d="M112.77,84.21c-1.53,1.53-4.19,9,.3,5.68S117,80,112.77,84.21Z"/><path class="cls-6" d="M38,72.55c-2.71.78-6,6.88-1.79,6.88S42.21,71.36,38,72.55Z"/><path class="cls-6" d="M121.14,54.91c-2.69-1.34-5.38,1.8-1.79,4.19S125.33,57,121.14,54.91Z"/><path class="cls-6" d="M132.2,72.55c-2.89-.52-3.88,3.89-1.49,4.19S135.49,73.15,132.2,72.55Z"/><path class="cls-6" d="M63.73,40.26c-2.61-.7-5.68,1.8-2.39,3S68.22,41.46,63.73,40.26Z"/><path class="cls-7" d="M67.92,90.49c-6.26-.77-34.68-.3-42.16,7.18s5.27,18.91,29,22.72C86.46,125.47,116.36,96.47,67.92,90.49Z"/></g></g></svg>